<svg width="343" height="253" viewBox="0 0 343 253" fill="none" xmlns="http://www.w3.org/2000/svg">
<g opacity="0.4">
<path d="M765.696 530.472C766.217 528.908 764.729 527.421 763.166 527.942L756.488 530.168C755.078 530.638 754.655 532.428 755.707 533.479L760.158 537.931C761.209 538.982 763 538.56 763.47 537.149L765.696 530.472Z" fill="url(#paint0_linear_2146_539)"/>
<path d="M691.501 604.666C692.022 603.102 690.535 601.615 688.971 602.136L679.175 605.402C677.765 605.872 677.342 607.662 678.393 608.713L684.924 615.244C685.976 616.295 687.766 615.873 688.236 614.462L691.501 604.666Z" fill="url(#paint1_linear_2146_539)"/>
<path d="M616.267 679.9C616.788 678.336 615.301 676.849 613.737 677.37L603.941 680.635C602.531 681.106 602.108 682.896 603.16 683.947L609.69 690.478C610.742 691.529 612.532 691.107 613.002 689.696L616.267 679.9Z" fill="url(#paint2_linear_2146_539)"/>
<path d="M539.994 756.173C540.515 754.61 539.027 753.122 537.464 753.644L530.787 755.869C529.376 756.34 528.954 758.13 530.005 759.181L534.456 763.633C535.508 764.684 537.298 764.261 537.768 762.851L539.994 756.173Z" fill="url(#paint3_linear_2146_539)"/>
<path d="M766.735 378.964C767.256 377.401 765.769 375.913 764.205 376.434L754.409 379.7C752.999 380.17 752.576 381.96 753.627 383.011L760.158 389.542C761.209 390.593 763 390.171 763.47 388.76L766.735 378.964Z" fill="url(#paint4_linear_2146_539)"/>
<path d="M693.58 452.119C694.102 450.555 692.614 449.068 691.051 449.589L675.017 454.934C673.606 455.404 673.184 457.194 674.235 458.245L684.924 468.934C685.976 469.986 687.766 469.563 688.236 468.153L693.58 452.119Z" fill="url(#paint5_linear_2146_539)"/>
<path d="M620.453 525.246C620.974 523.683 619.487 522.195 617.923 522.716L595.57 530.168C594.159 530.638 593.737 532.428 594.788 533.479L609.69 548.381C610.742 549.433 612.532 549.01 613.002 547.6L620.453 525.246Z" fill="url(#paint6_linear_2146_539)"/>
<path d="M545.219 600.48C545.74 598.917 544.253 597.429 542.689 597.95L520.336 605.402C518.925 605.872 518.503 607.662 519.554 608.713L534.456 623.615C535.508 624.667 537.298 624.244 537.768 622.834L545.219 600.48Z" fill="url(#paint7_linear_2146_539)"/>
<path d="M467.879 677.821C468.4 676.257 466.912 674.77 465.349 675.291L449.315 680.635C447.905 681.106 447.482 682.896 448.533 683.947L459.223 694.636C460.274 695.688 462.064 695.265 462.534 693.854L467.879 677.821Z" fill="url(#paint8_linear_2146_539)"/>
<path d="M390.566 755.134C391.087 753.57 389.599 752.083 388.036 752.604L378.24 755.869C376.829 756.34 376.407 758.13 377.458 759.181L383.989 765.712C385.04 766.763 386.83 766.34 387.3 764.93L390.566 755.134Z" fill="url(#paint9_linear_2146_539)"/>
<path d="M765.695 229.536C766.217 227.973 764.729 226.485 763.166 227.006L756.488 229.232C755.078 229.702 754.655 231.492 755.707 232.544L760.158 236.995C761.209 238.046 763 237.624 763.47 236.213L765.695 229.536Z" fill="url(#paint10_linear_2146_539)"/>
<path d="M693.58 301.651C694.102 300.088 692.614 298.6 691.051 299.121L675.017 304.466C673.606 304.936 673.184 306.726 674.235 307.777L684.924 318.467C685.976 319.518 687.766 319.095 688.236 317.685L693.58 301.651Z" fill="url(#paint11_linear_2146_539)"/>
<path d="M621.493 373.739C622.014 372.175 620.526 370.688 618.963 371.209L593.491 379.7C592.08 380.17 591.658 381.96 592.709 383.011L609.69 399.993C610.742 401.044 612.532 400.622 613.002 399.211L621.493 373.739Z" fill="url(#paint12_linear_2146_539)"/>
<path d="M549.378 445.854C549.899 444.291 548.411 442.803 546.848 443.324L512.019 454.934C510.609 455.404 510.186 457.194 511.237 458.245L534.456 481.464C535.508 482.516 537.298 482.093 537.768 480.683L549.378 445.854Z" fill="url(#paint13_linear_2146_539)"/>
<path d="M474.144 521.088C474.665 519.524 473.177 518.037 471.614 518.558L436.785 530.168C435.375 530.638 434.952 532.428 436.003 533.479L459.223 556.698C460.274 557.75 462.064 557.327 462.534 555.917L474.144 521.088Z" fill="url(#paint14_linear_2146_539)"/>
<path d="M395.791 599.441C396.312 597.877 394.825 596.39 393.261 596.911L367.789 605.402C366.378 605.872 365.956 607.662 367.007 608.713L383.989 625.695C385.04 626.746 386.83 626.323 387.3 624.913L395.791 599.441Z" fill="url(#paint15_linear_2146_539)"/>
<path d="M317.411 677.821C317.932 676.257 316.445 674.77 314.881 675.291L298.847 680.635C297.437 681.106 297.014 682.896 298.066 683.947L308.755 694.636C309.806 695.688 311.596 695.265 312.066 693.854L317.411 677.821Z" fill="url(#paint16_linear_2146_539)"/>
<path d="M239.058 756.173C239.579 754.61 238.092 753.122 236.528 753.644L229.851 755.869C228.44 756.34 228.018 758.13 229.069 759.181L233.521 763.633C234.572 764.684 236.362 764.261 236.832 762.851L239.058 756.173Z" fill="url(#paint17_linear_2146_539)"/>
<path d="M691.501 153.263C692.022 151.699 690.535 150.212 688.971 150.733L679.175 153.998C677.765 154.468 677.342 156.258 678.393 157.31L684.924 163.84C685.976 164.892 687.766 164.469 688.236 163.059L691.501 153.263Z" fill="url(#paint18_linear_2146_539)"/>
<path d="M620.453 224.311C620.974 222.747 619.487 221.26 617.923 221.781L595.57 229.232C594.159 229.702 593.737 231.492 594.788 232.544L609.69 247.446C610.742 248.497 612.532 248.075 613.002 246.664L620.453 224.311Z" fill="url(#paint19_linear_2146_539)"/>
<path d="M549.378 295.386C549.899 293.823 548.411 292.335 546.848 292.856L512.019 304.466C510.609 304.936 510.186 306.726 511.237 307.777L534.456 330.997C535.508 332.048 537.298 331.625 537.768 330.215L549.378 295.386Z" fill="url(#paint20_linear_2146_539)"/>
<path d="M478.329 366.434C478.851 364.871 477.363 363.383 475.8 363.905L428.414 379.7C427.003 380.17 426.581 381.96 427.632 383.011L459.223 414.602C460.274 415.653 462.064 415.231 462.534 413.82L478.329 366.434Z" fill="url(#paint21_linear_2146_539)"/>
<path d="M403.095 441.668C403.617 440.105 402.129 438.617 400.566 439.138L353.18 454.934C351.769 455.404 351.347 457.194 352.398 458.245L383.989 489.836C385.04 490.887 386.83 490.465 387.3 489.054L403.095 441.668Z" fill="url(#paint22_linear_2146_539)"/>
<path d="M323.676 521.088C324.197 519.524 322.71 518.037 321.146 518.558L286.317 530.168C284.907 530.638 284.484 532.428 285.536 533.479L308.755 556.698C309.806 557.75 311.596 557.327 312.066 555.917L323.676 521.088Z" fill="url(#paint23_linear_2146_539)"/>
<path d="M244.284 600.48C244.805 598.917 243.317 597.429 241.754 597.95L219.4 605.402C217.99 605.872 217.567 607.662 218.619 608.713L233.521 623.615C234.572 624.667 236.362 624.244 236.832 622.834L244.284 600.48Z" fill="url(#paint24_linear_2146_539)"/>
<path d="M164.864 679.9C165.385 678.336 163.898 676.849 162.334 677.37L152.538 680.635C151.127 681.106 150.705 682.896 151.756 683.947L158.287 690.478C159.338 691.529 161.128 691.107 161.598 689.696L164.864 679.9Z" fill="url(#paint25_linear_2146_539)"/>
<path d="M616.267 78.0286C616.788 76.4651 615.301 74.9776 613.737 75.4988L603.941 78.7642C602.531 79.2344 602.108 81.0245 603.16 82.0758L609.69 88.6066C610.742 89.6579 612.532 89.2353 613.002 87.8248L616.267 78.0286Z" fill="url(#paint26_linear_2146_539)"/>
<path d="M545.219 149.077C545.74 147.513 544.253 146.026 542.689 146.547L520.336 153.998C518.925 154.468 518.503 156.258 519.554 157.31L534.456 172.212C535.508 173.263 537.298 172.841 537.768 171.43L545.219 149.077Z" fill="url(#paint27_linear_2146_539)"/>
<path d="M474.144 220.152C474.665 218.589 473.177 217.101 471.614 217.622L436.785 229.232C435.375 229.702 434.952 231.492 436.003 232.544L459.223 255.763C460.274 256.814 462.064 256.391 462.534 254.981L474.144 220.152Z" fill="url(#paint28_linear_2146_539)"/>
<path d="M403.095 291.201C403.617 289.637 402.129 288.15 400.566 288.671L353.18 304.466C351.769 304.936 351.347 306.726 352.398 307.777L383.989 339.368C385.04 340.419 386.83 339.997 387.3 338.586L403.095 291.201Z" fill="url(#paint29_linear_2146_539)"/>
<path d="M327.862 366.434C328.383 364.871 326.895 363.383 325.332 363.905L277.946 379.7C276.535 380.17 276.113 381.96 277.164 383.011L308.755 414.602C309.806 415.653 311.596 415.231 312.066 413.82L327.862 366.434Z" fill="url(#paint30_linear_2146_539)"/>
<path d="M248.442 445.854C248.963 444.291 247.476 442.803 245.912 443.324L211.084 454.934C209.673 455.404 209.25 457.194 210.302 458.245L233.521 481.464C234.572 482.516 236.362 482.093 236.832 480.683L248.442 445.854Z" fill="url(#paint31_linear_2146_539)"/>
<path d="M169.05 525.246C169.571 523.683 168.083 522.195 166.52 522.716L144.166 530.168C142.756 530.638 142.333 532.428 143.385 533.479L158.287 548.381C159.338 549.433 161.128 549.01 161.598 547.6L169.05 525.246Z" fill="url(#paint32_linear_2146_539)"/>
<path d="M89.6299 604.666C90.1511 603.102 88.6636 601.615 87.1001 602.136L77.304 605.402C75.8935 605.872 75.4709 607.662 76.5222 608.713L83.0529 615.244C84.1042 616.295 85.8943 615.873 86.3645 614.462L89.6299 604.666Z" fill="url(#paint33_linear_2146_539)"/>
<path d="M539.994 3.83432C540.515 2.2708 539.027 0.783322 537.464 1.30449L530.787 3.53028C529.376 4.00044 528.954 5.79056 530.005 6.84186L534.456 11.2934C535.508 12.3447 537.298 11.9221 537.768 10.5117L539.994 3.83432Z" fill="url(#paint34_linear_2146_539)"/>
<path d="M467.879 75.9494C468.4 74.3859 466.912 72.8984 465.349 73.4196L449.315 78.7642C447.905 79.2343 447.482 81.0245 448.533 82.0758L459.223 92.7649C460.274 93.8162 462.064 93.3936 462.534 91.9832L467.879 75.9494Z" fill="url(#paint35_linear_2146_539)"/>
<path d="M395.791 148.037C396.312 146.474 394.825 144.986 393.261 145.507L367.789 153.998C366.378 154.468 365.956 156.258 367.007 157.31L383.989 174.291C385.04 175.342 386.83 174.92 387.3 173.509L395.791 148.037Z" fill="url(#paint36_linear_2146_539)"/>
<path d="M323.676 220.152C324.197 218.589 322.71 217.101 321.146 217.622L286.317 229.232C284.907 229.702 284.484 231.492 285.536 232.544L308.755 255.763C309.806 256.814 311.596 256.391 312.066 254.981L323.676 220.152Z" fill="url(#paint37_linear_2146_539)"/>
<path d="M248.442 295.386C248.963 293.823 247.476 292.335 245.912 292.856L211.084 304.466C209.673 304.936 209.25 306.726 210.302 307.777L233.521 330.997C234.572 332.048 236.362 331.625 236.832 330.215L248.442 295.386Z" fill="url(#paint38_linear_2146_539)"/>
<path d="M170.089 373.739C170.61 372.175 169.123 370.688 167.559 371.209L142.087 379.7C140.677 380.17 140.254 381.96 141.305 383.011L158.287 399.993C159.338 401.044 161.128 400.622 161.599 399.211L170.089 373.739Z" fill="url(#paint39_linear_2146_539)"/>
<path d="M91.7091 452.119C92.2302 450.555 90.7428 449.068 89.1793 449.589L73.1456 454.934C71.7351 455.404 71.3125 457.194 72.3638 458.245L83.0529 468.934C84.1042 469.986 85.8943 469.563 86.3644 468.153L91.7091 452.119Z" fill="url(#paint40_linear_2146_539)"/>
<path d="M13.3564 530.472C13.8776 528.908 12.3901 527.421 10.8266 527.942L4.14923 530.168C2.73877 530.638 2.31616 532.428 3.36743 533.479L7.81903 537.931C8.8703 538.982 10.6604 538.56 11.1306 537.149L13.3564 530.472Z" fill="url(#paint41_linear_2146_539)"/>
<path d="M390.566 2.79473C391.087 1.23122 389.599 -0.256262 388.036 0.26491L378.24 3.5303C376.829 4.00045 376.407 5.79057 377.458 6.84188L383.989 13.3726C385.04 14.4239 386.83 14.0014 387.3 12.5909L390.566 2.79473Z" fill="url(#paint42_linear_2146_539)"/>
<path d="M317.411 75.9494C317.932 74.3859 316.445 72.8984 314.881 73.4196L298.847 78.7642C297.437 79.2343 297.014 81.0245 298.066 82.0758L308.755 92.7649C309.806 93.8162 311.596 93.3936 312.066 91.9832L317.411 75.9494Z" fill="url(#paint43_linear_2146_539)"/>
<path d="M244.284 149.077C244.805 147.513 243.317 146.026 241.754 146.547L219.4 153.998C217.99 154.468 217.567 156.258 218.619 157.31L233.521 172.212C234.572 173.263 236.362 172.841 236.832 171.43L244.284 149.077Z" fill="url(#paint44_linear_2146_539)"/>
<path d="M169.05 224.311C169.571 222.747 168.083 221.26 166.52 221.781L144.166 229.232C142.756 229.702 142.333 231.492 143.385 232.544L158.287 247.446C159.338 248.497 161.128 248.075 161.598 246.664L169.05 224.311Z" fill="url(#paint45_linear_2146_539)"/>
<path d="M91.7091 301.651C92.2302 300.088 90.7428 298.6 89.1793 299.121L73.1456 304.466C71.7351 304.936 71.3125 306.726 72.3638 307.777L83.0529 318.467C84.1042 319.518 85.8943 319.095 86.3644 317.685L91.7091 301.651Z" fill="url(#paint46_linear_2146_539)"/>
<path d="M14.3961 378.964C14.9172 377.401 13.4297 375.913 11.8662 376.434L2.07001 379.7C0.659546 380.17 0.236938 381.96 1.28827 383.011L7.81903 389.542C8.87036 390.593 10.6605 390.171 11.1306 388.76L14.3961 378.964Z" fill="url(#paint47_linear_2146_539)"/>
<path d="M239.058 3.83431C239.579 2.27079 238.092 0.783313 236.528 1.30449L229.851 3.53027C228.44 4.00043 228.018 5.79055 229.069 6.84186L233.521 11.2934C234.572 12.3447 236.362 11.9221 236.832 10.5117L239.058 3.83431Z" fill="url(#paint48_linear_2146_539)"/>
<path d="M164.864 78.0286C165.385 76.4651 163.898 74.9776 162.334 75.4988L152.538 78.7642C151.127 79.2344 150.705 81.0245 151.756 82.0758L158.287 88.6066C159.338 89.6579 161.128 89.2353 161.598 87.8248L164.864 78.0286Z" fill="url(#paint49_linear_2146_539)"/>
<path d="M89.6299 153.263C90.1511 151.699 88.6636 150.212 87.1001 150.733L77.304 153.998C75.8935 154.468 75.4709 156.258 76.5222 157.31L83.0529 163.84C84.1042 164.892 85.8943 164.469 86.3645 163.059L89.6299 153.263Z" fill="url(#paint50_linear_2146_539)"/>
<path d="M13.3564 229.536C13.8776 227.973 12.3901 226.485 10.8266 227.006L4.14923 229.232C2.73877 229.702 2.31616 231.492 3.36743 232.544L7.81903 236.995C8.8703 238.046 10.6604 237.624 11.1306 236.213L13.3564 229.536Z" fill="url(#paint51_linear_2146_539)"/>
</g>
<defs>
<linearGradient id="paint0_linear_2146_539" x1="383.5" y1="-130.145" x2="383.5" y2="996.939" gradientUnits="userSpaceOnUse">
<stop stop-color="#FBC75E"/>
<stop offset="0.374637" stop-color="#FABB49"/>
<stop offset="1" stop-color="#EB652B"/>
</linearGradient>
<linearGradient id="paint1_linear_2146_539" x1="383.5" y1="-130.145" x2="383.5" y2="996.939" gradientUnits="userSpaceOnUse">
<stop stop-color="#FBC75E"/>
<stop offset="0.374637" stop-color="#FABB49"/>
<stop offset="1" stop-color="#EB652B"/>
</linearGradient>
<linearGradient id="paint2_linear_2146_539" x1="383.5" y1="-130.145" x2="383.5" y2="996.939" gradientUnits="userSpaceOnUse">
<stop stop-color="#FBC75E"/>
<stop offset="0.374637" stop-color="#FABB49"/>
<stop offset="1" stop-color="#EB652B"/>
</linearGradient>
<linearGradient id="paint3_linear_2146_539" x1="383.5" y1="-130.145" x2="383.5" y2="996.939" gradientUnits="userSpaceOnUse">
<stop stop-color="#FBC75E"/>
<stop offset="0.374637" stop-color="#FABB49"/>
<stop offset="1" stop-color="#EB652B"/>
</linearGradient>
<linearGradient id="paint4_linear_2146_539" x1="383.5" y1="-130.145" x2="383.5" y2="996.939" gradientUnits="userSpaceOnUse">
<stop stop-color="#FBC75E"/>
<stop offset="0.374637" stop-color="#FABB49"/>
<stop offset="1" stop-color="#EB652B"/>
</linearGradient>
<linearGradient id="paint5_linear_2146_539" x1="383.5" y1="-130.145" x2="383.5" y2="996.939" gradientUnits="userSpaceOnUse">
<stop stop-color="#FBC75E"/>
<stop offset="0.374637" stop-color="#FABB49"/>
<stop offset="1" stop-color="#EB652B"/>
</linearGradient>
<linearGradient id="paint6_linear_2146_539" x1="383.5" y1="-130.145" x2="383.5" y2="996.939" gradientUnits="userSpaceOnUse">
<stop stop-color="#FBC75E"/>
<stop offset="0.374637" stop-color="#FABB49"/>
<stop offset="1" stop-color="#EB652B"/>
</linearGradient>
<linearGradient id="paint7_linear_2146_539" x1="383.5" y1="-130.145" x2="383.5" y2="996.939" gradientUnits="userSpaceOnUse">
<stop stop-color="#FBC75E"/>
<stop offset="0.374637" stop-color="#FABB49"/>
<stop offset="1" stop-color="#EB652B"/>
</linearGradient>
<linearGradient id="paint8_linear_2146_539" x1="383.5" y1="-130.145" x2="383.5" y2="996.939" gradientUnits="userSpaceOnUse">
<stop stop-color="#FBC75E"/>
<stop offset="0.374637" stop-color="#FABB49"/>
<stop offset="1" stop-color="#EB652B"/>
</linearGradient>
<linearGradient id="paint9_linear_2146_539" x1="383.5" y1="-130.145" x2="383.5" y2="996.939" gradientUnits="userSpaceOnUse">
<stop stop-color="#FBC75E"/>
<stop offset="0.374637" stop-color="#FABB49"/>
<stop offset="1" stop-color="#EB652B"/>
</linearGradient>
<linearGradient id="paint10_linear_2146_539" x1="383.5" y1="-130.145" x2="383.5" y2="996.939" gradientUnits="userSpaceOnUse">
<stop stop-color="#FBC75E"/>
<stop offset="0.374637" stop-color="#FABB49"/>
<stop offset="1" stop-color="#EB652B"/>
</linearGradient>
<linearGradient id="paint11_linear_2146_539" x1="383.5" y1="-130.145" x2="383.5" y2="996.939" gradientUnits="userSpaceOnUse">
<stop stop-color="#FBC75E"/>
<stop offset="0.374637" stop-color="#FABB49"/>
<stop offset="1" stop-color="#EB652B"/>
</linearGradient>
<linearGradient id="paint12_linear_2146_539" x1="383.5" y1="-130.145" x2="383.5" y2="996.939" gradientUnits="userSpaceOnUse">
<stop stop-color="#FBC75E"/>
<stop offset="0.374637" stop-color="#FABB49"/>
<stop offset="1" stop-color="#EB652B"/>
</linearGradient>
<linearGradient id="paint13_linear_2146_539" x1="383.5" y1="-130.145" x2="383.5" y2="996.939" gradientUnits="userSpaceOnUse">
<stop stop-color="#FBC75E"/>
<stop offset="0.374637" stop-color="#FABB49"/>
<stop offset="1" stop-color="#EB652B"/>
</linearGradient>
<linearGradient id="paint14_linear_2146_539" x1="383.5" y1="-130.145" x2="383.5" y2="996.939" gradientUnits="userSpaceOnUse">
<stop stop-color="#FBC75E"/>
<stop offset="0.374637" stop-color="#FABB49"/>
<stop offset="1" stop-color="#EB652B"/>
</linearGradient>
<linearGradient id="paint15_linear_2146_539" x1="383.5" y1="-130.145" x2="383.5" y2="996.939" gradientUnits="userSpaceOnUse">
<stop stop-color="#FBC75E"/>
<stop offset="0.374637" stop-color="#FABB49"/>
<stop offset="1" stop-color="#EB652B"/>
</linearGradient>
<linearGradient id="paint16_linear_2146_539" x1="383.5" y1="-130.145" x2="383.5" y2="996.939" gradientUnits="userSpaceOnUse">
<stop stop-color="#FBC75E"/>
<stop offset="0.374637" stop-color="#FABB49"/>
<stop offset="1" stop-color="#EB652B"/>
</linearGradient>
<linearGradient id="paint17_linear_2146_539" x1="383.5" y1="-130.145" x2="383.5" y2="996.939" gradientUnits="userSpaceOnUse">
<stop stop-color="#FBC75E"/>
<stop offset="0.374637" stop-color="#FABB49"/>
<stop offset="1" stop-color="#EB652B"/>
</linearGradient>
<linearGradient id="paint18_linear_2146_539" x1="383.5" y1="-130.145" x2="383.5" y2="996.939" gradientUnits="userSpaceOnUse">
<stop stop-color="#FBC75E"/>
<stop offset="0.374637" stop-color="#FABB49"/>
<stop offset="1" stop-color="#EB652B"/>
</linearGradient>
<linearGradient id="paint19_linear_2146_539" x1="383.5" y1="-130.145" x2="383.5" y2="996.939" gradientUnits="userSpaceOnUse">
<stop stop-color="#FBC75E"/>
<stop offset="0.374637" stop-color="#FABB49"/>
<stop offset="1" stop-color="#EB652B"/>
</linearGradient>
<linearGradient id="paint20_linear_2146_539" x1="383.5" y1="-130.145" x2="383.5" y2="996.939" gradientUnits="userSpaceOnUse">
<stop stop-color="#FBC75E"/>
<stop offset="0.374637" stop-color="#FABB49"/>
<stop offset="1" stop-color="#EB652B"/>
</linearGradient>
<linearGradient id="paint21_linear_2146_539" x1="383.5" y1="-130.145" x2="383.5" y2="996.939" gradientUnits="userSpaceOnUse">
<stop stop-color="#FBC75E"/>
<stop offset="0.374637" stop-color="#FABB49"/>
<stop offset="1" stop-color="#EB652B"/>
</linearGradient>
<linearGradient id="paint22_linear_2146_539" x1="383.5" y1="-130.145" x2="383.5" y2="996.939" gradientUnits="userSpaceOnUse">
<stop stop-color="#FBC75E"/>
<stop offset="0.374637" stop-color="#FABB49"/>
<stop offset="1" stop-color="#EB652B"/>
</linearGradient>
<linearGradient id="paint23_linear_2146_539" x1="383.5" y1="-130.145" x2="383.5" y2="996.939" gradientUnits="userSpaceOnUse">
<stop stop-color="#FBC75E"/>
<stop offset="0.374637" stop-color="#FABB49"/>
<stop offset="1" stop-color="#EB652B"/>
</linearGradient>
<linearGradient id="paint24_linear_2146_539" x1="383.5" y1="-130.145" x2="383.5" y2="996.939" gradientUnits="userSpaceOnUse">
<stop stop-color="#FBC75E"/>
<stop offset="0.374637" stop-color="#FABB49"/>
<stop offset="1" stop-color="#EB652B"/>
</linearGradient>
<linearGradient id="paint25_linear_2146_539" x1="383.5" y1="-130.145" x2="383.5" y2="996.939" gradientUnits="userSpaceOnUse">
<stop stop-color="#FBC75E"/>
<stop offset="0.374637" stop-color="#FABB49"/>
<stop offset="1" stop-color="#EB652B"/>
</linearGradient>
<linearGradient id="paint26_linear_2146_539" x1="383.5" y1="-130.145" x2="383.5" y2="996.939" gradientUnits="userSpaceOnUse">
<stop stop-color="#FBC75E"/>
<stop offset="0.374637" stop-color="#FABB49"/>
<stop offset="1" stop-color="#EB652B"/>
</linearGradient>
<linearGradient id="paint27_linear_2146_539" x1="383.5" y1="-130.145" x2="383.5" y2="996.939" gradientUnits="userSpaceOnUse">
<stop stop-color="#FBC75E"/>
<stop offset="0.374637" stop-color="#FABB49"/>
<stop offset="1" stop-color="#EB652B"/>
</linearGradient>
<linearGradient id="paint28_linear_2146_539" x1="383.5" y1="-130.145" x2="383.5" y2="996.939" gradientUnits="userSpaceOnUse">
<stop stop-color="#FBC75E"/>
<stop offset="0.374637" stop-color="#FABB49"/>
<stop offset="1" stop-color="#EB652B"/>
</linearGradient>
<linearGradient id="paint29_linear_2146_539" x1="383.5" y1="-130.145" x2="383.5" y2="996.939" gradientUnits="userSpaceOnUse">
<stop stop-color="#FBC75E"/>
<stop offset="0.374637" stop-color="#FABB49"/>
<stop offset="1" stop-color="#EB652B"/>
</linearGradient>
<linearGradient id="paint30_linear_2146_539" x1="383.5" y1="-130.145" x2="383.5" y2="996.939" gradientUnits="userSpaceOnUse">
<stop stop-color="#FBC75E"/>
<stop offset="0.374637" stop-color="#FABB49"/>
<stop offset="1" stop-color="#EB652B"/>
</linearGradient>
<linearGradient id="paint31_linear_2146_539" x1="383.5" y1="-130.145" x2="383.5" y2="996.939" gradientUnits="userSpaceOnUse">
<stop stop-color="#FBC75E"/>
<stop offset="0.374637" stop-color="#FABB49"/>
<stop offset="1" stop-color="#EB652B"/>
</linearGradient>
<linearGradient id="paint32_linear_2146_539" x1="383.5" y1="-130.145" x2="383.5" y2="996.939" gradientUnits="userSpaceOnUse">
<stop stop-color="#FBC75E"/>
<stop offset="0.374637" stop-color="#FABB49"/>
<stop offset="1" stop-color="#EB652B"/>
</linearGradient>
<linearGradient id="paint33_linear_2146_539" x1="383.5" y1="-130.145" x2="383.5" y2="996.939" gradientUnits="userSpaceOnUse">
<stop stop-color="#FBC75E"/>
<stop offset="0.374637" stop-color="#FABB49"/>
<stop offset="1" stop-color="#EB652B"/>
</linearGradient>
<linearGradient id="paint34_linear_2146_539" x1="383.5" y1="-130.145" x2="383.5" y2="996.939" gradientUnits="userSpaceOnUse">
<stop stop-color="#FBC75E"/>
<stop offset="0.374637" stop-color="#FABB49"/>
<stop offset="1" stop-color="#EB652B"/>
</linearGradient>
<linearGradient id="paint35_linear_2146_539" x1="383.5" y1="-130.145" x2="383.5" y2="996.939" gradientUnits="userSpaceOnUse">
<stop stop-color="#FBC75E"/>
<stop offset="0.374637" stop-color="#FABB49"/>
<stop offset="1" stop-color="#EB652B"/>
</linearGradient>
<linearGradient id="paint36_linear_2146_539" x1="383.5" y1="-130.145" x2="383.5" y2="996.939" gradientUnits="userSpaceOnUse">
<stop stop-color="#FBC75E"/>
<stop offset="0.374637" stop-color="#FABB49"/>
<stop offset="1" stop-color="#EB652B"/>
</linearGradient>
<linearGradient id="paint37_linear_2146_539" x1="383.5" y1="-130.145" x2="383.5" y2="996.939" gradientUnits="userSpaceOnUse">
<stop stop-color="#FBC75E"/>
<stop offset="0.374637" stop-color="#FABB49"/>
<stop offset="1" stop-color="#EB652B"/>
</linearGradient>
<linearGradient id="paint38_linear_2146_539" x1="383.5" y1="-130.145" x2="383.5" y2="996.939" gradientUnits="userSpaceOnUse">
<stop stop-color="#FBC75E"/>
<stop offset="0.374637" stop-color="#FABB49"/>
<stop offset="1" stop-color="#EB652B"/>
</linearGradient>
<linearGradient id="paint39_linear_2146_539" x1="383.5" y1="-130.145" x2="383.5" y2="996.939" gradientUnits="userSpaceOnUse">
<stop stop-color="#FBC75E"/>
<stop offset="0.374637" stop-color="#FABB49"/>
<stop offset="1" stop-color="#EB652B"/>
</linearGradient>
<linearGradient id="paint40_linear_2146_539" x1="383.5" y1="-130.145" x2="383.5" y2="996.939" gradientUnits="userSpaceOnUse">
<stop stop-color="#FBC75E"/>
<stop offset="0.374637" stop-color="#FABB49"/>
<stop offset="1" stop-color="#EB652B"/>
</linearGradient>
<linearGradient id="paint41_linear_2146_539" x1="383.5" y1="-130.145" x2="383.5" y2="996.939" gradientUnits="userSpaceOnUse">
<stop stop-color="#FBC75E"/>
<stop offset="0.374637" stop-color="#FABB49"/>
<stop offset="1" stop-color="#EB652B"/>
</linearGradient>
<linearGradient id="paint42_linear_2146_539" x1="383.5" y1="-130.145" x2="383.5" y2="996.939" gradientUnits="userSpaceOnUse">
<stop stop-color="#FBC75E"/>
<stop offset="0.374637" stop-color="#FABB49"/>
<stop offset="1" stop-color="#EB652B"/>
</linearGradient>
<linearGradient id="paint43_linear_2146_539" x1="383.5" y1="-130.145" x2="383.5" y2="996.939" gradientUnits="userSpaceOnUse">
<stop stop-color="#FBC75E"/>
<stop offset="0.374637" stop-color="#FABB49"/>
<stop offset="1" stop-color="#EB652B"/>
</linearGradient>
<linearGradient id="paint44_linear_2146_539" x1="383.5" y1="-130.145" x2="383.5" y2="996.939" gradientUnits="userSpaceOnUse">
<stop stop-color="#FBC75E"/>
<stop offset="0.374637" stop-color="#FABB49"/>
<stop offset="1" stop-color="#EB652B"/>
</linearGradient>
<linearGradient id="paint45_linear_2146_539" x1="383.5" y1="-130.145" x2="383.5" y2="996.939" gradientUnits="userSpaceOnUse">
<stop stop-color="#FBC75E"/>
<stop offset="0.374637" stop-color="#FABB49"/>
<stop offset="1" stop-color="#EB652B"/>
</linearGradient>
<linearGradient id="paint46_linear_2146_539" x1="383.5" y1="-130.145" x2="383.5" y2="996.939" gradientUnits="userSpaceOnUse">
<stop stop-color="#FBC75E"/>
<stop offset="0.374637" stop-color="#FABB49"/>
<stop offset="1" stop-color="#EB652B"/>
</linearGradient>
<linearGradient id="paint47_linear_2146_539" x1="383.5" y1="-130.145" x2="383.5" y2="996.939" gradientUnits="userSpaceOnUse">
<stop stop-color="#FBC75E"/>
<stop offset="0.374637" stop-color="#FABB49"/>
<stop offset="1" stop-color="#EB652B"/>
</linearGradient>
<linearGradient id="paint48_linear_2146_539" x1="383.5" y1="-130.145" x2="383.5" y2="996.939" gradientUnits="userSpaceOnUse">
<stop stop-color="#FBC75E"/>
<stop offset="0.374637" stop-color="#FABB49"/>
<stop offset="1" stop-color="#EB652B"/>
</linearGradient>
<linearGradient id="paint49_linear_2146_539" x1="383.5" y1="-130.145" x2="383.5" y2="996.939" gradientUnits="userSpaceOnUse">
<stop stop-color="#FBC75E"/>
<stop offset="0.374637" stop-color="#FABB49"/>
<stop offset="1" stop-color="#EB652B"/>
</linearGradient>
<linearGradient id="paint50_linear_2146_539" x1="383.5" y1="-130.145" x2="383.5" y2="996.939" gradientUnits="userSpaceOnUse">
<stop stop-color="#FBC75E"/>
<stop offset="0.374637" stop-color="#FABB49"/>
<stop offset="1" stop-color="#EB652B"/>
</linearGradient>
<linearGradient id="paint51_linear_2146_539" x1="383.5" y1="-130.145" x2="383.5" y2="996.939" gradientUnits="userSpaceOnUse">
<stop stop-color="#FBC75E"/>
<stop offset="0.374637" stop-color="#FABB49"/>
<stop offset="1" stop-color="#EB652B"/>
</linearGradient>
</defs>
</svg>
