<svg width="276" height="421" viewBox="0 0 276 421" fill="none" xmlns="http://www.w3.org/2000/svg">
<g opacity="0.4">
<path d="M275.12 315.009C275.641 313.446 274.154 311.958 272.59 312.479L271.442 312.862C270.032 313.332 269.609 315.122 270.661 316.174L271.426 316.939C272.477 317.99 274.267 317.568 274.737 316.157L275.12 315.009Z" fill="url(#paint0_linear_2016_127)"/>
<path d="M231.221 358.908C231.742 357.345 230.255 355.857 228.691 356.379L225.698 357.376C224.287 357.846 223.865 359.637 224.916 360.688L226.912 362.683C227.963 363.735 229.753 363.312 230.223 361.902L231.221 358.908Z" fill="url(#paint1_linear_2016_127)"/>
<path d="M186.707 403.423C187.228 401.859 185.74 400.372 184.177 400.893L181.184 401.891C179.773 402.361 179.351 404.151 180.402 405.202L182.397 407.198C183.449 408.249 185.239 407.826 185.709 406.416L186.707 403.423Z" fill="url(#paint2_linear_2016_127)"/>
<path d="M141.577 448.552C142.099 446.988 140.611 445.501 139.048 446.022L137.9 446.405C136.489 446.875 136.067 448.665 137.118 449.716L137.883 450.482C138.934 451.533 140.725 451.11 141.195 449.7L141.577 448.552Z" fill="url(#paint3_linear_2016_127)"/>
<path d="M275.735 225.366C276.256 223.802 274.769 222.315 273.205 222.836L270.212 223.834C268.802 224.304 268.379 226.094 269.43 227.145L271.426 229.141C272.477 230.192 274.267 229.769 274.737 228.359L275.735 225.366Z" fill="url(#paint4_linear_2016_127)"/>
<path d="M232.451 268.65C232.972 267.086 231.485 265.599 229.921 266.12L223.238 268.348C221.827 268.818 221.404 270.608 222.456 271.659L226.912 276.115C227.963 277.167 229.753 276.744 230.223 275.334L232.451 268.65Z" fill="url(#paint5_linear_2016_127)"/>
<path d="M189.183 311.918C189.704 310.354 188.217 308.867 186.653 309.388L176.23 312.862C174.82 313.332 174.397 315.122 175.449 316.174L182.397 323.122C183.449 324.174 185.239 323.751 185.709 322.341L189.183 311.918Z" fill="url(#paint6_linear_2016_127)"/>
<path d="M144.669 356.432C145.19 354.868 143.703 353.381 142.139 353.902L131.716 357.376C130.306 357.846 129.883 359.637 130.935 360.688L137.883 367.637C138.934 368.688 140.725 368.265 141.195 366.855L144.669 356.432Z" fill="url(#paint7_linear_2016_127)"/>
<path d="M98.9084 402.192C99.4296 400.629 97.9421 399.141 96.3786 399.663L89.6949 401.891C88.2844 402.361 87.8618 404.151 88.9131 405.202L93.3689 409.658C94.4202 410.709 96.2104 410.287 96.6805 408.876L98.9084 402.192Z" fill="url(#paint8_linear_2016_127)"/>
<path d="M53.1641 447.937C53.6852 446.373 52.1978 444.886 50.6342 445.407L47.6411 446.405C46.2306 446.875 45.808 448.665 46.8593 449.716L48.8548 451.712C49.9061 452.763 51.6962 452.34 52.1663 450.93L53.1641 447.937Z" fill="url(#paint9_linear_2016_127)"/>
<path d="M275.12 136.952C275.641 135.389 274.154 133.901 272.59 134.423L271.442 134.805C270.032 135.275 269.609 137.066 270.661 138.117L271.426 138.882C272.477 139.933 274.267 139.511 274.737 138.1L275.12 136.952Z" fill="url(#paint10_linear_2016_127)"/>
<path d="M232.451 179.621C232.972 178.058 231.485 176.57 229.921 177.092L223.238 179.319C221.827 179.79 221.404 181.58 222.456 182.631L226.912 187.087C227.963 188.138 229.753 187.716 230.223 186.305L232.451 179.621Z" fill="url(#paint11_linear_2016_127)"/>
<path d="M189.798 222.274C190.32 220.711 188.832 219.223 187.269 219.744L175 223.834C173.59 224.304 173.167 226.094 174.219 227.145L182.397 235.324C183.449 236.375 185.239 235.953 185.709 234.542L189.798 222.274Z" fill="url(#paint12_linear_2016_127)"/>
<path d="M147.13 264.943C147.651 263.379 146.163 261.892 144.6 262.413L126.795 268.348C125.385 268.818 124.962 270.608 126.014 271.659L137.883 283.529C138.934 284.58 140.725 284.158 141.195 282.747L147.13 264.943Z" fill="url(#paint13_linear_2016_127)"/>
<path d="M102.615 309.457C103.136 307.894 101.649 306.406 100.085 306.927L82.2812 312.862C80.8708 313.332 80.4482 315.122 81.4995 316.174L93.369 328.043C94.4203 329.094 96.2104 328.672 96.6805 327.261L102.615 309.457Z" fill="url(#paint14_linear_2016_127)"/>
<path d="M56.2558 355.817C56.7769 354.253 55.2895 352.766 53.7259 353.287L41.4577 357.376C40.0472 357.846 39.6246 359.637 40.6759 360.688L48.8548 368.867C49.9061 369.918 51.6962 369.495 52.1663 368.085L56.2558 355.817Z" fill="url(#paint15_linear_2016_127)"/>
<path d="M9.88004 402.192C10.4012 400.629 8.91373 399.141 7.35019 399.663L0.666443 401.891C-0.744019 402.361 -1.16663 404.151 -0.115326 405.202L4.34055 409.658C5.39185 410.709 7.18198 410.287 7.65213 408.876L9.88004 402.192Z" fill="url(#paint16_linear_2016_127)"/>
<path d="M-36.4795 448.552C-35.9583 446.988 -37.4458 445.501 -39.0093 446.022L-40.1571 446.405C-41.5676 446.875 -41.9902 448.665 -40.9389 449.716L-40.1737 450.482C-39.1224 451.533 -37.3322 451.11 -36.8621 449.7L-36.4795 448.552Z" fill="url(#paint17_linear_2016_127)"/>
<path d="M231.221 91.8232C231.742 90.2596 230.255 88.7722 228.691 89.2933L225.698 90.291C224.287 90.7612 223.865 92.5513 224.916 93.6026L226.912 95.598C227.963 96.6494 229.753 96.2268 230.223 94.8163L231.221 91.8232Z" fill="url(#paint18_linear_2016_127)"/>
<path d="M189.183 133.861C189.704 132.297 188.217 130.81 186.653 131.331L176.23 134.805C174.82 135.275 174.397 137.066 175.449 138.117L182.397 145.065C183.449 146.117 185.239 145.694 185.709 144.284L189.183 133.861Z" fill="url(#paint19_linear_2016_127)"/>
<path d="M147.13 175.915C147.651 174.351 146.163 172.864 144.6 173.385L126.795 179.319C125.385 179.79 124.962 181.58 126.014 182.631L137.883 194.501C138.934 195.552 140.725 195.129 141.195 193.719L147.13 175.915Z" fill="url(#paint20_linear_2016_127)"/>
<path d="M105.092 217.952C105.613 216.389 104.126 214.901 102.562 215.422L77.328 223.834C75.9176 224.304 75.495 226.094 76.5463 227.145L93.369 243.968C94.4203 245.019 96.2104 244.597 96.6805 243.186L105.092 217.952Z" fill="url(#paint21_linear_2016_127)"/>
<path d="M60.5777 262.466C61.0988 260.903 59.6114 259.415 58.0479 259.937L32.8138 268.348C31.4033 268.818 30.9807 270.608 32.032 271.659L48.8548 288.482C49.9061 289.533 51.6962 289.111 52.1663 287.7L60.5777 262.466Z" fill="url(#paint22_linear_2016_127)"/>
<path d="M13.5869 309.457C14.108 307.894 12.6205 306.406 11.057 306.927L-6.74716 312.862C-8.15762 313.332 -8.58023 315.122 -7.52893 316.174L4.34055 328.043C5.39185 329.094 7.18198 328.672 7.65213 327.261L13.5869 309.457Z" fill="url(#paint23_linear_2016_127)"/>
<path d="M-33.3878 356.432C-32.8666 354.868 -34.3541 353.381 -35.9176 353.902L-46.3405 357.376C-47.751 357.846 -48.1736 359.637 -47.1223 360.688L-40.1737 367.637C-39.1224 368.688 -37.3322 368.265 -36.8621 366.855L-33.3878 356.432Z" fill="url(#paint24_linear_2016_127)"/>
<path d="M-80.3786 403.423C-79.8574 401.859 -81.3449 400.372 -82.9084 400.893L-85.9016 401.891C-87.312 402.361 -87.7346 404.151 -86.6833 405.202L-84.6879 407.198C-83.6366 408.249 -81.8465 407.826 -81.3763 406.416L-80.3786 403.423Z" fill="url(#paint25_linear_2016_127)"/>
<path d="M186.707 47.3089C187.228 45.7454 185.74 44.2579 184.177 44.7791L181.184 45.7768C179.773 46.247 179.351 48.0371 180.402 49.0884L182.397 51.0838C183.449 52.1351 185.239 51.7126 185.709 50.3021L186.707 47.3089Z" fill="url(#paint26_linear_2016_127)"/>
<path d="M144.669 89.3465C145.19 87.783 143.703 86.2955 142.139 86.8167L131.716 90.291C130.306 90.7612 129.883 92.5513 130.935 93.6026L137.883 100.551C138.934 101.603 140.725 101.18 141.195 99.7695L144.669 89.3465Z" fill="url(#paint27_linear_2016_127)"/>
<path d="M102.615 131.4C103.136 129.837 101.649 128.349 100.085 128.871L82.2812 134.805C80.8708 135.275 80.4482 137.066 81.4995 138.117L93.369 149.986C94.4203 151.038 96.2104 150.615 96.6805 149.205L102.615 131.4Z" fill="url(#paint28_linear_2016_127)"/>
<path d="M60.5777 173.438C61.0988 171.874 59.6114 170.387 58.0479 170.908L32.8138 179.319C31.4033 179.79 30.9807 181.58 32.032 182.631L48.8548 199.454C49.9061 200.505 51.6962 200.082 52.1663 198.672L60.5777 173.438Z" fill="url(#paint29_linear_2016_127)"/>
<path d="M16.0635 217.952C16.5847 216.389 15.0972 214.901 13.5337 215.422L-11.7004 223.834C-13.1109 224.304 -13.5335 226.094 -12.4822 227.145L4.34055 243.968C5.39185 245.019 7.18198 244.597 7.65213 243.186L16.0635 217.952Z" fill="url(#paint30_linear_2016_127)"/>
<path d="M-30.9273 264.943C-30.4062 263.379 -31.8936 261.892 -33.4572 262.413L-51.2614 268.348C-52.6718 268.818 -53.0945 270.608 -52.0432 271.659L-40.1736 283.529C-39.1223 284.58 -37.3322 284.158 -36.8621 282.747L-30.9273 264.943Z" fill="url(#paint31_linear_2016_127)"/>
<path d="M-77.902 311.918C-77.3808 310.354 -78.8683 308.867 -80.4318 309.388L-90.8548 312.862C-92.2653 313.332 -92.6879 315.122 -91.6366 316.174L-84.6879 323.122C-83.6366 324.174 -81.8465 323.751 -81.3763 322.341L-77.902 311.918Z" fill="url(#paint32_linear_2016_127)"/>
<path d="M-124.893 358.908C-124.372 357.345 -125.859 355.857 -127.423 356.379L-130.416 357.376C-131.826 357.846 -132.249 359.637 -131.198 360.688L-129.202 362.683C-128.151 363.735 -126.361 363.312 -125.891 361.902L-124.893 358.908Z" fill="url(#paint33_linear_2016_127)"/>
<path d="M141.577 3.40983C142.099 1.84631 140.611 0.358837 139.048 0.880009L137.9 1.26262C136.489 1.73277 136.067 3.52289 137.118 4.5742L137.883 5.33941C138.934 6.39071 140.725 5.96812 141.195 4.55765L141.577 3.40983Z" fill="url(#paint34_linear_2016_127)"/>
<path d="M98.9084 46.0787C99.4296 44.5152 97.9421 43.0277 96.3786 43.5489L89.6949 45.7768C88.2844 46.247 87.8618 48.0371 88.9131 49.0884L93.3689 53.5442C94.4203 54.5955 96.2104 54.173 96.6805 52.7625L98.9084 46.0787Z" fill="url(#paint35_linear_2016_127)"/>
<path d="M56.2558 88.7314C56.7769 87.1679 55.2895 85.6804 53.7259 86.2016L41.4577 90.291C40.0472 90.7612 39.6246 92.5513 40.6759 93.6026L48.8548 101.781C49.9061 102.833 51.6962 102.41 52.1663 101L56.2558 88.7314Z" fill="url(#paint36_linear_2016_127)"/>
<path d="M13.5869 131.4C14.108 129.837 12.6205 128.349 11.057 128.871L-6.74716 134.805C-8.15762 135.275 -8.58023 137.066 -7.52893 138.117L4.34055 149.986C5.39185 151.038 7.18198 150.615 7.65213 149.205L13.5869 131.4Z" fill="url(#paint37_linear_2016_127)"/>
<path d="M-30.9273 175.915C-30.4062 174.351 -31.8936 172.864 -33.4572 173.385L-51.2614 179.319C-52.6718 179.79 -53.0945 181.58 -52.0432 182.631L-40.1736 194.501C-39.1223 195.552 -37.3322 195.129 -36.8621 193.719L-30.9273 175.915Z" fill="url(#paint38_linear_2016_127)"/>
<path d="M-77.2868 222.274C-76.7657 220.711 -78.2531 219.223 -79.8167 219.744L-92.085 223.834C-93.4954 224.304 -93.918 226.094 -92.8667 227.145L-84.6878 235.324C-83.6365 236.375 -81.8464 235.953 -81.3763 234.542L-77.2868 222.274Z" fill="url(#paint39_linear_2016_127)"/>
<path d="M-123.663 268.65C-123.141 267.086 -124.629 265.599 -126.192 266.12L-132.876 268.348C-134.287 268.818 -134.709 270.608 -133.658 271.659L-129.202 276.115C-128.151 277.167 -126.361 276.744 -125.891 275.334L-123.663 268.65Z" fill="url(#paint40_linear_2016_127)"/>
<path d="M-170.022 315.009C-169.501 313.446 -170.988 311.958 -172.552 312.479L-173.7 312.862C-175.11 313.332 -175.533 315.122 -174.482 316.174L-173.716 316.939C-172.665 317.99 -170.875 317.568 -170.405 316.157L-170.022 315.009Z" fill="url(#paint41_linear_2016_127)"/>
<path d="M53.164 2.79473C53.6852 1.23121 52.1977 -0.256262 50.6342 0.264909L47.6411 1.26262C46.2306 1.73278 45.808 3.5229 46.8593 4.5742L48.8548 6.56963C49.9061 7.62093 51.6962 7.19834 52.1663 5.78787L53.164 2.79473Z" fill="url(#paint42_linear_2016_127)"/>
<path d="M9.88004 46.0787C10.4012 44.5152 8.91373 43.0277 7.35019 43.5489L0.666443 45.7768C-0.744019 46.247 -1.16663 48.0371 -0.115326 49.0884L4.34055 53.5442C5.39185 54.5955 7.18195 54.173 7.65213 52.7625L9.88004 46.0787Z" fill="url(#paint43_linear_2016_127)"/>
<path d="M-33.3878 89.3465C-32.8666 87.783 -34.3541 86.2955 -35.9176 86.8167L-46.3405 90.291C-47.751 90.7612 -48.1736 92.5513 -47.1223 93.6026L-40.1737 100.551C-39.1224 101.603 -37.3322 101.18 -36.8621 99.7695L-33.3878 89.3465Z" fill="url(#paint44_linear_2016_127)"/>
<path d="M-77.902 133.861C-77.3808 132.297 -78.8683 130.81 -80.4318 131.331L-90.8548 134.805C-92.2653 135.275 -92.6879 137.066 -91.6366 138.117L-84.6879 145.065C-83.6366 146.117 -81.8465 145.694 -81.3763 144.284L-77.902 133.861Z" fill="url(#paint45_linear_2016_127)"/>
<path d="M-123.663 179.621C-123.141 178.058 -124.629 176.57 -126.192 177.092L-132.876 179.319C-134.287 179.79 -134.709 181.58 -133.658 182.631L-129.202 187.087C-128.151 188.138 -126.361 187.716 -125.891 186.305L-123.663 179.621Z" fill="url(#paint46_linear_2016_127)"/>
<path d="M-169.407 225.366C-168.886 223.802 -170.373 222.315 -171.937 222.836L-174.93 223.834C-176.34 224.304 -176.763 226.094 -175.712 227.145L-173.716 229.141C-172.665 230.192 -170.875 229.769 -170.405 228.359L-169.407 225.366Z" fill="url(#paint47_linear_2016_127)"/>
<path d="M-36.4795 3.40983C-35.9583 1.84631 -37.4458 0.358832 -39.0093 0.880004L-40.1571 1.26261C-41.5676 1.73277 -41.9902 3.52289 -40.9389 4.57419L-40.1737 5.33941C-39.1224 6.39071 -37.3322 5.96812 -36.8621 4.55766L-36.4795 3.40983Z" fill="url(#paint48_linear_2016_127)"/>
<path d="M-80.3786 47.309C-79.8574 45.7454 -81.3449 44.2579 -82.9084 44.7791L-85.9016 45.7768C-87.312 46.247 -87.7346 48.0371 -86.6833 49.0884L-84.6879 51.0838C-83.6366 52.1351 -81.8465 51.7126 -81.3763 50.3021L-80.3786 47.309Z" fill="url(#paint49_linear_2016_127)"/>
<path d="M-124.893 91.8232C-124.372 90.2596 -125.859 88.7722 -127.423 89.2933L-130.416 90.291C-131.826 90.7612 -132.249 92.5513 -131.198 93.6026L-129.202 95.598C-128.151 96.6493 -126.361 96.2268 -125.891 94.8163L-124.893 91.8232Z" fill="url(#paint50_linear_2016_127)"/>
<path d="M-170.022 136.952C-169.501 135.389 -170.988 133.901 -172.552 134.423L-173.7 134.805C-175.11 135.275 -175.533 137.066 -174.482 138.117L-173.716 138.882C-172.665 139.933 -170.875 139.511 -170.405 138.1L-170.022 136.952Z" fill="url(#paint51_linear_2016_127)"/>
</g>
<defs>
<linearGradient id="paint0_linear_2016_127" x1="49.5" y1="-77.4122" x2="49.5" y2="589.458" gradientUnits="userSpaceOnUse">
<stop stop-color="#FBC75E"/>
<stop offset="0.374637" stop-color="#FABB49"/>
<stop offset="1" stop-color="#EB652B"/>
</linearGradient>
<linearGradient id="paint1_linear_2016_127" x1="49.5" y1="-77.4122" x2="49.5" y2="589.458" gradientUnits="userSpaceOnUse">
<stop stop-color="#FBC75E"/>
<stop offset="0.374637" stop-color="#FABB49"/>
<stop offset="1" stop-color="#EB652B"/>
</linearGradient>
<linearGradient id="paint2_linear_2016_127" x1="49.5" y1="-77.4122" x2="49.5" y2="589.458" gradientUnits="userSpaceOnUse">
<stop stop-color="#FBC75E"/>
<stop offset="0.374637" stop-color="#FABB49"/>
<stop offset="1" stop-color="#EB652B"/>
</linearGradient>
<linearGradient id="paint3_linear_2016_127" x1="49.5" y1="-77.4122" x2="49.5" y2="589.458" gradientUnits="userSpaceOnUse">
<stop stop-color="#FBC75E"/>
<stop offset="0.374637" stop-color="#FABB49"/>
<stop offset="1" stop-color="#EB652B"/>
</linearGradient>
<linearGradient id="paint4_linear_2016_127" x1="49.5" y1="-77.4122" x2="49.5" y2="589.458" gradientUnits="userSpaceOnUse">
<stop stop-color="#FBC75E"/>
<stop offset="0.374637" stop-color="#FABB49"/>
<stop offset="1" stop-color="#EB652B"/>
</linearGradient>
<linearGradient id="paint5_linear_2016_127" x1="49.5" y1="-77.4122" x2="49.5" y2="589.458" gradientUnits="userSpaceOnUse">
<stop stop-color="#FBC75E"/>
<stop offset="0.374637" stop-color="#FABB49"/>
<stop offset="1" stop-color="#EB652B"/>
</linearGradient>
<linearGradient id="paint6_linear_2016_127" x1="49.5" y1="-77.4122" x2="49.5" y2="589.458" gradientUnits="userSpaceOnUse">
<stop stop-color="#FBC75E"/>
<stop offset="0.374637" stop-color="#FABB49"/>
<stop offset="1" stop-color="#EB652B"/>
</linearGradient>
<linearGradient id="paint7_linear_2016_127" x1="49.5" y1="-77.4122" x2="49.5" y2="589.458" gradientUnits="userSpaceOnUse">
<stop stop-color="#FBC75E"/>
<stop offset="0.374637" stop-color="#FABB49"/>
<stop offset="1" stop-color="#EB652B"/>
</linearGradient>
<linearGradient id="paint8_linear_2016_127" x1="49.5" y1="-77.4122" x2="49.5" y2="589.458" gradientUnits="userSpaceOnUse">
<stop stop-color="#FBC75E"/>
<stop offset="0.374637" stop-color="#FABB49"/>
<stop offset="1" stop-color="#EB652B"/>
</linearGradient>
<linearGradient id="paint9_linear_2016_127" x1="49.5" y1="-77.4122" x2="49.5" y2="589.458" gradientUnits="userSpaceOnUse">
<stop stop-color="#FBC75E"/>
<stop offset="0.374637" stop-color="#FABB49"/>
<stop offset="1" stop-color="#EB652B"/>
</linearGradient>
<linearGradient id="paint10_linear_2016_127" x1="49.5" y1="-77.4122" x2="49.5" y2="589.458" gradientUnits="userSpaceOnUse">
<stop stop-color="#FBC75E"/>
<stop offset="0.374637" stop-color="#FABB49"/>
<stop offset="1" stop-color="#EB652B"/>
</linearGradient>
<linearGradient id="paint11_linear_2016_127" x1="49.5" y1="-77.4122" x2="49.5" y2="589.458" gradientUnits="userSpaceOnUse">
<stop stop-color="#FBC75E"/>
<stop offset="0.374637" stop-color="#FABB49"/>
<stop offset="1" stop-color="#EB652B"/>
</linearGradient>
<linearGradient id="paint12_linear_2016_127" x1="49.5" y1="-77.4122" x2="49.5" y2="589.458" gradientUnits="userSpaceOnUse">
<stop stop-color="#FBC75E"/>
<stop offset="0.374637" stop-color="#FABB49"/>
<stop offset="1" stop-color="#EB652B"/>
</linearGradient>
<linearGradient id="paint13_linear_2016_127" x1="49.5" y1="-77.4122" x2="49.5" y2="589.458" gradientUnits="userSpaceOnUse">
<stop stop-color="#FBC75E"/>
<stop offset="0.374637" stop-color="#FABB49"/>
<stop offset="1" stop-color="#EB652B"/>
</linearGradient>
<linearGradient id="paint14_linear_2016_127" x1="49.5" y1="-77.4122" x2="49.5" y2="589.458" gradientUnits="userSpaceOnUse">
<stop stop-color="#FBC75E"/>
<stop offset="0.374637" stop-color="#FABB49"/>
<stop offset="1" stop-color="#EB652B"/>
</linearGradient>
<linearGradient id="paint15_linear_2016_127" x1="49.5" y1="-77.4122" x2="49.5" y2="589.458" gradientUnits="userSpaceOnUse">
<stop stop-color="#FBC75E"/>
<stop offset="0.374637" stop-color="#FABB49"/>
<stop offset="1" stop-color="#EB652B"/>
</linearGradient>
<linearGradient id="paint16_linear_2016_127" x1="49.5" y1="-77.4122" x2="49.5" y2="589.458" gradientUnits="userSpaceOnUse">
<stop stop-color="#FBC75E"/>
<stop offset="0.374637" stop-color="#FABB49"/>
<stop offset="1" stop-color="#EB652B"/>
</linearGradient>
<linearGradient id="paint17_linear_2016_127" x1="49.5" y1="-77.4122" x2="49.5" y2="589.458" gradientUnits="userSpaceOnUse">
<stop stop-color="#FBC75E"/>
<stop offset="0.374637" stop-color="#FABB49"/>
<stop offset="1" stop-color="#EB652B"/>
</linearGradient>
<linearGradient id="paint18_linear_2016_127" x1="49.5" y1="-77.4122" x2="49.5" y2="589.458" gradientUnits="userSpaceOnUse">
<stop stop-color="#FBC75E"/>
<stop offset="0.374637" stop-color="#FABB49"/>
<stop offset="1" stop-color="#EB652B"/>
</linearGradient>
<linearGradient id="paint19_linear_2016_127" x1="49.5" y1="-77.4122" x2="49.5" y2="589.458" gradientUnits="userSpaceOnUse">
<stop stop-color="#FBC75E"/>
<stop offset="0.374637" stop-color="#FABB49"/>
<stop offset="1" stop-color="#EB652B"/>
</linearGradient>
<linearGradient id="paint20_linear_2016_127" x1="49.5" y1="-77.4122" x2="49.5" y2="589.458" gradientUnits="userSpaceOnUse">
<stop stop-color="#FBC75E"/>
<stop offset="0.374637" stop-color="#FABB49"/>
<stop offset="1" stop-color="#EB652B"/>
</linearGradient>
<linearGradient id="paint21_linear_2016_127" x1="49.5" y1="-77.4122" x2="49.5" y2="589.458" gradientUnits="userSpaceOnUse">
<stop stop-color="#FBC75E"/>
<stop offset="0.374637" stop-color="#FABB49"/>
<stop offset="1" stop-color="#EB652B"/>
</linearGradient>
<linearGradient id="paint22_linear_2016_127" x1="49.5" y1="-77.4122" x2="49.5" y2="589.458" gradientUnits="userSpaceOnUse">
<stop stop-color="#FBC75E"/>
<stop offset="0.374637" stop-color="#FABB49"/>
<stop offset="1" stop-color="#EB652B"/>
</linearGradient>
<linearGradient id="paint23_linear_2016_127" x1="49.5" y1="-77.4122" x2="49.5" y2="589.458" gradientUnits="userSpaceOnUse">
<stop stop-color="#FBC75E"/>
<stop offset="0.374637" stop-color="#FABB49"/>
<stop offset="1" stop-color="#EB652B"/>
</linearGradient>
<linearGradient id="paint24_linear_2016_127" x1="49.5" y1="-77.4122" x2="49.5" y2="589.458" gradientUnits="userSpaceOnUse">
<stop stop-color="#FBC75E"/>
<stop offset="0.374637" stop-color="#FABB49"/>
<stop offset="1" stop-color="#EB652B"/>
</linearGradient>
<linearGradient id="paint25_linear_2016_127" x1="49.5" y1="-77.4122" x2="49.5" y2="589.458" gradientUnits="userSpaceOnUse">
<stop stop-color="#FBC75E"/>
<stop offset="0.374637" stop-color="#FABB49"/>
<stop offset="1" stop-color="#EB652B"/>
</linearGradient>
<linearGradient id="paint26_linear_2016_127" x1="49.5" y1="-77.4122" x2="49.5" y2="589.458" gradientUnits="userSpaceOnUse">
<stop stop-color="#FBC75E"/>
<stop offset="0.374637" stop-color="#FABB49"/>
<stop offset="1" stop-color="#EB652B"/>
</linearGradient>
<linearGradient id="paint27_linear_2016_127" x1="49.5" y1="-77.4122" x2="49.5" y2="589.458" gradientUnits="userSpaceOnUse">
<stop stop-color="#FBC75E"/>
<stop offset="0.374637" stop-color="#FABB49"/>
<stop offset="1" stop-color="#EB652B"/>
</linearGradient>
<linearGradient id="paint28_linear_2016_127" x1="49.5" y1="-77.4122" x2="49.5" y2="589.458" gradientUnits="userSpaceOnUse">
<stop stop-color="#FBC75E"/>
<stop offset="0.374637" stop-color="#FABB49"/>
<stop offset="1" stop-color="#EB652B"/>
</linearGradient>
<linearGradient id="paint29_linear_2016_127" x1="49.5" y1="-77.4122" x2="49.5" y2="589.458" gradientUnits="userSpaceOnUse">
<stop stop-color="#FBC75E"/>
<stop offset="0.374637" stop-color="#FABB49"/>
<stop offset="1" stop-color="#EB652B"/>
</linearGradient>
<linearGradient id="paint30_linear_2016_127" x1="49.5" y1="-77.4122" x2="49.5" y2="589.458" gradientUnits="userSpaceOnUse">
<stop stop-color="#FBC75E"/>
<stop offset="0.374637" stop-color="#FABB49"/>
<stop offset="1" stop-color="#EB652B"/>
</linearGradient>
<linearGradient id="paint31_linear_2016_127" x1="49.5" y1="-77.4122" x2="49.5" y2="589.458" gradientUnits="userSpaceOnUse">
<stop stop-color="#FBC75E"/>
<stop offset="0.374637" stop-color="#FABB49"/>
<stop offset="1" stop-color="#EB652B"/>
</linearGradient>
<linearGradient id="paint32_linear_2016_127" x1="49.5" y1="-77.4122" x2="49.5" y2="589.458" gradientUnits="userSpaceOnUse">
<stop stop-color="#FBC75E"/>
<stop offset="0.374637" stop-color="#FABB49"/>
<stop offset="1" stop-color="#EB652B"/>
</linearGradient>
<linearGradient id="paint33_linear_2016_127" x1="49.5" y1="-77.4122" x2="49.5" y2="589.458" gradientUnits="userSpaceOnUse">
<stop stop-color="#FBC75E"/>
<stop offset="0.374637" stop-color="#FABB49"/>
<stop offset="1" stop-color="#EB652B"/>
</linearGradient>
<linearGradient id="paint34_linear_2016_127" x1="49.5" y1="-77.4122" x2="49.5" y2="589.458" gradientUnits="userSpaceOnUse">
<stop stop-color="#FBC75E"/>
<stop offset="0.374637" stop-color="#FABB49"/>
<stop offset="1" stop-color="#EB652B"/>
</linearGradient>
<linearGradient id="paint35_linear_2016_127" x1="49.5" y1="-77.4122" x2="49.5" y2="589.458" gradientUnits="userSpaceOnUse">
<stop stop-color="#FBC75E"/>
<stop offset="0.374637" stop-color="#FABB49"/>
<stop offset="1" stop-color="#EB652B"/>
</linearGradient>
<linearGradient id="paint36_linear_2016_127" x1="49.5" y1="-77.4122" x2="49.5" y2="589.458" gradientUnits="userSpaceOnUse">
<stop stop-color="#FBC75E"/>
<stop offset="0.374637" stop-color="#FABB49"/>
<stop offset="1" stop-color="#EB652B"/>
</linearGradient>
<linearGradient id="paint37_linear_2016_127" x1="49.5" y1="-77.4122" x2="49.5" y2="589.458" gradientUnits="userSpaceOnUse">
<stop stop-color="#FBC75E"/>
<stop offset="0.374637" stop-color="#FABB49"/>
<stop offset="1" stop-color="#EB652B"/>
</linearGradient>
<linearGradient id="paint38_linear_2016_127" x1="49.5" y1="-77.4122" x2="49.5" y2="589.458" gradientUnits="userSpaceOnUse">
<stop stop-color="#FBC75E"/>
<stop offset="0.374637" stop-color="#FABB49"/>
<stop offset="1" stop-color="#EB652B"/>
</linearGradient>
<linearGradient id="paint39_linear_2016_127" x1="49.5" y1="-77.4122" x2="49.5" y2="589.458" gradientUnits="userSpaceOnUse">
<stop stop-color="#FBC75E"/>
<stop offset="0.374637" stop-color="#FABB49"/>
<stop offset="1" stop-color="#EB652B"/>
</linearGradient>
<linearGradient id="paint40_linear_2016_127" x1="49.5" y1="-77.4122" x2="49.5" y2="589.458" gradientUnits="userSpaceOnUse">
<stop stop-color="#FBC75E"/>
<stop offset="0.374637" stop-color="#FABB49"/>
<stop offset="1" stop-color="#EB652B"/>
</linearGradient>
<linearGradient id="paint41_linear_2016_127" x1="49.5" y1="-77.4122" x2="49.5" y2="589.458" gradientUnits="userSpaceOnUse">
<stop stop-color="#FBC75E"/>
<stop offset="0.374637" stop-color="#FABB49"/>
<stop offset="1" stop-color="#EB652B"/>
</linearGradient>
<linearGradient id="paint42_linear_2016_127" x1="49.5" y1="-77.4122" x2="49.5" y2="589.458" gradientUnits="userSpaceOnUse">
<stop stop-color="#FBC75E"/>
<stop offset="0.374637" stop-color="#FABB49"/>
<stop offset="1" stop-color="#EB652B"/>
</linearGradient>
<linearGradient id="paint43_linear_2016_127" x1="49.5" y1="-77.4122" x2="49.5" y2="589.458" gradientUnits="userSpaceOnUse">
<stop stop-color="#FBC75E"/>
<stop offset="0.374637" stop-color="#FABB49"/>
<stop offset="1" stop-color="#EB652B"/>
</linearGradient>
<linearGradient id="paint44_linear_2016_127" x1="49.5" y1="-77.4122" x2="49.5" y2="589.458" gradientUnits="userSpaceOnUse">
<stop stop-color="#FBC75E"/>
<stop offset="0.374637" stop-color="#FABB49"/>
<stop offset="1" stop-color="#EB652B"/>
</linearGradient>
<linearGradient id="paint45_linear_2016_127" x1="49.5" y1="-77.4122" x2="49.5" y2="589.458" gradientUnits="userSpaceOnUse">
<stop stop-color="#FBC75E"/>
<stop offset="0.374637" stop-color="#FABB49"/>
<stop offset="1" stop-color="#EB652B"/>
</linearGradient>
<linearGradient id="paint46_linear_2016_127" x1="49.5" y1="-77.4122" x2="49.5" y2="589.458" gradientUnits="userSpaceOnUse">
<stop stop-color="#FBC75E"/>
<stop offset="0.374637" stop-color="#FABB49"/>
<stop offset="1" stop-color="#EB652B"/>
</linearGradient>
<linearGradient id="paint47_linear_2016_127" x1="49.5" y1="-77.4122" x2="49.5" y2="589.458" gradientUnits="userSpaceOnUse">
<stop stop-color="#FBC75E"/>
<stop offset="0.374637" stop-color="#FABB49"/>
<stop offset="1" stop-color="#EB652B"/>
</linearGradient>
<linearGradient id="paint48_linear_2016_127" x1="49.5" y1="-77.4122" x2="49.5" y2="589.458" gradientUnits="userSpaceOnUse">
<stop stop-color="#FBC75E"/>
<stop offset="0.374637" stop-color="#FABB49"/>
<stop offset="1" stop-color="#EB652B"/>
</linearGradient>
<linearGradient id="paint49_linear_2016_127" x1="49.5" y1="-77.4122" x2="49.5" y2="589.458" gradientUnits="userSpaceOnUse">
<stop stop-color="#FBC75E"/>
<stop offset="0.374637" stop-color="#FABB49"/>
<stop offset="1" stop-color="#EB652B"/>
</linearGradient>
<linearGradient id="paint50_linear_2016_127" x1="49.5" y1="-77.4122" x2="49.5" y2="589.458" gradientUnits="userSpaceOnUse">
<stop stop-color="#FBC75E"/>
<stop offset="0.374637" stop-color="#FABB49"/>
<stop offset="1" stop-color="#EB652B"/>
</linearGradient>
<linearGradient id="paint51_linear_2016_127" x1="49.5" y1="-77.4122" x2="49.5" y2="589.458" gradientUnits="userSpaceOnUse">
<stop stop-color="#FBC75E"/>
<stop offset="0.374637" stop-color="#FABB49"/>
<stop offset="1" stop-color="#EB652B"/>
</linearGradient>
</defs>
</svg>
