<svg width="40" height="40" viewBox="0 0 40 40" fill="none" xmlns="http://www.w3.org/2000/svg">
<path d="M36.6154 30.5497C36.6154 31.1497 36.482 31.7663 36.1987 32.3663C35.9154 32.9663 35.5487 33.533 35.0654 34.0663C34.2487 34.9663 33.3487 35.6163 32.332 36.033C31.332 36.4497 30.2487 36.6663 29.082 36.6663C27.382 36.6663 25.5654 36.2663 23.6487 35.4497C21.732 34.633 19.8154 33.533 17.9154 32.1497C15.9987 30.7497 14.182 29.1997 12.4487 27.483C10.732 25.7497 9.18203 23.933 7.7987 22.033C6.43203 20.133 5.33203 18.233 4.53203 16.3497C3.73203 14.4497 3.33203 12.633 3.33203 10.8997C3.33203 9.76634 3.53203 8.68301 3.93203 7.68301C4.33203 6.66634 4.96536 5.73301 5.8487 4.89967C6.91536 3.84967 8.08203 3.33301 9.31537 3.33301C9.78203 3.33301 10.2487 3.43301 10.6654 3.63301C11.0987 3.83301 11.482 4.13301 11.782 4.56634L15.6487 10.0163C15.9487 10.433 16.1654 10.8163 16.3154 11.183C16.4654 11.533 16.5487 11.883 16.5487 12.1997C16.5487 12.5997 16.432 12.9997 16.1987 13.383C15.982 13.7663 15.6654 14.1663 15.2654 14.5663L13.9987 15.883C13.8154 16.0663 13.732 16.283 13.732 16.5497C13.732 16.683 13.7487 16.7997 13.782 16.933C13.832 17.0663 13.882 17.1663 13.9154 17.2663C14.2154 17.8163 14.732 18.533 15.4654 19.3997C16.2154 20.2663 17.0154 21.1497 17.882 22.033C18.782 22.9163 19.6487 23.733 20.532 24.483C21.3987 25.2163 22.1154 25.7163 22.682 26.0163C22.7654 26.0497 22.8654 26.0997 22.982 26.1497C23.1154 26.1997 23.2487 26.2163 23.3987 26.2163C23.682 26.2163 23.8987 26.1163 24.082 25.933L25.3487 24.683C25.7654 24.2663 26.1654 23.9497 26.5487 23.7497C26.932 23.5163 27.3154 23.3997 27.732 23.3997C28.0487 23.3997 28.382 23.4663 28.7487 23.6163C29.1154 23.7663 29.4987 23.983 29.9154 24.2663L35.432 28.183C35.8654 28.483 36.1654 28.833 36.3487 29.2497C36.5154 29.6663 36.6154 30.083 36.6154 30.5497Z" stroke="#090F16" stroke-width="3" stroke-miterlimit="10"/>
</svg>
