<svg width="13" height="13" viewBox="0 0 13 13" fill="none" xmlns="http://www.w3.org/2000/svg">
<path d="M11.1535 8.67326L9.46019 8.47992C9.05352 8.43326 8.65352 8.57326 8.36686 8.85992L7.14019 10.0866C5.25352 9.12659 3.70686 7.58659 2.74686 5.69326L3.98019 4.45992C4.26686 4.17326 4.40686 3.77326 4.36019 3.36659L4.16686 1.68659C4.08686 1.01326 3.52019 0.506592 2.84019 0.506592H1.68686C0.933523 0.506592 0.306857 1.13326 0.353523 1.88659C0.706856 7.57992 5.26019 12.1266 10.9469 12.4799C11.7002 12.5266 12.3269 11.8999 12.3269 11.1466V9.99326C12.3335 9.31992 11.8269 8.75326 11.1535 8.67326Z" fill="white"/>
</svg>
