<svg width="14" height="12" viewBox="0 0 14 12" fill="none" xmlns="http://www.w3.org/2000/svg">
<path d="M12.3333 0.666504H1.66659C0.933252 0.666504 0.339919 1.2665 0.339919 1.99984L0.333252 9.99984C0.333252 10.7332 0.933252 11.3332 1.66659 11.3332H12.3333C13.0666 11.3332 13.6666 10.7332 13.6666 9.99984V1.99984C13.6666 1.2665 13.0666 0.666504 12.3333 0.666504ZM12.0666 3.49984L7.35325 6.4465C7.13992 6.57984 6.85992 6.57984 6.64658 6.4465L1.93325 3.49984C1.76659 3.39317 1.66659 3.21317 1.66659 3.01984C1.66659 2.57317 2.15325 2.3065 2.53325 2.53984L6.99992 5.33317L11.4666 2.53984C11.8466 2.3065 12.3333 2.57317 12.3333 3.01984C12.3333 3.21317 12.2333 3.39317 12.0666 3.49984Z" fill="white"/>
</svg>
