<svg width="26" height="26" viewBox="0 0 26 26" fill="none" xmlns="http://www.w3.org/2000/svg">
<path d="M23.5625 9.75015V10.7317C23.5625 11.6285 23.0701 12.4528 22.2806 12.8779L15.2634 16.6564M2.4375 9.75015V10.7317C2.4375 11.6285 2.92985 12.4528 3.71938 12.8779L10.7366 16.6564M20.3125 19.3752L15.2634 16.6564M15.2634 16.6564L14.1556 16.0599C13.4342 15.6715 12.5658 15.6715 11.8444 16.0599L10.7366 16.6564M10.7366 16.6564L5.6875 19.3752M23.5625 21.1252C23.5625 22.4713 22.4712 23.5627 21.125 23.5627H4.875C3.52881 23.5627 2.4375 22.4713 2.4375 21.1252L2.4375 9.58105C2.4375 8.68434 2.92985 7.86004 3.71938 7.43491L11.8444 3.05991C12.5658 2.67144 13.4342 2.67144 14.1556 3.05991L22.2806 7.43491C23.0701 7.86004 23.5625 8.68434 23.5625 9.58106V21.1252Z" stroke="#0F172A" stroke-width="1.5" stroke-linecap="round" stroke-linejoin="round"/>
</svg>
