<svg width="16" height="16" viewBox="0 0 16 16" fill="none" xmlns="http://www.w3.org/2000/svg">
<path d="M7.99999 1.33325C5.41999 1.33325 3.33333 3.41992 3.33333 5.99992C3.33333 8.77992 6.27999 12.6133 7.49333 14.0733C7.75999 14.3933 8.24666 14.3933 8.51333 14.0733C9.72 12.6133 12.6667 8.77992 12.6667 5.99992C12.6667 3.41992 10.58 1.33325 7.99999 1.33325ZM7.99999 7.66658C7.07999 7.66658 6.33333 6.91992 6.33333 5.99992C6.33333 5.07992 7.07999 4.33325 7.99999 4.33325C8.91999 4.33325 9.66666 5.07992 9.66666 5.99992C9.66666 6.91992 8.91999 7.66658 7.99999 7.66658Z" fill="white"/>
</svg>
