<svg width="16" height="16" viewBox="0 0 16 16" fill="none" xmlns="http://www.w3.org/2000/svg">
<path d="M13.3333 2.66675H2.66666C1.93333 2.66675 1.33999 3.26675 1.33999 4.00008L1.33333 12.0001C1.33333 12.7334 1.93333 13.3334 2.66666 13.3334H13.3333C14.0667 13.3334 14.6667 12.7334 14.6667 12.0001V4.00008C14.6667 3.26675 14.0667 2.66675 13.3333 2.66675ZM13.0667 5.50008L8.35333 8.44675C8.13999 8.58008 7.85999 8.58008 7.64666 8.44675L2.93333 5.50008C2.76666 5.39341 2.66666 5.21341 2.66666 5.02008C2.66666 4.57341 3.15333 4.30675 3.53333 4.54008L7.99999 7.33342L12.4667 4.54008C12.8467 4.30675 13.3333 4.57341 13.3333 5.02008C13.3333 5.21341 13.2333 5.39341 13.0667 5.50008Z" fill="white"/>
</svg>
