<svg width="967" height="119" viewBox="0 0 967 119" fill="none" xmlns="http://www.w3.org/2000/svg">
<path d="M11.8409 2.81818V93H0.920455V2.81818H11.8409ZM59.805 94.4091C53.4641 94.4091 48.0039 92.9119 43.4244 89.9176C38.8448 86.9233 35.3221 82.7988 32.8562 77.544C30.3903 72.2893 29.1573 66.286 29.1573 59.5341C29.1573 52.6648 30.4196 46.6027 32.9442 41.348C35.4982 36.0639 39.0503 31.9394 43.6005 28.9744C48.18 25.9801 53.5228 24.483 59.6289 24.483C64.3846 24.483 68.6706 25.3636 72.4869 27.125C76.3032 28.8864 79.4296 31.3523 81.8661 34.5227C84.3027 37.6932 85.8145 41.392 86.4016 45.6193H76.0096C75.217 42.5369 73.4556 39.8068 70.7255 37.429C68.0247 35.0218 64.3846 33.8182 59.805 33.8182C55.7539 33.8182 52.2018 34.875 49.1488 36.9886C46.1251 39.0729 43.762 42.0232 42.0593 45.8395C40.386 49.6264 39.5494 54.0739 39.5494 59.1818C39.5494 64.4072 40.3713 68.9574 42.0153 72.8324C43.6886 76.7074 46.0371 79.7164 49.0607 81.8594C52.1138 84.0024 55.6952 85.0739 59.805 85.0739C62.5058 85.0739 64.957 84.6042 67.1587 83.6648C69.3604 82.7254 71.2246 81.375 72.7511 79.6136C74.2776 77.8523 75.3638 75.7386 76.0096 73.2727H86.4016C85.8145 77.2652 84.3614 80.8613 82.0423 84.0611C79.7525 87.2315 76.7141 89.7562 72.9272 91.6349C69.1696 93.4844 64.7956 94.4091 59.805 94.4091ZM129.071 94.4091C122.965 94.4091 117.607 92.956 112.998 90.0497C108.419 87.1435 104.837 83.0777 102.254 77.8523C99.6999 72.6269 98.4229 66.5208 98.4229 59.5341C98.4229 52.4886 99.6999 46.3385 102.254 41.0838C104.837 35.8291 108.419 31.7486 112.998 28.8423C117.607 25.9361 122.965 24.483 129.071 24.483C135.177 24.483 140.52 25.9361 145.099 28.8423C149.708 31.7486 153.289 35.8291 155.843 41.0838C158.427 46.3385 159.718 52.4886 159.718 59.5341C159.718 66.5208 158.427 72.6269 155.843 77.8523C153.289 83.0777 149.708 87.1435 145.099 90.0497C140.52 92.956 135.177 94.4091 129.071 94.4091ZM129.071 85.0739C133.709 85.0739 137.525 83.8849 140.52 81.5071C143.514 79.1293 145.73 76.0028 147.169 72.1278C148.607 68.2528 149.326 64.0549 149.326 59.5341C149.326 55.0133 148.607 50.8007 147.169 46.8963C145.73 42.9919 143.514 39.8362 140.52 37.429C137.525 35.0218 133.709 33.8182 129.071 33.8182C124.432 33.8182 120.616 35.0218 117.622 37.429C114.627 39.8362 112.411 42.9919 110.973 46.8963C109.534 50.8007 108.815 55.0133 108.815 59.5341C108.815 64.0549 109.534 68.2528 110.973 72.1278C112.411 76.0028 114.627 79.1293 117.622 81.5071C120.616 83.8849 124.432 85.0739 129.071 85.0739ZM185.974 52.3125V93H175.582V25.3636H185.621V35.9318H186.502C188.087 32.4972 190.495 29.7377 193.724 27.6534C196.953 25.5398 201.121 24.483 206.229 24.483C210.809 24.483 214.816 25.4223 218.251 27.3011C221.685 29.1506 224.357 31.9688 226.265 35.7557C228.173 39.5133 229.127 44.2689 229.127 50.0227V93H218.735V50.7273C218.735 45.4138 217.355 41.2746 214.596 38.3097C211.836 35.3153 208.049 33.8182 203.235 33.8182C199.918 33.8182 196.953 34.5374 194.34 35.9758C191.757 37.4143 189.717 39.5133 188.219 42.2727C186.722 45.0322 185.974 48.3788 185.974 52.3125ZM296.026 40.5114L286.691 43.1534C286.104 41.5975 285.238 40.0857 284.093 38.6179C282.977 37.1207 281.451 35.8878 279.513 34.919C277.576 33.9503 275.095 33.4659 272.071 33.4659C267.932 33.4659 264.483 34.42 261.723 36.3281C258.993 38.2069 257.628 40.5994 257.628 43.5057C257.628 46.089 258.568 48.1293 260.446 49.6264C262.325 51.1236 265.261 52.3712 269.253 53.3693L279.293 55.8352C285.34 57.303 289.846 59.5488 292.811 62.5724C295.776 65.5668 297.259 69.4271 297.259 74.1534C297.259 78.0284 296.143 81.4924 293.912 84.5455C291.711 87.5985 288.628 90.0057 284.665 91.767C280.702 93.5284 276.093 94.4091 270.838 94.4091C263.94 94.4091 258.23 92.9119 253.709 89.9176C249.188 86.9233 246.326 82.5492 245.123 76.7955L254.986 74.3295C255.926 77.9697 257.702 80.6998 260.314 82.5199C262.956 84.34 266.406 85.25 270.662 85.25C275.506 85.25 279.352 84.2225 282.199 82.1676C285.076 80.0833 286.515 77.5881 286.515 74.6818C286.515 72.3333 285.693 70.3665 284.049 68.7812C282.405 67.1667 279.88 65.9631 276.475 65.1705L265.202 62.5284C259.008 61.0606 254.458 58.7855 251.551 55.7031C248.675 52.5914 247.236 48.7017 247.236 44.0341C247.236 40.2178 248.308 36.8419 250.451 33.9062C252.623 30.9706 255.573 28.6662 259.301 26.9929C263.059 25.3196 267.316 24.483 272.071 24.483C278.765 24.483 284.019 25.9508 287.836 28.8864C291.681 31.822 294.411 35.697 296.026 40.5114ZM373.317 94.233C367.387 94.233 362.279 93.1468 357.993 90.9744C353.707 88.8021 350.404 85.8224 348.085 82.0355C345.766 78.2486 344.607 73.9186 344.607 69.0455C344.607 65.2879 345.399 61.956 346.984 59.0497C348.599 56.1141 350.815 53.3987 353.634 50.9034C356.481 48.3788 359.754 45.8542 363.453 43.3295L376.487 33.642C379.041 31.9687 381.081 30.178 382.608 28.2699C384.164 26.3617 384.942 23.8665 384.942 20.7841C384.942 18.4943 383.929 16.2779 381.903 14.1349C379.907 11.9919 377.28 10.9205 374.021 10.9205C371.732 10.9205 369.706 11.5076 367.945 12.6818C366.213 13.8267 364.848 15.2945 363.849 17.0852C362.881 18.8466 362.396 20.6667 362.396 22.5455C362.396 24.6591 362.969 26.8021 364.114 28.9744C365.288 31.1174 366.77 33.3191 368.561 35.5795C370.381 37.8106 372.26 40.1004 374.197 42.4489L415.589 93H403.084L368.913 51.7841C365.743 47.9678 362.866 44.5038 360.283 41.392C357.699 38.2803 355.644 35.2126 354.118 32.1889C352.591 29.1652 351.828 25.892 351.828 22.3693C351.828 18.3182 352.723 14.7661 354.514 11.7131C356.334 8.63068 358.874 6.23816 362.132 4.53551C365.42 2.8035 369.266 1.9375 373.669 1.9375C378.19 1.9375 382.08 2.81818 385.338 4.57954C388.597 6.31155 391.107 8.616 392.868 11.4929C394.629 14.3404 395.51 17.4375 395.51 20.7841C395.51 25.0994 394.438 28.8423 392.295 32.0128C390.152 35.1832 387.232 38.1335 383.533 40.8636L365.567 54.25C361.516 57.2443 358.771 60.1506 357.332 62.9688C355.894 65.7869 355.175 67.8125 355.175 69.0455C355.175 71.8636 355.909 74.491 357.376 76.9276C358.844 79.3641 360.914 81.331 363.585 82.8281C366.257 84.3253 369.383 85.0739 372.964 85.0739C376.37 85.0739 379.687 84.3546 382.916 82.9162C386.145 81.4484 389.066 79.3348 391.679 76.5753C394.321 73.8158 396.405 70.4986 397.932 66.6236C399.488 62.7486 400.266 58.3892 400.266 53.5455H410.305C410.305 59.5341 409.616 64.4219 408.236 68.2088C406.856 71.9957 405.3 74.9607 403.568 77.1037C401.836 79.2467 400.442 80.8466 399.385 81.9034C399.033 82.3437 398.71 82.7841 398.416 83.2244C398.123 83.6648 397.8 84.1051 397.447 84.5455C394.541 87.804 390.872 90.2405 386.439 91.8551C382.006 93.4403 377.632 94.233 373.317 94.233ZM525.025 31C524.056 28.035 522.779 25.3783 521.194 23.0298C519.638 20.652 517.774 18.6264 515.602 16.9531C513.459 15.2798 511.022 14.0028 508.292 13.1222C505.562 12.2415 502.568 11.8011 499.309 11.8011C493.967 11.8011 489.108 13.1809 484.734 15.9403C480.36 18.6998 476.881 22.7656 474.298 28.1378C471.715 33.5099 470.423 40.1004 470.423 47.9091C470.423 55.7178 471.729 62.3082 474.342 67.6804C476.955 73.0526 480.492 77.1184 484.954 79.8778C489.416 82.6373 494.436 84.017 500.014 84.017C505.181 84.017 509.731 82.9162 513.664 80.7145C517.627 78.4834 520.71 75.3423 522.912 71.2912C525.143 67.2107 526.258 62.411 526.258 56.892L529.605 57.5966H502.48V47.9091H536.826V57.5966C536.826 65.0237 535.241 71.482 532.071 76.9716C528.93 82.4612 524.585 86.7178 519.037 89.7415C513.518 92.7358 507.177 94.233 500.014 94.233C492.029 94.233 485.013 92.3542 478.966 88.5966C472.948 84.839 468.251 79.4962 464.875 72.5682C461.528 65.6402 459.855 57.4205 459.855 47.9091C459.855 40.7756 460.809 34.3613 462.717 28.6662C464.654 22.9418 467.385 18.0687 470.907 14.0469C474.43 10.0251 478.599 6.94271 483.413 4.79971C488.227 2.65672 493.526 1.58522 499.309 1.58522C504.065 1.58522 508.498 2.30445 512.608 3.74289C516.747 5.15198 520.431 7.16287 523.66 9.77556C526.919 12.3589 529.634 15.456 531.806 19.0668C533.979 22.6482 535.476 26.6259 536.298 31H525.025ZM554.121 93V25.3636H564.161V35.5795H564.865C566.098 32.233 568.329 29.5175 571.558 27.4332C574.787 25.349 578.428 24.3068 582.479 24.3068C583.242 24.3068 584.196 24.3215 585.341 24.3508C586.486 24.3802 587.352 24.4242 587.939 24.483V35.0511C587.587 34.9631 586.779 34.831 585.517 34.6548C584.284 34.4493 582.978 34.3466 581.598 34.3466C578.31 34.3466 575.375 35.0365 572.791 36.4162C570.237 37.7666 568.212 39.6454 566.714 42.0526C565.247 44.4304 564.513 47.1458 564.513 50.1989V93H554.121ZM620.161 94.5852C615.875 94.5852 611.985 93.7779 608.492 92.1634C604.998 90.5194 602.224 88.1562 600.169 85.0739C598.114 81.9621 597.087 78.2045 597.087 73.8011C597.087 69.9261 597.85 66.785 599.377 64.3778C600.903 61.9413 602.944 60.0331 605.498 58.6534C608.051 57.2737 610.87 56.2462 613.952 55.571C617.064 54.8665 620.19 54.3087 623.331 53.8977C627.441 53.3693 630.773 52.973 633.327 52.7088C635.91 52.4152 637.789 51.9309 638.963 51.2557C640.167 50.5805 640.769 49.4062 640.769 47.733V47.3807C640.769 43.036 639.58 39.66 637.202 37.2528C634.854 34.8456 631.287 33.642 626.502 33.642C621.541 33.642 617.651 34.7282 614.833 36.9006C612.015 39.0729 610.033 41.392 608.888 43.858L599.025 40.3352C600.786 36.2254 603.134 33.0256 606.07 30.7358C609.035 28.4167 612.264 26.8021 615.757 25.892C619.28 24.9527 622.744 24.483 626.15 24.483C628.322 24.483 630.817 24.7472 633.635 25.2756C636.483 25.7746 639.228 26.8168 641.87 28.402C644.541 29.9872 646.757 32.3797 648.519 35.5795C650.28 38.7794 651.161 43.0653 651.161 48.4375V93H640.769V83.8409H640.24C639.536 85.3087 638.362 86.8793 636.718 88.5526C635.074 90.2259 632.887 91.6496 630.157 92.8239C627.426 93.9981 624.095 94.5852 620.161 94.5852ZM621.746 85.25C625.856 85.25 629.32 84.4427 632.138 82.8281C634.986 81.2135 637.129 79.1293 638.567 76.5753C640.035 74.0213 640.769 71.3352 640.769 68.517V59.0057C640.328 59.5341 639.36 60.0185 637.863 60.4588C636.395 60.8698 634.692 61.2367 632.755 61.5597C630.846 61.8532 628.982 62.1174 627.162 62.3523C625.372 62.5578 623.918 62.7339 622.803 62.8807C620.102 63.233 617.578 63.8054 615.229 64.598C612.91 65.3613 611.031 66.5208 609.593 68.0767C608.184 69.6032 607.479 71.6875 607.479 74.3295C607.479 77.9403 608.815 80.6705 611.486 82.5199C614.187 84.34 617.607 85.25 621.746 85.25ZM670.129 118.364V25.3636H680.168V36.108H681.401C682.165 34.9337 683.221 33.4366 684.572 31.6165C685.951 29.767 687.918 28.1231 690.472 26.6847C693.056 25.2169 696.549 24.483 700.952 24.483C706.647 24.483 711.667 25.9067 716.012 28.7543C720.357 31.6018 723.747 35.6383 726.184 40.8636C728.621 46.089 729.839 52.2538 729.839 59.358C729.839 66.5208 728.621 72.7296 726.184 77.9844C723.747 83.2098 720.371 87.2609 716.056 90.1378C711.741 92.9853 706.765 94.4091 701.129 94.4091C696.784 94.4091 693.305 93.6899 690.692 92.2514C688.08 90.7836 686.069 89.125 684.66 87.2756C683.251 85.3968 682.165 83.8409 681.401 82.608H680.521V118.364H670.129ZM680.344 59.1818C680.344 64.2898 681.093 68.7959 682.59 72.7003C684.087 76.5753 686.274 79.6136 689.151 81.8153C692.028 83.9877 695.551 85.0739 699.719 85.0739C704.064 85.0739 707.69 83.929 710.596 81.6392C713.531 79.3201 715.733 76.2083 717.201 72.304C718.698 68.3703 719.447 63.9962 719.447 59.1818C719.447 54.4261 718.713 50.1402 717.245 46.3239C715.807 42.4782 713.62 39.4399 710.684 37.2088C707.778 34.9484 704.123 33.8182 699.719 33.8182C695.492 33.8182 691.94 34.8897 689.063 37.0327C686.186 39.1463 684.014 42.1113 682.546 45.9276C681.078 49.7145 680.344 54.1326 680.344 59.1818ZM756.083 52.3125V93H745.691V2.81818H756.083V35.9318H756.964C758.549 32.4384 760.927 29.6643 764.097 27.6094C767.297 25.5251 771.554 24.483 776.867 24.483C781.476 24.483 785.513 25.4077 788.977 27.2571C792.441 29.0772 795.127 31.8807 797.035 35.6676C798.972 39.4252 799.941 44.2102 799.941 50.0227V93H789.549V50.7273C789.549 45.3551 788.155 41.2012 785.366 38.2656C782.606 35.3007 778.775 33.8182 773.873 33.8182C770.468 33.8182 767.415 34.5374 764.714 35.9758C762.042 37.4143 759.929 39.5133 758.373 42.2727C756.846 45.0322 756.083 48.3788 756.083 52.3125ZM818.953 93V25.3636H829.345V93H818.953ZM824.237 14.0909C822.211 14.0909 820.465 13.401 818.997 12.0213C817.558 10.6416 816.839 8.98296 816.839 7.04546C816.839 5.10796 817.558 3.44934 818.997 2.0696C820.465 0.689866 822.211 0 824.237 0C826.262 0 827.994 0.689866 829.433 2.0696C830.901 3.44934 831.635 5.10796 831.635 7.04546C831.635 8.98296 830.901 10.6416 829.433 12.0213C827.994 13.401 826.262 14.0909 824.237 14.0909ZM875.856 94.4091C869.515 94.4091 864.055 92.9119 859.475 89.9176C854.896 86.9233 851.373 82.7988 848.907 77.544C846.441 72.2893 845.208 66.286 845.208 59.5341C845.208 52.6648 846.47 46.6027 848.995 41.348C851.549 36.0639 855.101 31.9394 859.651 28.9744C864.231 25.9801 869.574 24.483 875.68 24.483C880.435 24.483 884.721 25.3636 888.538 27.125C892.354 28.8864 895.48 31.3523 897.917 34.5227C900.353 37.6932 901.865 41.392 902.452 45.6193H892.06C891.268 42.5369 889.506 39.8068 886.776 37.429C884.076 35.0218 880.435 33.8182 875.856 33.8182C871.805 33.8182 868.253 34.875 865.2 36.9886C862.176 39.0729 859.813 42.0232 858.11 45.8395C856.437 49.6264 855.6 54.0739 855.6 59.1818C855.6 64.4072 856.422 68.9574 858.066 72.8324C859.739 76.7074 862.088 79.7164 865.112 81.8594C868.165 84.0024 871.746 85.0739 875.856 85.0739C878.557 85.0739 881.008 84.6042 883.21 83.6648C885.411 82.7254 887.275 81.375 888.802 79.6136C890.328 77.8523 891.415 75.7386 892.06 73.2727H902.452C901.865 77.2652 900.412 80.8613 898.093 84.0611C895.803 87.2315 892.765 89.7562 888.978 91.6349C885.22 93.4844 880.846 94.4091 875.856 94.4091ZM965.553 40.5114L956.218 43.1534C955.631 41.5975 954.765 40.0857 953.62 38.6179C952.505 37.1207 950.978 35.8878 949.04 34.919C947.103 33.9503 944.622 33.4659 941.599 33.4659C937.46 33.4659 934.01 34.42 931.251 36.3281C928.521 38.2069 927.156 40.5994 927.156 43.5057C927.156 46.089 928.095 48.1293 929.974 49.6264C931.853 51.1236 934.788 52.3712 938.781 53.3693L948.82 55.8352C954.868 57.303 959.374 59.5488 962.339 62.5724C965.304 65.5668 966.786 69.4271 966.786 74.1534C966.786 78.0284 965.671 81.4924 963.44 84.5455C961.238 87.5985 958.156 90.0057 954.192 91.767C950.229 93.5284 945.621 94.4091 940.366 94.4091C933.467 94.4091 927.757 92.9119 923.237 89.9176C918.716 86.9233 915.853 82.5492 914.65 76.7955L924.513 74.3295C925.453 77.9697 927.229 80.6998 929.842 82.5199C932.484 84.34 935.933 85.25 940.19 85.25C945.033 85.25 948.879 84.2225 951.727 82.1676C954.603 80.0833 956.042 77.5881 956.042 74.6818C956.042 72.3333 955.22 70.3665 953.576 68.7812C951.932 67.1667 949.407 65.9631 946.002 65.1705L934.729 62.5284C928.535 61.0606 923.985 58.7855 921.079 55.7031C918.202 52.5914 916.763 48.7017 916.763 44.0341C916.763 40.2178 917.835 36.8419 919.978 33.9062C922.15 30.9706 925.101 28.6662 928.829 26.9929C932.586 25.3196 936.843 24.483 941.599 24.483C948.292 24.483 953.547 25.9508 957.363 28.8864C961.209 31.822 963.939 35.697 965.553 40.5114Z" fill="white"/>
</svg>
