<svg width="407" height="118" viewBox="0 0 407 118" fill="none" xmlns="http://www.w3.org/2000/svg">
<path d="M11.8409 0.818179V91H0.920455V0.818179H11.8409ZM32.3278 91V23.3636H42.3675V33.9318H43.2482C44.6573 30.321 46.9324 27.5175 50.0735 25.5213C53.2146 23.4957 56.9869 22.483 61.3903 22.483C65.8524 22.483 69.5659 23.4957 72.5309 25.5213C75.5252 27.5175 77.859 30.321 79.5323 33.9318H80.2369C81.9689 30.4384 84.5669 27.6643 88.0309 25.6094C91.4949 23.5251 95.6488 22.483 100.493 22.483C106.54 22.483 111.486 24.3764 115.332 28.1633C119.178 31.9209 121.101 37.7775 121.101 45.733V91H110.708V45.733C110.708 40.7424 109.343 37.1757 106.613 35.0327C103.883 32.8897 100.669 31.8182 96.9698 31.8182C92.2141 31.8182 88.53 33.2566 85.9173 36.1335C83.3046 38.9811 81.9982 42.5919 81.9982 46.9659V91H71.43V44.6761C71.43 40.8305 70.1824 37.7334 67.6871 35.3849C65.1919 33.0071 61.9774 31.8182 58.0437 31.8182C55.3429 31.8182 52.8183 32.5374 50.4698 33.9758C48.1507 35.4143 46.2719 37.4105 44.8335 39.9645C43.4244 42.4891 42.7198 45.41 42.7198 48.7273V91H32.3278ZM160.005 92.5852C155.719 92.5852 151.829 91.7779 148.336 90.1634C144.842 88.5194 142.068 86.1562 140.013 83.0739C137.958 79.9621 136.931 76.2045 136.931 71.8011C136.931 67.9261 137.694 64.785 139.221 62.3778C140.747 59.9413 142.787 58.0331 145.341 56.6534C147.895 55.2737 150.713 54.2462 153.796 53.571C156.908 52.8665 160.034 52.3087 163.175 51.8977C167.285 51.3693 170.617 50.973 173.171 50.7088C175.754 50.4152 177.633 49.9309 178.807 49.2557C180.011 48.5805 180.613 47.4062 180.613 45.733V45.3807C180.613 41.036 179.424 37.66 177.046 35.2528C174.697 32.8456 171.131 31.642 166.346 31.642C161.384 31.642 157.495 32.7282 154.676 34.9006C151.858 37.0729 149.877 39.392 148.732 41.858L138.868 38.3352C140.63 34.2254 142.978 31.0256 145.914 28.7358C148.879 26.4167 152.108 24.8021 155.601 23.892C159.124 22.9527 162.588 22.483 165.993 22.483C168.166 22.483 170.661 22.7472 173.479 23.2756C176.327 23.7746 179.071 24.8168 181.713 26.402C184.385 27.9872 186.601 30.3797 188.363 33.5795C190.124 36.7794 191.005 41.0653 191.005 46.4375V91H180.613V81.8409H180.084C179.38 83.3087 178.205 84.8793 176.561 86.5526C174.917 88.2259 172.73 89.6496 170 90.8239C167.27 91.9981 163.938 92.5852 160.005 92.5852ZM161.59 83.25C165.7 83.25 169.164 82.4427 171.982 80.8281C174.829 79.2135 176.972 77.1293 178.411 74.5753C179.879 72.0213 180.613 69.3352 180.613 66.517V57.0057C180.172 57.5341 179.203 58.0185 177.706 58.4588C176.239 58.8698 174.536 59.2367 172.598 59.5597C170.69 59.8532 168.826 60.1174 167.006 60.3523C165.215 60.5578 163.762 60.7339 162.647 60.8807C159.946 61.233 157.421 61.8054 155.073 62.598C152.754 63.3613 150.875 64.5208 149.436 66.0767C148.027 67.6032 147.323 69.6875 147.323 72.3295C147.323 75.9403 148.658 78.6705 151.33 80.5199C154.031 82.34 157.451 83.25 161.59 83.25ZM237.273 117.773C232.254 117.773 227.938 117.127 224.327 115.835C220.717 114.573 217.708 112.9 215.3 110.815C212.923 108.76 211.029 106.559 209.62 104.21L217.898 98.3977C218.838 99.6307 220.027 101.04 221.465 102.625C222.904 104.24 224.871 105.634 227.366 106.808C229.89 108.012 233.193 108.614 237.273 108.614C242.734 108.614 247.24 107.293 250.792 104.651C254.344 102.009 256.12 97.8693 256.12 92.233V78.4943H255.239C254.476 79.7273 253.39 81.2538 251.981 83.0739C250.601 84.8646 248.605 86.4645 245.992 87.8736C243.409 89.2533 239.915 89.9432 235.512 89.9432C230.052 89.9432 225.149 88.6515 220.805 86.0682C216.489 83.4848 213.069 79.7273 210.545 74.7955C208.049 69.8636 206.802 63.875 206.802 56.8295C206.802 49.9015 208.02 43.8688 210.457 38.7315C212.893 33.5649 216.284 29.5724 220.629 26.7543C224.973 23.9067 229.993 22.483 235.688 22.483C240.092 22.483 243.585 23.2169 246.168 24.6847C248.781 26.1231 250.777 27.767 252.157 29.6165C253.566 31.4366 254.652 32.9337 255.415 34.108H256.472V23.3636H266.512V92.9375C266.512 98.75 265.191 103.476 262.549 107.116C259.936 110.786 256.414 113.472 251.981 115.175C247.577 116.907 242.675 117.773 237.273 117.773ZM236.921 80.608C241.09 80.608 244.612 79.6539 247.489 77.7457C250.366 75.8376 252.553 73.0928 254.05 69.5114C255.548 65.9299 256.296 61.6439 256.296 56.6534C256.296 51.7803 255.562 47.4796 254.094 43.7514C252.627 40.0232 250.454 37.1023 247.577 34.9886C244.701 32.875 241.148 31.8182 236.921 31.8182C232.518 31.8182 228.848 32.9337 225.913 35.1648C223.006 37.3958 220.819 40.3902 219.352 44.1477C217.913 47.9053 217.194 52.0739 217.194 56.6534C217.194 61.3504 217.928 65.5043 219.396 69.1151C220.893 72.6965 223.094 75.5147 226.001 77.5696C228.936 79.5952 232.576 80.608 236.921 80.608ZM313.893 92.4091C307.376 92.4091 301.754 90.9706 297.028 88.0938C292.331 85.1875 288.705 81.1364 286.151 75.9403C283.627 70.715 282.364 64.6383 282.364 57.7102C282.364 50.7822 283.627 44.6761 286.151 39.392C288.705 34.0786 292.257 29.9394 296.808 26.9744C301.387 23.9801 306.73 22.483 312.836 22.483C316.359 22.483 319.837 23.0701 323.272 24.2443C326.707 25.4186 329.833 27.3267 332.651 29.9688C335.469 32.5814 337.715 36.0455 339.388 40.3608C341.062 44.6761 341.898 49.9896 341.898 56.3011V60.7045H289.762V51.7216H331.33C331.33 47.9053 330.567 44.5 329.04 41.5057C327.543 38.5114 325.4 36.1482 322.612 34.4162C319.852 32.6842 316.594 31.8182 312.836 31.8182C308.697 31.8182 305.115 32.8456 302.092 34.9006C299.097 36.9261 296.793 39.5682 295.178 42.8267C293.564 46.0852 292.756 49.5786 292.756 53.3068V59.2955C292.756 64.4034 293.637 68.7334 295.398 72.2855C297.189 75.8082 299.67 78.4943 302.84 80.3438C306.011 82.1638 309.695 83.0739 313.893 83.0739C316.623 83.0739 319.089 82.6922 321.29 81.929C323.522 81.1364 325.444 79.9621 327.059 78.4062C328.674 76.821 329.921 74.8542 330.802 72.5057L340.842 75.3239C339.785 78.7292 338.009 81.7235 335.513 84.3068C333.018 86.8608 329.936 88.857 326.266 90.2955C322.597 91.7045 318.472 92.4091 313.893 92.4091ZM405.616 38.5114L396.281 41.1534C395.693 39.5975 394.827 38.0857 393.683 36.6179C392.567 35.1207 391.04 33.8878 389.103 32.919C387.165 31.9503 384.685 31.4659 381.661 31.4659C377.522 31.4659 374.073 32.42 371.313 34.3281C368.583 36.2069 367.218 38.5994 367.218 41.5057C367.218 44.089 368.157 46.1293 370.036 47.6264C371.915 49.1236 374.851 50.3712 378.843 51.3693L388.883 53.8352C394.93 55.303 399.436 57.5488 402.401 60.5724C405.366 63.5668 406.849 67.4271 406.849 72.1534C406.849 76.0284 405.733 79.4924 403.502 82.5455C401.3 85.5985 398.218 88.0057 394.255 89.767C390.292 91.5284 385.683 92.4091 380.428 92.4091C373.53 92.4091 367.82 90.9119 363.299 87.9176C358.778 84.9233 355.916 80.5492 354.712 74.7955L364.576 72.3295C365.515 75.9697 367.291 78.6998 369.904 80.5199C372.546 82.34 375.996 83.25 380.252 83.25C385.096 83.25 388.942 82.2225 391.789 80.1676C394.666 78.0833 396.104 75.5881 396.104 72.6818C396.104 70.3333 395.282 68.3665 393.638 66.7812C391.995 65.1667 389.47 63.9631 386.065 63.1705L374.792 60.5284C368.598 59.0606 364.048 56.7855 361.141 53.7031C358.264 50.5914 356.826 46.7017 356.826 42.0341C356.826 38.2178 357.897 34.8419 360.04 31.9062C362.213 28.9706 365.163 26.6662 368.891 24.9929C372.649 23.3196 376.906 22.483 381.661 22.483C388.354 22.483 393.609 23.9508 397.425 26.8864C401.271 29.822 404.001 33.697 405.616 38.5114Z" fill="white"/>
</svg>
