<svg width="10" height="14" viewBox="0 0 10 14" fill="none" xmlns="http://www.w3.org/2000/svg">
<path d="M5.33366 0.333252C2.75366 0.333252 0.666992 2.41992 0.666992 4.99992C0.666992 7.77992 3.61366 11.6133 4.82699 13.0733C5.09366 13.3933 5.58033 13.3933 5.84699 13.0733C7.05366 11.6133 10.0003 7.77992 10.0003 4.99992C10.0003 2.41992 7.91366 0.333252 5.33366 0.333252ZM5.33366 6.66658C4.41366 6.66658 3.66699 5.91992 3.66699 4.99992C3.66699 4.07992 4.41366 3.33325 5.33366 3.33325C6.25366 3.33325 7.00033 4.07992 7.00033 4.99992C7.00033 5.91992 6.25366 6.66658 5.33366 6.66658Z" fill="white"/>
</svg>
