<svg width="48" height="48" viewBox="0 0 48 48" fill="none" xmlns="http://www.w3.org/2000/svg">
<g clip-path="url(#clip0_4002_874)">
<path fill-rule="evenodd" clip-rule="evenodd" d="M27.135 13.2725L25.3916 24.3515L23.6482 19.3182L18.418 20.3305L27.135 13.2725Z" stroke="#090F16" stroke-width="1.5" stroke-linecap="round" stroke-linejoin="round"/>
<path d="M23.3957 43.0792C22.1584 41.0827 20.7525 38.9175 19.3184 36.6961C16.6234 32.74 14.1179 28.6581 11.8105 24.4641C10.4802 21.8928 10.0083 18.9632 10.4637 16.1042C10.9191 13.2453 12.2779 10.6073 14.3412 8.57658C16.2416 6.64499 18.6754 5.32465 21.3308 4.78468C23.9861 4.24471 26.7423 4.50968 29.2461 5.54566C31.75 6.58164 33.8876 8.34146 35.3852 10.5997C36.8828 12.858 37.6722 15.5119 37.6523 18.2216C37.6525 20.3603 37.1517 22.4694 36.1901 24.3797C34.278 28.1478 31.4098 32.5625 28.6541 36.7523C27.1918 39.0019 25.7577 41.1671 24.6048 43.0792L23.9862 44.0634L23.3957 43.0792ZM20.4994 35.9369C21.7085 37.8209 22.9177 39.6486 23.9862 41.392C25.0829 39.6768 26.2358 37.849 27.473 35.9931C30.2006 31.8314 33.0969 27.4166 34.9247 23.733C36.1033 21.438 36.5206 18.8273 36.1162 16.2792C35.7117 13.7311 34.5065 11.378 32.6751 9.56076C30.9714 7.82161 28.7864 6.63182 26.401 6.14434C24.0157 5.65687 21.539 5.894 19.2895 6.82524C17.04 7.75649 15.1205 9.33928 13.7777 11.3701C12.4349 13.401 11.7302 15.787 11.7542 18.2216C11.7503 20.1769 12.213 22.1049 13.104 23.8455C15.0161 27.501 17.7999 31.8314 20.4994 35.9369Z" fill="#090F16"/>
<path d="M23.9859 27.3039C29.0021 27.3039 33.0685 23.2375 33.0685 18.2213C33.0685 13.2051 29.0021 9.13867 23.9859 9.13867C18.9698 9.13867 14.9033 13.2051 14.9033 18.2213C14.9033 23.2375 18.9698 27.3039 23.9859 27.3039Z" stroke="#090F16" stroke-width="2"/>
</g>
<defs>
<clipPath id="clip0_4002_874">
<rect width="48" height="48" fill="white"/>
</clipPath>
</defs>
</svg>
