<svg width="120" height="120" viewBox="0 0 120 120" fill="none" xmlns="http://www.w3.org/2000/svg">
<rect width="120" height="120" rx="60" fill="url(#paint0_linear_4002_784)"/>
<path d="M39.2274 47.384C37.414 47.384 35.814 46.8933 34.4274 45.912C33.0407 44.9093 31.9527 43.544 31.1634 41.816C30.374 40.0667 29.9794 38.0613 29.9794 35.8C29.9794 33.5387 30.374 31.544 31.1634 29.816C31.9527 28.0667 33.03 26.7013 34.3954 25.72C35.782 24.7173 37.382 24.216 39.1954 24.216C41.0087 24.216 42.6087 24.7173 43.9954 25.72C45.4034 26.7013 46.502 28.0667 47.2914 29.816C48.0807 31.544 48.4754 33.5387 48.4754 35.8C48.4754 38.0613 48.0807 40.0667 47.2914 41.816C46.502 43.544 45.414 44.9093 44.0274 45.912C42.6407 46.8933 41.0407 47.384 39.2274 47.384ZM39.2274 43.416C40.1874 43.416 41.0407 43.096 41.7874 42.456C42.5554 41.7947 43.1527 40.8987 43.5794 39.768C44.006 38.616 44.2194 37.2933 44.2194 35.8C44.2194 34.3067 44.006 32.984 43.5794 31.832C43.1527 30.68 42.5554 29.784 41.7874 29.144C41.0407 28.4827 40.1767 28.152 39.1954 28.152C38.2354 28.152 37.382 28.4827 36.6354 29.144C35.8887 29.784 35.302 30.68 34.8754 31.832C34.47 32.984 34.2674 34.3067 34.2674 35.8C34.2674 37.2933 34.47 38.616 34.8754 39.768C35.302 40.8987 35.8887 41.7947 36.6354 42.456C37.4034 43.096 38.2674 43.416 39.2274 43.416ZM54.6654 41.336L54.1534 35.832L64.6494 24.6H70.3134L54.6654 41.336ZM52.0414 47V24.6H56.3614V47H52.0414ZM65.2574 47L56.3294 35.608L59.4974 32.984L70.6654 47H65.2574ZM79.3379 44.856V30.072H82.7619V44.856H79.3379ZM73.6419 39.192V35.768H88.4259V39.192H73.6419Z" fill="#090F16"/>
<path d="M30.4967 71.692C29.43 71.692 28.4807 71.4467 27.6487 70.956C26.8167 70.4547 26.166 69.772 25.6967 68.908C25.2274 68.0333 24.9927 67.0307 24.9927 65.9C24.9927 64.7693 25.2274 63.772 25.6967 62.908C26.166 62.0333 26.8114 61.3507 27.6327 60.86C28.454 60.3587 29.398 60.108 30.4647 60.108C31.158 60.108 31.8194 60.236 32.4487 60.492C33.078 60.7373 33.638 61.084 34.1287 61.532C34.63 61.9693 35.014 62.4813 35.2807 63.068L33.8727 63.708C33.67 63.2707 33.3927 62.892 33.0407 62.572C32.6887 62.252 32.2887 62.0013 31.8407 61.82C31.4034 61.6387 30.9447 61.548 30.4647 61.548C29.718 61.548 29.0514 61.7347 28.4647 62.108C27.878 62.4813 27.4194 62.9933 27.0887 63.644C26.758 64.2947 26.5927 65.0467 26.5927 65.9C26.5927 66.7533 26.758 67.5107 27.0887 68.172C27.43 68.8333 27.894 69.3507 28.4807 69.724C29.078 70.0867 29.7554 70.268 30.5127 70.268C31.0034 70.268 31.4674 70.172 31.9047 69.98C32.342 69.7773 32.7314 69.5053 33.0727 69.164C33.4247 68.812 33.7074 68.412 33.9207 67.964L35.3287 68.588C35.062 69.196 34.6834 69.7347 34.1927 70.204C33.702 70.6733 33.1367 71.0413 32.4967 71.308C31.8674 71.564 31.2007 71.692 30.4967 71.692ZM42.3476 71.5L42.2516 70.028V63.5H43.7556V71.5H42.3476ZM36.7156 67.596V63.5H38.2356V67.596H36.7156ZM38.2356 67.596C38.2356 68.3107 38.3156 68.86 38.4756 69.244C38.6462 69.628 38.8809 69.8947 39.1796 70.044C39.4782 70.1933 39.8142 70.2733 40.1876 70.284C40.8382 70.284 41.3449 70.0547 41.7076 69.596C42.0702 69.1373 42.2516 68.492 42.2516 67.66H42.9076C42.9076 68.5027 42.7796 69.228 42.5236 69.836C42.2782 70.4333 41.9262 70.892 41.4676 71.212C41.0089 71.532 40.4489 71.692 39.7876 71.692C39.1689 71.692 38.6249 71.564 38.1556 71.308C37.6969 71.052 37.3396 70.652 37.0836 70.108C36.8382 69.564 36.7156 68.86 36.7156 67.996V67.596H38.2356ZM48.7403 71.692C48.175 71.692 47.6683 71.6067 47.2203 71.436C46.783 71.2653 46.4096 71.036 46.1003 70.748C45.8016 70.46 45.5776 70.1347 45.4283 69.772L46.7403 69.196C46.911 69.5267 47.167 69.7987 47.5083 70.012C47.8496 70.2253 48.2283 70.332 48.6443 70.332C49.103 70.332 49.4816 70.2467 49.7803 70.076C50.079 69.9053 50.2283 69.6653 50.2283 69.356C50.2283 69.0573 50.1163 68.8227 49.8923 68.652C49.6683 68.4813 49.343 68.3427 48.9163 68.236L48.1643 68.044C47.4176 67.8413 46.8363 67.5373 46.4203 67.132C46.015 66.7267 45.8123 66.268 45.8123 65.756C45.8123 64.9773 46.063 64.3747 46.5643 63.948C47.0656 63.5213 47.807 63.308 48.7883 63.308C49.2683 63.308 49.7056 63.3773 50.1003 63.516C50.5056 63.6547 50.847 63.852 51.1243 64.108C51.4123 64.364 51.615 64.668 51.7323 65.02L50.4523 65.596C50.3243 65.276 50.1056 65.0413 49.7963 64.892C49.487 64.732 49.1243 64.652 48.7083 64.652C48.2816 64.652 47.9456 64.748 47.7003 64.94C47.455 65.1213 47.3323 65.3773 47.3323 65.708C47.3323 65.8893 47.4336 66.0653 47.6363 66.236C47.8496 66.396 48.159 66.5293 48.5643 66.636L49.4283 66.844C49.951 66.972 50.383 67.1693 50.7243 67.436C51.0656 67.692 51.3216 67.9853 51.4923 68.316C51.663 68.636 51.7483 68.972 51.7483 69.324C51.7483 69.804 51.615 70.2253 51.3483 70.588C51.0923 70.94 50.735 71.212 50.2763 71.404C49.8283 71.596 49.3163 71.692 48.7403 71.692ZM56.4174 71.692C55.6174 71.692 54.9988 71.4893 54.5614 71.084C54.1241 70.668 53.9054 70.076 53.9054 69.308V61.004H55.4254V69.084C55.4254 69.4787 55.5214 69.7827 55.7134 69.996C55.9161 70.1987 56.2041 70.3 56.5774 70.3C56.6841 70.3 56.8014 70.2787 56.9294 70.236C57.0574 70.1933 57.2121 70.108 57.3934 69.98L57.9694 71.164C57.6921 71.3453 57.4254 71.4787 57.1694 71.564C56.9241 71.6493 56.6734 71.692 56.4174 71.692ZM52.5454 64.812V63.5H57.6974V64.812H52.5454ZM63.0236 71.692C62.2236 71.692 61.5196 71.516 60.9116 71.164C60.3036 70.8013 59.8236 70.3053 59.4716 69.676C59.1302 69.0467 58.9596 68.3213 58.9596 67.5C58.9596 66.6787 59.1302 65.9533 59.4716 65.324C59.8129 64.6947 60.2876 64.204 60.8956 63.852C61.5036 63.4893 62.2022 63.308 62.9916 63.308C63.7809 63.308 64.4796 63.4893 65.0876 63.852C65.6956 64.204 66.1702 64.6947 66.5116 65.324C66.8529 65.9533 67.0236 66.6787 67.0236 67.5C67.0236 68.3213 66.8529 69.0467 66.5116 69.676C66.1702 70.3053 65.6956 70.8013 65.0876 71.164C64.4902 71.516 63.8022 71.692 63.0236 71.692ZM63.0236 70.3C63.5036 70.3 63.9302 70.1827 64.3036 69.948C64.6769 69.7027 64.9649 69.372 65.1676 68.956C65.3809 68.54 65.4876 68.0547 65.4876 67.5C65.4876 66.9453 65.3809 66.46 65.1676 66.044C64.9649 65.628 64.6716 65.3027 64.2876 65.068C63.9036 64.8227 63.4716 64.7 62.9916 64.7C62.5009 64.7 62.0689 64.8227 61.6956 65.068C61.3222 65.3027 61.0289 65.628 60.8156 66.044C60.6022 66.46 60.4956 66.9453 60.4956 67.5C60.4956 68.0547 60.6022 68.54 60.8156 68.956C61.0289 69.372 61.3276 69.7027 61.7116 69.948C62.0956 70.1827 62.5329 70.3 63.0236 70.3ZM68.6888 71.5V63.5H70.1128L70.1768 64.604C70.4328 64.1773 70.7528 63.8573 71.1368 63.644C71.5208 63.42 71.9635 63.308 72.4648 63.308C73.1048 63.308 73.6488 63.4573 74.0968 63.756C74.5448 64.044 74.8701 64.4867 75.0728 65.084C75.3075 64.508 75.6381 64.0707 76.0648 63.772C76.4915 63.4627 76.9981 63.308 77.5848 63.308C78.4915 63.308 79.2008 63.6067 79.7128 64.204C80.2248 64.7907 80.4755 65.6973 80.4648 66.924V71.5H78.9608V67.404C78.9608 66.6787 78.8808 66.1293 78.7208 65.756C78.5715 65.372 78.3688 65.1053 78.1128 64.956C77.8568 64.8067 77.5581 64.7267 77.2168 64.716C76.6195 64.716 76.1555 64.9453 75.8248 65.404C75.5048 65.8627 75.3448 66.508 75.3448 67.34V71.5H73.8248V67.404C73.8248 66.6787 73.7501 66.1293 73.6008 65.756C73.4515 65.372 73.2435 65.1053 72.9768 64.956C72.7208 64.8067 72.4221 64.7267 72.0808 64.716C71.4835 64.716 71.0195 64.9453 70.6888 65.404C70.3688 65.8627 70.2088 66.508 70.2088 67.34V71.5H68.6888ZM85.9436 71.692C85.1649 71.692 84.4769 71.516 83.8796 71.164C83.2822 70.8013 82.8129 70.3053 82.4716 69.676C82.1302 69.0467 81.9596 68.3213 81.9596 67.5C81.9596 66.6787 82.1302 65.9533 82.4716 65.324C82.8129 64.6947 83.2822 64.204 83.8796 63.852C84.4876 63.4893 85.1809 63.308 85.9596 63.308C86.6956 63.308 87.3409 63.4947 87.8956 63.868C88.4502 64.2307 88.8822 64.7533 89.1916 65.436C89.5116 66.108 89.6716 66.9027 89.6716 67.82H83.2076L83.4956 67.58C83.4956 68.1453 83.6076 68.636 83.8316 69.052C84.0556 69.468 84.3596 69.788 84.7436 70.012C85.1276 70.2253 85.5649 70.332 86.0556 70.332C86.5889 70.332 87.0316 70.2093 87.3836 69.964C87.7462 69.708 88.0289 69.388 88.2316 69.004L89.5436 69.612C89.3302 70.028 89.0529 70.396 88.7116 70.716C88.3702 71.0253 87.9649 71.2653 87.4956 71.436C87.0369 71.6067 86.5196 71.692 85.9436 71.692ZM83.5916 66.86L83.2876 66.62H88.3436L88.0556 66.86C88.0556 66.3907 87.9596 65.9907 87.7676 65.66C87.5756 65.3187 87.3196 65.0627 86.9996 64.892C86.6796 64.7107 86.3222 64.62 85.9276 64.62C85.5436 64.62 85.1702 64.7107 84.8076 64.892C84.4556 65.0627 84.1622 65.3133 83.9276 65.644C83.7036 65.9747 83.5916 66.38 83.5916 66.86ZM92.1012 67.196C92.1012 66.332 92.2665 65.628 92.5972 65.084C92.9279 64.54 93.3545 64.1347 93.8772 63.868C94.3999 63.6013 94.9492 63.468 95.5252 63.468V64.908C95.0452 64.908 94.5865 64.9827 94.1492 65.132C93.7225 65.2707 93.3705 65.5053 93.0932 65.836C92.8265 66.156 92.6932 66.5933 92.6932 67.148L92.1012 67.196ZM91.1732 71.5V63.5H92.6932V71.5H91.1732ZM33.2822 91.692C32.6849 91.692 32.1409 91.6227 31.6502 91.484C31.1702 91.3453 30.7489 91.1587 30.3862 90.924C30.0342 90.6787 29.7409 90.4067 29.5062 90.108C29.2715 89.8093 29.1062 89.4947 29.0102 89.164L30.5302 88.668C30.6902 89.1053 30.9942 89.484 31.4422 89.804C31.8902 90.124 32.4395 90.2893 33.0902 90.3C33.8795 90.3 34.4982 90.1453 34.9462 89.836C35.4049 89.516 35.6342 89.0947 35.6342 88.572C35.6342 88.092 35.4369 87.7027 35.0422 87.404C34.6475 87.0947 34.1249 86.86 33.4742 86.7L32.1782 86.364C31.6662 86.2253 31.1969 86.028 30.7702 85.772C30.3542 85.516 30.0235 85.1907 29.7782 84.796C29.5329 84.4013 29.4102 83.9267 29.4102 83.372C29.4102 82.348 29.7409 81.548 30.4022 80.972C31.0742 80.396 32.0395 80.108 33.2982 80.108C34.0235 80.108 34.6529 80.2253 35.1862 80.46C35.7195 80.684 36.1569 80.9827 36.4982 81.356C36.8502 81.7293 37.1009 82.14 37.2502 82.588L35.7302 83.1C35.5489 82.62 35.2395 82.236 34.8022 81.948C34.3649 81.6493 33.8262 81.5 33.1862 81.5C32.5142 81.5 31.9809 81.66 31.5862 81.98C31.2022 82.3 31.0102 82.7373 31.0102 83.292C31.0102 83.7613 31.1595 84.124 31.4582 84.38C31.7675 84.6253 32.1782 84.812 32.6902 84.94L33.9862 85.26C35.0315 85.516 35.8369 85.9427 36.4022 86.54C36.9782 87.1267 37.2662 87.772 37.2662 88.476C37.2662 89.084 37.1115 89.6333 36.8022 90.124C36.5035 90.604 36.0555 90.988 35.4582 91.276C34.8715 91.5533 34.1462 91.692 33.2822 91.692ZM44.0071 91.5L43.9431 90.108V87.324C43.9431 86.7373 43.8737 86.2467 43.7351 85.852C43.6071 85.4573 43.4044 85.1587 43.1271 84.956C42.8604 84.7533 42.5031 84.652 42.0551 84.652C41.6391 84.652 41.2764 84.7373 40.9671 84.908C40.6684 85.0787 40.4177 85.3453 40.2151 85.708L38.8711 85.196C39.0631 84.8333 39.3031 84.5133 39.5911 84.236C39.8791 83.948 40.2257 83.724 40.6311 83.564C41.0364 83.3933 41.5111 83.308 42.0551 83.308C42.8124 83.308 43.4417 83.4573 43.9431 83.756C44.4444 84.0547 44.8177 84.4867 45.0631 85.052C45.3191 85.6173 45.4417 86.316 45.4311 87.148L45.4151 91.5H44.0071ZM41.6551 91.692C40.7057 91.692 39.9644 91.4787 39.4311 91.052C38.9084 90.6147 38.6471 90.012 38.6471 89.244C38.6471 88.4227 38.9191 87.7987 39.4631 87.372C40.0177 86.9347 40.7857 86.716 41.7671 86.716H43.9911V87.916H42.1831C41.4471 87.916 40.9297 88.0333 40.6311 88.268C40.3324 88.492 40.1831 88.8067 40.1831 89.212C40.1831 89.5853 40.3217 89.8787 40.5991 90.092C40.8871 90.2947 41.2817 90.396 41.7831 90.396C42.2204 90.396 42.5991 90.3053 42.9191 90.124C43.2391 89.932 43.4897 89.6653 43.6711 89.324C43.8524 88.9827 43.9431 88.5933 43.9431 88.156H44.4711C44.4711 89.244 44.2364 90.108 43.7671 90.748C43.3084 91.3773 42.6044 91.692 41.6551 91.692ZM50.4331 91.692C49.6331 91.692 49.0144 91.4893 48.5771 91.084C48.1397 90.668 47.9211 90.076 47.9211 89.308V81.004H49.4411V89.084C49.4411 89.4787 49.5371 89.7827 49.7291 89.996C49.9317 90.1987 50.2197 90.3 50.5931 90.3C50.6997 90.3 50.8171 90.2787 50.9451 90.236C51.0731 90.1933 51.2277 90.108 51.4091 89.98L51.9851 91.164C51.7077 91.3453 51.4411 91.4787 51.1851 91.564C50.9397 91.6493 50.6891 91.692 50.4331 91.692ZM46.5611 84.812V83.5H51.7131V84.812H46.5611ZM53.5817 91.5V83.5H55.1017V91.5H53.5817ZM54.3497 81.804C54.1044 81.804 53.891 81.7133 53.7097 81.532C53.5284 81.34 53.4377 81.1213 53.4377 80.876C53.4377 80.62 53.5284 80.4067 53.7097 80.236C53.891 80.0547 54.1044 79.964 54.3497 79.964C54.6057 79.964 54.819 80.0547 54.9897 80.236C55.171 80.4067 55.2617 80.62 55.2617 80.876C55.2617 81.1213 55.171 81.34 54.9897 81.532C54.819 81.7133 54.6057 81.804 54.3497 81.804ZM60.1934 91.692C59.6281 91.692 59.1214 91.6067 58.6734 91.436C58.2361 91.2653 57.8628 91.036 57.5534 90.748C57.2548 90.46 57.0308 90.1347 56.8814 89.772L58.1934 89.196C58.3641 89.5267 58.6201 89.7987 58.9614 90.012C59.3028 90.2253 59.6814 90.332 60.0974 90.332C60.5561 90.332 60.9348 90.2467 61.2334 90.076C61.5321 89.9053 61.6814 89.6653 61.6814 89.356C61.6814 89.0573 61.5694 88.8227 61.3454 88.652C61.1214 88.4813 60.7961 88.3427 60.3694 88.236L59.6174 88.044C58.8708 87.8413 58.2894 87.5373 57.8734 87.132C57.4681 86.7267 57.2654 86.268 57.2654 85.756C57.2654 84.9773 57.5161 84.3747 58.0174 83.948C58.5188 83.5213 59.2601 83.308 60.2414 83.308C60.7214 83.308 61.1588 83.3773 61.5534 83.516C61.9588 83.6547 62.3001 83.852 62.5774 84.108C62.8654 84.364 63.0681 84.668 63.1854 85.02L61.9054 85.596C61.7774 85.276 61.5588 85.0413 61.2494 84.892C60.9401 84.732 60.5774 84.652 60.1614 84.652C59.7348 84.652 59.3988 84.748 59.1534 84.94C58.9081 85.1213 58.7854 85.3773 58.7854 85.708C58.7854 85.8893 58.8868 86.0653 59.0894 86.236C59.3028 86.396 59.6121 86.5293 60.0174 86.636L60.8814 86.844C61.4041 86.972 61.8361 87.1693 62.1774 87.436C62.5188 87.692 62.7748 87.9853 62.9454 88.316C63.1161 88.636 63.2014 88.972 63.2014 89.324C63.2014 89.804 63.0681 90.2253 62.8014 90.588C62.5454 90.94 62.1881 91.212 61.7294 91.404C61.2814 91.596 60.7694 91.692 60.1934 91.692ZM65.5826 91.5V82.62C65.5826 81.7773 65.7852 81.1427 66.1906 80.716C66.5959 80.2787 67.2092 80.06 68.0306 80.06C68.2759 80.06 68.5426 80.1027 68.8306 80.188C69.1186 80.2627 69.4119 80.3693 69.7106 80.508L69.1506 81.676C68.9266 81.5693 68.7292 81.4947 68.5586 81.452C68.3986 81.3987 68.2599 81.372 68.1426 81.372C67.7906 81.372 67.5292 81.4893 67.3586 81.724C67.1879 81.948 67.1026 82.3 67.1026 82.78V91.5H65.5826ZM64.1586 84.764V83.5H69.3106V84.764H64.1586ZM70.8942 91.5V83.5H72.4142V91.5H70.8942ZM71.6622 81.804C71.4169 81.804 71.2035 81.7133 71.0222 81.532C70.8409 81.34 70.7502 81.1213 70.7502 80.876C70.7502 80.62 70.8409 80.4067 71.0222 80.236C71.2035 80.0547 71.4169 79.964 71.6622 79.964C71.9182 79.964 72.1315 80.0547 72.3022 80.236C72.4835 80.4067 72.5742 80.62 72.5742 80.876C72.5742 81.1213 72.4835 81.34 72.3022 81.532C72.1315 81.7133 71.9182 81.804 71.6622 81.804ZM78.1779 91.692C77.3993 91.692 76.7113 91.516 76.1139 91.164C75.5166 90.8013 75.0473 90.3053 74.7059 89.676C74.3646 89.0467 74.1939 88.3213 74.1939 87.5C74.1939 86.6787 74.3646 85.9533 74.7059 85.324C75.0473 84.6947 75.5166 84.204 76.1139 83.852C76.7219 83.4893 77.4153 83.308 78.1939 83.308C78.9299 83.308 79.5753 83.4947 80.1299 83.868C80.6846 84.2307 81.1166 84.7533 81.4259 85.436C81.7459 86.108 81.9059 86.9027 81.9059 87.82H75.4419L75.7299 87.58C75.7299 88.1453 75.8419 88.636 76.0659 89.052C76.2899 89.468 76.5939 89.788 76.9779 90.012C77.3619 90.2253 77.7993 90.332 78.2899 90.332C78.8233 90.332 79.2659 90.2093 79.6179 89.964C79.9806 89.708 80.2633 89.388 80.4659 89.004L81.7779 89.612C81.5646 90.028 81.2873 90.396 80.9459 90.716C80.6046 91.0253 80.1993 91.2653 79.7299 91.436C79.2713 91.6067 78.7539 91.692 78.1779 91.692ZM75.8259 86.86L75.5219 86.62H80.5779L80.2899 86.86C80.2899 86.3907 80.1939 85.9907 80.0019 85.66C79.8099 85.3187 79.5539 85.0627 79.2339 84.892C78.9139 84.7107 78.5566 84.62 78.1619 84.62C77.7779 84.62 77.4046 84.7107 77.0419 84.892C76.6899 85.0627 76.3966 85.3133 76.1619 85.644C75.9379 85.9747 75.8259 86.38 75.8259 86.86ZM89.2636 91.5L89.1996 90.012V80.3H90.7036V91.5H89.2636ZM86.5756 91.692C85.8502 91.692 85.2156 91.516 84.6716 91.164C84.1382 90.812 83.7169 90.3213 83.4076 89.692C83.1089 89.0627 82.9596 88.332 82.9596 87.5C82.9596 86.6573 83.1089 85.9267 83.4076 85.308C83.7169 84.6787 84.1382 84.188 84.6716 83.836C85.2156 83.484 85.8502 83.308 86.5756 83.308C87.2476 83.308 87.8289 83.484 88.3196 83.836C88.8209 84.188 89.2049 84.6787 89.4716 85.308C89.7382 85.9267 89.8716 86.6573 89.8716 87.5C89.8716 88.332 89.7382 89.0627 89.4716 89.692C89.2049 90.3213 88.8209 90.812 88.3196 91.164C87.8289 91.516 87.2476 91.692 86.5756 91.692ZM86.9276 90.316C87.3756 90.316 87.7702 90.1987 88.1116 89.964C88.4529 89.7187 88.7196 89.388 88.9116 88.972C89.1036 88.5453 89.1996 88.0547 89.1996 87.5C89.1996 86.9453 89.1036 86.46 88.9116 86.044C88.7196 85.6173 88.4529 85.2867 88.1116 85.052C87.7702 84.8067 87.3702 84.684 86.9116 84.684C86.4422 84.684 86.0262 84.8067 85.6636 85.052C85.3009 85.2867 85.0182 85.6173 84.8156 86.044C84.6129 86.46 84.5116 86.9453 84.5116 87.5C84.5116 88.0547 84.6129 88.5453 84.8156 88.972C85.0289 89.388 85.3169 89.7187 85.6796 89.964C86.0422 90.1987 86.4582 90.316 86.9276 90.316Z" fill="#090F16"/>
<defs>
<linearGradient id="paint0_linear_4002_784" x1="60" y1="-20.1527" x2="60" y2="155.725" gradientUnits="userSpaceOnUse">
<stop stop-color="#FBC75E"/>
<stop offset="0.374637" stop-color="#FABB49"/>
<stop offset="1" stop-color="#EB652B"/>
</linearGradient>
</defs>
</svg>
