<svg width="60" height="60" viewBox="0 0 60 60" fill="none" xmlns="http://www.w3.org/2000/svg">
<path d="M41.25 23.4999L18.75 10.5249" stroke="#EDF0F3" stroke-width="3" stroke-linecap="round" stroke-linejoin="round"/>
<path d="M52.5 40.0002V20.0002C52.4991 19.1234 52.2676 18.2623 51.8288 17.5032C51.3901 16.744 50.7593 16.1137 50 15.6752L32.5 5.67524C31.7399 5.2364 30.8777 5.00537 30 5.00537C29.1223 5.00537 28.2601 5.2364 27.5 5.67524L10 15.6752C9.24066 16.1137 8.60995 16.744 8.17115 17.5032C7.73236 18.2623 7.5009 19.1234 7.5 20.0002V40.0002C7.5009 40.8771 7.73236 41.7382 8.17115 42.4973C8.60995 43.2565 9.24066 43.8868 10 44.3252L27.5 54.3252C28.2601 54.7641 29.1223 54.9951 30 54.9951C30.8777 54.9951 31.7399 54.7641 32.5 54.3252L50 44.3252C50.7593 43.8868 51.3901 43.2565 51.8288 42.4973C52.2676 41.7382 52.4991 40.8771 52.5 40.0002Z" stroke="#EDF0F3" stroke-width="3" stroke-linecap="round" stroke-linejoin="round"/>
<path d="M8.175 17.3999L30 30.0249L51.825 17.3999" stroke="#EDF0F3" stroke-width="3" stroke-linecap="round" stroke-linejoin="round"/>
<path d="M30 55.2V30" stroke="#EDF0F3" stroke-width="3" stroke-linecap="round" stroke-linejoin="round"/>
</svg>
