<svg width="48" height="48" viewBox="0 0 48 48" fill="none" xmlns="http://www.w3.org/2000/svg">
<path d="M6.20508 20.4414L6.36914 20.4463C7.18731 20.4877 7.96394 20.831 8.5459 21.4131L8.6582 21.5312C9.20821 22.1385 9.51481 22.9298 9.51562 23.7529V23.9629H15.4336L15.8955 23.9736C16.9708 24.024 18.0307 24.26 19.0273 24.6729L19.4492 24.8604C20.4104 25.3155 21.2874 25.9322 22.042 26.6846H26.6133L26.7822 26.6895C27.6199 26.732 28.4148 27.0829 29.0107 27.6787L29.126 27.8008C29.6893 28.4226 30.0039 29.2332 30.0049 30.0762L29.9912 30.377C29.9711 30.5963 29.9257 30.8121 29.8633 31.0234L38.3496 30.0166C40.8884 29.6192 43.4147 30.7474 44.8301 32.9023L44.9639 33.1143L45.0264 33.2314C45.0824 33.3508 45.12 33.4782 45.1377 33.6094L45.1484 33.7412C45.1526 33.8728 45.1372 34.0046 45.1016 34.1318V34.1328C45.0051 34.4756 44.7687 34.766 44.4521 34.9297L44.4453 34.9326L26.7871 42.9258C26.2474 43.1704 25.6674 43.3119 25.0771 43.3438L24.8232 43.3506C24.2063 43.3506 23.5904 43.2303 23.0088 42.9902L22.7617 42.8799L13.3115 38.3428C12.1269 37.7741 10.8264 37.4481 9.51172 37.3545C9.47495 38.1211 9.17326 38.8511 8.6582 39.4199L8.5459 39.5391C7.96394 40.1211 7.18732 40.4645 6.36914 40.5059L6.20508 40.5098H3.59961C3.45044 40.5097 3.30587 40.4654 3.18359 40.3838L3.06934 40.29C2.92888 40.1494 2.84961 39.9585 2.84961 39.7598V21.1914C2.84971 20.9926 2.92878 20.8017 3.06934 20.6611L3.18359 20.5674C3.3058 20.4859 3.45056 20.4415 3.59961 20.4414H6.20508ZM9.51562 25.4629V35.8359C10.8585 35.9212 12.1768 36.2281 13.416 36.7471L13.96 36.9902V36.9912L23.4102 41.5283L23.5732 41.6006C23.9574 41.7602 24.369 41.8458 24.7861 41.8506L24.9648 41.8477C25.3803 41.8296 25.7892 41.7318 26.1689 41.5596L43.5664 33.6846C43.0427 32.9061 42.315 32.2852 41.459 31.8955C40.5505 31.482 39.5404 31.3455 38.5547 31.5029L38.5488 31.5039L28.7979 32.6602C28.2659 33.1127 27.6103 33.3903 26.9189 33.4531L26.6133 33.4668H16.0498C15.9005 33.4668 15.7552 33.4225 15.6328 33.3408L15.5195 33.2471C15.3789 33.1065 15.2999 32.9156 15.2998 32.7168C15.2998 32.5179 15.3789 32.3272 15.5195 32.1865C15.6602 32.0459 15.8509 31.9668 16.0498 31.9668H26.6133C27.656 31.9668 28.5048 31.1188 28.5049 30.0762C28.5049 29.0334 27.656 28.1846 26.6133 28.1846H21.7314C21.6329 28.1845 21.5353 28.1648 21.4443 28.127C21.3534 28.0891 21.2707 28.0336 21.2012 27.9639V27.9648L21.0088 27.7725C19.5195 26.2833 17.5393 25.4629 15.4336 25.4629H9.51562ZM4.34961 39.0098H6.20508L6.38379 39.001C6.79833 38.9594 7.18823 38.7757 7.48535 38.4785C7.82472 38.1389 8.01519 37.6784 8.01562 37.1982V23.7529L8.00684 23.5742C7.97124 23.2189 7.83182 22.8816 7.60547 22.6055L7.48535 22.4727C7.18825 22.1755 6.79827 21.9927 6.38379 21.9512L6.20508 21.9414H4.34961V39.0098ZM43.7998 4.64941C44.5444 4.64941 45.1504 5.25536 45.1504 6V21.5996C45.1504 22.3443 44.5444 22.9502 43.7998 22.9502H17.4004C16.6557 22.9502 16.0498 22.3443 16.0498 21.5996V6C16.0498 5.25536 16.6557 4.64941 17.4004 4.64941H43.7998ZM43.6504 18.0752C42.8125 18.2285 42.0388 18.6301 41.4346 19.2344C40.8304 19.8386 40.4297 20.6124 40.2764 21.4502H43.6504V18.0752ZM22.4492 6.14941C22.2937 7.30902 21.7872 8.39244 20.9971 9.25293L20.8281 9.42871C19.9418 10.3148 18.7895 10.8826 17.5498 11.0488V16.5498C18.7895 16.716 19.9418 17.2848 20.8281 18.1709L20.9971 18.3467C21.7872 19.2072 22.2937 20.2906 22.4492 21.4502H38.751C38.9172 20.2102 39.4847 19.0573 40.3711 18.1709L40.5469 18.0029C41.4074 17.2127 42.4907 16.7053 43.6504 16.5498V11.0488C42.4907 10.8933 41.4074 10.3869 40.5469 9.59668L40.3711 9.42871C39.4847 8.54233 38.9172 7.38937 38.751 6.14941H22.4492ZM17.5498 21.4502H20.9238C20.7705 20.6124 20.3698 19.8386 19.7656 19.2344C19.1614 18.6302 18.3876 18.2285 17.5498 18.0752V21.4502ZM17.5498 9.52344C18.3876 9.37009 19.1615 8.9694 19.7656 8.36523L19.9961 8.11426C20.4728 7.55323 20.791 6.87547 20.9238 6.14941H17.5498V9.52344ZM40.2764 6.14941C40.4297 6.98725 40.8304 7.76103 41.4346 8.36523L41.6855 8.59668C42.2465 9.07315 42.9245 9.39061 43.6504 9.52344V6.14941H40.2764Z" fill="#090F16" stroke="#090F16" stroke-width="0.3"/>
<path d="M30.5996 7.5498C30.825 7.5498 31.0408 7.63954 31.2002 7.79883L31.2568 7.86133C31.3807 8.01248 31.4491 8.2023 31.4492 8.39941V8.60938C32.8217 8.96146 33.8496 10.1483 33.8496 11.5752C33.8496 11.7722 33.781 11.9621 33.6572 12.1133L33.6006 12.1758C33.4413 12.3351 33.2253 12.4247 33 12.4248C32.8027 12.4248 32.6122 12.3564 32.4609 12.2324L32.3984 12.1758C32.2392 12.0164 32.1495 11.8005 32.1494 11.5752C32.1494 10.8416 31.4787 10.2012 30.5996 10.2012C29.7205 10.2012 29.0498 10.8416 29.0498 11.5752C29.0499 12.3094 29.7207 12.9502 30.5996 12.9502C32.3774 12.9502 33.8495 14.3149 33.8496 16.0244C33.8496 17.4512 32.8216 18.6371 31.4492 18.9893V19.2002C31.4491 19.3973 31.3807 19.5871 31.2568 19.7383L31.2002 19.8008C31.0408 19.9601 30.825 20.0498 30.5996 20.0498C30.4023 20.0498 30.2118 19.9814 30.0605 19.8574L29.999 19.8008C29.8397 19.6415 29.7501 19.4255 29.75 19.2002V18.9893C28.3777 18.6371 27.3496 17.4512 27.3496 16.0244C27.3497 15.7991 27.4393 15.5832 27.5986 15.4238C27.7579 15.2645 27.9739 15.1749 28.1992 15.1748C28.4247 15.1748 28.6414 15.2644 28.8008 15.4238L28.8574 15.4863C28.9811 15.6375 29.0498 15.8274 29.0498 16.0244C29.0498 16.758 29.7205 17.3984 30.5996 17.3984C31.4787 17.3984 32.1494 16.758 32.1494 16.0244C32.1493 15.2902 31.4786 14.6494 30.5996 14.6494C28.8218 14.6494 27.3497 13.2847 27.3496 11.5752C27.3496 10.1483 28.3776 8.96146 29.75 8.60938V8.39941C29.7501 8.17412 29.8397 7.95814 29.999 7.79883L30.0605 7.74219C30.2118 7.61817 30.4023 7.5498 30.5996 7.5498ZM24 14.1494C24.2252 14.1495 24.4413 14.2392 24.6006 14.3984L24.6572 14.4609C24.7812 14.6122 24.8496 14.8027 24.8496 15C24.8496 15.1971 24.781 15.3869 24.6572 15.5381L24.6006 15.6006C24.4413 15.7599 24.2253 15.8495 24 15.8496H22.1992C22.0021 15.8495 21.8123 15.781 21.6611 15.6572L21.5986 15.6006C21.4393 15.4412 21.3497 15.2253 21.3496 15C21.3496 14.7746 21.4392 14.5578 21.5986 14.3984L21.6611 14.3428C21.8123 14.2189 22.0021 14.1495 22.1992 14.1494H24ZM39 14.1494C39.2252 14.1495 39.4413 14.2392 39.6006 14.3984L39.6572 14.4609C39.7812 14.6122 39.8496 14.8027 39.8496 15C39.8496 15.1971 39.781 15.3869 39.6572 15.5381L39.6006 15.6006C39.4413 15.7599 39.2253 15.8495 39 15.8496H37.1992C37.0021 15.8495 36.8123 15.781 36.6611 15.6572L36.5986 15.6006C36.4393 15.4412 36.3497 15.2253 36.3496 15C36.3496 14.7746 36.4392 14.5578 36.5986 14.3984L36.6611 14.3428C36.8123 14.2189 37.0021 14.1495 37.1992 14.1494H39ZM24 11.75C24.2253 11.7501 24.4413 11.8397 24.6006 11.999L24.6572 12.0615C24.781 12.2127 24.8496 12.4026 24.8496 12.5996C24.8496 12.7969 24.7812 12.9874 24.6572 13.1387L24.6006 13.2012C24.4413 13.3604 24.2252 13.4501 24 13.4502H22.1992C22.0021 13.4501 21.8123 13.3807 21.6611 13.2568L21.5986 13.2012C21.4392 13.0418 21.3496 12.825 21.3496 12.5996C21.3497 12.3743 21.4393 12.1584 21.5986 11.999L21.6611 11.9424C21.8123 11.8186 22.0021 11.7501 22.1992 11.75H24ZM39 11.75C39.2253 11.7501 39.4413 11.8397 39.6006 11.999L39.6572 12.0615C39.781 12.2127 39.8496 12.4026 39.8496 12.5996C39.8496 12.7969 39.7812 12.9874 39.6572 13.1387L39.6006 13.2012C39.4413 13.3604 39.2252 13.4501 39 13.4502H37.1992C37.0021 13.4501 36.8123 13.3807 36.6611 13.2568L36.5986 13.2012C36.4392 13.0418 36.3496 12.825 36.3496 12.5996C36.3497 12.3743 36.4393 12.1584 36.5986 11.999L36.6611 11.9424C36.8123 11.8186 37.0021 11.7501 37.1992 11.75H39Z" fill="#090F16" stroke="#090F16" stroke-width="0.5"/>
</svg>
