<svg width="48" height="48" viewBox="0 0 48 48" fill="none" xmlns="http://www.w3.org/2000/svg">
<g clip-path="url(#clip0_4002_869)">
<path d="M22.4836 -0.421296L22.4371 0.282204C22.4221 0.519204 22.3051 0.672204 22.0621 0.844704C21.8296 1.0082 21.4861 1.1432 21.1711 1.1717H17.8426C15.5881 1.1717 13.7656 3.0287 13.7656 5.2967V9.5162C13.7341 9.63921 13.7341 9.7682 13.7656 9.8912V12.4217C13.7699 13.9722 14.2986 15.4757 15.2656 16.6877V20.2502L7.85864 24.4697C6.91705 25.0077 6.1348 25.7855 5.5915 26.724C5.0482 27.6626 4.76325 28.7283 4.76564 29.8127V36.4217H36.2656V35.4527C42.6781 33.1712 47.2306 27.0587 47.2336 19.9247C47.2336 10.8212 39.8386 3.4247 30.7336 3.4247V3.4217C29.5636 3.4217 28.4056 3.5837 27.2656 3.8327V3.7952C27.1156 2.6552 26.7706 1.6307 26.0926 0.843204C25.4176 0.0542035 24.3991 -0.428796 23.1871 -0.422796H22.4836V-0.421296ZM23.4211 1.1717C24.0871 1.2272 24.6121 1.4117 24.9676 1.8287C25.3786 2.3057 25.6426 3.0347 25.7656 3.9842V8.5322C25.4677 8.38448 25.1529 8.27366 24.8281 8.2022C23.9341 8.0387 23.0236 8.0687 22.1566 8.1092C21.2866 8.1452 20.4226 8.1497 19.7656 7.9682C19.1071 7.78821 18.6076 7.5062 18.1711 6.7502C18.0897 6.60532 17.9636 6.49058 17.8118 6.42303C17.6599 6.35547 17.4903 6.3387 17.3281 6.3752C17.2004 6.41558 17.0855 6.48878 16.995 6.5875C16.9044 6.68621 16.8414 6.80697 16.8121 6.9377C16.8391 6.8357 16.7341 7.0712 16.5301 7.3127C16.3276 7.5527 16.0306 7.8452 15.7351 8.1092C15.5671 8.2592 15.4231 8.3642 15.2656 8.4842V5.2982C15.2656 3.8237 16.4041 2.6732 17.8441 2.6732H21.2176C21.8262 2.62961 22.4108 2.4183 22.9066 2.0627C23.1736 1.8722 23.2396 1.4747 23.4211 1.1717ZM30.7336 4.9217C34.2225 4.91962 37.6028 6.13445 40.2921 8.35689C42.9815 10.5793 44.8115 13.6702 45.4668 17.0969C46.1221 20.5236 45.5617 24.0716 43.8821 27.1295C42.2026 30.1875 39.509 32.5638 36.2656 33.8492V32.0867C40.8406 29.9117 43.9861 25.2767 43.9876 19.9247C43.9876 12.4787 37.9351 6.4247 30.4876 6.4247V6.4217C29.3986 6.4217 28.3171 6.5657 27.2656 6.8297V5.3597C28.4003 5.07719 29.5644 4.93016 30.7336 4.9217ZM30.4876 7.9217C37.1236 7.9217 42.4876 13.2857 42.4876 19.9217C42.4876 24.4367 39.9796 28.3667 36.2656 30.4127V29.6717C36.262 28.6247 35.9829 27.5971 35.4563 26.6921C34.9297 25.7871 34.1741 25.0367 33.2656 24.5162L25.7656 20.2502V16.6877C26.7327 15.4757 27.2614 13.9722 27.2656 12.4217V10.4057C27.3139 10.2534 27.3139 10.09 27.2656 9.9377V8.3972C28.3125 8.0906 29.3968 7.93058 30.4876 7.9217ZM17.7496 8.1557C18.2746 8.6657 18.7636 9.2492 19.3906 9.4217C20.3401 9.68421 21.3106 9.6467 22.2031 9.6092C23.0956 9.5717 23.9281 9.54171 24.5461 9.6557C25.1011 9.7592 25.4671 9.97071 25.7656 10.4057V12.4217C25.7656 15.3917 23.4316 17.7182 20.5156 17.7182C17.5981 17.7182 15.2656 15.3902 15.2656 12.4232V10.3127C15.4141 10.2407 15.5401 10.1252 15.6871 10.0307C16.0411 9.80571 16.3756 9.5417 16.7191 9.2357C17.0522 8.94441 17.3649 8.63068 17.6551 8.2967C17.6941 8.2517 17.7136 8.1992 17.7496 8.1557ZM30.2656 9.4217V12.4217H31.7656V9.4217H30.2656ZM37.9051 12.4817L35.7841 14.6012L36.8446 15.6617L38.9671 13.5407L37.9066 12.4802L37.9051 12.4817ZM30.2656 13.9217V18.6542C30.0416 18.7825 29.8547 18.9667 29.7232 19.1889C29.5917 19.4111 29.5202 19.6636 29.5156 19.9217C29.5156 20.7422 30.1951 21.4217 31.0156 21.4217C31.2733 21.4168 31.5252 21.345 31.7469 21.2136C31.9685 21.0821 32.1523 20.8954 32.2801 20.6717H35.5156V19.1717H32.2801C32.1539 18.9595 31.9771 18.7817 31.7656 18.6542V13.9202H30.2656V13.9217ZM16.7656 18.1412C17.8321 18.8507 19.1386 19.2182 20.5156 19.2182C21.8926 19.2182 23.1976 18.8507 24.2656 18.1412V21.0002C23.6611 22.1312 23.1256 23.3222 21.7816 24.4697L21.7336 24.5147L20.5156 25.6397L19.3906 24.5147L19.2961 24.4217C18.2461 23.2892 17.2561 21.9482 16.7656 20.6717V18.1412ZM38.5156 19.1612V20.6612H41.5156V19.1612H38.5156ZM14.7031 22.3112L13.7656 25.6397V25.7327C13.6246 26.8997 14.8906 27.8852 15.9676 27.3737V27.3272L18.7336 25.9667L19.7656 26.9522V34.9202H12.2656V31.1702H10.7656V34.9202H6.26564V29.8112C6.26564 28.1342 7.15364 26.5652 8.60864 25.7327L14.7031 22.3112ZM16.2031 22.3112C16.6831 23.1752 17.1586 24.0062 17.7961 24.7487L15.3121 26.0147C15.2551 26.0417 15.2506 26.0462 15.2656 25.9202L16.2031 22.3112ZM26.5621 22.4057L32.5156 25.8257C33.1955 26.2122 33.7614 26.7711 34.1564 27.4461C34.5515 28.121 34.7616 28.8882 34.7656 29.6702V34.9202H30.3121V31.1702H28.8121V34.9202H21.2656V27.0002L22.3906 25.9682L25.3441 27.3752C26.4361 27.8702 27.6976 26.9252 27.5461 25.7342V25.5932C27.5461 25.5932 27.1306 24.3287 26.7496 23.0627C26.6776 22.8227 26.6311 22.6337 26.5621 22.4057ZM25.0621 22.6397C25.1491 22.9382 25.2031 23.2187 25.2961 23.5292C25.6606 24.7412 26.0056 25.7927 26.0461 25.9202C26.0596 26.0222 26.0461 26.0552 25.9531 26.0102L23.4211 24.7922C24.1171 24.0317 24.6931 23.3252 25.0621 22.6397ZM36.8446 24.1697L35.7841 25.2287L37.9066 27.3497L38.9671 26.2892L36.8446 24.1682V24.1697ZM22.7656 29.6702C22.5667 29.6702 22.376 29.7492 22.2353 29.8899C22.0947 30.0305 22.0156 30.2213 22.0156 30.4202C22.0156 30.6191 22.0947 30.8099 22.2353 30.9505C22.376 31.0912 22.5667 31.1702 22.7656 31.1702C22.9646 31.1702 23.1553 31.0912 23.296 30.9505C23.4366 30.8099 23.5156 30.6191 23.5156 30.4202C23.5156 30.2213 23.4366 30.0305 23.296 29.8899C23.1553 29.7492 22.9646 29.6702 22.7656 29.6702ZM22.7656 32.6702C22.5667 32.6702 22.376 32.7492 22.2353 32.8899C22.0947 33.0305 22.0156 33.2213 22.0156 33.4202C22.0156 33.6191 22.0947 33.8099 22.2353 33.9505C22.376 34.0912 22.5667 34.1702 22.7656 34.1702C22.9646 34.1702 23.1553 34.0912 23.296 33.9505C23.4366 33.8099 23.5156 33.6191 23.5156 33.4202C23.5156 33.2213 23.4366 33.0305 23.296 32.8899C23.1553 32.7492 22.9646 32.6702 22.7656 32.6702Z" fill="#090F16"/>
</g>
<defs>
<clipPath id="clip0_4002_869">
<rect width="48" height="48" fill="white"/>
</clipPath>
</defs>
</svg>
