<svg width="26" height="26" viewBox="0 0 26 26" fill="none" xmlns="http://www.w3.org/2000/svg">
<path d="M2.4375 7.3125C2.4375 16.2871 9.71287 23.5625 18.6875 23.5625H21.125C22.4712 23.5625 23.5625 22.4712 23.5625 21.125V19.6391C23.5625 19.0798 23.1819 18.5923 22.6393 18.4567L17.8476 17.2588C17.3718 17.1398 16.8712 17.3176 16.577 17.7099L15.5259 19.1113C15.2209 19.518 14.6933 19.6979 14.2159 19.523C10.6333 18.2107 7.78933 15.3667 6.47699 11.7841C6.30212 11.3067 6.48197 10.7791 6.8887 10.4741L8.29012 9.42303C8.68241 9.12882 8.86016 8.62816 8.74124 8.15244L7.54329 3.36066C7.40765 2.81811 6.92017 2.4375 6.36093 2.4375H4.875C3.52881 2.4375 2.4375 3.52881 2.4375 4.875V7.3125Z" stroke="#0F172A" stroke-width="1.5" stroke-linecap="round" stroke-linejoin="round"/>
</svg>
