<svg width="453" height="453" viewBox="0 0 453 453" fill="none" xmlns="http://www.w3.org/2000/svg">
<g opacity="0.4">
<path d="M452.12 315.009C452.641 313.446 451.154 311.958 449.59 312.479L448.442 312.862C447.032 313.332 446.609 315.122 447.661 316.174L448.426 316.939C449.477 317.99 451.267 317.568 451.737 316.157L452.12 315.009Z" fill="url(#paint0_linear_4002_435)"/>
<path d="M408.221 358.908C408.742 357.345 407.255 355.857 405.691 356.379L402.698 357.376C401.287 357.846 400.865 359.637 401.916 360.688L403.912 362.683C404.963 363.735 406.753 363.312 407.223 361.902L408.221 358.908Z" fill="url(#paint1_linear_4002_435)"/>
<path d="M363.707 403.423C364.228 401.859 362.74 400.372 361.177 400.893L358.184 401.891C356.773 402.361 356.351 404.151 357.402 405.202L359.397 407.198C360.449 408.249 362.239 407.826 362.709 406.416L363.707 403.423Z" fill="url(#paint2_linear_4002_435)"/>
<path d="M318.577 448.552C319.099 446.988 317.611 445.501 316.048 446.022L314.9 446.405C313.489 446.875 313.067 448.665 314.118 449.716L314.883 450.482C315.934 451.533 317.725 451.11 318.195 449.7L318.577 448.552Z" fill="url(#paint3_linear_4002_435)"/>
<path d="M452.735 225.366C453.256 223.802 451.769 222.315 450.205 222.836L447.212 223.834C445.802 224.304 445.379 226.094 446.43 227.145L448.426 229.141C449.477 230.192 451.267 229.769 451.737 228.359L452.735 225.366Z" fill="url(#paint4_linear_4002_435)"/>
<path d="M409.451 268.65C409.972 267.086 408.485 265.599 406.921 266.12L400.238 268.348C398.827 268.818 398.404 270.608 399.456 271.659L403.912 276.115C404.963 277.167 406.753 276.744 407.223 275.334L409.451 268.65Z" fill="url(#paint5_linear_4002_435)"/>
<path d="M366.183 311.918C366.704 310.354 365.217 308.867 363.653 309.388L353.23 312.862C351.82 313.332 351.397 315.122 352.449 316.174L359.397 323.122C360.449 324.174 362.239 323.751 362.709 322.341L366.183 311.918Z" fill="url(#paint6_linear_4002_435)"/>
<path d="M321.669 356.432C322.19 354.868 320.703 353.381 319.139 353.902L308.716 357.376C307.306 357.846 306.883 359.637 307.935 360.688L314.883 367.637C315.934 368.688 317.725 368.265 318.195 366.855L321.669 356.432Z" fill="url(#paint7_linear_4002_435)"/>
<path d="M275.908 402.192C276.43 400.629 274.942 399.141 273.379 399.663L266.695 401.891C265.284 402.361 264.862 404.151 265.913 405.202L270.369 409.658C271.42 410.709 273.21 410.287 273.681 408.876L275.908 402.192Z" fill="url(#paint8_linear_4002_435)"/>
<path d="M230.164 447.937C230.685 446.373 229.198 444.886 227.634 445.407L224.641 446.405C223.231 446.875 222.808 448.665 223.859 449.716L225.855 451.712C226.906 452.763 228.696 452.34 229.166 450.93L230.164 447.937Z" fill="url(#paint9_linear_4002_435)"/>
<path d="M452.12 136.952C452.641 135.389 451.154 133.901 449.59 134.423L448.442 134.805C447.032 135.275 446.609 137.066 447.661 138.117L448.426 138.882C449.477 139.933 451.267 139.511 451.737 138.1L452.12 136.952Z" fill="url(#paint10_linear_4002_435)"/>
<path d="M409.451 179.621C409.972 178.058 408.485 176.57 406.921 177.092L400.238 179.319C398.827 179.79 398.404 181.58 399.456 182.631L403.912 187.087C404.963 188.138 406.753 187.716 407.223 186.305L409.451 179.621Z" fill="url(#paint11_linear_4002_435)"/>
<path d="M366.798 222.274C367.32 220.711 365.832 219.223 364.269 219.744L352 223.834C350.59 224.304 350.167 226.094 351.219 227.145L359.397 235.324C360.449 236.375 362.239 235.953 362.709 234.542L366.798 222.274Z" fill="url(#paint12_linear_4002_435)"/>
<path d="M324.13 264.943C324.651 263.379 323.163 261.892 321.6 262.413L303.795 268.348C302.385 268.818 301.962 270.608 303.014 271.659L314.883 283.529C315.934 284.58 317.725 284.158 318.195 282.747L324.13 264.943Z" fill="url(#paint13_linear_4002_435)"/>
<path d="M279.615 309.457C280.136 307.894 278.649 306.406 277.085 306.927L259.281 312.862C257.871 313.332 257.448 315.122 258.499 316.174L270.369 328.043C271.42 329.094 273.21 328.672 273.681 327.261L279.615 309.457Z" fill="url(#paint14_linear_4002_435)"/>
<path d="M233.256 355.817C233.777 354.253 232.289 352.766 230.726 353.287L218.458 357.376C217.047 357.846 216.625 359.637 217.676 360.688L225.855 368.867C226.906 369.918 228.696 369.495 229.166 368.085L233.256 355.817Z" fill="url(#paint15_linear_4002_435)"/>
<path d="M186.88 402.192C187.401 400.629 185.914 399.141 184.35 399.663L177.666 401.891C176.256 402.361 175.833 404.151 176.885 405.202L181.341 409.658C182.392 410.709 184.182 410.287 184.652 408.876L186.88 402.192Z" fill="url(#paint16_linear_4002_435)"/>
<path d="M140.521 448.552C141.042 446.988 139.554 445.501 137.991 446.022L136.843 446.405C135.432 446.875 135.01 448.665 136.061 449.716L136.826 450.482C137.878 451.533 139.668 451.11 140.138 449.7L140.521 448.552Z" fill="url(#paint17_linear_4002_435)"/>
<path d="M408.221 91.8232C408.742 90.2596 407.255 88.7722 405.691 89.2933L402.698 90.291C401.287 90.7612 400.865 92.5513 401.916 93.6026L403.912 95.598C404.963 96.6494 406.753 96.2268 407.223 94.8163L408.221 91.8232Z" fill="url(#paint18_linear_4002_435)"/>
<path d="M366.183 133.861C366.704 132.297 365.217 130.81 363.653 131.331L353.23 134.805C351.82 135.275 351.397 137.066 352.449 138.117L359.397 145.065C360.449 146.117 362.239 145.694 362.709 144.284L366.183 133.861Z" fill="url(#paint19_linear_4002_435)"/>
<path d="M324.13 175.915C324.651 174.351 323.163 172.864 321.6 173.385L303.795 179.319C302.385 179.79 301.962 181.58 303.014 182.631L314.883 194.501C315.934 195.552 317.725 195.129 318.195 193.719L324.13 175.915Z" fill="url(#paint20_linear_4002_435)"/>
<path d="M282.092 217.952C282.613 216.389 281.126 214.901 279.562 215.422L254.328 223.834C252.918 224.304 252.495 226.094 253.546 227.145L270.369 243.968C271.42 245.019 273.21 244.597 273.681 243.186L282.092 217.952Z" fill="url(#paint21_linear_4002_435)"/>
<path d="M237.578 262.466C238.099 260.903 236.611 259.415 235.048 259.937L209.814 268.348C208.403 268.818 207.981 270.608 209.032 271.659L225.855 288.482C226.906 289.533 228.696 289.111 229.166 287.7L237.578 262.466Z" fill="url(#paint22_linear_4002_435)"/>
<path d="M190.587 309.457C191.108 307.894 189.621 306.406 188.057 306.927L170.253 312.862C168.842 313.332 168.42 315.122 169.471 316.174L181.341 328.043C182.392 329.094 184.182 328.672 184.652 327.261L190.587 309.457Z" fill="url(#paint23_linear_4002_435)"/>
<path d="M143.612 356.432C144.133 354.868 142.646 353.381 141.082 353.902L130.659 357.376C129.249 357.846 128.826 359.637 129.878 360.688L136.826 367.637C137.878 368.688 139.668 368.265 140.138 366.855L143.612 356.432Z" fill="url(#paint24_linear_4002_435)"/>
<path d="M96.6214 403.423C97.1426 401.859 95.6551 400.372 94.0916 400.893L91.0984 401.891C89.688 402.361 89.2654 404.151 90.3167 405.202L92.3121 407.198C93.3634 408.249 95.1535 407.826 95.6237 406.416L96.6214 403.423Z" fill="url(#paint25_linear_4002_435)"/>
<path d="M363.707 47.3089C364.228 45.7454 362.74 44.2579 361.177 44.7791L358.184 45.7768C356.773 46.247 356.351 48.0371 357.402 49.0884L359.397 51.0838C360.449 52.1351 362.239 51.7126 362.709 50.3021L363.707 47.3089Z" fill="url(#paint26_linear_4002_435)"/>
<path d="M321.669 89.3465C322.19 87.783 320.703 86.2955 319.139 86.8167L308.716 90.291C307.306 90.7612 306.883 92.5513 307.935 93.6026L314.883 100.551C315.934 101.603 317.725 101.18 318.195 99.7695L321.669 89.3465Z" fill="url(#paint27_linear_4002_435)"/>
<path d="M279.615 131.4C280.136 129.837 278.649 128.349 277.085 128.871L259.281 134.805C257.871 135.275 257.448 137.066 258.499 138.117L270.369 149.986C271.42 151.038 273.21 150.615 273.681 149.205L279.615 131.4Z" fill="url(#paint28_linear_4002_435)"/>
<path d="M237.578 173.438C238.099 171.874 236.611 170.387 235.048 170.908L209.814 179.319C208.403 179.79 207.981 181.58 209.032 182.631L225.855 199.454C226.906 200.505 228.696 200.082 229.166 198.672L237.578 173.438Z" fill="url(#paint29_linear_4002_435)"/>
<path d="M193.063 217.952C193.585 216.389 192.097 214.901 190.534 215.422L165.3 223.834C163.889 224.304 163.467 226.094 164.518 227.145L181.341 243.968C182.392 245.019 184.182 244.597 184.652 243.186L193.063 217.952Z" fill="url(#paint30_linear_4002_435)"/>
<path d="M146.073 264.943C146.594 263.379 145.106 261.892 143.543 262.413L125.739 268.348C124.328 268.818 123.906 270.608 124.957 271.659L136.826 283.529C137.878 284.58 139.668 284.158 140.138 282.747L146.073 264.943Z" fill="url(#paint31_linear_4002_435)"/>
<path d="M99.098 311.918C99.6192 310.354 98.1317 308.867 96.5682 309.388L86.1452 312.862C84.7347 313.332 84.3121 315.122 85.3634 316.174L92.3121 323.122C93.3634 324.174 95.1535 323.751 95.6237 322.341L99.098 311.918Z" fill="url(#paint32_linear_4002_435)"/>
<path d="M52.1072 358.908C52.6284 357.345 51.1409 355.857 49.5774 356.379L46.5843 357.376C45.1738 357.846 44.7512 359.637 45.8025 360.688L47.7979 362.683C48.8492 363.735 50.6393 363.312 51.1095 361.902L52.1072 358.908Z" fill="url(#paint33_linear_4002_435)"/>
<path d="M318.577 3.40983C319.099 1.84631 317.611 0.358837 316.048 0.880009L314.9 1.26262C313.489 1.73277 313.067 3.52289 314.118 4.5742L314.883 5.33941C315.934 6.39071 317.725 5.96812 318.195 4.55765L318.577 3.40983Z" fill="url(#paint34_linear_4002_435)"/>
<path d="M275.908 46.0787C276.43 44.5152 274.942 43.0277 273.379 43.5489L266.695 45.7768C265.284 46.247 264.862 48.0371 265.913 49.0884L270.369 53.5442C271.42 54.5955 273.21 54.173 273.681 52.7625L275.908 46.0787Z" fill="url(#paint35_linear_4002_435)"/>
<path d="M233.256 88.7314C233.777 87.1679 232.289 85.6804 230.726 86.2016L218.458 90.291C217.047 90.7612 216.625 92.5513 217.676 93.6026L225.855 101.781C226.906 102.833 228.696 102.41 229.166 101L233.256 88.7314Z" fill="url(#paint36_linear_4002_435)"/>
<path d="M190.587 131.4C191.108 129.837 189.621 128.349 188.057 128.871L170.253 134.805C168.842 135.275 168.42 137.066 169.471 138.117L181.341 149.986C182.392 151.038 184.182 150.615 184.652 149.205L190.587 131.4Z" fill="url(#paint37_linear_4002_435)"/>
<path d="M146.073 175.915C146.594 174.351 145.106 172.864 143.543 173.385L125.739 179.319C124.328 179.79 123.906 181.58 124.957 182.631L136.826 194.501C137.878 195.552 139.668 195.129 140.138 193.719L146.073 175.915Z" fill="url(#paint38_linear_4002_435)"/>
<path d="M99.7132 222.274C100.234 220.711 98.7469 219.223 97.1833 219.744L84.915 223.834C83.5046 224.304 83.082 226.094 84.1333 227.145L92.3122 235.324C93.3635 236.375 95.1536 235.953 95.6237 234.542L99.7132 222.274Z" fill="url(#paint39_linear_4002_435)"/>
<path d="M53.3374 268.65C53.8586 267.086 52.3711 265.599 50.8076 266.12L44.1238 268.348C42.7133 268.818 42.2907 270.608 43.342 271.659L47.7979 276.115C48.8492 277.167 50.6393 276.744 51.1095 275.334L53.3374 268.65Z" fill="url(#paint40_linear_4002_435)"/>
<path d="M6.97787 315.009C7.49902 313.446 6.01157 311.958 4.44803 312.479L3.30023 312.862C1.88974 313.332 1.46716 315.122 2.51846 316.174L3.28369 316.939C4.33499 317.99 6.12509 317.568 6.59525 316.157L6.97787 315.009Z" fill="url(#paint41_linear_4002_435)"/>
<path d="M230.164 2.79473C230.685 1.23121 229.198 -0.256262 227.634 0.264909L224.641 1.26262C223.231 1.73278 222.808 3.5229 223.859 4.5742L225.855 6.56963C226.906 7.62093 228.696 7.19834 229.166 5.78787L230.164 2.79473Z" fill="url(#paint42_linear_4002_435)"/>
<path d="M186.88 46.0787C187.401 44.5152 185.914 43.0277 184.35 43.5489L177.666 45.7768C176.256 46.247 175.833 48.0371 176.885 49.0884L181.341 53.5442C182.392 54.5955 184.182 54.173 184.652 52.7625L186.88 46.0787Z" fill="url(#paint43_linear_4002_435)"/>
<path d="M143.612 89.3465C144.133 87.783 142.646 86.2955 141.082 86.8167L130.659 90.291C129.249 90.7612 128.826 92.5513 129.878 93.6026L136.826 100.551C137.878 101.603 139.668 101.18 140.138 99.7695L143.612 89.3465Z" fill="url(#paint44_linear_4002_435)"/>
<path d="M99.098 133.861C99.6192 132.297 98.1317 130.81 96.5682 131.331L86.1452 134.805C84.7347 135.275 84.3121 137.066 85.3634 138.117L92.3121 145.065C93.3634 146.117 95.1535 145.694 95.6237 144.284L99.098 133.861Z" fill="url(#paint45_linear_4002_435)"/>
<path d="M53.3374 179.621C53.8586 178.058 52.3711 176.57 50.8076 177.092L44.1238 179.319C42.7133 179.79 42.2907 181.58 43.342 182.631L47.7979 187.087C48.8492 188.138 50.6393 187.716 51.1095 186.305L53.3374 179.621Z" fill="url(#paint46_linear_4002_435)"/>
<path d="M7.59302 225.366C8.11417 223.802 6.62671 222.315 5.0632 222.836L2.07001 223.834C0.659546 224.304 0.236969 226.094 1.28827 227.145L3.28372 229.141C4.33502 230.192 6.12512 229.769 6.59528 228.359L7.59302 225.366Z" fill="url(#paint47_linear_4002_435)"/>
<path d="M140.521 3.40983C141.042 1.84631 139.554 0.358832 137.991 0.880004L136.843 1.26261C135.432 1.73277 135.01 3.52289 136.061 4.57419L136.826 5.33941C137.878 6.39071 139.668 5.96812 140.138 4.55766L140.521 3.40983Z" fill="url(#paint48_linear_4002_435)"/>
<path d="M96.6214 47.309C97.1426 45.7454 95.6551 44.2579 94.0916 44.7791L91.0984 45.7768C89.688 46.247 89.2654 48.0371 90.3167 49.0884L92.3121 51.0838C93.3634 52.1351 95.1535 51.7126 95.6237 50.3021L96.6214 47.309Z" fill="url(#paint49_linear_4002_435)"/>
<path d="M52.1072 91.8232C52.6284 90.2596 51.1409 88.7722 49.5774 89.2933L46.5843 90.291C45.1738 90.7612 44.7512 92.5513 45.8025 93.6026L47.7979 95.598C48.8492 96.6493 50.6393 96.2268 51.1095 94.8163L52.1072 91.8232Z" fill="url(#paint50_linear_4002_435)"/>
<path d="M6.97787 136.952C7.49902 135.389 6.01157 133.901 4.44803 134.423L3.30023 134.805C1.88974 135.275 1.46716 137.066 2.51846 138.117L3.28369 138.882C4.33499 139.933 6.12512 139.511 6.59528 138.1L6.97787 136.952Z" fill="url(#paint51_linear_4002_435)"/>
</g>
<defs>
<linearGradient id="paint0_linear_4002_435" x1="226.5" y1="-77.4122" x2="226.5" y2="589.458" gradientUnits="userSpaceOnUse">
<stop stop-color="#FBC75E"/>
<stop offset="0.374637" stop-color="#FABB49"/>
<stop offset="1" stop-color="#EB652B"/>
</linearGradient>
<linearGradient id="paint1_linear_4002_435" x1="226.5" y1="-77.4122" x2="226.5" y2="589.458" gradientUnits="userSpaceOnUse">
<stop stop-color="#FBC75E"/>
<stop offset="0.374637" stop-color="#FABB49"/>
<stop offset="1" stop-color="#EB652B"/>
</linearGradient>
<linearGradient id="paint2_linear_4002_435" x1="226.5" y1="-77.4122" x2="226.5" y2="589.458" gradientUnits="userSpaceOnUse">
<stop stop-color="#FBC75E"/>
<stop offset="0.374637" stop-color="#FABB49"/>
<stop offset="1" stop-color="#EB652B"/>
</linearGradient>
<linearGradient id="paint3_linear_4002_435" x1="226.5" y1="-77.4122" x2="226.5" y2="589.458" gradientUnits="userSpaceOnUse">
<stop stop-color="#FBC75E"/>
<stop offset="0.374637" stop-color="#FABB49"/>
<stop offset="1" stop-color="#EB652B"/>
</linearGradient>
<linearGradient id="paint4_linear_4002_435" x1="226.5" y1="-77.4122" x2="226.5" y2="589.458" gradientUnits="userSpaceOnUse">
<stop stop-color="#FBC75E"/>
<stop offset="0.374637" stop-color="#FABB49"/>
<stop offset="1" stop-color="#EB652B"/>
</linearGradient>
<linearGradient id="paint5_linear_4002_435" x1="226.5" y1="-77.4122" x2="226.5" y2="589.458" gradientUnits="userSpaceOnUse">
<stop stop-color="#FBC75E"/>
<stop offset="0.374637" stop-color="#FABB49"/>
<stop offset="1" stop-color="#EB652B"/>
</linearGradient>
<linearGradient id="paint6_linear_4002_435" x1="226.5" y1="-77.4122" x2="226.5" y2="589.458" gradientUnits="userSpaceOnUse">
<stop stop-color="#FBC75E"/>
<stop offset="0.374637" stop-color="#FABB49"/>
<stop offset="1" stop-color="#EB652B"/>
</linearGradient>
<linearGradient id="paint7_linear_4002_435" x1="226.5" y1="-77.4122" x2="226.5" y2="589.458" gradientUnits="userSpaceOnUse">
<stop stop-color="#FBC75E"/>
<stop offset="0.374637" stop-color="#FABB49"/>
<stop offset="1" stop-color="#EB652B"/>
</linearGradient>
<linearGradient id="paint8_linear_4002_435" x1="226.5" y1="-77.4122" x2="226.5" y2="589.458" gradientUnits="userSpaceOnUse">
<stop stop-color="#FBC75E"/>
<stop offset="0.374637" stop-color="#FABB49"/>
<stop offset="1" stop-color="#EB652B"/>
</linearGradient>
<linearGradient id="paint9_linear_4002_435" x1="226.5" y1="-77.4122" x2="226.5" y2="589.458" gradientUnits="userSpaceOnUse">
<stop stop-color="#FBC75E"/>
<stop offset="0.374637" stop-color="#FABB49"/>
<stop offset="1" stop-color="#EB652B"/>
</linearGradient>
<linearGradient id="paint10_linear_4002_435" x1="226.5" y1="-77.4122" x2="226.5" y2="589.458" gradientUnits="userSpaceOnUse">
<stop stop-color="#FBC75E"/>
<stop offset="0.374637" stop-color="#FABB49"/>
<stop offset="1" stop-color="#EB652B"/>
</linearGradient>
<linearGradient id="paint11_linear_4002_435" x1="226.5" y1="-77.4122" x2="226.5" y2="589.458" gradientUnits="userSpaceOnUse">
<stop stop-color="#FBC75E"/>
<stop offset="0.374637" stop-color="#FABB49"/>
<stop offset="1" stop-color="#EB652B"/>
</linearGradient>
<linearGradient id="paint12_linear_4002_435" x1="226.5" y1="-77.4122" x2="226.5" y2="589.458" gradientUnits="userSpaceOnUse">
<stop stop-color="#FBC75E"/>
<stop offset="0.374637" stop-color="#FABB49"/>
<stop offset="1" stop-color="#EB652B"/>
</linearGradient>
<linearGradient id="paint13_linear_4002_435" x1="226.5" y1="-77.4122" x2="226.5" y2="589.458" gradientUnits="userSpaceOnUse">
<stop stop-color="#FBC75E"/>
<stop offset="0.374637" stop-color="#FABB49"/>
<stop offset="1" stop-color="#EB652B"/>
</linearGradient>
<linearGradient id="paint14_linear_4002_435" x1="226.5" y1="-77.4122" x2="226.5" y2="589.458" gradientUnits="userSpaceOnUse">
<stop stop-color="#FBC75E"/>
<stop offset="0.374637" stop-color="#FABB49"/>
<stop offset="1" stop-color="#EB652B"/>
</linearGradient>
<linearGradient id="paint15_linear_4002_435" x1="226.5" y1="-77.4122" x2="226.5" y2="589.458" gradientUnits="userSpaceOnUse">
<stop stop-color="#FBC75E"/>
<stop offset="0.374637" stop-color="#FABB49"/>
<stop offset="1" stop-color="#EB652B"/>
</linearGradient>
<linearGradient id="paint16_linear_4002_435" x1="226.5" y1="-77.4122" x2="226.5" y2="589.458" gradientUnits="userSpaceOnUse">
<stop stop-color="#FBC75E"/>
<stop offset="0.374637" stop-color="#FABB49"/>
<stop offset="1" stop-color="#EB652B"/>
</linearGradient>
<linearGradient id="paint17_linear_4002_435" x1="226.5" y1="-77.4122" x2="226.5" y2="589.458" gradientUnits="userSpaceOnUse">
<stop stop-color="#FBC75E"/>
<stop offset="0.374637" stop-color="#FABB49"/>
<stop offset="1" stop-color="#EB652B"/>
</linearGradient>
<linearGradient id="paint18_linear_4002_435" x1="226.5" y1="-77.4122" x2="226.5" y2="589.458" gradientUnits="userSpaceOnUse">
<stop stop-color="#FBC75E"/>
<stop offset="0.374637" stop-color="#FABB49"/>
<stop offset="1" stop-color="#EB652B"/>
</linearGradient>
<linearGradient id="paint19_linear_4002_435" x1="226.5" y1="-77.4122" x2="226.5" y2="589.458" gradientUnits="userSpaceOnUse">
<stop stop-color="#FBC75E"/>
<stop offset="0.374637" stop-color="#FABB49"/>
<stop offset="1" stop-color="#EB652B"/>
</linearGradient>
<linearGradient id="paint20_linear_4002_435" x1="226.5" y1="-77.4122" x2="226.5" y2="589.458" gradientUnits="userSpaceOnUse">
<stop stop-color="#FBC75E"/>
<stop offset="0.374637" stop-color="#FABB49"/>
<stop offset="1" stop-color="#EB652B"/>
</linearGradient>
<linearGradient id="paint21_linear_4002_435" x1="226.5" y1="-77.4122" x2="226.5" y2="589.458" gradientUnits="userSpaceOnUse">
<stop stop-color="#FBC75E"/>
<stop offset="0.374637" stop-color="#FABB49"/>
<stop offset="1" stop-color="#EB652B"/>
</linearGradient>
<linearGradient id="paint22_linear_4002_435" x1="226.5" y1="-77.4122" x2="226.5" y2="589.458" gradientUnits="userSpaceOnUse">
<stop stop-color="#FBC75E"/>
<stop offset="0.374637" stop-color="#FABB49"/>
<stop offset="1" stop-color="#EB652B"/>
</linearGradient>
<linearGradient id="paint23_linear_4002_435" x1="226.5" y1="-77.4122" x2="226.5" y2="589.458" gradientUnits="userSpaceOnUse">
<stop stop-color="#FBC75E"/>
<stop offset="0.374637" stop-color="#FABB49"/>
<stop offset="1" stop-color="#EB652B"/>
</linearGradient>
<linearGradient id="paint24_linear_4002_435" x1="226.5" y1="-77.4122" x2="226.5" y2="589.458" gradientUnits="userSpaceOnUse">
<stop stop-color="#FBC75E"/>
<stop offset="0.374637" stop-color="#FABB49"/>
<stop offset="1" stop-color="#EB652B"/>
</linearGradient>
<linearGradient id="paint25_linear_4002_435" x1="226.5" y1="-77.4122" x2="226.5" y2="589.458" gradientUnits="userSpaceOnUse">
<stop stop-color="#FBC75E"/>
<stop offset="0.374637" stop-color="#FABB49"/>
<stop offset="1" stop-color="#EB652B"/>
</linearGradient>
<linearGradient id="paint26_linear_4002_435" x1="226.5" y1="-77.4122" x2="226.5" y2="589.458" gradientUnits="userSpaceOnUse">
<stop stop-color="#FBC75E"/>
<stop offset="0.374637" stop-color="#FABB49"/>
<stop offset="1" stop-color="#EB652B"/>
</linearGradient>
<linearGradient id="paint27_linear_4002_435" x1="226.5" y1="-77.4122" x2="226.5" y2="589.458" gradientUnits="userSpaceOnUse">
<stop stop-color="#FBC75E"/>
<stop offset="0.374637" stop-color="#FABB49"/>
<stop offset="1" stop-color="#EB652B"/>
</linearGradient>
<linearGradient id="paint28_linear_4002_435" x1="226.5" y1="-77.4122" x2="226.5" y2="589.458" gradientUnits="userSpaceOnUse">
<stop stop-color="#FBC75E"/>
<stop offset="0.374637" stop-color="#FABB49"/>
<stop offset="1" stop-color="#EB652B"/>
</linearGradient>
<linearGradient id="paint29_linear_4002_435" x1="226.5" y1="-77.4122" x2="226.5" y2="589.458" gradientUnits="userSpaceOnUse">
<stop stop-color="#FBC75E"/>
<stop offset="0.374637" stop-color="#FABB49"/>
<stop offset="1" stop-color="#EB652B"/>
</linearGradient>
<linearGradient id="paint30_linear_4002_435" x1="226.5" y1="-77.4122" x2="226.5" y2="589.458" gradientUnits="userSpaceOnUse">
<stop stop-color="#FBC75E"/>
<stop offset="0.374637" stop-color="#FABB49"/>
<stop offset="1" stop-color="#EB652B"/>
</linearGradient>
<linearGradient id="paint31_linear_4002_435" x1="226.5" y1="-77.4122" x2="226.5" y2="589.458" gradientUnits="userSpaceOnUse">
<stop stop-color="#FBC75E"/>
<stop offset="0.374637" stop-color="#FABB49"/>
<stop offset="1" stop-color="#EB652B"/>
</linearGradient>
<linearGradient id="paint32_linear_4002_435" x1="226.5" y1="-77.4122" x2="226.5" y2="589.458" gradientUnits="userSpaceOnUse">
<stop stop-color="#FBC75E"/>
<stop offset="0.374637" stop-color="#FABB49"/>
<stop offset="1" stop-color="#EB652B"/>
</linearGradient>
<linearGradient id="paint33_linear_4002_435" x1="226.5" y1="-77.4122" x2="226.5" y2="589.458" gradientUnits="userSpaceOnUse">
<stop stop-color="#FBC75E"/>
<stop offset="0.374637" stop-color="#FABB49"/>
<stop offset="1" stop-color="#EB652B"/>
</linearGradient>
<linearGradient id="paint34_linear_4002_435" x1="226.5" y1="-77.4122" x2="226.5" y2="589.458" gradientUnits="userSpaceOnUse">
<stop stop-color="#FBC75E"/>
<stop offset="0.374637" stop-color="#FABB49"/>
<stop offset="1" stop-color="#EB652B"/>
</linearGradient>
<linearGradient id="paint35_linear_4002_435" x1="226.5" y1="-77.4122" x2="226.5" y2="589.458" gradientUnits="userSpaceOnUse">
<stop stop-color="#FBC75E"/>
<stop offset="0.374637" stop-color="#FABB49"/>
<stop offset="1" stop-color="#EB652B"/>
</linearGradient>
<linearGradient id="paint36_linear_4002_435" x1="226.5" y1="-77.4122" x2="226.5" y2="589.458" gradientUnits="userSpaceOnUse">
<stop stop-color="#FBC75E"/>
<stop offset="0.374637" stop-color="#FABB49"/>
<stop offset="1" stop-color="#EB652B"/>
</linearGradient>
<linearGradient id="paint37_linear_4002_435" x1="226.5" y1="-77.4122" x2="226.5" y2="589.458" gradientUnits="userSpaceOnUse">
<stop stop-color="#FBC75E"/>
<stop offset="0.374637" stop-color="#FABB49"/>
<stop offset="1" stop-color="#EB652B"/>
</linearGradient>
<linearGradient id="paint38_linear_4002_435" x1="226.5" y1="-77.4122" x2="226.5" y2="589.458" gradientUnits="userSpaceOnUse">
<stop stop-color="#FBC75E"/>
<stop offset="0.374637" stop-color="#FABB49"/>
<stop offset="1" stop-color="#EB652B"/>
</linearGradient>
<linearGradient id="paint39_linear_4002_435" x1="226.5" y1="-77.4122" x2="226.5" y2="589.458" gradientUnits="userSpaceOnUse">
<stop stop-color="#FBC75E"/>
<stop offset="0.374637" stop-color="#FABB49"/>
<stop offset="1" stop-color="#EB652B"/>
</linearGradient>
<linearGradient id="paint40_linear_4002_435" x1="226.5" y1="-77.4122" x2="226.5" y2="589.458" gradientUnits="userSpaceOnUse">
<stop stop-color="#FBC75E"/>
<stop offset="0.374637" stop-color="#FABB49"/>
<stop offset="1" stop-color="#EB652B"/>
</linearGradient>
<linearGradient id="paint41_linear_4002_435" x1="226.5" y1="-77.4122" x2="226.5" y2="589.458" gradientUnits="userSpaceOnUse">
<stop stop-color="#FBC75E"/>
<stop offset="0.374637" stop-color="#FABB49"/>
<stop offset="1" stop-color="#EB652B"/>
</linearGradient>
<linearGradient id="paint42_linear_4002_435" x1="226.5" y1="-77.4122" x2="226.5" y2="589.458" gradientUnits="userSpaceOnUse">
<stop stop-color="#FBC75E"/>
<stop offset="0.374637" stop-color="#FABB49"/>
<stop offset="1" stop-color="#EB652B"/>
</linearGradient>
<linearGradient id="paint43_linear_4002_435" x1="226.5" y1="-77.4122" x2="226.5" y2="589.458" gradientUnits="userSpaceOnUse">
<stop stop-color="#FBC75E"/>
<stop offset="0.374637" stop-color="#FABB49"/>
<stop offset="1" stop-color="#EB652B"/>
</linearGradient>
<linearGradient id="paint44_linear_4002_435" x1="226.5" y1="-77.4122" x2="226.5" y2="589.458" gradientUnits="userSpaceOnUse">
<stop stop-color="#FBC75E"/>
<stop offset="0.374637" stop-color="#FABB49"/>
<stop offset="1" stop-color="#EB652B"/>
</linearGradient>
<linearGradient id="paint45_linear_4002_435" x1="226.5" y1="-77.4122" x2="226.5" y2="589.458" gradientUnits="userSpaceOnUse">
<stop stop-color="#FBC75E"/>
<stop offset="0.374637" stop-color="#FABB49"/>
<stop offset="1" stop-color="#EB652B"/>
</linearGradient>
<linearGradient id="paint46_linear_4002_435" x1="226.5" y1="-77.4122" x2="226.5" y2="589.458" gradientUnits="userSpaceOnUse">
<stop stop-color="#FBC75E"/>
<stop offset="0.374637" stop-color="#FABB49"/>
<stop offset="1" stop-color="#EB652B"/>
</linearGradient>
<linearGradient id="paint47_linear_4002_435" x1="226.5" y1="-77.4122" x2="226.5" y2="589.458" gradientUnits="userSpaceOnUse">
<stop stop-color="#FBC75E"/>
<stop offset="0.374637" stop-color="#FABB49"/>
<stop offset="1" stop-color="#EB652B"/>
</linearGradient>
<linearGradient id="paint48_linear_4002_435" x1="226.5" y1="-77.4122" x2="226.5" y2="589.458" gradientUnits="userSpaceOnUse">
<stop stop-color="#FBC75E"/>
<stop offset="0.374637" stop-color="#FABB49"/>
<stop offset="1" stop-color="#EB652B"/>
</linearGradient>
<linearGradient id="paint49_linear_4002_435" x1="226.5" y1="-77.4122" x2="226.5" y2="589.458" gradientUnits="userSpaceOnUse">
<stop stop-color="#FBC75E"/>
<stop offset="0.374637" stop-color="#FABB49"/>
<stop offset="1" stop-color="#EB652B"/>
</linearGradient>
<linearGradient id="paint50_linear_4002_435" x1="226.5" y1="-77.4122" x2="226.5" y2="589.458" gradientUnits="userSpaceOnUse">
<stop stop-color="#FBC75E"/>
<stop offset="0.374637" stop-color="#FABB49"/>
<stop offset="1" stop-color="#EB652B"/>
</linearGradient>
<linearGradient id="paint51_linear_4002_435" x1="226.5" y1="-77.4122" x2="226.5" y2="589.458" gradientUnits="userSpaceOnUse">
<stop stop-color="#FBC75E"/>
<stop offset="0.374637" stop-color="#FABB49"/>
<stop offset="1" stop-color="#EB652B"/>
</linearGradient>
</defs>
</svg>
