<svg width="60" height="60" viewBox="0 0 60 60" fill="none" xmlns="http://www.w3.org/2000/svg">
<path d="M42.5 50H55V45C55 40.8579 51.6421 37.5 47.5 37.5C45.111 37.5 42.9829 38.617 41.6094 40.3572M42.5 50H17.5M42.5 50V45C42.5 43.3594 42.1839 41.7926 41.6094 40.3572M17.5 50H5V45C5 40.8579 8.35786 37.5 12.5 37.5C14.889 37.5 17.0171 38.617 18.3906 40.3572M17.5 50V45C17.5 43.3594 17.8161 41.7926 18.3906 40.3572M18.3906 40.3572C20.2338 35.7526 24.737 32.5 30 32.5C35.263 32.5 39.7662 35.7526 41.6094 40.3572M37.5 17.5C37.5 21.6421 34.1421 25 30 25C25.8579 25 22.5 21.6421 22.5 17.5C22.5 13.3579 25.8579 10 30 10C34.1421 10 37.5 13.3579 37.5 17.5ZM52.5 25C52.5 27.7614 50.2614 30 47.5 30C44.7386 30 42.5 27.7614 42.5 25C42.5 22.2386 44.7386 20 47.5 20C50.2614 20 52.5 22.2386 52.5 25ZM17.5 25C17.5 27.7614 15.2614 30 12.5 30C9.73858 30 7.5 27.7614 7.5 25C7.5 22.2386 9.73858 20 12.5 20C15.2614 20 17.5 22.2386 17.5 25Z" stroke="#F5F5F5" stroke-width="4" stroke-linecap="round" stroke-linejoin="round"/>
</svg>
