<svg width="40" height="57" viewBox="0 0 40 57" fill="none" xmlns="http://www.w3.org/2000/svg">
<rect x="0.5" y="0.5" width="39" height="39" rx="7.5" fill="#FDB415"/>
<rect x="0.5" y="0.5" width="39" height="39" rx="7.5" stroke="#4E5E6E"/>
<path d="M22 20L18.5 22V18L22 20Z" fill="white" stroke="white" stroke-width="1.5" stroke-linecap="round" stroke-linejoin="round"/>
<path d="M10 20.7069V19.2919C10 16.3969 10 14.9489 10.905 14.0179C11.811 13.0859 13.237 13.0459 16.088 12.9649C17.438 12.9269 18.818 12.8999 20 12.8999C21.181 12.8999 22.561 12.9269 23.912 12.9649C26.763 13.0459 28.189 13.0859 29.094 14.0179C30 14.9489 30 16.3979 30 19.2919V20.7069C30 23.6029 30 25.0499 29.095 25.9819C28.189 26.9129 26.764 26.9539 23.912 27.0339C22.562 27.0729 21.182 27.0999 20 27.0999C18.6958 27.096 17.3916 27.074 16.088 27.0339C13.237 26.9539 11.811 26.9139 10.905 25.9819C10 25.0499 10 23.6019 10 20.7079V20.7069Z" stroke="white" stroke-width="1.5"/>
<g clip-path="url(#clip0_4002_821)">
<path d="M34.267 44.7333C33.067 43.4666 31.467 42.5999 29.8004 42.2666C29.067 42.0666 28.3337 41.9333 27.6004 41.8666C29.467 39.6666 29.1337 36.3333 26.9337 34.4666C24.7337 32.5999 21.4004 32.9333 19.5337 35.1333C17.667 37.3333 18.0004 40.6666 20.2004 42.5333C20.6004 42.8666 21.0004 43.1333 21.4004 43.2666V44.7333L20.3337 43.7333C19.4004 42.7999 17.867 42.7999 16.867 43.7333C15.9337 44.6666 15.867 46.1333 16.8004 47.0666L19.867 50.6666C20.0004 51.5999 20.3337 52.4666 20.8004 53.2666C21.1337 53.8666 21.6004 54.4666 22.067 54.9333V56.1999C22.067 56.5999 22.3337 56.8666 22.7337 56.8666H31.8004C32.1337 56.8666 32.467 56.5333 32.467 56.1999V54.4666C33.7337 52.9333 34.4004 50.9999 34.4004 49.0666V45.1999C34.467 44.9333 34.4004 44.7999 34.267 44.7333ZM19.6004 38.4666C19.6004 36.2666 21.4004 34.5333 23.6004 34.5999C25.8004 34.5999 27.5337 36.3999 27.467 38.5999C27.467 39.7999 26.9337 40.8666 26.0004 41.5999V38.2666C25.9663 37.6888 25.7126 37.146 25.2911 36.7493C24.8697 36.3527 24.3125 36.1323 23.7337 36.1333C22.5337 36.0666 21.467 37.0666 21.467 38.2666V41.7333C20.3337 41.0666 19.667 39.7999 19.6004 38.4666ZM33.1337 48.9999C33.2004 50.7333 32.6004 52.3999 31.467 53.7333C31.3337 53.8666 31.2004 53.9999 31.2004 54.1999V55.5999H23.467V54.6666C23.467 54.4666 23.3337 54.2666 23.2004 54.1333C22.7337 53.7333 22.3337 53.2666 22.0004 52.6666C21.6004 51.9999 21.3337 51.1999 21.2004 50.3999C21.2004 50.2666 21.1337 50.1333 21.067 49.9999L17.867 46.1999C17.667 45.9999 17.5337 45.7333 17.5337 45.3999C17.5337 45.1333 17.667 44.7999 17.867 44.5999C18.3337 44.1999 19.0004 44.1999 19.467 44.5999L21.4004 46.5333V48.5333L22.667 47.8666V38.2666C22.7337 37.7999 23.1337 37.3999 23.667 37.4666C24.1337 37.4666 24.6004 37.7999 24.6004 38.2666V45.9333L25.9337 46.1999V43.1333C26.0004 43.0666 26.067 43.0666 26.1337 42.9999C26.6004 42.9999 27.067 43.0666 27.5337 43.1333V46.5333L28.6004 46.7333V43.2666L29.4004 43.4666C29.7337 43.5333 30.067 43.6666 30.4004 43.7999V47.1333L31.467 47.3333V44.2666C32.067 44.5333 32.6004 44.9333 33.067 45.3999L33.1337 48.9999Z" fill="white"/>
</g>
<defs>
<clipPath id="clip0_4002_821">
<rect width="24" height="24" fill="white" transform="translate(14 33)"/>
</clipPath>
</defs>
</svg>
