<svg width="212" height="47" viewBox="0 0 212 47" fill="none" xmlns="http://www.w3.org/2000/svg">
<path fill-rule="evenodd" clip-rule="evenodd" d="M23.4962 0.13623C10.5229 0.13623 -0.00610352 10.5071 -0.00610352 23.2855C-0.00610352 36.0639 10.5229 46.4348 23.4962 46.4348C36.4695 46.4348 46.9986 36.0639 46.9986 23.2855C46.9986 10.5071 36.4695 0.13623 23.4962 0.13623ZM34.1663 32.198L32.5446 33.7953C31.628 34.6981 30.1474 34.6981 29.2308 33.7953L22.0626 26.7348C19.1953 27.7302 15.858 27.1283 13.5547 24.8597C10.946 22.2901 10.4994 18.401 12.1681 15.3685L17.6912 20.8086L21.005 17.5445L15.4584 12.1044C18.5607 10.4608 22.4856 10.9007 25.0944 13.4702C27.3976 15.7389 28.0087 19.0261 26.9981 21.8503L34.1663 28.9108C35.0829 29.8136 35.0829 31.2952 34.1663 32.198Z" fill="#EAF0FF"/>
<path d="M60.1125 21.9384V4.43473H63.4314V18.9412H70.3263V21.9384H60.1125Z" fill="#EAF0FF"/>
<path d="M71.5311 21.9384L77.3508 4.43473H82.7732L88.7565 21.9384H85.3441L83.7782 17.2867H76.3458L74.8499 21.9384H71.5311ZM77.2807 14.4094H82.8199L80.4593 7.28806H79.5945L77.2807 14.4094Z" fill="#EAF0FF"/>
<path d="M91.291 22.0583V4.31484H97.4145C99.3466 4.31484 100.811 4.73045 101.809 5.56167C102.821 6.3929 103.328 7.58378 103.328 9.13433V9.47002C103.328 10.3172 103.172 11.0206 102.86 11.58C102.564 12.1395 102.151 12.5951 101.622 12.9468C102.369 13.2665 102.954 13.738 103.374 14.3614C103.811 14.9849 104.029 15.8001 104.029 16.8072V17.1428C104.029 18.7094 103.523 19.9242 102.51 20.7874C101.512 21.6346 100.048 22.0583 98.1157 22.0583H91.291ZM97.7184 7.04828H94.5397V11.7958H97.7184C98.513 11.7958 99.0973 11.58 99.4713 11.1485C99.8453 10.7169 100.032 10.1414 100.032 9.42207C100.032 8.70274 99.8453 8.12728 99.4713 7.69568C99.0973 7.26408 98.513 7.04828 97.7184 7.04828ZM98.3494 14.4334H94.5397V19.3248H98.3494C99.1285 19.3248 99.7206 19.109 100.126 18.6774C100.531 18.2458 100.733 17.6384 100.733 16.8551C100.733 16.0878 100.531 15.4964 100.126 15.0808C99.7206 14.6492 99.1285 14.4334 98.3494 14.4334Z" fill="#EAF0FF"/>
<path d="M105.426 21.9384L111.245 4.43473H116.668L122.651 21.9384H119.239L117.673 17.2867H110.24L108.744 21.9384H105.426ZM111.175 14.4094H116.714L114.354 7.28806H113.489L111.175 14.4094Z" fill="#EAF0FF"/>
<path d="M125.186 22.0343V4.31484H131.356C132.898 4.31484 134.238 4.55462 135.376 5.03417C136.529 5.49773 137.487 6.13714 138.251 6.95237C139.03 7.75163 139.606 8.66278 139.98 9.68582C140.37 10.7089 140.565 11.7719 140.565 12.8748V13.4023C140.565 14.4574 140.37 15.4964 139.98 16.5194C139.606 17.5425 139.03 18.4696 138.251 19.3008C137.487 20.1321 136.529 20.7954 135.376 21.291C134.238 21.7865 132.898 22.0343 131.356 22.0343H125.186ZM131.566 7.47988H128.504V18.8692H131.566C132.735 18.8692 133.74 18.6295 134.581 18.1499C135.423 17.6544 136.069 16.975 136.521 16.1118C136.973 15.2486 137.199 14.2575 137.199 13.1386C137.199 11.3962 136.7 10.0215 135.703 9.01445C134.706 7.9914 133.327 7.47988 131.566 7.47988Z" fill="#EAF0FF"/>
<path d="M143.583 21.9384V4.43473H146.902V21.9384H143.583Z" fill="#EAF0FF"/>
<path d="M151.16 21.9384V4.43473H161.491V7.31204H154.409V11.604H161.07V14.4813H154.409V19.0611H161.677V21.9384H151.16Z" fill="#EAF0FF"/>
<path d="M170.127 21.9384V4.43473H173.446V18.9412H180.341V21.9384H170.127Z" fill="#EAF0FF"/>
<path d="M183.046 21.9384V4.43473H186.365V18.9412H193.26V21.9384H183.046Z" fill="#EAF0FF"/>
<path d="M203.335 22.3939C201.776 22.3939 200.444 22.1142 199.338 21.5547C198.247 20.9952 197.351 20.2679 196.65 19.3728C195.964 18.4776 195.458 17.5105 195.131 16.4715C194.804 15.4165 194.64 14.3934 194.64 13.4023V12.8748C194.64 11.8038 194.804 10.7408 195.131 9.68582C195.474 8.61482 195.996 7.64772 196.697 6.78453C197.398 5.92134 198.286 5.23398 199.361 4.72246C200.436 4.19495 201.722 3.9312 203.218 3.9312C204.745 3.9312 206.085 4.21893 207.238 4.79439C208.391 5.36985 209.31 6.16911 209.996 7.19215C210.681 8.21519 211.094 9.41407 211.234 10.7888H207.892C207.705 9.58991 207.183 8.67876 206.326 8.05534C205.485 7.41594 204.449 7.09624 203.218 7.09624C202.08 7.09624 201.122 7.35999 200.343 7.8875C199.579 8.39902 198.995 9.11036 198.59 10.0215C198.2 10.9327 198.006 11.9797 198.006 13.1626C198.006 14.3135 198.208 15.3445 198.613 16.2557C199.018 17.1668 199.618 17.8941 200.413 18.4376C201.208 18.9651 202.182 19.2289 203.335 19.2289C204.612 19.2289 205.687 18.9092 206.56 18.2698C207.448 17.6144 207.986 16.7033 208.173 15.5363H211.515C211.359 16.7992 210.938 17.9501 210.253 18.9891C209.583 20.0282 208.663 20.8594 207.495 21.4828C206.342 22.0902 204.955 22.3939 203.335 22.3939Z" fill="#EAF0FF"/>
<path d="M61.3156 42.4146V33.6558H58.3707V32.7415H65.2422V33.6558H62.2972V42.4146H61.3156Z" fill="#EAF0FF"/>
<path d="M67.0452 34.1064C66.8127 34.1064 66.6362 34.0445 66.5156 33.9209C66.4037 33.7883 66.3477 33.6249 66.3477 33.4306C66.3477 33.2274 66.4037 33.064 66.5156 32.9403C66.6362 32.8166 66.8127 32.7548 67.0452 32.7548C67.2777 32.7548 67.4499 32.8166 67.5618 32.9403C67.6738 33.064 67.7298 33.2274 67.7298 33.4306C67.7298 33.6249 67.6738 33.7883 67.5618 33.9209C67.4499 34.0445 67.2777 34.1064 67.0452 34.1064ZM66.8385 42.4146V36.2H65.7406V35.4049H67.7943V42.4146H66.8385Z" fill="#EAF0FF"/>
<path d="M70.3366 42.4146V35.3917H71.1116V37.0083C71.258 36.4429 71.5163 36.0012 71.8866 35.6832C72.2569 35.3564 72.7477 35.1929 73.3591 35.1929H73.3978C74.0006 35.1929 74.4871 35.3519 74.8573 35.67C75.2276 35.988 75.4859 36.4341 75.6323 37.0083C75.7873 36.4429 76.05 36.0012 76.4202 35.6832C76.7991 35.3564 77.2899 35.1929 77.8927 35.1929H77.9314C78.7409 35.1929 79.3436 35.4756 79.7397 36.041C80.1444 36.6063 80.3468 37.3749 80.3468 38.3466V42.4146H79.3781V38.1213C79.3781 37.503 79.2317 37.0127 78.9389 36.6505C78.6461 36.2883 78.2242 36.1072 77.6731 36.1072C77.1048 36.1072 76.6527 36.2972 76.3169 36.677C75.9897 37.0569 75.8261 37.5604 75.8261 38.1876V42.4146H74.8573V38.1213C74.8573 37.503 74.711 37.0127 74.4182 36.6505C74.1254 36.2883 73.7035 36.1072 73.1524 36.1072C72.5841 36.1072 72.132 36.2972 71.7962 36.677C71.469 37.0569 71.3054 37.5604 71.3054 38.1876V42.4146H70.3366Z" fill="#EAF0FF"/>
<path d="M85.6155 42.6399C85.0214 42.6399 84.509 42.5383 84.0785 42.3351C83.6566 42.1231 83.3078 41.8448 83.0323 41.5003C82.7567 41.1469 82.5501 40.7538 82.4123 40.321C82.2831 39.8793 82.2185 39.4332 82.2185 38.9826V38.7971C82.2185 38.3466 82.2874 37.9049 82.4252 37.4721C82.563 37.0392 82.7653 36.6505 83.0323 36.306C83.3078 35.9615 83.6523 35.6876 84.0656 35.4844C84.4875 35.2724 84.9783 35.1664 85.538 35.1664C86.2527 35.1664 86.8469 35.3298 87.3205 35.6567C87.8027 35.9747 88.1644 36.3943 88.4055 36.9155C88.6466 37.4279 88.7671 37.9712 88.7671 38.5454V39.0622H83.1485C83.1657 39.5657 83.2648 40.025 83.4456 40.4402C83.6264 40.8466 83.8977 41.169 84.2593 41.4075C84.621 41.6461 85.0731 41.7653 85.6155 41.7653C86.2097 41.7653 86.6919 41.6284 87.0622 41.3545C87.4324 41.0807 87.6606 40.7494 87.7467 40.3607H88.6509C88.5131 41.0586 88.173 41.6151 87.6305 42.0303C87.0966 42.4367 86.425 42.6399 85.6155 42.6399ZM85.538 36.041C84.8406 36.041 84.2938 36.253 83.8977 36.677C83.5102 37.101 83.2734 37.6399 83.1873 38.2936H87.8242C87.764 37.6222 87.5401 37.0789 87.1526 36.6638C86.7651 36.2486 86.2269 36.041 85.538 36.041Z" fill="#EAF0FF"/>
<path d="M93.892 42.4146V32.7415H94.8736V42.4146H93.892Z" fill="#EAF0FF"/>
<path d="M99.7769 42.6134C98.8986 42.6134 98.2226 42.419 97.749 42.0303C97.2754 41.6328 97.0343 41.1028 97.0257 40.4402H97.9298C97.9385 40.7848 98.0805 41.0939 98.3561 41.3678C98.6402 41.6328 99.1138 41.7653 99.7769 41.7653C100.388 41.7653 100.845 41.6372 101.146 41.381C101.456 41.116 101.611 40.798 101.611 40.427C101.611 39.7644 101.116 39.3758 100.126 39.2609L99.3506 39.1814C98.722 39.1107 98.2183 38.9164 97.8394 38.5984C97.4606 38.2804 97.2711 37.8342 97.2711 37.26C97.2711 36.6417 97.4993 36.1426 97.9557 35.7627C98.4121 35.3829 99.0191 35.1929 99.7769 35.1929C100.509 35.1929 101.103 35.3696 101.559 35.723C102.024 36.0763 102.261 36.5798 102.27 37.2335H101.366C101.357 36.8979 101.219 36.6152 100.952 36.3855C100.685 36.1558 100.294 36.041 99.7769 36.041C99.243 36.041 98.8426 36.1646 98.5757 36.412C98.3173 36.6505 98.1882 36.9376 98.1882 37.2733C98.1882 37.5648 98.2872 37.8077 98.4852 38.0021C98.6833 38.1876 98.9933 38.3024 99.4152 38.3466L100.19 38.4261C100.879 38.5056 101.439 38.7088 101.869 39.0357C102.308 39.3625 102.528 39.8307 102.528 40.4402C102.528 40.8554 102.412 41.2309 102.179 41.5666C101.955 41.8934 101.637 42.1496 101.224 42.3351C100.81 42.5206 100.328 42.6134 99.7769 42.6134Z" fill="#EAF0FF"/>
<path d="M111.811 42.6399C111.036 42.6399 110.347 42.5074 109.744 42.2423C109.15 41.9773 108.646 41.6151 108.233 41.1558C107.828 40.6876 107.523 40.1531 107.316 39.5524C107.109 38.9517 107.006 38.3113 107.006 37.6311V37.3926C107.006 36.7742 107.105 36.1735 107.303 35.5905C107.51 35.0074 107.807 34.4818 108.194 34.0136C108.59 33.5454 109.073 33.1744 109.641 32.9005C110.209 32.6267 110.864 32.4898 111.604 32.4898C112.371 32.4898 113.051 32.6399 113.645 32.9403C114.239 33.2318 114.717 33.6426 115.079 34.1726C115.44 34.7026 115.656 35.3166 115.725 36.0145H114.73C114.661 35.4491 114.476 34.9721 114.175 34.5834C113.882 34.1947 113.512 33.9032 113.064 33.7088C112.616 33.5145 112.13 33.4173 111.604 33.4173C110.864 33.4173 110.222 33.594 109.68 33.9474C109.146 34.3007 108.733 34.7866 108.44 35.4049C108.147 36.0233 108.001 36.73 108.001 37.5251C108.001 38.3643 108.151 39.1019 108.453 39.7379C108.754 40.3651 109.189 40.8554 109.757 41.2088C110.326 41.5621 111.01 41.7388 111.811 41.7388C112.414 41.7388 112.961 41.6372 113.451 41.434C113.951 41.2309 114.364 40.957 114.691 40.6125V38.7176H111.462V37.8696H116.461V38.7176H115.621V40.9173C115.217 41.4561 114.691 41.8801 114.045 42.1893C113.4 42.4897 112.655 42.6399 111.811 42.6399Z" fill="#EAF0FF"/>
<path d="M121.266 42.6399C120.681 42.6399 120.164 42.5383 119.716 42.3351C119.269 42.1231 118.894 41.8448 118.593 41.5003C118.291 41.1469 118.059 40.7538 117.895 40.321C117.74 39.8881 117.663 39.4464 117.663 38.9959V38.8104C117.663 38.3599 117.745 37.9182 117.908 37.4853C118.072 37.0525 118.309 36.6638 118.619 36.3192C118.929 35.9659 119.303 35.6876 119.742 35.4844C120.19 35.2724 120.698 35.1664 121.266 35.1664C121.835 35.1664 122.343 35.2724 122.791 35.4844C123.238 35.6876 123.617 35.9659 123.927 36.3192C124.237 36.6638 124.47 37.0525 124.625 37.4853C124.788 37.9182 124.87 38.3599 124.87 38.8104V38.9959C124.87 39.4464 124.793 39.8881 124.638 40.321C124.483 40.7538 124.25 41.1469 123.94 41.5003C123.639 41.8448 123.264 42.1231 122.816 42.3351C122.369 42.5383 121.852 42.6399 121.266 42.6399ZM121.266 41.7521C121.835 41.7521 122.313 41.624 122.7 41.3678C123.096 41.1116 123.398 40.7671 123.604 40.3342C123.811 39.9014 123.914 39.4243 123.914 38.9031C123.914 38.3731 123.807 37.8961 123.591 37.4721C123.376 37.0392 123.07 36.6991 122.674 36.4517C122.287 36.1956 121.818 36.0675 121.266 36.0675C120.724 36.0675 120.255 36.1956 119.859 36.4517C119.462 36.6991 119.157 37.0392 118.941 37.4721C118.735 37.8961 118.631 38.3731 118.631 38.9031C118.631 39.4243 118.735 39.9014 118.941 40.3342C119.148 40.7671 119.445 41.1116 119.833 41.3678C120.229 41.624 120.707 41.7521 121.266 41.7521Z" fill="#EAF0FF"/>
<path d="M126.91 42.4146V33.5498H125.916V32.7415H127.879V42.4146H126.91Z" fill="#EAF0FF"/>
<path d="M133.193 42.6399C132.53 42.6399 131.944 42.4764 131.436 42.1496C130.937 41.8139 130.545 41.3722 130.261 40.8245C129.985 40.268 129.848 39.6584 129.848 38.9959V38.8104C129.848 38.1744 129.981 37.5825 130.248 37.0348C130.523 36.4782 130.911 36.0277 131.41 35.6832C131.91 35.3387 132.495 35.1664 133.167 35.1664C133.735 35.1664 134.243 35.2989 134.691 35.5639C135.139 35.8201 135.492 36.1912 135.75 36.677V32.7415H136.719V42.4146H135.944V40.8378C135.703 41.4385 135.337 41.889 134.846 42.1893C134.355 42.4897 133.804 42.6399 133.193 42.6399ZM133.322 41.7653C133.787 41.7653 134.205 41.6593 134.575 41.4473C134.954 41.2264 135.251 40.9261 135.466 40.5462C135.681 40.1576 135.789 39.7026 135.789 39.1814V38.5454C135.789 38.0507 135.677 37.6178 135.453 37.2468C135.238 36.8669 134.941 36.571 134.562 36.359C134.192 36.147 133.774 36.041 133.309 36.041C132.792 36.041 132.349 36.1691 131.979 36.4252C131.608 36.6726 131.32 37.0127 131.113 37.4456C130.915 37.8784 130.816 38.3643 130.816 38.9031C130.816 39.4597 130.92 39.9544 131.126 40.3872C131.333 40.8201 131.621 41.1602 131.992 41.4075C132.37 41.6461 132.814 41.7653 133.322 41.7653Z" fill="#EAF0FF"/>
<path d="M142.074 42.6399C141.48 42.6399 140.968 42.5383 140.537 42.3351C140.115 42.1231 139.766 41.8448 139.491 41.5003C139.215 41.1469 139.009 40.7538 138.871 40.321C138.742 39.8793 138.677 39.4332 138.677 38.9826V38.7971C138.677 38.3466 138.746 37.9049 138.884 37.4721C139.021 37.0392 139.224 36.6505 139.491 36.306C139.766 35.9615 140.111 35.6876 140.524 35.4844C140.946 35.2724 141.437 35.1664 141.997 35.1664C142.711 35.1664 143.305 35.3298 143.779 35.6567C144.261 35.9747 144.623 36.3943 144.864 36.9155C145.105 37.4279 145.226 37.9712 145.226 38.5454V39.0622H139.607C139.624 39.5657 139.723 40.025 139.904 40.4402C140.085 40.8466 140.356 41.169 140.718 41.4075C141.079 41.6461 141.532 41.7653 142.074 41.7653C142.668 41.7653 143.15 41.6284 143.521 41.3545C143.891 41.0807 144.119 40.7494 144.205 40.3607H145.109C144.972 41.0586 144.631 41.6151 144.089 42.0303C143.555 42.4367 142.883 42.6399 142.074 42.6399ZM141.997 36.041C141.299 36.041 140.752 36.253 140.356 36.677C139.969 37.101 139.732 37.6399 139.646 38.2936H144.283C144.222 37.6222 143.999 37.0789 143.611 36.6638C143.224 36.2486 142.685 36.041 141.997 36.041Z" fill="#EAF0FF"/>
<path d="M147.09 42.4146V35.4049H147.865V37.0348C148.02 36.4517 148.296 36.0012 148.692 35.6832C149.097 35.3564 149.626 35.1929 150.281 35.1929H150.319C151.181 35.1929 151.822 35.4712 152.244 36.0277C152.666 36.5754 152.877 37.3484 152.877 38.3466V42.4146H151.921V38.1346C151.921 37.5251 151.757 37.0348 151.43 36.6638C151.103 36.2927 150.647 36.1072 150.061 36.1072C149.458 36.1072 148.972 36.3016 148.602 36.6903C148.24 37.0701 148.059 37.5736 148.059 38.2009V42.4146H147.09Z" fill="#EAF0FF"/>
</svg>
