<svg width="254" height="47" viewBox="0 0 254 47" fill="none" xmlns="http://www.w3.org/2000/svg">
<path d="M2.65185 25.9944H16.9516C18.2624 25.9944 19.3349 24.8369 19.3349 23.4222V2.84509C19.3349 1.43041 18.2624 0.272949 16.9516 0.272949H2.65185C1.34104 0.272949 0.268555 1.43041 0.268555 2.84509V23.4222C0.268555 24.8369 1.34104 25.9944 2.65185 25.9944ZM2.65185 46.5715H16.9516C18.2624 46.5715 19.3349 45.4141 19.3349 43.9994V33.7108C19.3349 32.2961 18.2624 31.1387 16.9516 31.1387H2.65185C1.34104 31.1387 0.268555 32.2961 0.268555 33.7108V43.9994C0.268555 45.4141 1.34104 46.5715 2.65185 46.5715ZM26.4848 46.5715H40.7846C42.0954 46.5715 43.1678 45.4141 43.1678 43.9994V23.4222C43.1678 22.0076 42.0954 20.8501 40.7846 20.8501H26.4848C25.174 20.8501 24.1015 22.0076 24.1015 23.4222V43.9994C24.1015 45.4141 25.174 46.5715 26.4848 46.5715ZM24.1015 2.84509V13.1337C24.1015 14.5484 25.174 15.7058 26.4848 15.7058H40.7846C42.0954 15.7058 43.1678 14.5484 43.1678 13.1337V2.84509C43.1678 1.43041 42.0954 0.272949 40.7846 0.272949H26.4848C25.174 0.272949 24.1015 1.43041 24.1015 2.84509Z" fill="#EAF0FF"/>
<path d="M58.284 22.6044C56.9663 22.6044 55.8523 22.3772 54.9421 21.9227C54.0319 21.4682 53.3391 20.8451 52.8637 20.0534C52.4018 19.2617 52.1708 18.3527 52.1708 17.3264H55.0033C55.0033 17.7662 55.1119 18.1841 55.3293 18.5799C55.5466 18.9758 55.8931 19.2983 56.3685 19.5476C56.8576 19.7968 57.4961 19.9214 58.284 19.9214C59.3436 19.9214 60.1383 19.6869 60.6681 19.2177C61.1979 18.7485 61.4628 18.1768 61.4628 17.5023C61.4628 16.9452 61.2387 16.4907 60.7904 16.1388C60.3421 15.787 59.6493 15.5671 58.7119 15.4791L57.4078 15.3691C55.9814 15.2372 54.8402 14.7607 53.9844 13.9397C53.1421 13.104 52.721 12.0044 52.721 10.6409C52.721 9.62926 52.9384 8.74959 53.3731 8.00187C53.8214 7.25414 54.4531 6.68236 55.2682 6.2865C56.0833 5.87599 57.0342 5.67073 58.121 5.67073C59.2349 5.67073 60.1994 5.88332 61.0145 6.30849C61.8432 6.73367 62.4817 7.33478 62.93 8.11182C63.3783 8.87421 63.6024 9.77588 63.6024 10.8168H60.77C60.77 10.1717 60.5458 9.59994 60.0975 9.10146C59.6628 8.60298 59.004 8.35374 58.121 8.35374C57.2515 8.35374 56.6063 8.58098 56.1851 9.03548C55.764 9.48998 55.5534 10.0251 55.5534 10.6409C55.5534 11.1394 55.7165 11.5792 56.0425 11.9604C56.3821 12.3269 56.9255 12.5395 57.6727 12.5982L58.9768 12.7301C60.0364 12.8327 60.9602 13.082 61.7481 13.4778C62.5496 13.859 63.1745 14.3868 63.6228 15.0612C64.0711 15.7357 64.2952 16.5494 64.2952 17.5023C64.2952 18.514 64.0439 19.4083 63.5413 20.1853C63.0522 20.9477 62.3594 21.5415 61.4628 21.9667C60.5662 22.3919 59.5066 22.6044 58.284 22.6044Z" fill="#EAF0FF"/>
<path d="M73.6449 22.6044C72.2864 22.6044 71.1249 22.3479 70.1604 21.8347C69.2094 21.3216 68.4283 20.6545 67.817 19.8335C67.2193 19.0124 66.7778 18.1254 66.4925 17.1725C66.2072 16.2048 66.0646 15.2665 66.0646 14.3575V13.8737C66.0646 12.8914 66.2072 11.9164 66.4925 10.9488C66.7913 9.96647 67.2464 9.07947 67.8577 8.28776C68.4691 7.49605 69.2434 6.86562 70.1807 6.39646C71.1181 5.91264 72.2388 5.67073 73.543 5.67073C74.8743 5.67073 76.0426 5.93463 77.0479 6.46244C78.0531 6.99024 78.8546 7.7233 79.4524 8.66162C80.0501 9.59994 80.4101 10.6995 80.5323 11.9604H77.6184C77.4554 10.8608 77.0003 10.0251 76.2531 9.45333C75.5196 8.86688 74.6162 8.57365 73.543 8.57365C72.5513 8.57365 71.7158 8.81556 71.0366 9.29938C70.3709 9.76854 69.8615 10.421 69.5083 11.2567C69.1687 12.0923 68.9989 13.0527 68.9989 14.1376C68.9989 15.1932 69.1755 16.1388 69.5287 16.9745C69.8819 17.8102 70.4049 18.4773 71.0977 18.9758C71.7905 19.4596 72.6396 19.7015 73.6449 19.7015C74.7588 19.7015 75.6962 19.4083 76.4569 18.8218C77.2312 18.2207 77.6999 17.385 77.8629 16.3148H80.7769C80.641 17.473 80.2742 18.5286 79.6765 19.4816C79.0924 20.4346 78.2909 21.197 77.272 21.7688C76.2667 22.3259 75.0577 22.6044 73.6449 22.6044Z" fill="#EAF0FF"/>
<path d="M83.2186 22.1866V6.13256H86.1122V12.7741H92.9793V6.13256H95.8729V22.1866H92.9793V15.5231H86.1122V22.1866H83.2186Z" fill="#EAF0FF"/>
<path d="M105.67 22.6044C104.271 22.6044 103.095 22.3185 102.145 21.7468C101.194 21.175 100.474 20.3759 99.9846 19.3497C99.4955 18.3087 99.251 17.0918 99.251 15.699V6.13256H102.145V15.8749C102.145 17.0332 102.443 17.9642 103.041 18.6679C103.652 19.357 104.529 19.7015 105.67 19.7015C106.784 19.7015 107.64 19.357 108.237 18.6679C108.849 17.9788 109.154 17.0478 109.154 15.8749V6.13256H112.048V15.699C112.048 17.0918 111.803 18.3087 111.314 19.3497C110.825 20.3759 110.105 21.175 109.154 21.7468C108.217 22.3185 107.055 22.6044 105.67 22.6044Z" fill="#EAF0FF"/>
<path d="M115.436 22.1866V6.13256H119.389L123.118 15.721H123.485L127.194 6.13256H131.208V22.1866H128.335V9.47532L124.687 18.9098H121.733L118.085 9.54129V22.1866H115.436Z" fill="#EAF0FF"/>
<path d="M134.878 22.1866V6.13256H138.831L142.56 15.721H142.927L146.636 6.13256H150.65V22.1866H147.777V9.47532L144.129 18.9098H141.174L137.527 9.54129V22.1866H134.878Z" fill="#EAF0FF"/>
<path d="M163.792 22.6044C162.474 22.6044 161.36 22.3772 160.45 21.9227C159.539 21.4682 158.847 20.8451 158.371 20.0534C157.909 19.2617 157.678 18.3527 157.678 17.3264H160.511C160.511 17.7662 160.619 18.1841 160.837 18.5799C161.054 18.9758 161.401 19.2983 161.876 19.5476C162.365 19.7968 163.004 19.9214 163.792 19.9214C164.851 19.9214 165.646 19.6869 166.176 19.2177C166.705 18.7485 166.97 18.1768 166.97 17.5023C166.97 16.9452 166.746 16.4907 166.298 16.1388C165.85 15.787 165.157 15.5671 164.219 15.4791L162.915 15.3691C161.489 15.2372 160.348 14.7607 159.492 13.9397C158.65 13.104 158.229 12.0044 158.229 10.6409C158.229 9.62926 158.446 8.74959 158.881 8.00187C159.329 7.25414 159.961 6.68236 160.776 6.2865C161.591 5.87599 162.542 5.67073 163.629 5.67073C164.742 5.67073 165.707 5.88332 166.522 6.30849C167.351 6.73367 167.989 7.33478 168.438 8.11182C168.886 8.87421 169.11 9.77588 169.11 10.8168H166.278C166.278 10.1717 166.053 9.59994 165.605 9.10146C165.17 8.60298 164.512 8.35374 163.629 8.35374C162.759 8.35374 162.114 8.58098 161.693 9.03548C161.272 9.48998 161.061 10.0251 161.061 10.6409C161.061 11.1394 161.224 11.5792 161.55 11.9604C161.89 12.3269 162.433 12.5395 163.18 12.5982L164.484 12.7301C165.544 12.8327 166.468 13.082 167.256 13.4778C168.057 13.859 168.682 14.3868 169.13 15.0612C169.579 15.7357 169.803 16.5494 169.803 17.5023C169.803 18.514 169.551 19.4083 169.049 20.1853C168.56 20.9477 167.867 21.5415 166.97 21.9667C166.074 22.3919 165.014 22.6044 163.792 22.6044Z" fill="#EAF0FF"/>
<path d="M179.152 22.6044C177.794 22.6044 176.632 22.3479 175.668 21.8347C174.717 21.3216 173.936 20.6545 173.325 19.8335C172.727 19.0124 172.285 18.1254 172 17.1725C171.715 16.2048 171.572 15.2665 171.572 14.3575V13.8737C171.572 12.8914 171.715 11.9164 172 10.9488C172.299 9.96647 172.754 9.07947 173.365 8.28776C173.977 7.49605 174.751 6.86562 175.688 6.39646C176.626 5.91264 177.746 5.67073 179.051 5.67073C180.382 5.67073 181.55 5.93463 182.555 6.46244C183.561 6.99024 184.362 7.7233 184.96 8.66162C185.558 9.59994 185.918 10.6995 186.04 11.9604H183.126C182.963 10.8608 182.508 10.0251 181.761 9.45333C181.027 8.86688 180.124 8.57365 179.051 8.57365C178.059 8.57365 177.223 8.81556 176.544 9.29938C175.878 9.76854 175.369 10.421 175.016 11.2567C174.676 12.0923 174.506 13.0527 174.506 14.1376C174.506 15.1932 174.683 16.1388 175.036 16.9745C175.389 17.8102 175.912 18.4773 176.605 18.9758C177.298 19.4596 178.147 19.7015 179.152 19.7015C180.266 19.7015 181.204 19.4083 181.964 18.8218C182.739 18.2207 183.207 17.385 183.37 16.3148H186.284C186.149 17.473 185.782 18.5286 185.184 19.4816C184.6 20.4346 183.798 21.197 182.78 21.7688C181.774 22.3259 180.565 22.6044 179.152 22.6044Z" fill="#EAF0FF"/>
<path d="M188.726 22.1866V6.13256H191.62V12.7741H198.487V6.13256H201.38V22.1866H198.487V15.5231H191.62V22.1866H188.726Z" fill="#EAF0FF"/>
<path d="M211.177 22.6044C209.778 22.6044 208.603 22.3185 207.652 21.7468C206.701 21.175 205.981 20.3759 205.492 19.3497C205.003 18.3087 204.759 17.0918 204.759 15.699V6.13256H207.652V15.8749C207.652 17.0332 207.951 17.9642 208.549 18.6679C209.16 19.357 210.036 19.7015 211.177 19.7015C212.291 19.7015 213.147 19.357 213.745 18.6679C214.356 17.9788 214.662 17.0478 214.662 15.8749V6.13256H217.555V15.699C217.555 17.0918 217.311 18.3087 216.822 19.3497C216.333 20.3759 215.613 21.175 214.662 21.7468C213.724 22.3185 212.563 22.6044 211.177 22.6044Z" fill="#EAF0FF"/>
<path d="M220.944 22.1866V6.13256H223.837V19.4376H229.848V22.1866H220.944Z" fill="#EAF0FF"/>
<path d="M233.569 22.1866V8.88154H229.269V6.13256H240.762V8.88154H236.463V22.1866H233.569Z" fill="#EAF0FF"/>
<path d="M242.036 22.1866V19.5036L250.105 8.96951L249.922 8.7056H242.281V6.13256H253.447V8.81556L245.378 19.3277L245.561 19.6136H253.549V22.1866H242.036Z" fill="#EAF0FF"/>
<path d="M54.0224 40.9671L51.7477 32.0951H52.6261L54.6193 40.1285H55.0134L56.635 32.484H57.7724L59.5854 40.1285H59.957L61.7701 32.0951H62.6259L60.5426 40.9671H58.966L57.2093 33.5899L55.599 40.9671H54.0224Z" fill="#EAF0FF"/>
<path d="M66.5193 41.1737C66.0088 41.1737 65.5584 41.0805 65.168 40.8941C64.7776 40.6997 64.451 40.4445 64.1883 40.1285C63.9255 39.8044 63.7228 39.4438 63.5802 39.0468C63.445 38.6498 63.3775 38.2447 63.3775 37.8315V37.6613C63.3775 37.2481 63.4488 36.843 63.5914 36.446C63.7341 36.049 63.9405 35.6925 64.2108 35.3765C64.4811 35.0524 64.8076 34.7972 65.1905 34.6108C65.5809 34.4164 66.0238 34.3191 66.5193 34.3191C67.0148 34.3191 67.4577 34.4164 67.8481 34.6108C68.2385 34.7972 68.5688 35.0524 68.8391 35.3765C69.1094 35.6925 69.3121 36.049 69.4472 36.446C69.5898 36.843 69.6612 37.2481 69.6612 37.6613V37.8315C69.6612 38.2447 69.5936 38.6498 69.4585 39.0468C69.3233 39.4438 69.1206 39.8044 68.8504 40.1285C68.5876 40.4445 68.261 40.6997 67.8707 40.8941C67.4803 41.0805 67.0298 41.1737 66.5193 41.1737ZM66.5193 40.3594C67.0148 40.3594 67.4315 40.2419 67.7693 40.0069C68.1146 39.772 68.3774 39.456 68.5576 39.059C68.7378 38.662 68.8278 38.2244 68.8278 37.7464C68.8278 37.2603 68.734 36.8227 68.5463 36.4338C68.3586 36.0368 68.0921 35.7249 67.7468 35.498C67.4089 35.2631 66.9998 35.1456 66.5193 35.1456C66.0464 35.1456 65.6372 35.2631 65.2919 35.498C64.9465 35.7249 64.68 36.0368 64.4923 36.4338C64.3121 36.8227 64.2221 37.2603 64.2221 37.7464C64.2221 38.2244 64.3121 38.662 64.4923 39.059C64.6725 39.456 64.9315 39.772 65.2693 40.0069C65.6147 40.2419 66.0313 40.3594 66.5193 40.3594Z" fill="#EAF0FF"/>
<path d="M71.3835 40.9671V34.5379H72.0592V36.3366C72.2694 35.0889 73.0389 34.465 74.3677 34.465H74.5591V35.2914H74.21C73.5644 35.2914 73.0726 35.4737 72.7348 35.8383C72.397 36.2029 72.2281 36.7296 72.2281 37.4183V40.9671H71.3835Z" fill="#EAF0FF"/>
<path d="M75.9253 40.9671V32.0951H76.7699V37.7707L79.4388 34.5379H80.3396L78.0424 37.3089L80.9703 40.9671H79.9793L77.5807 37.953H76.7699V40.9671H75.9253Z" fill="#EAF0FF"/>
<path d="M88.529 41.1737C87.8158 41.1737 87.1964 41.0359 86.6709 40.7604C86.1454 40.485 85.7062 40.1204 85.3534 39.6666C85.008 39.2129 84.749 38.7187 84.5764 38.1839C84.4112 37.6492 84.3286 37.1266 84.3286 36.6161V36.3974C84.3286 35.8545 84.4149 35.3157 84.5876 34.781C84.7678 34.2381 85.0343 33.7479 85.3871 33.3104C85.74 32.8729 86.1792 32.5245 86.7047 32.2652C87.2302 31.9979 87.8383 31.8642 88.529 31.8642C89.2272 31.8642 89.8353 31.9979 90.3533 32.2652C90.8788 32.5245 91.318 32.8729 91.6708 33.3104C92.0237 33.7479 92.2864 34.2381 92.4591 34.781C92.6393 35.3157 92.7294 35.8545 92.7294 36.3974V36.6283C92.7294 37.1387 92.643 37.6613 92.4704 38.1961C92.3052 38.7227 92.0499 39.2129 91.7046 39.6666C91.3593 40.1204 90.9201 40.485 90.3871 40.7604C89.8615 41.0359 89.2422 41.1737 88.529 41.1737ZM88.529 40.3229C89.0545 40.3229 89.5237 40.2216 89.9366 40.0191C90.3495 39.8084 90.6986 39.5248 90.9839 39.1684C91.2692 38.8037 91.4869 38.3946 91.637 37.9409C91.7872 37.4871 91.8623 37.0131 91.8623 36.5189C91.8623 35.8302 91.7271 35.1982 91.4569 34.623C91.1941 34.0477 90.8112 33.5859 90.3082 33.2375C89.8127 32.8891 89.2197 32.7149 88.529 32.7149C87.8458 32.7149 87.2527 32.8891 86.7497 33.2375C86.2542 33.5859 85.8714 34.0477 85.6011 34.623C85.3308 35.1982 85.1957 35.8302 85.1957 36.5189C85.1957 37.0131 85.2708 37.4871 85.4209 37.9409C85.5711 38.3946 85.7888 38.8037 86.0741 39.1684C86.3669 39.5248 86.7197 39.8084 87.1326 40.0191C87.5455 40.2216 88.011 40.3229 88.529 40.3229Z" fill="#EAF0FF"/>
<path d="M94.6684 40.9671V35.2914H93.8013V34.5865H94.6684V34.0396C94.6684 33.359 94.8298 32.8607 95.1526 32.5448C95.4829 32.2207 95.9671 32.0586 96.6053 32.0586H97.3598V32.8364H96.4476C96.1323 32.8364 95.8921 32.9256 95.7269 33.1038C95.5618 33.2821 95.4792 33.5332 95.4792 33.8573V34.5865H97.4836V35.2914H95.4792V40.9671H94.6684Z" fill="#EAF0FF"/>
<path d="M103.141 40.9671V32.9337H100.574V32.0951H106.565V32.9337H103.997V40.9671H103.141Z" fill="#EAF0FF"/>
<path d="M107.971 40.9671V32.0951H108.816V35.7289C108.973 35.2995 109.213 34.9633 109.536 34.7202C109.867 34.469 110.279 34.3435 110.775 34.3435H110.82C111.541 34.3435 112.085 34.5987 112.453 35.1091C112.828 35.6196 113.016 36.3285 113.016 37.236V40.9671H112.183V37.0415C112.183 36.4662 112.036 36.0125 111.743 35.6803C111.451 35.3481 111.056 35.182 110.561 35.182C110.028 35.182 109.604 35.3684 109.288 35.7411C108.973 36.1057 108.816 36.5878 108.816 37.1873V40.9671H107.971Z" fill="#EAF0FF"/>
<path d="M117.608 41.1737C117.09 41.1737 116.643 41.0805 116.268 40.8941C115.9 40.6997 115.596 40.4445 115.356 40.1285C115.115 39.8044 114.935 39.4438 114.815 39.0468C114.702 38.6417 114.646 38.2325 114.646 37.8193V37.6492C114.646 37.236 114.706 36.8308 114.826 36.4338C114.946 36.0368 115.123 35.6803 115.356 35.3643C115.596 35.0484 115.896 34.7972 116.256 34.6108C116.624 34.4164 117.052 34.3191 117.54 34.3191C118.163 34.3191 118.681 34.469 119.094 34.7688C119.515 35.0605 119.83 35.4454 120.04 35.9234C120.25 36.3933 120.355 36.8916 120.355 37.4183V37.8922H115.457C115.472 38.3541 115.558 38.7754 115.716 39.1562C115.874 39.5289 116.11 39.8246 116.425 40.0434C116.741 40.2621 117.135 40.3715 117.608 40.3715C118.126 40.3715 118.546 40.2459 118.869 39.9948C119.192 39.7436 119.391 39.4398 119.466 39.0833H120.254C120.134 39.7234 119.837 40.2338 119.365 40.6146C118.899 40.9873 118.313 41.1737 117.608 41.1737ZM117.54 35.1213C116.932 35.1213 116.455 35.3157 116.11 35.7046C115.772 36.0935 115.566 36.5878 115.491 37.1873H119.533C119.481 36.5716 119.286 36.0733 118.948 35.6925C118.61 35.3117 118.141 35.1213 117.54 35.1213Z" fill="#EAF0FF"/>
<path d="M124.801 40.9671V32.0951H126.231L130.736 40.1285H130.871V32.0951H131.693V40.9671H130.251L125.747 32.9337H125.612V40.9671H124.801Z" fill="#EAF0FF"/>
<path d="M135.677 41.1372C135.039 41.1372 134.525 40.9589 134.135 40.6024C133.744 40.2459 133.549 39.7355 133.549 39.0711C133.549 38.4229 133.752 37.9246 134.157 37.5763C134.57 37.2279 135.148 37.0537 135.891 37.0537H137.558V36.7498C137.558 36.2718 137.442 35.9072 137.209 35.656C136.976 35.3968 136.616 35.2671 136.128 35.2671C135.79 35.2671 135.452 35.2752 135.114 35.2914C134.777 35.3076 134.488 35.3279 134.247 35.3522V34.5501C134.488 34.5258 134.747 34.5055 135.024 34.4893C135.302 34.4731 135.569 34.465 135.824 34.465C136.732 34.465 137.382 34.6513 137.772 35.024C138.17 35.3886 138.369 35.9923 138.369 36.8349V40.9671H137.693V39.6545C137.558 40.1487 137.314 40.5214 136.961 40.7726C136.616 41.0157 136.188 41.1372 135.677 41.1372ZM135.835 40.408C136.113 40.408 136.379 40.3553 136.635 40.25C136.89 40.1366 137.104 39.9502 137.277 39.6909C137.449 39.4236 137.543 39.059 137.558 38.5971V37.7464H135.835C135.362 37.7464 134.998 37.872 134.743 38.1232C134.495 38.3662 134.371 38.6863 134.371 39.0833C134.371 39.4884 134.503 39.8125 134.765 40.0555C135.028 40.2905 135.385 40.408 135.835 40.408Z" fill="#EAF0FF"/>
<path d="M142.641 41.04C142.235 41.04 141.879 40.9752 141.571 40.8455C141.27 40.7159 141.038 40.4971 140.873 40.1892C140.707 39.8813 140.625 39.46 140.625 38.9253V35.2307H139.555V34.5379H140.625V32.5083H141.436V34.5379H143.587V35.2307H141.436V39.059C141.436 39.4236 141.529 39.7071 141.717 39.9097C141.905 40.1123 142.171 40.2135 142.517 40.2135H143.587V41.04H142.641Z" fill="#EAF0FF"/>
<path d="M145.714 33.3469C145.511 33.3469 145.357 33.2902 145.252 33.1767C145.154 33.0552 145.106 32.9053 145.106 32.7271C145.106 32.5407 145.154 32.3908 145.252 32.2774C145.357 32.1639 145.511 32.1072 145.714 32.1072C145.916 32.1072 146.067 32.1639 146.164 32.2774C146.262 32.3908 146.311 32.5407 146.311 32.7271C146.311 32.9053 146.262 33.0552 146.164 33.1767C146.067 33.2902 145.916 33.3469 145.714 33.3469ZM145.534 40.9671V35.2671H144.576V34.5379H146.367V40.9671H145.534Z" fill="#EAF0FF"/>
<path d="M151.252 41.1737C150.742 41.1737 150.291 41.0805 149.901 40.8941C149.511 40.6997 149.184 40.4445 148.921 40.1285C148.658 39.8044 148.456 39.4438 148.313 39.0468C148.178 38.6498 148.11 38.2447 148.11 37.8315V37.6613C148.11 37.2481 148.182 36.843 148.324 36.446C148.467 36.049 148.673 35.6925 148.944 35.3765C149.214 35.0524 149.541 34.7972 149.923 34.6108C150.314 34.4164 150.757 34.3191 151.252 34.3191C151.748 34.3191 152.191 34.4164 152.581 34.6108C152.971 34.7972 153.302 35.0524 153.572 35.3765C153.842 35.6925 154.045 36.049 154.18 36.446C154.323 36.843 154.394 37.2481 154.394 37.6613V37.8315C154.394 38.2447 154.327 38.6498 154.191 39.0468C154.056 39.4438 153.854 39.8044 153.583 40.1285C153.321 40.4445 152.994 40.6997 152.604 40.8941C152.213 41.0805 151.763 41.1737 151.252 41.1737ZM151.252 40.3594C151.748 40.3594 152.164 40.2419 152.502 40.0069C152.848 39.772 153.11 39.456 153.29 39.059C153.471 38.662 153.561 38.2244 153.561 37.7464C153.561 37.2603 153.467 36.8227 153.279 36.4338C153.092 36.0368 152.825 35.7249 152.48 35.498C152.142 35.2631 151.733 35.1456 151.252 35.1456C150.779 35.1456 150.37 35.2631 150.025 35.498C149.679 35.7249 149.413 36.0368 149.225 36.4338C149.045 36.8227 148.955 37.2603 148.955 37.7464C148.955 38.2244 149.045 38.662 149.225 39.059C149.405 39.456 149.664 39.772 150.002 40.0069C150.348 40.2419 150.764 40.3594 151.252 40.3594Z" fill="#EAF0FF"/>
<path d="M156.116 40.9671V34.5379H156.792V36.0328C156.927 35.498 157.167 35.0848 157.513 34.7931C157.866 34.4933 158.327 34.3435 158.898 34.3435H158.932C159.682 34.3435 160.242 34.5987 160.61 35.1091C160.977 35.6115 161.161 36.3204 161.161 37.236V40.9671H160.328V37.0415C160.328 36.4825 160.185 36.0328 159.9 35.6925C159.615 35.3522 159.217 35.182 158.706 35.182C158.181 35.182 157.757 35.3603 157.434 35.7168C157.119 36.0652 156.961 36.527 156.961 37.1023V40.9671H156.116Z" fill="#EAF0FF"/>
<path d="M162.891 35.2793V32.0951H163.623V35.2793H162.891Z" fill="#EAF0FF"/>
<path d="M167.29 41.1493C166.524 41.1493 165.934 40.9711 165.522 40.6146C165.109 40.25 164.898 39.7639 164.891 39.1562H165.679C165.687 39.4722 165.811 39.7558 166.051 40.0069C166.299 40.25 166.712 40.3715 167.29 40.3715C167.823 40.3715 168.22 40.2541 168.483 40.0191C168.754 39.776 168.889 39.4843 168.889 39.144C168.889 38.5364 168.457 38.1799 167.594 38.0745L166.918 38.0016C166.37 37.9368 165.931 37.7586 165.6 37.4669C165.27 37.1752 165.105 36.766 165.105 36.2394C165.105 35.6722 165.304 35.2145 165.702 34.8661C166.1 34.5177 166.629 34.3435 167.29 34.3435C167.928 34.3435 168.446 34.5055 168.844 34.8296C169.249 35.1537 169.455 35.6155 169.463 36.2151H168.675C168.667 35.9072 168.547 35.6479 168.314 35.4373C168.082 35.2266 167.74 35.1213 167.29 35.1213C166.824 35.1213 166.475 35.2347 166.242 35.4616C166.017 35.6803 165.904 35.9437 165.904 36.2515C165.904 36.5189 165.991 36.7417 166.163 36.92C166.336 37.0901 166.606 37.1954 166.974 37.236L167.65 37.3089C168.251 37.3818 168.738 37.5682 169.114 37.8679C169.497 38.1677 169.688 38.5971 169.688 39.1562C169.688 39.537 169.587 39.8813 169.384 40.1892C169.189 40.489 168.911 40.724 168.551 40.8941C168.19 41.0643 167.77 41.1493 167.29 41.1493Z" fill="#EAF0FF"/>
<path d="M177.691 41.1737C176.956 41.1737 176.325 41.0359 175.799 40.7604C175.281 40.4769 174.857 40.1082 174.527 39.6545C174.204 39.2008 173.968 38.7106 173.818 38.1839C173.667 37.6492 173.592 37.1306 173.592 36.6283V36.3974C173.592 35.8545 173.667 35.3157 173.818 34.781C173.975 34.2462 174.215 33.7601 174.538 33.3226C174.869 32.8769 175.289 32.5245 175.799 32.2652C176.31 31.9979 176.914 31.8642 177.613 31.8642C178.318 31.8642 178.926 31.9979 179.437 32.2652C179.955 32.5326 180.368 32.9094 180.676 33.3955C180.983 33.8816 181.171 34.4488 181.239 35.097H180.371C180.304 34.5703 180.143 34.1328 179.887 33.7844C179.64 33.4279 179.317 33.1605 178.919 32.9823C178.528 32.804 178.093 32.7149 177.613 32.7149C176.922 32.7149 176.34 32.8891 175.867 33.2375C175.402 33.5778 175.049 34.0356 174.809 34.6108C174.576 35.1861 174.459 35.8221 174.459 36.5189C174.459 37.0131 174.527 37.4871 174.662 37.9409C174.797 38.3946 174.996 38.8037 175.259 39.1684C175.529 39.5248 175.867 39.8084 176.272 40.0191C176.678 40.2216 177.151 40.3229 177.691 40.3229C178.442 40.3229 179.073 40.1204 179.583 39.7153C180.094 39.302 180.409 38.7106 180.529 37.9409H181.396C181.314 38.5485 181.118 39.0995 180.811 39.5937C180.503 40.0799 180.086 40.4647 179.561 40.7483C179.043 41.0319 178.42 41.1737 177.691 41.1737Z" fill="#EAF0FF"/>
<path d="M182.938 40.9671V32.0951H183.783V35.7289C183.941 35.2995 184.181 34.9633 184.504 34.7202C184.834 34.469 185.247 34.3435 185.742 34.3435H185.787C186.508 34.3435 187.052 34.5987 187.42 35.1091C187.796 35.6196 187.983 36.3285 187.983 37.236V40.9671H187.15V37.0415C187.15 36.4662 187.004 36.0125 186.711 35.6803C186.418 35.3481 186.024 35.182 185.528 35.182C184.995 35.182 184.571 35.3684 184.256 35.7411C183.941 36.1057 183.783 36.5878 183.783 37.1873V40.9671H182.938Z" fill="#EAF0FF"/>
<path d="M190.582 33.3469C190.379 33.3469 190.225 33.2902 190.12 33.1767C190.023 33.0552 189.974 32.9053 189.974 32.7271C189.974 32.5407 190.023 32.3908 190.12 32.2774C190.225 32.1639 190.379 32.1072 190.582 32.1072C190.785 32.1072 190.935 32.1639 191.032 32.2774C191.13 32.3908 191.179 32.5407 191.179 32.7271C191.179 32.9053 191.13 33.0552 191.032 33.1767C190.935 33.2902 190.785 33.3469 190.582 33.3469ZM190.402 40.9671V35.2671H189.445V34.5379H191.235V40.9671H190.402Z" fill="#EAF0FF"/>
<path d="M193.508 40.9671V32.8364H192.641V32.0951H194.353V40.9671H193.508Z" fill="#EAF0FF"/>
<path d="M198.986 41.1737C198.407 41.1737 197.897 41.0238 197.454 40.724C197.019 40.4161 196.677 40.011 196.429 39.5086C196.189 38.9982 196.069 38.4391 196.069 37.8315V37.6613C196.069 37.078 196.185 36.5351 196.418 36.0328C196.658 35.5223 196.996 35.1091 197.431 34.7931C197.867 34.4771 198.377 34.3191 198.963 34.3191C199.458 34.3191 199.901 34.4407 200.292 34.6838C200.682 34.9187 200.99 35.259 201.215 35.7046V32.0951H202.06V40.9671H201.384V39.5208C201.174 40.0717 200.855 40.485 200.427 40.7604C199.999 41.0359 199.519 41.1737 198.986 41.1737ZM199.098 40.3715C199.504 40.3715 199.868 40.2743 200.19 40.0799C200.521 39.8773 200.78 39.6018 200.967 39.2534C201.155 38.8969 201.249 38.4797 201.249 38.0016V37.4183C201.249 36.9645 201.151 36.5675 200.956 36.2272C200.769 35.8788 200.51 35.6074 200.179 35.413C199.856 35.2185 199.492 35.1213 199.087 35.1213C198.636 35.1213 198.25 35.2388 197.927 35.4737C197.604 35.7006 197.353 36.0125 197.172 36.4095C197 36.8065 196.913 37.2522 196.913 37.7464C196.913 38.2568 197.004 38.7106 197.184 39.1076C197.364 39.5046 197.615 39.8165 197.938 40.0434C198.269 40.2621 198.655 40.3715 199.098 40.3715Z" fill="#EAF0FF"/>
<path d="M204.24 40.9671V34.5379H204.916V36.3366C205.126 35.0889 205.895 34.465 207.224 34.465H207.415V35.2914H207.066C206.421 35.2914 205.929 35.4737 205.591 35.8383C205.253 36.2029 205.084 36.7296 205.084 37.4183V40.9671H204.24Z" fill="#EAF0FF"/>
<path d="M211.193 41.1737C210.675 41.1737 210.229 41.0805 209.853 40.8941C209.485 40.6997 209.181 40.4445 208.941 40.1285C208.701 39.8044 208.521 39.4438 208.401 39.0468C208.288 38.6417 208.232 38.2325 208.232 37.8193V37.6492C208.232 37.236 208.292 36.8308 208.412 36.4338C208.532 36.0368 208.708 35.6803 208.941 35.3643C209.181 35.0484 209.482 34.7972 209.842 34.6108C210.21 34.4164 210.638 34.3191 211.126 34.3191C211.749 34.3191 212.267 34.469 212.68 34.7688C213.1 35.0605 213.416 35.4454 213.626 35.9234C213.836 36.3933 213.941 36.8916 213.941 37.4183V37.8922H209.043C209.058 38.3541 209.144 38.7754 209.302 39.1562C209.459 39.5289 209.696 39.8246 210.011 40.0434C210.326 40.2621 210.72 40.3715 211.193 40.3715C211.711 40.3715 212.132 40.2459 212.455 39.9948C212.777 39.7436 212.976 39.4398 213.051 39.0833H213.84C213.72 39.7234 213.423 40.2338 212.95 40.6146C212.485 40.9873 211.899 41.1737 211.193 41.1737ZM211.126 35.1213C210.518 35.1213 210.041 35.3157 209.696 35.7046C209.358 36.0935 209.151 36.5878 209.076 37.1873H213.119C213.066 36.5716 212.871 36.0733 212.533 35.6925C212.196 35.3117 211.726 35.1213 211.126 35.1213Z" fill="#EAF0FF"/>
<path d="M215.567 40.9671V34.5379H216.243V36.0328C216.378 35.498 216.618 35.0848 216.963 34.7931C217.316 34.4933 217.778 34.3435 218.348 34.3435H218.382C219.133 34.3435 219.692 34.5987 220.06 35.1091C220.428 35.6115 220.612 36.3204 220.612 37.236V40.9671H219.779V37.0415C219.779 36.4825 219.636 36.0328 219.351 35.6925C219.065 35.3522 218.667 35.182 218.157 35.182C217.631 35.182 217.207 35.3603 216.884 35.7168C216.569 36.0652 216.411 36.527 216.411 37.1023V40.9671H215.567Z" fill="#EAF0FF"/>
</svg>
