<svg width="226" height="47" viewBox="0 0 226 47" fill="none" xmlns="http://www.w3.org/2000/svg">
<path d="M23.1493 0.13623C10.3709 0.13623 0 10.5071 0 23.2855C0 36.0639 10.3709 46.4348 23.1493 46.4348C35.9277 46.4348 46.2986 36.0639 46.2986 23.2855C46.2986 10.5071 35.9277 0.13623 23.1493 0.13623ZM15.6258 27.1746C15.3248 28.17 14.1905 28.633 13.2645 28.2163C12.4775 27.8459 12.0839 26.9663 12.3386 26.1329C12.6164 25.1838 12.7553 24.2115 12.7321 23.2624C12.709 22.3133 12.5932 21.4104 12.3386 20.5308C12.1071 19.6974 12.4775 18.7946 13.2645 18.4473C14.2368 18.0075 15.3711 18.5399 15.6721 19.5816C16.0193 20.7623 16.1814 21.966 16.2045 23.2161C16.2045 24.5124 16.0193 25.8551 15.6258 27.1746ZM22.8947 30.8553C22.5011 31.8045 21.3437 32.1749 20.4408 31.6656C19.6769 31.2257 19.376 30.2998 19.7001 29.4895C20.464 27.707 20.8344 25.7162 20.8344 23.5633C20.8344 21.341 20.4177 19.1881 19.6075 17.1278C19.2834 16.2944 19.6538 15.3685 20.4408 14.9518C21.3437 14.4888 22.4548 14.9055 22.8252 15.8546C23.7975 18.3084 24.2836 20.9011 24.2836 23.5633C24.3299 26.1792 23.8438 28.633 22.8947 30.8553ZM30.0941 33.9342C29.7005 34.8602 28.6125 35.2769 27.7329 34.837C26.9226 34.4435 26.5291 33.4712 26.8763 32.6378C28.2421 29.4201 28.9366 26.2718 28.9366 23.2392C28.9366 20.2067 28.2421 17.1047 26.8995 13.9564C26.5291 13.123 26.9226 12.1507 27.7329 11.7572C28.6357 11.2942 29.7005 11.7109 30.0941 12.6369C31.6219 16.2018 32.409 19.7668 32.409 23.2392C32.409 26.7116 31.6219 30.3229 30.0941 33.9342Z" fill="#EAF0FF"/>
<path d="M63.5471 22.163V5.93402H69.3468C71.1768 5.93402 72.564 6.31416 73.5085 7.07444C74.4677 7.83471 74.9473 8.92395 74.9473 10.3422V10.6492C74.9473 11.4241 74.7998 12.0674 74.5046 12.5791C74.2242 13.0909 73.8332 13.5075 73.3314 13.8292C74.0398 14.1216 74.5932 14.5529 74.9916 15.1231C75.4048 15.6933 75.6114 16.439 75.6114 17.3601V17.6671C75.6114 19.1 75.1318 20.2111 74.1726 21.0007C73.2281 21.7756 71.8409 22.163 70.0109 22.163H63.5471ZM69.6346 8.43416H66.6241V12.7765H69.6346C70.3872 12.7765 70.9407 12.5791 71.2948 12.1844C71.649 11.7896 71.8261 11.2633 71.8261 10.6053C71.8261 9.9474 71.649 9.42106 71.2948 9.0263C70.9407 8.63154 70.3872 8.43416 69.6346 8.43416ZM70.2323 15.1889H66.6241V19.6629H70.2323C70.9702 19.6629 71.531 19.4655 71.9147 19.0707C72.2984 18.676 72.4902 18.1204 72.4902 17.404C72.4902 16.7022 72.2984 16.1612 71.9147 15.7811C71.531 15.3863 70.9702 15.1889 70.2323 15.1889Z" fill="#EAF0FF"/>
<path d="M76.9343 22.0533L82.4462 6.04368H87.5819L93.2488 22.0533H90.0169L88.5338 17.7987H81.4944L80.0776 22.0533H76.9343ZM82.3798 15.167H87.6262L85.3904 8.65347H84.5713L82.3798 15.167Z" fill="#EAF0FF"/>
<path d="M98.0969 22.0533V15.9346H97.2999L92.4299 6.04368H95.6618L99.2701 13.566H100.111L103.41 6.04368H106.464L101.971 15.9346H101.174V22.0533H98.0969Z" fill="#EAF0FF"/>
<path d="M108.706 22.0533V6.04368H118.491V8.6754H111.783V12.6011H118.092V15.2328H111.783V19.4216H118.668V22.0533H108.706Z" fill="#EAF0FF"/>
<path d="M121.893 22.0533V5.93402H127.892C129.825 5.93402 131.367 6.36533 132.518 7.22795C133.67 8.09057 134.245 9.39913 134.245 11.1536V11.5264C134.245 12.7253 133.965 13.7122 133.404 14.4871C132.858 15.262 132.098 15.8322 131.124 16.1978L135.44 22.0533H131.766L127.958 16.7022H125.036V22.0533H121.893ZM128.224 8.58768H125.036V14.1801H128.224C129.08 14.1801 129.766 13.9242 130.283 13.4125C130.799 12.9008 131.057 12.2282 131.057 11.3949C131.057 10.5615 130.799 9.88892 130.283 9.3772C129.766 8.85085 129.08 8.58768 128.224 8.58768Z" fill="#EAF0FF"/>
<path d="M150.129 22.47C148.742 22.47 147.517 22.2434 146.454 21.7902C145.407 21.3223 144.521 20.7009 143.798 19.926C143.09 19.1511 142.551 18.2666 142.182 17.2724C141.828 16.2782 141.651 15.2474 141.651 14.1801V13.6976C141.651 12.6888 141.828 11.7019 142.182 10.7369C142.536 9.77196 143.053 8.90202 143.732 8.12713C144.425 7.35223 145.274 6.73816 146.277 6.28492C147.281 5.81706 148.447 5.58312 149.775 5.58312C151.177 5.58312 152.424 5.8463 153.516 6.37264C154.623 6.89899 155.508 7.63002 156.172 8.56575C156.836 9.48685 157.227 10.5542 157.345 11.7677H154.18C154.077 11.0805 153.818 10.4957 153.405 10.0132C152.992 9.51609 152.468 9.13596 151.834 8.87278C151.214 8.60961 150.527 8.47802 149.775 8.47802C148.757 8.47802 147.878 8.71196 147.141 9.17982C146.403 9.63306 145.835 10.2764 145.436 11.1098C145.038 11.9285 144.838 12.8789 144.838 13.9608C144.838 15.7445 145.311 17.1408 146.255 18.1496C147.214 19.1438 148.506 19.6409 150.129 19.6409C150.985 19.6409 151.76 19.4947 152.453 19.2023C153.162 18.9099 153.737 18.5224 154.18 18.04V16.2416H149.62V13.9169H158.43V16.2416H157.08V19.1804C156.386 20.2331 155.442 21.0445 154.246 21.6147C153.051 22.1849 151.679 22.47 150.129 22.47Z" fill="#EAF0FF"/>
<path d="M161.021 22.0533V5.93402H167.02C168.953 5.93402 170.495 6.36533 171.646 7.22795C172.797 8.09057 173.373 9.39913 173.373 11.1536V11.5264C173.373 12.7253 173.093 13.7122 172.532 14.4871C171.986 15.262 171.226 15.8322 170.252 16.1978L174.568 22.0533H170.894L167.086 16.7022H164.164V22.0533H161.021ZM167.352 8.58768H164.164V14.1801H167.352C168.208 14.1801 168.894 13.9242 169.411 13.4125C169.927 12.9008 170.185 12.2282 170.185 11.3949C170.185 10.5615 169.927 9.88892 169.411 9.3772C168.894 8.85085 168.208 8.58768 167.352 8.58768Z" fill="#EAF0FF"/>
<path d="M184.33 22.47C182.869 22.47 181.599 22.2142 180.522 21.7024C179.445 21.1907 178.552 20.5255 177.844 19.7067C177.15 18.8733 176.634 17.9815 176.294 17.0311C175.955 16.0662 175.785 15.1378 175.785 14.2459V13.7634C175.785 12.7838 175.962 11.8115 176.316 10.8466C176.67 9.88161 177.202 9.00437 177.91 8.21485C178.633 7.41071 179.526 6.77471 180.589 6.30685C181.651 5.82437 182.898 5.58312 184.33 5.58312C185.732 5.58312 186.964 5.82437 188.026 6.30685C189.104 6.77471 189.997 7.41071 190.705 8.21485C191.413 9.00437 191.945 9.88161 192.299 10.8466C192.668 11.8115 192.852 12.7838 192.852 13.7634V14.2459C192.852 15.1378 192.675 16.0662 192.321 17.0311C191.981 17.9815 191.458 18.8733 190.749 19.7067C190.056 20.5255 189.17 21.1907 188.093 21.7024C187.03 22.2142 185.776 22.47 184.33 22.47ZM184.33 19.5751C185.422 19.5751 186.366 19.3266 187.163 18.8295C187.96 18.3178 188.572 17.6379 189 16.7899C189.443 15.9419 189.665 15.0208 189.665 14.0266C189.665 12.9739 189.443 12.0309 189 11.1975C188.572 10.3495 187.96 9.68423 187.163 9.20175C186.366 8.71927 185.422 8.47802 184.33 8.47802C183.223 8.47802 182.271 8.71927 181.474 9.20175C180.677 9.68423 180.057 10.3495 179.615 11.1975C179.187 12.0309 178.973 12.9739 178.973 14.0266C178.973 15.0208 179.187 15.9419 179.615 16.7899C180.043 17.6379 180.655 18.3178 181.452 18.8295C182.264 19.3266 183.223 19.5751 184.33 19.5751Z" fill="#EAF0FF"/>
<path d="M202.553 22.47C201.033 22.47 199.757 22.1849 198.723 21.6147C197.69 21.0445 196.908 20.2477 196.377 19.2242C195.846 18.1862 195.58 16.9727 195.58 15.5837V6.04368H198.723V15.7591C198.723 16.9142 199.048 17.8426 199.697 18.5444C200.362 19.2316 201.313 19.5751 202.553 19.5751C203.763 19.5751 204.693 19.2316 205.342 18.5444C206.006 17.8572 206.338 16.9288 206.338 15.7591V6.04368H209.482V15.5837C209.482 16.9727 209.216 18.1862 208.685 19.2242C208.154 20.2477 207.371 21.0445 206.338 21.6147C205.32 22.1849 204.058 22.47 202.553 22.47Z" fill="#EAF0FF"/>
<path d="M213.162 22.0533V5.93402H218.741C220.777 5.93402 222.349 6.42381 223.456 7.4034C224.577 8.36837 225.138 9.68423 225.138 11.351V11.7019C225.138 13.3686 224.577 14.6918 223.456 15.6714C222.349 16.651 220.777 17.1408 218.741 17.1408H216.306V22.0533H213.162ZM219.006 8.63154H216.306V14.4433H219.006C219.951 14.4433 220.674 14.1728 221.176 13.6318C221.692 13.0909 221.951 12.3891 221.951 11.5264C221.951 10.6638 221.692 9.96933 221.176 9.44299C220.674 8.90202 219.951 8.63154 219.006 8.63154Z" fill="#EAF0FF"/>
<path d="M68.5015 40.9879C67.7022 40.9879 67.0172 40.8506 66.4463 40.5759C65.8836 40.2931 65.4228 39.9254 65.0639 39.473C64.7132 39.0205 64.4563 38.5317 64.2932 38.0065C64.1301 37.4732 64.0486 36.9561 64.0486 36.4551V36.2249C64.0486 35.6835 64.1301 35.1462 64.2932 34.6129C64.4645 34.0797 64.7255 33.5949 65.0762 33.1585C65.435 32.7142 65.8917 32.3627 66.4463 32.1041C67.0009 31.8375 67.6574 31.7042 68.4158 31.7042C69.1825 31.7042 69.8431 31.8375 70.3976 32.1041C70.9604 32.3708 71.4089 32.7465 71.7433 33.2313C72.0777 33.7161 72.2816 34.2816 72.355 34.928H71.413C71.3396 34.4028 71.1643 33.9665 70.887 33.6191C70.6178 33.2636 70.2672 32.9969 69.8349 32.8192C69.4108 32.6414 68.9378 32.5526 68.4158 32.5526C67.6655 32.5526 67.0335 32.7263 66.5197 33.0737C66.014 33.4131 65.6307 33.8696 65.3698 34.4432C65.1169 35.0169 64.9905 35.6512 64.9905 36.3461C64.9905 36.8389 65.0639 37.3116 65.2107 37.7641C65.3575 38.2165 65.5736 38.6246 65.8591 38.9882C66.1527 39.3437 66.5197 39.6265 66.9601 39.8366C67.4005 40.0386 67.9143 40.1395 68.5015 40.1395C69.317 40.1395 70.0021 39.9375 70.5567 39.5336C71.1112 39.1215 71.4538 38.5317 71.5843 37.7641H72.5262C72.4365 38.3701 72.2245 38.9195 71.8901 39.4124C71.5557 39.8972 71.1031 40.2809 70.5322 40.5637C69.9695 40.8465 69.2926 40.9879 68.5015 40.9879Z" fill="#EAF0FF"/>
<path d="M74.2015 40.7819V31.9344H75.119V35.5583C75.2903 35.13 75.5513 34.7947 75.9019 34.5523C76.2608 34.3018 76.7093 34.1766 77.2476 34.1766H77.2965C78.0795 34.1766 78.6707 34.4311 79.0704 34.9402C79.4781 35.4492 79.682 36.1562 79.682 37.0611V40.7819H78.7768V36.8672C78.7768 36.2935 78.6177 35.8411 78.2997 35.5098C77.9816 35.1785 77.5534 35.0129 77.0152 35.0129C76.4361 35.0129 75.9753 35.1987 75.6328 35.5704C75.2903 35.934 75.119 36.4147 75.119 37.0126V40.7819H74.2015Z" fill="#EAF0FF"/>
<path d="M82.5051 33.1828C82.2849 33.1828 82.1177 33.1262 82.0035 33.0131C81.8975 32.8919 81.8445 32.7424 81.8445 32.5647C81.8445 32.3788 81.8975 32.2294 82.0035 32.1162C82.1177 32.0031 82.2849 31.9466 82.5051 31.9466C82.7253 31.9466 82.8884 32.0031 82.9944 32.1162C83.1004 32.2294 83.1534 32.3788 83.1534 32.5647C83.1534 32.7424 83.1004 32.8919 82.9944 33.0131C82.8884 33.1262 82.7253 33.1828 82.5051 33.1828ZM82.3093 40.7819V35.0977H81.2695V34.3705H83.2146V40.7819H82.3093Z" fill="#EAF0FF"/>
<path d="M85.6836 40.7819V32.6738H84.7416V31.9344H86.6011V40.7819H85.6836Z" fill="#EAF0FF"/>
<path d="M91.634 40.9879C91.0061 40.9879 90.4515 40.8385 89.9703 40.5395C89.4973 40.2325 89.1262 39.8285 88.8571 39.3275C88.5961 38.8185 88.4656 38.261 88.4656 37.655V37.4853C88.4656 36.9036 88.592 36.3622 88.8449 35.8613C89.1058 35.3522 89.4728 34.9402 89.9459 34.625C90.4189 34.3099 90.9734 34.1524 91.6096 34.1524C92.1478 34.1524 92.629 34.2736 93.0531 34.516C93.4772 34.7503 93.8116 35.0896 94.0562 35.534V31.9344H94.9737V40.7819H94.2397V39.3396C94.0114 39.8891 93.6648 40.3011 93.1999 40.5759C92.735 40.8506 92.2131 40.9879 91.634 40.9879ZM91.7564 40.188C92.1968 40.188 92.5923 40.0911 92.943 39.8971C93.3018 39.6952 93.5832 39.4204 93.7871 39.073C93.991 38.7175 94.0929 38.3014 94.0929 37.8247V37.2429C94.0929 36.7904 93.9869 36.3945 93.7749 36.0552C93.571 35.7077 93.2896 35.4371 92.9308 35.2431C92.5801 35.0492 92.1845 34.9523 91.7441 34.9523C91.2548 34.9523 90.8348 35.0694 90.4841 35.3037C90.1334 35.53 89.8602 35.8411 89.6645 36.237C89.4769 36.6329 89.3831 37.0773 89.3831 37.5702C89.3831 38.0792 89.481 38.5317 89.6767 38.9276C89.8725 39.3235 90.1457 39.6346 90.4964 39.8608C90.8552 40.0789 91.2752 40.188 91.7564 40.188Z" fill="#EAF0FF"/>
<path d="M97.342 40.7819V34.3705H98.076V36.1643C98.3044 34.92 99.1403 34.2978 100.584 34.2978H100.792V35.122H100.413C99.7112 35.122 99.177 35.3037 98.81 35.6673C98.443 36.0309 98.2595 36.5561 98.2595 37.2429V40.7819H97.342Z" fill="#EAF0FF"/>
<path d="M104.896 40.9879C104.333 40.9879 103.848 40.895 103.44 40.7092C103.041 40.5153 102.71 40.2607 102.449 39.9456C102.188 39.6224 101.993 39.2629 101.862 38.867C101.74 38.463 101.679 38.0549 101.679 37.6429V37.4732C101.679 37.0611 101.744 36.6571 101.874 36.2612C102.005 35.8653 102.196 35.5098 102.449 35.1947C102.71 34.8796 103.036 34.6291 103.428 34.4432C103.828 34.2493 104.292 34.1524 104.822 34.1524C105.499 34.1524 106.062 34.3018 106.511 34.6008C106.967 34.8917 107.31 35.2755 107.538 35.7522C107.767 36.2208 107.881 36.7177 107.881 37.2429V37.7156H102.559C102.576 38.1761 102.669 38.5963 102.841 38.976C103.012 39.3477 103.269 39.6426 103.611 39.8608C103.954 40.0789 104.382 40.188 104.896 40.188C105.459 40.188 105.915 40.0628 106.266 39.8123C106.617 39.5618 106.833 39.2588 106.914 38.9033H107.771C107.64 39.5416 107.318 40.0507 106.804 40.4304C106.299 40.8021 105.662 40.9879 104.896 40.9879ZM104.822 34.9523C104.162 34.9523 103.644 35.1462 103.269 35.534C102.902 35.9219 102.678 36.4147 102.596 37.0126H106.988C106.931 36.3986 106.719 35.9017 106.352 35.5219C105.985 35.1422 105.475 34.9523 104.822 34.9523Z" fill="#EAF0FF"/>
<path d="M109.647 40.7819V34.3705H110.381V35.8613C110.528 35.328 110.789 34.9159 111.164 34.625C111.547 34.3261 112.049 34.1766 112.669 34.1766H112.705C113.521 34.1766 114.128 34.4311 114.528 34.9402C114.928 35.4411 115.127 36.1481 115.127 37.0611V40.7819H114.222V36.8672C114.222 36.3097 114.067 35.8613 113.757 35.5219C113.447 35.1825 113.015 35.0129 112.461 35.0129C111.89 35.0129 111.429 35.1906 111.078 35.5461C110.736 35.8936 110.564 36.3541 110.564 36.9278V40.7819H109.647Z" fill="#EAF0FF"/>
<path d="M124.39 40.9879C123.615 40.9879 122.942 40.8506 122.372 40.5759C121.801 40.3011 121.324 39.9375 120.94 39.4851C120.565 39.0326 120.284 38.5397 120.096 38.0065C119.917 37.4732 119.827 36.952 119.827 36.443V36.2249C119.827 35.6835 119.921 35.1462 120.108 34.6129C120.304 34.0716 120.594 33.5827 120.977 33.1464C121.36 32.7101 121.837 32.3627 122.408 32.1041C122.979 31.8375 123.64 31.7042 124.39 31.7042C125.149 31.7042 125.809 31.8375 126.372 32.1041C126.943 32.3627 127.42 32.7101 127.803 33.1464C128.186 33.5827 128.472 34.0716 128.66 34.6129C128.855 35.1462 128.953 35.6835 128.953 36.2249V36.4551C128.953 36.9642 128.859 37.4853 128.672 38.0186C128.492 38.5438 128.215 39.0326 127.84 39.4851C127.465 39.9375 126.988 40.3011 126.409 40.5759C125.838 40.8506 125.165 40.9879 124.39 40.9879ZM124.39 40.1395C124.961 40.1395 125.471 40.0386 125.919 39.8366C126.368 39.6265 126.747 39.3437 127.057 38.9882C127.367 38.6246 127.603 38.2165 127.766 37.7641C127.93 37.3116 128.011 36.8389 128.011 36.3461C128.011 35.6593 127.864 35.029 127.571 34.4554C127.285 33.8817 126.869 33.4211 126.323 33.0737C125.785 32.7263 125.14 32.5526 124.39 32.5526C123.648 32.5526 123.004 32.7263 122.457 33.0737C121.919 33.4211 121.503 33.8817 121.209 34.4554C120.916 35.029 120.769 35.6593 120.769 36.3461C120.769 36.8389 120.851 37.3116 121.014 37.7641C121.177 38.2165 121.413 38.6246 121.723 38.9882C122.041 39.3437 122.425 39.6265 122.873 39.8366C123.322 40.0386 123.827 40.1395 124.39 40.1395Z" fill="#EAF0FF"/>
<path d="M131.06 40.7819V35.122H130.118V34.419H131.06V33.8736C131.06 33.1949 131.235 32.698 131.586 32.3829C131.944 32.0597 132.47 31.8981 133.164 31.8981H133.983V32.6738H132.992C132.65 32.6738 132.389 32.7626 132.209 32.9404C132.03 33.1181 131.94 33.3686 131.94 33.6918V34.419H134.118V35.122H131.94V40.7819H131.06Z" fill="#EAF0FF"/>
<path d="M140.264 40.7819V32.7707H137.475V31.9344H143.983V32.7707H141.194V40.7819H140.264Z" fill="#EAF0FF"/>
<path d="M145.511 40.7819V31.9344H146.428V35.5583C146.599 35.13 146.86 34.7947 147.211 34.5523C147.57 34.3018 148.018 34.1766 148.557 34.1766H148.606C149.389 34.1766 149.98 34.4311 150.379 34.9402C150.787 35.4492 150.991 36.1562 150.991 37.0611V40.7819H150.086V36.8672C150.086 36.2935 149.927 35.8411 149.609 35.5098C149.291 35.1785 148.862 35.0129 148.324 35.0129C147.745 35.0129 147.284 35.1987 146.942 35.5704C146.599 35.934 146.428 36.4147 146.428 37.0126V40.7819H145.511Z" fill="#EAF0FF"/>
<path d="M155.979 40.9879C155.417 40.9879 154.931 40.895 154.524 40.7092C154.124 40.5153 153.794 40.2607 153.533 39.9456C153.272 39.6224 153.076 39.2629 152.946 38.867C152.823 38.463 152.762 38.0549 152.762 37.6429V37.4732C152.762 37.0611 152.827 36.6571 152.958 36.2612C153.088 35.8653 153.28 35.5098 153.533 35.1947C153.794 34.8796 154.12 34.6291 154.511 34.4432C154.911 34.2493 155.376 34.1524 155.906 34.1524C156.583 34.1524 157.146 34.3018 157.594 34.6008C158.051 34.8917 158.393 35.2755 158.622 35.7522C158.85 36.2208 158.964 36.7177 158.964 37.2429V37.7156H153.643C153.659 38.1761 153.753 38.5963 153.924 38.976C154.095 39.3477 154.352 39.6426 154.695 39.8608C155.037 40.0789 155.466 40.188 155.979 40.188C156.542 40.188 156.999 40.0628 157.35 39.8123C157.7 39.5618 157.916 39.2588 157.998 38.9033H158.854C158.724 39.5416 158.402 40.0507 157.888 40.4304C157.382 40.8021 156.746 40.9879 155.979 40.9879ZM155.906 34.9523C155.245 34.9523 154.728 35.1462 154.352 35.534C153.985 35.9219 153.761 36.4147 153.68 37.0126H158.071C158.014 36.3986 157.802 35.9017 157.435 35.5219C157.068 35.1422 156.558 34.9523 155.906 34.9523Z" fill="#EAF0FF"/>
<path d="M163.794 40.7819V31.9344H165.347L170.241 39.9456H170.387V31.9344H171.28V40.7819H169.715L164.821 32.7707H164.674V40.7819H163.794Z" fill="#EAF0FF"/>
<path d="M175.609 40.9516C174.916 40.9516 174.357 40.7738 173.933 40.4183C173.509 40.0628 173.297 39.5538 173.297 38.8912C173.297 38.2448 173.517 37.7479 173.958 37.4005C174.406 37.053 175.034 36.8793 175.842 36.8793H177.652V36.5763C177.652 36.0996 177.526 35.736 177.273 35.4855C177.02 35.227 176.629 35.0977 176.098 35.0977C175.731 35.0977 175.364 35.1058 174.997 35.122C174.63 35.1381 174.316 35.1583 174.055 35.1826V34.3826C174.316 34.3584 174.598 34.3382 174.9 34.322C175.201 34.3059 175.491 34.2978 175.768 34.2978C176.755 34.2978 177.46 34.4836 177.885 34.8553C178.317 35.2189 178.533 35.8209 178.533 36.6612V40.7819H177.799V39.473C177.652 39.9658 177.387 40.3375 177.004 40.588C176.629 40.8304 176.164 40.9516 175.609 40.9516ZM175.78 40.2244C176.082 40.2244 176.372 40.1719 176.649 40.0668C176.926 39.9537 177.159 39.7679 177.346 39.5093C177.534 39.2427 177.636 38.8791 177.652 38.4185V37.5702H175.78C175.267 37.5702 174.871 37.6954 174.594 37.9459C174.325 38.1883 174.19 38.5074 174.19 38.9033C174.19 39.3073 174.333 39.6305 174.618 39.8729C174.904 40.1072 175.291 40.2244 175.78 40.2244Z" fill="#EAF0FF"/>
<path d="M183.173 40.8546C182.733 40.8546 182.346 40.79 182.011 40.6607C181.685 40.5314 181.432 40.3133 181.253 40.0062C181.073 39.6992 180.984 39.279 180.984 38.7458V35.0614H179.821V34.3705H180.984V32.3465H181.864V34.3705H184.201V35.0614H181.864V38.8791C181.864 39.2427 181.966 39.5255 182.17 39.7275C182.374 39.9295 182.664 40.0305 183.039 40.0305H184.201V40.8546H183.173Z" fill="#EAF0FF"/>
<path d="M186.512 33.1828C186.292 33.1828 186.124 33.1262 186.01 33.0131C185.904 32.8919 185.851 32.7424 185.851 32.5647C185.851 32.3788 185.904 32.2294 186.01 32.1162C186.124 32.0031 186.292 31.9466 186.512 31.9466C186.732 31.9466 186.895 32.0031 187.001 32.1162C187.107 32.2294 187.16 32.3788 187.16 32.5647C187.16 32.7424 187.107 32.8919 187.001 33.0131C186.895 33.1262 186.732 33.1828 186.512 33.1828ZM186.316 40.7819V35.0977H185.276V34.3705H187.221V40.7819H186.316Z" fill="#EAF0FF"/>
<path d="M192.529 40.9879C191.974 40.9879 191.485 40.895 191.061 40.7092C190.636 40.5153 190.282 40.2607 189.996 39.9456C189.711 39.6224 189.491 39.2629 189.336 38.867C189.189 38.4711 189.115 38.0671 189.115 37.655V37.4853C189.115 37.0732 189.193 36.6692 189.348 36.2733C189.503 35.8774 189.727 35.5219 190.021 35.2068C190.314 34.8836 190.669 34.6291 191.085 34.4432C191.509 34.2493 191.99 34.1524 192.529 34.1524C193.067 34.1524 193.548 34.2493 193.972 34.4432C194.396 34.6291 194.755 34.8836 195.049 35.2068C195.342 35.5219 195.562 35.8774 195.709 36.2733C195.864 36.6692 195.942 37.0732 195.942 37.4853V37.655C195.942 38.0671 195.868 38.4711 195.721 38.867C195.575 39.2629 195.354 39.6224 195.061 39.9456C194.775 40.2607 194.421 40.5153 193.997 40.7092C193.572 40.895 193.083 40.9879 192.529 40.9879ZM192.529 40.1759C193.067 40.1759 193.519 40.0588 193.886 39.8244C194.262 39.5901 194.547 39.275 194.743 38.8791C194.938 38.4832 195.036 38.0469 195.036 37.5702C195.036 37.0854 194.934 36.649 194.731 36.2612C194.527 35.8653 194.237 35.5542 193.862 35.328C193.495 35.0937 193.05 34.9765 192.529 34.9765C192.015 34.9765 191.57 35.0937 191.195 35.328C190.82 35.5542 190.53 35.8653 190.327 36.2612C190.131 36.649 190.033 37.0854 190.033 37.5702C190.033 38.0469 190.131 38.4832 190.327 38.8791C190.522 39.275 190.804 39.5901 191.171 39.8244C191.546 40.0588 191.998 40.1759 192.529 40.1759Z" fill="#EAF0FF"/>
<path d="M197.813 40.7819V34.3705H198.547V35.8613C198.693 35.328 198.954 34.9159 199.33 34.625C199.713 34.3261 200.214 34.1766 200.834 34.1766H200.871C201.687 34.1766 202.294 34.4311 202.694 34.9402C203.093 35.4411 203.293 36.1481 203.293 37.0611V40.7819H202.388V36.8672C202.388 36.3097 202.233 35.8613 201.923 35.5219C201.613 35.1825 201.181 35.0129 200.626 35.0129C200.055 35.0129 199.595 35.1906 199.244 35.5461C198.901 35.8936 198.73 36.3541 198.73 36.9278V40.7819H197.813Z" fill="#EAF0FF"/>
</svg>
