<svg width="225" height="47" viewBox="0 0 225 47" fill="none" xmlns="http://www.w3.org/2000/svg">
<path d="M41.1978 22.3233H38.1998V9.09704H24.9735V6.09908C24.9735 3.21134 22.9014 0.588127 20.0357 0.301557C16.7292 -0.0291005 13.9516 2.55003 13.9516 5.79047V9.09704H0.747386V21.8825H3.81148C6.69922 21.8825 9.32243 23.8223 9.87353 26.6439C10.601 30.4355 7.71323 33.7861 4.03192 33.7861H0.725342V46.5715H13.5108V43.4854C13.5108 40.5977 15.4506 37.9745 18.2722 37.4234C22.0638 36.6959 25.4144 39.5837 25.4144 43.265V46.5715H38.1998V33.3452H41.5064C44.7469 33.3452 47.326 30.5677 46.9953 27.2612C46.7088 24.3955 44.0635 22.3233 41.1978 22.3233Z" fill="#EAF0FF"/>
<path d="M65.6399 20.7144L61.549 4.37427H64.7821L67.9713 18.0731H68.5871L71.0944 5.00102H74.4815L77.3627 18.0731H77.9566L80.7938 4.37427H83.851L80.2 20.7144H75.2293L72.766 9.81352L70.5226 20.7144H65.6399Z" fill="#EAF0FF"/>
<path d="M92.9681 21.1397C91.4578 21.1397 90.1895 20.8487 89.1631 20.2667C88.1367 19.6847 87.3596 18.8715 86.8317 17.8269C86.3039 16.7674 86.0399 15.5288 86.0399 14.1112V4.37427H89.1631V14.2903C89.1631 15.4691 89.4857 16.4167 90.1309 17.133C90.7907 17.8344 91.7364 18.185 92.9681 18.185C94.1704 18.185 95.0942 17.8344 95.7393 17.133C96.3992 16.4316 96.7291 15.4841 96.7291 14.2903V4.37427H99.8522V14.1112C99.8522 15.5288 99.5883 16.7674 99.0605 17.8269C98.5326 18.8715 97.7555 19.6847 96.7291 20.2667C95.7174 20.8487 94.4637 21.1397 92.9681 21.1397Z" fill="#EAF0FF"/>
<path d="M110.745 21.1397C109.279 21.1397 108.025 20.8785 106.984 20.3563C105.958 19.834 105.115 19.155 104.455 18.3193C103.81 17.4837 103.333 16.5809 103.025 15.6109C102.717 14.626 102.564 13.671 102.564 12.7458V12.2533C102.564 11.2535 102.717 10.2612 103.025 9.27631C103.348 8.2765 103.839 7.37369 104.499 6.56788C105.159 5.76206 105.995 5.12039 107.006 4.64287C108.018 4.15043 109.228 3.90421 110.635 3.90421C112.072 3.90421 113.333 4.17282 114.418 4.71003C115.503 5.24724 116.369 5.99336 117.014 6.9484C117.659 7.90344 118.047 9.02263 118.179 10.306H115.034C114.858 9.18677 114.367 8.33619 113.561 7.75421C112.769 7.15732 111.794 6.85887 110.635 6.85887C109.565 6.85887 108.663 7.10509 107.93 7.59753C107.212 8.07505 106.662 8.7391 106.281 9.58968C105.914 10.4403 105.731 11.4177 105.731 12.522C105.731 13.5964 105.921 14.5589 106.303 15.4095C106.684 16.26 107.248 16.939 107.996 17.4464C108.744 17.9388 109.66 18.185 110.745 18.185C111.948 18.185 112.959 17.8866 113.781 17.2897C114.616 16.6779 115.122 15.8273 115.298 14.7379H118.443C118.297 15.9168 117.901 16.9912 117.256 17.9612C116.625 18.9312 115.76 19.7071 114.66 20.2891C113.575 20.8562 112.27 21.1397 110.745 21.1397Z" fill="#EAF0FF"/>
<path d="M121.079 20.7144V4.37427H124.202V12.0071L130.316 4.37427H133.901L128.183 11.4923L135.287 20.7144H131.482L125.61 13.0815H124.202V20.7144H121.079Z" fill="#EAF0FF"/>
<path d="M137.08 20.7144V4.37427H146.802V7.06032H140.138V11.067H146.406V13.7531H140.138V18.0284H146.978V20.7144H137.08Z" fill="#EAF0FF"/>
<path d="M150.182 20.7144V4.26235H156.143C158.064 4.26235 159.596 4.70257 160.74 5.58299C161.883 6.46342 162.455 7.79898 162.455 9.58968V9.97021C162.455 11.1939 162.176 12.2011 161.619 12.992C161.077 13.7829 160.322 14.3649 159.354 14.7379L163.643 20.7144H159.992L156.209 15.2528H153.305V20.7144H150.182ZM156.473 6.97078H153.305V12.6786H156.473C157.323 12.6786 158.005 12.4175 158.518 11.8952C159.031 11.3729 159.288 10.6865 159.288 9.8359C159.288 8.98532 159.031 8.29889 158.518 7.7766C158.005 7.23939 157.323 6.97078 156.473 6.97078Z" fill="#EAF0FF"/>
<path d="M168.771 20.7144V7.17224H164.13V4.37427H176.535V7.17224H171.894V20.7144H168.771Z" fill="#EAF0FF"/>
<path d="M183.819 20.7144V4.37427H186.942V20.7144H183.819Z" fill="#EAF0FF"/>
<path d="M190.949 20.7144V4.37427H196.073L202.826 18.0731H203.112V4.37427H206.059V20.7144H200.912L194.16 7.01555H193.852V20.7144H190.949Z" fill="#EAF0FF"/>
<path d="M217.258 21.1397C215.792 21.1397 214.538 20.8785 213.497 20.3563C212.47 19.834 211.627 19.155 210.968 18.3193C210.322 17.4837 209.846 16.5809 209.538 15.6109C209.23 14.626 209.076 13.671 209.076 12.7458V12.2533C209.076 11.2535 209.23 10.2612 209.538 9.27631C209.86 8.2765 210.352 7.37369 211.012 6.56788C211.671 5.76206 212.507 5.12039 213.519 4.64287C214.531 4.15043 215.74 3.90421 217.148 3.90421C218.585 3.90421 219.846 4.17282 220.931 4.71003C222.016 5.24724 222.881 5.99336 223.526 6.9484C224.171 7.90344 224.56 9.02263 224.692 10.306H221.547C221.371 9.18677 220.88 8.33619 220.073 7.75421C219.281 7.15732 218.306 6.85887 217.148 6.85887C216.077 6.85887 215.176 7.10509 214.443 7.59753C213.724 8.07505 213.174 8.7391 212.793 9.58968C212.426 10.4403 212.243 11.4177 212.243 12.522C212.243 13.5964 212.434 14.5589 212.815 15.4095C213.196 16.26 213.761 16.939 214.509 17.4464C215.256 17.9388 216.173 18.185 217.258 18.185C218.46 18.185 219.472 17.8866 220.293 17.2897C221.129 16.6779 221.635 15.8273 221.811 14.7379H224.956C224.809 15.9168 224.413 16.9912 223.768 17.9612C223.138 18.9312 222.272 19.7071 221.173 20.2891C220.088 20.8562 218.783 21.1397 217.258 21.1397Z" fill="#EAF0FF"/>
<path d="M66.2858 40.491C65.5218 40.491 64.8427 40.3614 64.2485 40.1023C63.6627 39.8431 63.1661 39.4889 62.7587 39.0396C62.3597 38.5817 62.0583 38.0591 61.8546 37.4716C61.6508 36.8841 61.549 36.2578 61.549 35.5925V35.3593C61.549 34.7545 61.6466 34.167 61.8419 33.5968C62.0456 33.0266 62.3385 32.5126 62.7205 32.0547C63.111 31.5968 63.5863 31.234 64.1466 30.9662C64.7069 30.6983 65.352 30.5644 66.0821 30.5644C66.8376 30.5644 67.5082 30.7113 68.094 31.005C68.6797 31.2901 69.1508 31.6919 69.5074 32.2102C69.8639 32.7286 70.0761 33.329 70.1441 34.0115H69.1636C69.0957 33.4586 68.9132 32.9921 68.616 32.6119C68.3274 32.2318 67.9624 31.9467 67.521 31.7567C67.0795 31.5666 66.5999 31.4716 66.0821 31.4716C65.352 31.4716 64.7196 31.6443 64.1848 31.9899C63.6585 32.3355 63.251 32.8107 62.9624 33.4154C62.6738 34.0202 62.5295 34.7113 62.5295 35.4888C62.5295 36.3096 62.678 37.031 62.9751 37.653C63.2722 38.2664 63.7009 38.7459 64.2612 39.0915C64.8215 39.437 65.4964 39.6098 66.2858 39.6098C66.8801 39.6098 67.4191 39.5105 67.903 39.3118C68.3953 39.1131 68.8028 38.8452 69.1254 38.5083V36.6552H65.942V35.8258H70.8699V36.6552H70.0422V38.8064C69.6432 39.3334 69.1254 39.748 68.4887 40.0504C67.852 40.3442 67.1177 40.491 66.2858 40.491Z" fill="#EAF0FF"/>
<path d="M75.6074 40.491C75.0301 40.491 74.5208 40.3917 74.0794 40.193C73.638 39.9856 73.2687 39.7135 72.9716 39.3766C72.6745 39.031 72.4453 38.6465 72.284 38.2232C72.1312 37.7999 72.0548 37.3679 72.0548 36.9273V36.7459C72.0548 36.3053 72.1354 35.8733 72.2967 35.45C72.458 35.0266 72.6914 34.6465 72.997 34.3096C73.3026 33.964 73.6719 33.6919 74.1048 33.4932C74.5463 33.2858 75.0471 33.1822 75.6074 33.1822C76.1677 33.1822 76.6685 33.2858 77.1099 33.4932C77.5514 33.6919 77.9249 33.964 78.2305 34.3096C78.5361 34.6465 78.7653 35.0266 78.9181 35.45C79.0794 35.8733 79.16 36.3053 79.16 36.7459V36.9273C79.16 37.3679 79.0836 37.7999 78.9308 38.2232C78.778 38.6465 78.5488 39.031 78.2432 39.3766C77.9461 39.7135 77.5768 39.9856 77.1354 40.193C76.694 40.3917 76.1846 40.491 75.6074 40.491ZM75.6074 39.6228C76.1677 39.6228 76.6388 39.4975 77.0208 39.247C77.4113 38.9964 77.7084 38.6595 77.9121 38.2362C78.1159 37.8128 78.2178 37.3463 78.2178 36.8366C78.2178 36.3182 78.1116 35.8517 77.8994 35.437C77.6872 35.0137 77.3858 34.6811 76.9953 34.4392C76.6133 34.1886 76.1507 34.0634 75.6074 34.0634C75.0726 34.0634 74.6099 34.1886 74.2195 34.4392C73.829 34.6811 73.5276 35.0137 73.3154 35.437C73.1116 35.8517 73.0098 36.3182 73.0098 36.8366C73.0098 37.3463 73.1116 37.8128 73.3154 38.2362C73.5191 38.6595 73.812 38.9964 74.194 39.247C74.5845 39.4975 75.0556 39.6228 75.6074 39.6228Z" fill="#EAF0FF"/>
<path d="M81.1712 40.2707V31.6012H80.1907V30.8106H82.1262V40.2707H81.1712Z" fill="#EAF0FF"/>
<path d="M87.3649 40.491C86.7113 40.491 86.134 40.3312 85.6332 40.0115C85.1408 39.6833 84.7546 39.2513 84.4744 38.7156C84.2028 38.1714 84.067 37.5753 84.067 36.9273V36.7459C84.067 36.1238 84.1985 35.545 84.4617 35.0094C84.7333 34.4651 85.1153 34.0245 85.6077 33.6875C86.1001 33.3506 86.6773 33.1822 87.3395 33.1822C87.8997 33.1822 88.4006 33.3117 88.842 33.5709C89.2834 33.8215 89.6315 34.1843 89.8861 34.6595V30.8106H90.8411V40.2707H90.0771V38.7286C89.8395 39.3161 89.4787 39.7567 88.9948 40.0504C88.5109 40.3442 87.9676 40.491 87.3649 40.491ZM87.4923 39.6357C87.9507 39.6357 88.3624 39.5321 88.7274 39.3247C89.1009 39.1087 89.3938 38.815 89.606 38.4435C89.8182 38.0634 89.9244 37.6185 89.9244 37.1087V36.4867C89.9244 36.0029 89.814 35.5796 89.5933 35.2167C89.3811 34.8452 89.0882 34.5558 88.7147 34.3485C88.3496 34.1411 87.9379 34.0374 87.4795 34.0374C86.9702 34.0374 86.533 34.1627 86.168 34.4133C85.803 34.6552 85.5186 34.9878 85.3148 35.4111C85.1196 35.8344 85.022 36.3096 85.022 36.8366C85.022 37.3809 85.1238 37.8647 85.3276 38.288C85.5313 38.7113 85.8157 39.0439 86.1807 39.2858C86.5542 39.5191 86.9914 39.6357 87.4923 39.6357Z" fill="#EAF0FF"/>
<path d="M98.3028 40.2707V31.7048H95.3996V30.8106H102.174V31.7048H99.2706V40.2707H98.3028Z" fill="#EAF0FF"/>
<path d="M103.951 32.1454C103.722 32.1454 103.548 32.085 103.429 31.964C103.319 31.8344 103.264 31.6746 103.264 31.4845C103.264 31.2858 103.319 31.126 103.429 31.005C103.548 30.8841 103.722 30.8236 103.951 30.8236C104.181 30.8236 104.35 30.8841 104.461 31.005C104.571 31.126 104.626 31.2858 104.626 31.4845C104.626 31.6746 104.571 31.8344 104.461 31.964C104.35 32.085 104.181 32.1454 103.951 32.1454ZM103.748 40.2707V34.193H102.665V33.4154H104.69V40.2707H103.748Z" fill="#EAF0FF"/>
<path d="M107.756 32.1454C107.527 32.1454 107.353 32.085 107.234 31.964C107.124 31.8344 107.069 31.6746 107.069 31.4845C107.069 31.2858 107.124 31.126 107.234 31.005C107.353 30.8841 107.527 30.8236 107.756 30.8236C107.986 30.8236 108.155 30.8841 108.266 31.005C108.376 31.126 108.431 31.2858 108.431 31.4845C108.431 31.6746 108.376 31.8344 108.266 31.964C108.155 32.085 107.986 32.1454 107.756 32.1454ZM107.553 40.2707V34.193H106.47V33.4154H108.495V40.2707H107.553Z" fill="#EAF0FF"/>
<path d="M111.001 40.2707V33.4025H111.765V34.9835C111.91 34.4305 112.164 33.9986 112.529 33.6875C112.894 33.3679 113.378 33.2081 113.981 33.2081H114.019C114.613 33.2081 115.093 33.3636 115.458 33.6746C115.823 33.9856 116.078 34.4219 116.222 34.9835C116.375 34.4305 116.634 33.9986 116.999 33.6875C117.372 33.3679 117.856 33.2081 118.45 33.2081H118.489C119.286 33.2081 119.881 33.4845 120.271 34.0374C120.67 34.5904 120.87 35.342 120.87 36.2923V40.2707H119.915V36.072C119.915 35.4673 119.77 34.9878 119.482 34.6336C119.193 34.2793 118.777 34.1022 118.234 34.1022C117.674 34.1022 117.228 34.288 116.897 34.6595C116.574 35.031 116.413 35.5234 116.413 36.1368V40.2707H115.458V36.072C115.458 35.4673 115.314 34.9878 115.025 34.6336C114.736 34.2793 114.32 34.1022 113.777 34.1022C113.217 34.1022 112.771 34.288 112.44 34.6595C112.118 35.031 111.956 35.5234 111.956 36.1368V40.2707H111.001Z" fill="#EAF0FF"/>
<path d="M126.064 40.491C125.478 40.491 124.973 40.3917 124.549 40.193C124.133 39.9856 123.789 39.7135 123.517 39.3766C123.245 39.031 123.042 38.6465 122.906 38.2232C122.779 37.7912 122.715 37.3549 122.715 36.9143V36.7329C122.715 36.2923 122.783 35.8603 122.919 35.437C123.054 35.0137 123.254 34.6336 123.517 34.2966C123.789 33.9597 124.128 33.6919 124.536 33.4932C124.952 33.2858 125.436 33.1822 125.987 33.1822C126.692 33.1822 127.278 33.342 127.745 33.6616C128.22 33.9726 128.577 34.383 128.814 34.8927C129.052 35.3938 129.171 35.9251 129.171 36.4867V36.9921H123.632C123.649 37.4845 123.746 37.9338 123.925 38.3398C124.103 38.7372 124.37 39.0526 124.727 39.2858C125.083 39.5191 125.529 39.6357 126.064 39.6357C126.65 39.6357 127.125 39.5018 127.49 39.234C127.855 38.9662 128.08 38.6422 128.165 38.2621H129.056C128.92 38.9446 128.585 39.4889 128.05 39.8949C127.524 40.2923 126.862 40.491 126.064 40.491ZM125.987 34.0374C125.3 34.0374 124.761 34.2448 124.37 34.6595C123.988 35.0742 123.755 35.6012 123.67 36.2405H128.241C128.182 35.5839 127.961 35.0526 127.579 34.6465C127.197 34.2405 126.667 34.0374 125.987 34.0374Z" fill="#EAF0FF"/>
<path d="M134.198 40.2707V30.8106H139.444V31.7048H135.165V35.0223H139.151V35.9035H135.165V39.3766H139.584V40.2707H134.198Z" fill="#EAF0FF"/>
<path d="M143.106 40.2707L140.738 33.4154H141.718L143.794 39.4802H144.112L145.933 33.4154H146.875L144.787 40.2707H143.106Z" fill="#EAF0FF"/>
<path d="M151.27 40.491C150.684 40.491 150.179 40.3917 149.754 40.193C149.338 39.9856 148.995 39.7135 148.723 39.3766C148.451 39.031 148.247 38.6465 148.112 38.2232C147.984 37.7912 147.921 37.3549 147.921 36.9143V36.7329C147.921 36.2923 147.989 35.8603 148.124 35.437C148.26 35.0137 148.46 34.6336 148.723 34.2966C148.995 33.9597 149.334 33.6919 149.742 33.4932C150.158 33.2858 150.641 33.1822 151.193 33.1822C151.898 33.1822 152.483 33.342 152.95 33.6616C153.426 33.9726 153.782 34.383 154.02 34.8927C154.258 35.3938 154.377 35.9251 154.377 36.4867V36.9921H148.837C148.854 37.4845 148.952 37.9338 149.13 38.3398C149.309 38.7372 149.576 39.0526 149.933 39.2858C150.289 39.5191 150.735 39.6357 151.27 39.6357C151.855 39.6357 152.331 39.5018 152.696 39.234C153.061 38.9662 153.286 38.6422 153.371 38.2621H154.262C154.126 38.9446 153.791 39.4889 153.256 39.8949C152.73 40.2923 152.068 40.491 151.27 40.491ZM151.193 34.0374C150.506 34.0374 149.966 34.2448 149.576 34.6595C149.194 35.0742 148.961 35.6012 148.876 36.2405H153.447C153.388 35.5839 153.167 35.0526 152.785 34.6465C152.403 34.2405 151.872 34.0374 151.193 34.0374Z" fill="#EAF0FF"/>
<path d="M156.215 40.2707V33.4154H156.979V35.3333C157.217 34.0029 158.087 33.3377 159.589 33.3377H159.806V34.2189H159.411C158.681 34.2189 158.125 34.4133 157.743 34.802C157.361 35.1908 157.17 35.7524 157.17 36.4867V40.2707H156.215Z" fill="#EAF0FF"/>
<path d="M160.976 42.9403V42.072H161.842C162.283 42.072 162.631 41.9856 162.886 41.8129C163.149 41.6401 163.357 41.3118 163.51 40.828L163.726 40.1023H163.051L160.607 33.4154H161.587L163.663 39.2858H163.981L165.776 33.4154H166.706L164.338 41.1001C164.134 41.7567 163.815 42.2275 163.383 42.5126C162.958 42.7977 162.428 42.9403 161.791 42.9403H160.976Z" fill="#EAF0FF"/>
<path d="M171.853 40.491C171.207 40.491 170.651 40.3355 170.184 40.0245C169.718 39.7048 169.37 39.2686 169.14 38.7156V40.2707H168.376V30.8106H169.331V34.7502C169.578 34.2405 169.926 33.8517 170.375 33.5839C170.825 33.3161 171.339 33.1822 171.916 33.1822C172.578 33.1822 173.151 33.3463 173.635 33.6746C174.119 34.0029 174.493 34.4392 174.756 34.9835C175.019 35.5191 175.15 36.1022 175.15 36.7329V36.9143C175.15 37.5364 175.015 38.1195 174.743 38.6638C174.48 39.2081 174.102 39.6487 173.61 39.9856C173.117 40.3226 172.532 40.491 171.853 40.491ZM171.751 39.6357C172.252 39.6357 172.684 39.5105 173.049 39.2599C173.423 39.0094 173.707 38.6724 173.903 38.2491C174.098 37.8258 174.195 37.3506 174.195 36.8236C174.195 36.288 174.094 35.8128 173.89 35.3981C173.695 34.9748 173.41 34.6422 173.037 34.4003C172.672 34.1584 172.243 34.0374 171.751 34.0374C171.284 34.0374 170.864 34.1454 170.49 34.3614C170.125 34.5688 169.832 34.8625 169.611 35.2426C169.399 35.6141 169.293 36.0504 169.293 36.5515V37.1865C169.293 37.6703 169.399 38.0979 169.611 38.4694C169.832 38.8323 170.125 39.1174 170.49 39.3247C170.864 39.5321 171.284 39.6357 171.751 39.6357Z" fill="#EAF0FF"/>
<path d="M180.099 40.491C179.521 40.491 179.012 40.3917 178.571 40.193C178.129 39.9856 177.76 39.7135 177.463 39.3766C177.166 39.031 176.937 38.6465 176.775 38.2232C176.622 37.7999 176.546 37.3679 176.546 36.9273V36.7459C176.546 36.3053 176.627 35.8733 176.788 35.45C176.949 35.0266 177.183 34.6465 177.488 34.3096C177.794 33.964 178.163 33.6919 178.596 33.4932C179.038 33.2858 179.538 33.1822 180.099 33.1822C180.659 33.1822 181.16 33.2858 181.601 33.4932C182.043 33.6919 182.416 33.964 182.722 34.3096C183.027 34.6465 183.257 35.0266 183.409 35.45C183.571 35.8733 183.651 36.3053 183.651 36.7459V36.9273C183.651 37.3679 183.575 37.7999 183.422 38.2232C183.269 38.6465 183.04 39.031 182.734 39.3766C182.437 39.7135 182.068 39.9856 181.627 40.193C181.185 40.3917 180.676 40.491 180.099 40.491ZM180.099 39.6228C180.659 39.6228 181.13 39.4975 181.512 39.247C181.903 38.9964 182.2 38.6595 182.403 38.2362C182.607 37.8128 182.709 37.3463 182.709 36.8366C182.709 36.3182 182.603 35.8517 182.391 35.437C182.178 35.0137 181.877 34.6811 181.487 34.4392C181.105 34.1886 180.642 34.0634 180.099 34.0634C179.564 34.0634 179.101 34.1886 178.711 34.4392C178.32 34.6811 178.019 35.0137 177.807 35.437C177.603 35.8517 177.501 36.3182 177.501 36.8366C177.501 37.3463 177.603 37.8128 177.807 38.2362C178.01 38.6595 178.303 38.9964 178.685 39.247C179.076 39.4975 179.547 39.6228 180.099 39.6228Z" fill="#EAF0FF"/>
<path d="M188.362 40.491C187.708 40.491 187.131 40.3312 186.63 40.0115C186.138 39.6833 185.752 39.2513 185.471 38.7156C185.2 38.1714 185.064 37.5753 185.064 36.9273V36.7459C185.064 36.1238 185.196 35.545 185.459 35.0094C185.73 34.4651 186.112 34.0245 186.605 33.6875C187.097 33.3506 187.674 33.1822 188.336 33.1822C188.897 33.1822 189.398 33.3117 189.839 33.5709C190.28 33.8215 190.628 34.1843 190.883 34.6595V30.8106H191.838V40.2707H191.074V38.7286C190.836 39.3161 190.476 39.7567 189.992 40.0504C189.508 40.3442 188.965 40.491 188.362 40.491ZM188.489 39.6357C188.948 39.6357 189.359 39.5321 189.724 39.3247C190.098 39.1087 190.391 38.815 190.603 38.4435C190.815 38.0634 190.921 37.6185 190.921 37.1087V36.4867C190.921 36.0029 190.811 35.5796 190.59 35.2167C190.378 34.8452 190.085 34.5558 189.712 34.3485C189.347 34.1411 188.935 34.0374 188.477 34.0374C187.967 34.0374 187.53 34.1627 187.165 34.4133C186.8 34.6552 186.516 34.9878 186.312 35.4111C186.117 35.8344 186.019 36.3096 186.019 36.8366C186.019 37.3809 186.121 37.8647 186.325 38.288C186.528 38.7113 186.813 39.0439 187.178 39.2858C187.551 39.5191 187.988 39.6357 188.489 39.6357Z" fill="#EAF0FF"/>
<path d="M193.705 42.9403V42.072H194.571C195.012 42.072 195.36 41.9856 195.615 41.8129C195.878 41.6401 196.086 41.3118 196.239 40.828L196.455 40.1023H195.78L193.336 33.4154H194.316L196.392 39.2858H196.71L198.505 33.4154H199.435L197.066 41.1001C196.863 41.7567 196.544 42.2275 196.111 42.5126C195.687 42.7977 195.156 42.9403 194.52 42.9403H193.705Z" fill="#EAF0FF"/>
</svg>
