<svg width="226" height="47" viewBox="0 0 226 47" fill="none" xmlns="http://www.w3.org/2000/svg">
<path d="M23.2094 0C10.4309 0 0.0600586 10.3709 0.0600586 23.1493C0.0600586 35.9277 10.4309 46.2986 23.2094 46.2986C35.9878 46.2986 46.3587 35.9277 46.3587 23.1493C46.3587 10.3709 35.9878 0 23.2094 0ZM15.6858 27.0384C15.3849 28.0338 14.2506 28.4968 13.3246 28.0801C12.5375 27.7097 12.144 26.83 12.3986 25.9967C12.6764 25.0475 12.8153 24.0753 12.7922 23.1261C12.769 22.177 12.6533 21.2742 12.3986 20.3945C12.1671 19.5612 12.5375 18.6583 13.3246 18.3111C14.2969 17.8713 15.4312 18.4037 15.7321 19.4454C16.0794 20.626 16.2414 21.8298 16.2646 23.0798C16.2646 24.3762 16.0794 25.7189 15.6858 27.0384ZM22.9547 30.7191C22.5612 31.6682 21.4037 32.0386 20.5009 31.5293C19.737 31.0895 19.436 30.1635 19.7601 29.3533C20.524 27.5708 20.8944 25.58 20.8944 23.4271C20.8944 21.2048 20.4777 19.0519 19.6675 16.9916C19.3434 16.1582 19.7138 15.2322 20.5009 14.8155C21.4037 14.3526 22.5149 14.7693 22.8853 15.7184C23.8575 18.1722 24.3437 20.7649 24.3437 23.4271C24.39 26.043 23.9038 28.4968 22.9547 30.7191ZM30.1541 33.798C29.7606 34.7239 28.6726 35.1406 27.7929 34.7008C26.9827 34.3073 26.5892 33.335 26.9364 32.5016C28.3022 29.2839 28.9967 26.1356 28.9967 23.103C28.9967 20.0704 28.3022 16.9684 26.9595 13.8201C26.5892 12.9868 26.9827 12.0145 27.7929 11.6209C28.6957 11.158 29.7606 11.5746 30.1541 12.5006C31.682 16.0656 32.4691 19.6306 32.4691 23.103C32.4691 26.5754 31.682 30.1867 30.1541 33.798Z" fill="#EAF0FF"/>
<path d="M63.6072 22.0268V5.79779H69.4069C71.2368 5.79779 72.6241 6.17793 73.5685 6.93821C74.5278 7.69848 75.0074 8.78772 75.0074 10.2059V10.513C75.0074 11.2879 74.8598 11.9312 74.5647 12.4429C74.2843 12.9546 73.8932 13.3713 73.3914 13.693C74.0998 13.9854 74.6532 14.4167 75.0517 14.9869C75.4649 15.5571 75.6715 16.3028 75.6715 17.2239V17.5309C75.6715 18.9637 75.1919 20.0749 74.2326 20.8644C73.2881 21.6393 71.9009 22.0268 70.071 22.0268H63.6072ZM69.6947 8.29793H66.6841V12.6403H69.6947C70.4473 12.6403 71.0007 12.4429 71.3549 12.0481C71.7091 11.6534 71.8862 11.127 71.8862 10.4691C71.8862 9.81117 71.7091 9.28483 71.3549 8.89007C71.0007 8.49531 70.4473 8.29793 69.6947 8.29793ZM70.2924 15.0527H66.6841V19.5266H70.2924C71.0302 19.5266 71.591 19.3293 71.9747 18.9345C72.3584 18.5397 72.5503 17.9841 72.5503 17.2677C72.5503 16.5659 72.3584 16.025 71.9747 15.6448C71.591 15.2501 71.0302 15.0527 70.2924 15.0527Z" fill="#EAF0FF"/>
<path d="M76.9943 21.9171L82.5063 5.90745H87.6419L93.3089 21.9171H90.077L88.5938 17.6625H81.5544L80.1377 21.9171H76.9943ZM82.4399 15.0308H87.6862L85.4504 8.51724H84.6314L82.4399 15.0308Z" fill="#EAF0FF"/>
<path d="M98.1569 21.9171V15.7984H97.36L92.49 5.90745H95.7219L99.3301 13.4298H100.171L103.47 5.90745H106.524L102.031 15.7984H101.234V21.9171H98.1569Z" fill="#EAF0FF"/>
<path d="M108.766 21.9171V5.90745H118.551V8.53917H111.843V12.4648H118.152V15.0966H111.843V19.2854H118.728V21.9171H108.766Z" fill="#EAF0FF"/>
<path d="M121.953 21.9171V5.79779H127.952C129.885 5.79779 131.427 6.2291 132.579 7.09172C133.73 7.95434 134.305 9.2629 134.305 11.0174V11.3902C134.305 12.5891 134.025 13.576 133.464 14.3509C132.918 15.1258 132.158 15.696 131.184 16.0615L135.501 21.9171H131.826L128.018 16.5659H125.096V21.9171H121.953ZM128.284 8.45145H125.096V14.0439H128.284C129.14 14.0439 129.826 13.788 130.343 13.2763C130.859 12.7646 131.118 12.092 131.118 11.2586C131.118 10.4252 130.859 9.75269 130.343 9.24097C129.826 8.71462 129.14 8.45145 128.284 8.45145Z" fill="#EAF0FF"/>
<path d="M150.189 22.3338C148.802 22.3338 147.577 22.1072 146.514 21.6539C145.467 21.1861 144.581 20.5647 143.858 19.7898C143.15 19.0149 142.611 18.1304 142.242 17.1361C141.888 16.1419 141.711 15.1112 141.711 14.0439V13.5614C141.711 12.5526 141.888 11.5657 142.242 10.6007C142.596 9.63573 143.113 8.76579 143.792 7.9909C144.485 7.216 145.334 6.60193 146.337 6.14869C147.341 5.68082 148.507 5.44689 149.835 5.44689C151.237 5.44689 152.484 5.71007 153.576 6.23641C154.683 6.76276 155.568 7.49379 156.232 8.42952C156.896 9.35062 157.287 10.4179 157.406 11.6315H154.24C154.137 10.9443 153.878 10.3595 153.465 9.87697C153.052 9.37986 152.528 8.99973 151.894 8.73655C151.274 8.47338 150.588 8.34179 149.835 8.34179C148.817 8.34179 147.939 8.57572 147.201 9.04359C146.463 9.49683 145.895 10.1401 145.496 10.9735C145.098 11.7923 144.898 12.7426 144.898 13.8246C144.898 15.6083 145.371 17.0046 146.315 18.0134C147.274 19.0076 148.566 19.5047 150.189 19.5047C151.045 19.5047 151.82 19.3585 152.513 19.0661C153.222 18.7737 153.797 18.3862 154.24 17.9037V16.1054H149.68V13.7807H158.49V16.1054H157.14V19.0441C156.446 20.0968 155.502 20.9083 154.306 21.4785C153.111 22.0487 151.739 22.3338 150.189 22.3338Z" fill="#EAF0FF"/>
<path d="M161.081 21.9171V5.79779H167.08C169.013 5.79779 170.555 6.2291 171.706 7.09172C172.857 7.95434 173.433 9.2629 173.433 11.0174V11.3902C173.433 12.5891 173.153 13.576 172.592 14.3509C172.046 15.1258 171.286 15.696 170.312 16.0615L174.628 21.9171H170.954L167.146 16.5659H164.224V21.9171H161.081ZM167.412 8.45145H164.224V14.0439H167.412C168.268 14.0439 168.954 13.788 169.471 13.2763C169.987 12.7646 170.245 12.092 170.245 11.2586C170.245 10.4252 169.987 9.75269 169.471 9.24097C168.954 8.71462 168.268 8.45145 167.412 8.45145Z" fill="#EAF0FF"/>
<path d="M184.39 22.3338C182.929 22.3338 181.66 22.0779 180.582 21.5662C179.505 21.0545 178.612 20.3893 177.904 19.5705C177.21 18.7371 176.694 17.8452 176.354 16.8949C176.015 15.9299 175.845 15.0015 175.845 14.1097V13.6272C175.845 12.6476 176.022 11.6753 176.376 10.7103C176.73 9.74538 177.262 8.86814 177.97 8.07862C178.693 7.27448 179.586 6.63848 180.649 6.17062C181.711 5.68814 182.958 5.44689 184.39 5.44689C185.792 5.44689 187.024 5.68814 188.086 6.17062C189.164 6.63848 190.057 7.27448 190.765 8.07862C191.473 8.86814 192.005 9.74538 192.359 10.7103C192.728 11.6753 192.912 12.6476 192.912 13.6272V14.1097C192.912 15.0015 192.735 15.9299 192.381 16.8949C192.041 17.8452 191.518 18.7371 190.809 19.5705C190.116 20.3893 189.23 21.0545 188.153 21.5662C187.09 22.0779 185.836 22.3338 184.39 22.3338ZM184.39 19.4389C185.482 19.4389 186.426 19.1904 187.223 18.6933C188.02 18.1815 188.632 17.5017 189.06 16.6537C189.503 15.8057 189.725 14.8846 189.725 13.8904C189.725 12.8377 189.503 11.8946 189.06 11.0612C188.632 10.2132 188.02 9.548 187.223 9.06552C186.426 8.58304 185.482 8.34179 184.39 8.34179C183.283 8.34179 182.331 8.58304 181.534 9.06552C180.737 9.548 180.117 10.2132 179.675 11.0612C179.247 11.8946 179.033 12.8377 179.033 13.8904C179.033 14.8846 179.247 15.8057 179.675 16.6537C180.103 17.5017 180.715 18.1815 181.512 18.6933C182.324 19.1904 183.283 19.4389 184.39 19.4389Z" fill="#EAF0FF"/>
<path d="M202.613 22.3338C201.093 22.3338 199.817 22.0487 198.784 21.4785C197.75 20.9083 196.968 20.1115 196.437 19.088C195.906 18.0499 195.64 16.8364 195.64 15.4475V5.90745H198.784V15.6229C198.784 16.7779 199.108 17.7064 199.758 18.4081C200.422 19.0953 201.374 19.4389 202.613 19.4389C203.823 19.4389 204.753 19.0953 205.402 18.4081C206.066 17.721 206.398 16.7926 206.398 15.6229V5.90745H209.542V15.4475C209.542 16.8364 209.276 18.0499 208.745 19.088C208.214 20.1115 207.432 20.9083 206.398 21.4785C205.38 22.0487 204.118 22.3338 202.613 22.3338Z" fill="#EAF0FF"/>
<path d="M213.223 21.9171V5.79779H218.801C220.837 5.79779 222.409 6.28758 223.516 7.26717C224.638 8.23214 225.198 9.548 225.198 11.2148V11.5657C225.198 13.2324 224.638 14.5556 223.516 15.5352C222.409 16.5148 220.837 17.0046 218.801 17.0046H216.366V21.9171H213.223ZM219.067 8.49531H216.366V14.307H219.067C220.011 14.307 220.734 14.0366 221.236 13.4956C221.752 12.9546 222.011 12.2528 222.011 11.3902C222.011 10.5276 221.752 9.8331 221.236 9.30676C220.734 8.76579 220.011 8.49531 219.067 8.49531Z" fill="#EAF0FF"/>
<path d="M68.5615 40.8517C67.7623 40.8517 67.0772 40.7143 66.5063 40.4396C65.9436 40.1568 65.4828 39.7892 65.124 39.3367C64.7733 38.8843 64.5164 38.3954 64.3533 37.8702C64.1902 37.337 64.1086 36.8199 64.1086 36.3189V36.0886C64.1086 35.5473 64.1902 35.01 64.3533 34.4767C64.5246 33.9434 64.7855 33.4586 65.1362 33.0223C65.4951 32.5779 65.9518 32.2265 66.5063 31.9679C67.0609 31.7013 67.7174 31.5679 68.4759 31.5679C69.2425 31.5679 69.9031 31.7013 70.4577 31.9679C71.0204 32.2345 71.469 32.6102 71.8034 33.095C72.1377 33.5798 72.3416 34.1454 72.415 34.7918H71.4731C71.3997 34.2666 71.2243 33.8303 70.947 33.4829C70.6779 33.1274 70.3272 32.8607 69.895 32.683C69.4709 32.5052 68.9979 32.4163 68.4759 32.4163C67.7256 32.4163 67.0935 32.59 66.5797 32.9375C66.0741 33.2768 65.6908 33.7333 65.4298 34.307C65.177 34.8807 65.0506 35.5149 65.0506 36.2098C65.0506 36.7027 65.124 37.1754 65.2708 37.6278C65.4176 38.0803 65.6337 38.4883 65.9192 38.8519C66.2127 39.2075 66.5798 39.4902 67.0201 39.7003C67.4605 39.9023 67.9743 40.0033 68.5615 40.0033C69.3771 40.0033 70.0622 39.8013 70.6167 39.3973C71.1713 38.9853 71.5138 38.3954 71.6443 37.6278H72.5863C72.4966 38.2338 72.2845 38.7833 71.9502 39.2761C71.6158 39.7609 71.1632 40.1447 70.5923 40.4275C70.0295 40.7103 69.3526 40.8517 68.5615 40.8517Z" fill="#EAF0FF"/>
<path d="M74.2616 40.6457V31.7982H75.1791V35.422C75.3503 34.9938 75.6113 34.6585 75.962 34.4161C76.3208 34.1656 76.7694 34.0404 77.3077 34.0404H77.3566C78.1395 34.0404 78.7308 34.2949 79.1304 34.8039C79.5382 35.313 79.7421 36.0199 79.7421 36.9249V40.6457H78.8368V36.731C78.8368 36.1573 78.6778 35.7048 78.3597 35.3736C78.0417 35.0423 77.6135 34.8766 77.0752 34.8766C76.4962 34.8766 76.0354 35.0625 75.6929 35.4342C75.3503 35.7977 75.1791 36.2785 75.1791 36.8764V40.6457H74.2616Z" fill="#EAF0FF"/>
<path d="M82.5651 33.0466C82.3449 33.0466 82.1777 32.99 82.0635 32.8769C81.9575 32.7557 81.9045 32.6062 81.9045 32.4284C81.9045 32.2426 81.9575 32.0931 82.0635 31.98C82.1777 31.8669 82.3449 31.8103 82.5651 31.8103C82.7853 31.8103 82.9484 31.8669 83.0544 31.98C83.1605 32.0931 83.2135 32.2426 83.2135 32.4284C83.2135 32.6062 83.1605 32.7557 83.0544 32.8769C82.9484 32.99 82.7853 33.0466 82.5651 33.0466ZM82.3694 40.6457V34.9615H81.3296V34.2343H83.2746V40.6457H82.3694Z" fill="#EAF0FF"/>
<path d="M85.7437 40.6457V32.5375H84.8017V31.7982H86.6612V40.6457H85.7437Z" fill="#EAF0FF"/>
<path d="M91.6941 40.8517C91.0661 40.8517 90.5116 40.7022 90.0304 40.4033C89.5574 40.0962 89.1863 39.6922 88.9171 39.1913C88.6562 38.6823 88.5257 38.1247 88.5257 37.5188V37.3491C88.5257 36.7673 88.6521 36.226 88.9049 35.725C89.1659 35.216 89.5329 34.8039 90.0059 34.4888C90.4789 34.1737 91.0335 34.0161 91.6696 34.0161C92.2079 34.0161 92.6891 34.1373 93.1132 34.3797C93.5373 34.614 93.8716 34.9534 94.1163 35.3978V31.7982H95.0338V40.6457H94.2998V39.2034C94.0714 39.7528 93.7248 40.1649 93.26 40.4396C92.7951 40.7143 92.2731 40.8517 91.6941 40.8517ZM91.8164 40.0518C92.2568 40.0518 92.6524 39.9548 93.0031 39.7609C93.3619 39.5589 93.6433 39.2842 93.8472 38.9368C94.051 38.5813 94.153 38.1651 94.153 37.6884V37.1067C94.153 36.6542 94.047 36.2583 93.8349 35.9189C93.631 35.5715 93.3497 35.3008 92.9908 35.1069C92.6401 34.913 92.2446 34.816 91.8042 34.816C91.3149 34.816 90.8949 34.9332 90.5442 35.1675C90.1935 35.3938 89.9203 35.7048 89.7245 36.1007C89.537 36.4967 89.4432 36.9411 89.4432 37.4339C89.4432 37.943 89.541 38.3954 89.7368 38.7913C89.9325 39.1872 90.2057 39.4983 90.5564 39.7246C90.9153 39.9427 91.3353 40.0518 91.8164 40.0518Z" fill="#EAF0FF"/>
<path d="M97.4021 40.6457V34.2343H98.1361V36.028C98.3644 34.7837 99.2004 34.1616 100.644 34.1616H100.852V34.9857H100.473C99.7713 34.9857 99.2371 35.1675 98.8701 35.5311C98.5031 35.8947 98.3196 36.4199 98.3196 37.1067V40.6457H97.4021Z" fill="#EAF0FF"/>
<path d="M104.956 40.8517C104.393 40.8517 103.908 40.7588 103.5 40.5729C103.101 40.379 102.77 40.1245 102.509 39.8094C102.248 39.4862 102.053 39.1267 101.922 38.7307C101.8 38.3267 101.739 37.9187 101.739 37.5066V37.337C101.739 36.9249 101.804 36.5209 101.934 36.125C102.065 35.7291 102.256 35.3736 102.509 35.0584C102.77 34.7433 103.096 34.4929 103.488 34.307C103.888 34.1131 104.352 34.0161 104.883 34.0161C105.559 34.0161 106.122 34.1656 106.571 34.4646C107.027 34.7554 107.37 35.1392 107.598 35.616C107.827 36.0846 107.941 36.5815 107.941 37.1067V37.5794H102.619C102.636 38.0399 102.729 38.4601 102.901 38.8398C103.072 39.2115 103.329 39.5064 103.671 39.7246C104.014 39.9427 104.442 40.0518 104.956 40.0518C105.519 40.0518 105.975 39.9266 106.326 39.6761C106.677 39.4256 106.893 39.1226 106.974 38.7671H107.831C107.7 39.4054 107.378 39.9144 106.864 40.2942C106.359 40.6659 105.723 40.8517 104.956 40.8517ZM104.883 34.816C104.222 34.816 103.704 35.01 103.329 35.3978C102.962 35.7856 102.738 36.2785 102.656 36.8764H107.048C106.991 36.2623 106.779 35.7654 106.412 35.3857C106.045 35.0059 105.535 34.816 104.883 34.816Z" fill="#EAF0FF"/>
<path d="M109.707 40.6457V34.2343H110.441V35.725C110.588 35.1918 110.849 34.7797 111.224 34.4888C111.607 34.1899 112.109 34.0404 112.729 34.0404H112.765C113.581 34.0404 114.188 34.2949 114.588 34.8039C114.988 35.3049 115.188 36.0119 115.188 36.9249V40.6457H114.282V36.731C114.282 36.1735 114.127 35.725 113.817 35.3857C113.508 35.0463 113.075 34.8766 112.521 34.8766C111.95 34.8766 111.489 35.0544 111.138 35.4099C110.796 35.7574 110.625 36.2179 110.625 36.7916V40.6457H109.707Z" fill="#EAF0FF"/>
<path d="M124.45 40.8517C123.675 40.8517 123.003 40.7143 122.432 40.4396C121.861 40.1649 121.384 39.8013 121 39.3488C120.625 38.8964 120.344 38.4035 120.156 37.8702C119.977 37.337 119.887 36.8158 119.887 36.3068V36.0886C119.887 35.5473 119.981 35.01 120.169 34.4767C120.364 33.9353 120.654 33.4465 121.037 33.0102C121.42 32.5739 121.897 32.2265 122.468 31.9679C123.039 31.7013 123.7 31.5679 124.45 31.5679C125.209 31.5679 125.869 31.7013 126.432 31.9679C127.003 32.2265 127.48 32.5739 127.863 33.0102C128.247 33.4465 128.532 33.9353 128.72 34.4767C128.915 35.01 129.013 35.5473 129.013 36.0886V36.3189C129.013 36.8279 128.919 37.3491 128.732 37.8824C128.552 38.4075 128.275 38.8964 127.9 39.3488C127.525 39.8013 127.048 40.1649 126.469 40.4396C125.898 40.7143 125.225 40.8517 124.45 40.8517ZM124.45 40.0033C125.021 40.0033 125.531 39.9023 125.979 39.7003C126.428 39.4902 126.807 39.2075 127.117 38.8519C127.427 38.4883 127.663 38.0803 127.827 37.6278C127.99 37.1754 128.071 36.7027 128.071 36.2098C128.071 35.523 127.924 34.8928 127.631 34.3191C127.345 33.7455 126.929 33.2849 126.383 32.9375C125.845 32.59 125.2 32.4163 124.45 32.4163C123.708 32.4163 123.064 32.59 122.517 32.9375C121.979 33.2849 121.563 33.7455 121.27 34.3191C120.976 34.8928 120.829 35.523 120.829 36.2098C120.829 36.7027 120.911 37.1754 121.074 37.6278C121.237 38.0803 121.473 38.4883 121.783 38.8519C122.101 39.2075 122.485 39.4902 122.933 39.7003C123.382 39.9023 123.887 40.0033 124.45 40.0033Z" fill="#EAF0FF"/>
<path d="M131.12 40.6457V34.9857H130.178V34.2828H131.12V33.7374C131.12 33.0587 131.295 32.5618 131.646 32.2466C132.004 31.9235 132.53 31.7619 133.224 31.7619H134.043V32.5375H133.052C132.71 32.5375 132.449 32.6264 132.27 32.8042C132.09 32.9819 132 33.2324 132 33.5556V34.2828H134.178V34.9857H132V40.6457H131.12Z" fill="#EAF0FF"/>
<path d="M140.324 40.6457V32.6345H137.535V31.7982H144.043V32.6345H141.254V40.6457H140.324Z" fill="#EAF0FF"/>
<path d="M145.571 40.6457V31.7982H146.488V35.422C146.659 34.9938 146.92 34.6585 147.271 34.4161C147.63 34.1656 148.078 34.0404 148.617 34.0404H148.666C149.449 34.0404 150.04 34.2949 150.439 34.8039C150.847 35.313 151.051 36.0199 151.051 36.9249V40.6457H150.146V36.731C150.146 36.1573 149.987 35.7048 149.669 35.3736C149.351 35.0423 148.923 34.8766 148.384 34.8766C147.805 34.8766 147.344 35.0625 147.002 35.4342C146.659 35.7977 146.488 36.2785 146.488 36.8764V40.6457H145.571Z" fill="#EAF0FF"/>
<path d="M156.039 40.8517C155.477 40.8517 154.991 40.7588 154.584 40.5729C154.184 40.379 153.854 40.1245 153.593 39.8094C153.332 39.4862 153.136 39.1267 153.006 38.7307C152.883 38.3267 152.822 37.9187 152.822 37.5066V37.337C152.822 36.9249 152.887 36.5209 153.018 36.125C153.148 35.7291 153.34 35.3736 153.593 35.0584C153.854 34.7433 154.18 34.4929 154.571 34.307C154.971 34.1131 155.436 34.0161 155.966 34.0161C156.643 34.0161 157.206 34.1656 157.654 34.4646C158.111 34.7554 158.453 35.1392 158.682 35.616C158.91 36.0846 159.024 36.5815 159.024 37.1067V37.5794H153.703C153.719 38.0399 153.813 38.4601 153.984 38.8398C154.156 39.2115 154.412 39.5064 154.755 39.7246C155.098 39.9427 155.526 40.0518 156.039 40.0518C156.602 40.0518 157.059 39.9266 157.41 39.6761C157.76 39.4256 157.976 39.1226 158.058 38.7671H158.914C158.784 39.4054 158.462 39.9144 157.948 40.2942C157.442 40.6659 156.806 40.8517 156.039 40.8517ZM155.966 34.816C155.305 34.816 154.788 35.01 154.412 35.3978C154.045 35.7856 153.821 36.2785 153.74 36.8764H158.131C158.074 36.2623 157.862 35.7654 157.495 35.3857C157.128 35.0059 156.618 34.816 155.966 34.816Z" fill="#EAF0FF"/>
<path d="M163.854 40.6457V31.7982H165.407L170.301 39.8094H170.447V31.7982H171.341V40.6457H169.775L164.881 32.6345H164.735V40.6457H163.854Z" fill="#EAF0FF"/>
<path d="M175.669 40.8153C174.976 40.8153 174.417 40.6376 173.993 40.2821C173.569 39.9266 173.357 39.4175 173.357 38.755C173.357 38.1086 173.577 37.6117 174.018 37.2642C174.466 36.9168 175.094 36.7431 175.902 36.7431H177.712V36.4401C177.712 35.9634 177.586 35.5998 177.333 35.3493C177.08 35.0908 176.689 34.9615 176.159 34.9615C175.792 34.9615 175.425 34.9696 175.058 34.9857C174.691 35.0019 174.377 35.0221 174.116 35.0463V34.2464C174.377 34.2222 174.658 34.202 174.96 34.1858C175.261 34.1697 175.551 34.1616 175.828 34.1616C176.815 34.1616 177.52 34.3474 177.945 34.7191C178.377 35.0827 178.593 35.6846 178.593 36.5249V40.6457H177.859V39.3367C177.712 39.8296 177.447 40.2013 177.064 40.4518C176.689 40.6941 176.224 40.8153 175.669 40.8153ZM175.84 40.0882C176.142 40.0882 176.432 40.0356 176.709 39.9306C176.986 39.8175 177.219 39.6316 177.406 39.3731C177.594 39.1065 177.696 38.7429 177.712 38.2823V37.4339H175.84C175.327 37.4339 174.931 37.5592 174.654 37.8096C174.385 38.052 174.25 38.3712 174.25 38.7671C174.25 39.1711 174.393 39.4943 174.678 39.7367C174.964 39.971 175.351 40.0882 175.84 40.0882Z" fill="#EAF0FF"/>
<path d="M183.233 40.7184C182.793 40.7184 182.406 40.6537 182.071 40.5245C181.745 40.3952 181.492 40.177 181.313 39.87C181.133 39.563 181.044 39.1428 181.044 38.6095V34.9251H179.882V34.2343H181.044V32.2103H181.925V34.2343H184.261V34.9251H181.925V38.7429C181.925 39.1065 182.026 39.3892 182.23 39.5912C182.434 39.7932 182.724 39.8942 183.099 39.8942H184.261V40.7184H183.233Z" fill="#EAF0FF"/>
<path d="M186.572 33.0466C186.352 33.0466 186.185 32.99 186.07 32.8769C185.964 32.7557 185.911 32.6062 185.911 32.4284C185.911 32.2426 185.964 32.0931 186.07 31.98C186.185 31.8669 186.352 31.8103 186.572 31.8103C186.792 31.8103 186.955 31.8669 187.061 31.98C187.167 32.0931 187.22 32.2426 187.22 32.4284C187.22 32.6062 187.167 32.7557 187.061 32.8769C186.955 32.99 186.792 33.0466 186.572 33.0466ZM186.376 40.6457V34.9615H185.336V34.2343H187.281V40.6457H186.376Z" fill="#EAF0FF"/>
<path d="M192.589 40.8517C192.034 40.8517 191.545 40.7588 191.121 40.5729C190.697 40.379 190.342 40.1245 190.056 39.8094C189.771 39.4862 189.551 39.1267 189.396 38.7307C189.249 38.3348 189.175 37.9308 189.175 37.5188V37.3491C189.175 36.937 189.253 36.533 189.408 36.1371C189.563 35.7412 189.787 35.3857 190.081 35.0706C190.374 34.7474 190.729 34.4929 191.145 34.307C191.569 34.1131 192.05 34.0161 192.589 34.0161C193.127 34.0161 193.608 34.1131 194.032 34.307C194.456 34.4929 194.815 34.7474 195.109 35.0706C195.402 35.3857 195.622 35.7412 195.769 36.1371C195.924 36.533 196.002 36.937 196.002 37.3491V37.5188C196.002 37.9308 195.928 38.3348 195.781 38.7307C195.635 39.1267 195.414 39.4862 195.121 39.8094C194.835 40.1245 194.481 40.379 194.057 40.5729C193.632 40.7588 193.143 40.8517 192.589 40.8517ZM192.589 40.0397C193.127 40.0397 193.579 39.9225 193.946 39.6882C194.322 39.4539 194.607 39.1388 194.803 38.7429C194.999 38.3469 195.096 37.9106 195.096 37.4339C195.096 36.9491 194.994 36.5128 194.791 36.125C194.587 35.7291 194.297 35.418 193.922 35.1918C193.555 34.9574 193.111 34.8403 192.589 34.8403C192.075 34.8403 191.63 34.9574 191.255 35.1918C190.88 35.418 190.59 35.7291 190.387 36.125C190.191 36.5128 190.093 36.9491 190.093 37.4339C190.093 37.9106 190.191 38.3469 190.387 38.7429C190.582 39.1388 190.864 39.4539 191.231 39.6882C191.606 39.9225 192.058 40.0397 192.589 40.0397Z" fill="#EAF0FF"/>
<path d="M197.873 40.6457V34.2343H198.607V35.725C198.754 35.1918 199.014 34.7797 199.39 34.4888C199.773 34.1899 200.275 34.0404 200.894 34.0404H200.931C201.747 34.0404 202.354 34.2949 202.754 34.8039C203.153 35.3049 203.353 36.0119 203.353 36.9249V40.6457H202.448V36.731C202.448 36.1735 202.293 35.725 201.983 35.3857C201.673 35.0463 201.241 34.8766 200.686 34.8766C200.115 34.8766 199.655 35.0544 199.304 35.4099C198.961 35.7574 198.79 36.2179 198.79 36.7916V40.6457H197.873Z" fill="#EAF0FF"/>
</svg>
