<svg width="213" height="47" viewBox="0 0 213 47" fill="none" xmlns="http://www.w3.org/2000/svg">
<path fill-rule="evenodd" clip-rule="evenodd" d="M24.1356 0C11.1623 0 0.633301 10.3709 0.633301 23.1493C0.633301 35.9277 11.1623 46.2986 24.1356 46.2986C37.1089 46.2986 47.638 35.9277 47.638 23.1493C47.638 10.3709 37.1089 0 24.1356 0ZM34.8057 32.0618L33.184 33.6591C32.2675 34.5619 30.7868 34.5619 29.8702 33.6591L22.702 26.5985C19.8347 27.594 16.4974 26.9921 14.1941 24.7234C11.5854 22.1539 11.1388 18.2648 12.8075 15.2322L18.3306 20.6723L21.6444 17.4083L16.0978 11.9682C19.2001 10.3246 23.125 10.7644 25.7338 13.334C28.037 15.6026 28.6481 18.8898 27.6375 21.714L34.8057 28.7746C35.7223 29.6774 35.7223 31.159 34.8057 32.0618Z" fill="#EAF0FF"/>
<path d="M60.752 21.8021V4.2985H64.0708V18.8049H70.9657V21.8021H60.752Z" fill="#EAF0FF"/>
<path d="M72.1705 21.8021L77.9902 4.2985H83.4126L89.3959 21.8021H85.9836L84.4176 17.1505H76.9852L75.4893 21.8021H72.1705ZM77.9201 14.2732H83.4593L81.0987 7.15183H80.2339L77.9201 14.2732Z" fill="#EAF0FF"/>
<path d="M91.9304 21.922V4.17861H98.0539C99.9861 4.17861 101.451 4.59422 102.448 5.42544C103.461 6.25667 103.967 7.44755 103.967 8.9981V9.33379C103.967 10.181 103.811 10.8843 103.5 11.4438C103.204 12.0033 102.791 12.4589 102.261 12.8105C103.009 13.1302 103.593 13.6018 104.014 14.2252C104.45 14.8486 104.668 15.6639 104.668 16.6709V17.0066C104.668 18.5732 104.162 19.788 103.149 20.6512C102.152 21.4984 100.687 21.922 98.7551 21.922H91.9304ZM98.3578 6.91205H95.1791V11.6596H98.3578C99.1524 11.6596 99.7367 11.4438 100.111 11.0122C100.485 10.5806 100.672 10.0052 100.672 9.28583C100.672 8.56651 100.485 7.99104 100.111 7.55945C99.7367 7.12785 99.1524 6.91205 98.3578 6.91205ZM98.9888 14.2971H95.1791V19.1886H98.9888C99.7679 19.1886 100.36 18.9728 100.765 18.5412C101.17 18.1096 101.373 17.5022 101.373 16.7189C101.373 15.9516 101.17 15.3602 100.765 14.9445C100.36 14.5129 99.7679 14.2971 98.9888 14.2971Z" fill="#EAF0FF"/>
<path d="M106.065 21.8021L111.885 4.2985H117.307L123.29 21.8021H119.878L118.312 17.1505H110.88L109.384 21.8021H106.065ZM111.815 14.2732H117.354L114.993 7.15183H114.128L111.815 14.2732Z" fill="#EAF0FF"/>
<path d="M125.825 21.898V4.17861H131.995C133.538 4.17861 134.878 4.41838 136.015 4.89794C137.168 5.3615 138.127 6.00091 138.89 6.81614C139.669 7.6154 140.246 8.52654 140.62 9.54959C141.009 10.5726 141.204 11.6356 141.204 12.7386V13.2661C141.204 14.3211 141.009 15.3602 140.62 16.3832C140.246 17.4062 139.669 18.3334 138.89 19.1646C138.127 19.9958 137.168 20.6592 136.015 21.1547C134.878 21.6503 133.538 21.898 131.995 21.898H125.825ZM132.206 7.34365H129.144V18.733H132.206C133.374 18.733 134.379 18.4932 135.221 18.0137C136.062 17.5181 136.709 16.8388 137.161 15.9756C137.612 15.1124 137.838 14.1213 137.838 13.0024C137.838 11.26 137.34 9.88527 136.342 8.87822C135.345 7.85517 133.966 7.34365 132.206 7.34365Z" fill="#EAF0FF"/>
<path d="M144.223 21.8021V4.2985H147.542V21.8021H144.223Z" fill="#EAF0FF"/>
<path d="M151.799 21.8021V4.2985H162.13V7.17581H155.048V11.4678H161.709V14.3451H155.048V18.9248H162.317V21.8021H151.799Z" fill="#EAF0FF"/>
<path d="M170.767 21.8021V4.2985H174.085V18.8049H180.98V21.8021H170.767Z" fill="#EAF0FF"/>
<path d="M183.685 21.8021V4.2985H187.004V18.8049H193.899V21.8021H183.685Z" fill="#EAF0FF"/>
<path d="M203.974 22.2577C202.416 22.2577 201.084 21.978 199.977 21.4185C198.887 20.859 197.991 20.1317 197.29 19.2365C196.604 18.3414 196.097 17.3743 195.77 16.3352C195.443 15.2802 195.279 14.2572 195.279 13.2661V12.7386C195.279 11.6676 195.443 10.6046 195.77 9.54959C196.113 8.47859 196.635 7.51149 197.336 6.6483C198.037 5.78511 198.926 5.09775 200.001 4.58623C201.076 4.05872 202.361 3.79497 203.857 3.79497C205.384 3.79497 206.724 4.0827 207.877 4.65816C209.03 5.23362 209.95 6.03288 210.635 7.05592C211.321 8.07896 211.734 9.27784 211.874 10.6526H208.532C208.345 9.45368 207.823 8.54253 206.966 7.91911C206.124 7.27971 205.088 6.96001 203.857 6.96001C202.72 6.96001 201.761 7.22376 200.982 7.75127C200.219 8.26279 199.635 8.97413 199.229 9.88527C198.84 10.7964 198.645 11.8434 198.645 13.0263C198.645 14.1773 198.848 15.2083 199.253 16.1194C199.658 17.0306 200.258 17.7579 201.052 18.3014C201.847 18.8289 202.821 19.0927 203.974 19.0927C205.252 19.0927 206.327 18.773 207.199 18.1336C208.088 17.4782 208.625 16.567 208.812 15.4001H212.154C211.999 16.6629 211.578 17.8139 210.892 18.8529C210.222 19.8919 209.303 20.7231 208.134 21.3466C206.981 21.954 205.594 22.2577 203.974 22.2577Z" fill="#EAF0FF"/>
<path d="M61.955 42.2784V33.5196H59.0101V32.6053H65.8816V33.5196H62.9366V42.2784H61.955Z" fill="#EAF0FF"/>
<path d="M67.6846 33.9701C67.4521 33.9701 67.2756 33.9083 67.155 33.7846C67.0431 33.6521 66.9871 33.4887 66.9871 33.2943C66.9871 33.0912 67.0431 32.9277 67.155 32.8041C67.2756 32.6804 67.4521 32.6186 67.6846 32.6186C67.9171 32.6186 68.0893 32.6804 68.2012 32.8041C68.3132 32.9277 68.3692 33.0912 68.3692 33.2943C68.3692 33.4887 68.3132 33.6521 68.2012 33.7846C68.0893 33.9083 67.9171 33.9701 67.6846 33.9701ZM67.4779 42.2784V36.0638H66.3801V35.2687H68.4338V42.2784H67.4779Z" fill="#EAF0FF"/>
<path d="M70.976 42.2784V35.2555H71.751V36.8721C71.8974 36.3067 72.1557 35.865 72.526 35.547C72.8963 35.2201 73.3871 35.0567 73.9985 35.0567H74.0372C74.64 35.0567 75.1265 35.2157 75.4968 35.5337C75.867 35.8517 76.1254 36.2979 76.2717 36.8721C76.4267 36.3067 76.6894 35.865 77.0596 35.547C77.4385 35.2201 77.9293 35.0567 78.5321 35.0567H78.5708C79.3803 35.0567 79.983 35.3394 80.3791 35.9047C80.7838 36.4701 80.9862 37.2387 80.9862 38.2104V42.2784H80.0175V37.9851C80.0175 37.3667 79.8711 36.8765 79.5783 36.5143C79.2855 36.1521 78.8636 35.971 78.3125 35.971C77.7442 35.971 77.2921 36.1609 76.9563 36.5408C76.6291 36.9206 76.4655 37.4242 76.4655 38.0514V42.2784H75.4968V37.9851C75.4968 37.3667 75.3504 36.8765 75.0576 36.5143C74.7648 36.1521 74.3429 35.971 73.7918 35.971C73.2235 35.971 72.7714 36.1609 72.4356 36.5408C72.1084 36.9206 71.9448 37.4242 71.9448 38.0514V42.2784H70.976Z" fill="#EAF0FF"/>
<path d="M86.2549 42.5036C85.6608 42.5036 85.1484 42.402 84.7179 42.1989C84.296 41.9868 83.9472 41.7086 83.6717 41.3641C83.3961 41.0107 83.1895 40.6176 83.0517 40.1847C82.9225 39.743 82.8579 39.2969 82.8579 38.8464V38.6609C82.8579 38.2104 82.9268 37.7687 83.0646 37.3358C83.2024 36.903 83.4047 36.5143 83.6717 36.1698C83.9472 35.8252 84.2917 35.5514 84.705 35.3482C85.1269 35.1362 85.6177 35.0302 86.1775 35.0302C86.8922 35.0302 87.4863 35.1936 87.9599 35.5205C88.4421 35.8385 88.8038 36.2581 89.0449 36.7793C89.286 37.2917 89.4065 37.8349 89.4065 38.4091V38.9259H83.7879C83.8052 39.4295 83.9042 39.8888 84.085 40.304C84.2658 40.7104 84.5371 41.0328 84.8987 41.2713C85.2604 41.5098 85.7125 41.6291 86.2549 41.6291C86.8491 41.6291 87.3313 41.4922 87.7016 41.2183C88.0718 40.9445 88.3 40.6132 88.3861 40.2245H89.2903C89.1525 40.9224 88.8124 41.4789 88.2699 41.8941C87.736 42.3004 87.0644 42.5036 86.2549 42.5036ZM86.1775 35.9047C85.48 35.9047 84.9332 36.1168 84.5371 36.5408C84.1496 36.9648 83.9128 37.5037 83.8267 38.1574H88.4636C88.4034 37.486 88.1795 36.9427 87.792 36.5275C87.4045 36.1123 86.8663 35.9047 86.1775 35.9047Z" fill="#EAF0FF"/>
<path d="M94.5314 42.2784V32.6053H95.513V42.2784H94.5314Z" fill="#EAF0FF"/>
<path d="M100.416 42.4771C99.538 42.4771 98.862 42.2828 98.3884 41.8941C97.9148 41.4966 97.6737 40.9665 97.6651 40.304H98.5693C98.5779 40.6485 98.7199 40.9577 98.9955 41.2316C99.2796 41.4966 99.7533 41.6291 100.416 41.6291C101.028 41.6291 101.484 41.501 101.785 41.2448C102.095 40.9798 102.25 40.6618 102.25 40.2907C102.25 39.6282 101.755 39.2395 100.765 39.1247L99.9901 39.0452C99.3615 38.9745 98.8577 38.7802 98.4788 38.4621C98.1 38.1441 97.9105 37.698 97.9105 37.1238C97.9105 36.5054 98.1387 36.0063 98.5951 35.6265C99.0515 35.2466 99.6585 35.0567 100.416 35.0567C101.148 35.0567 101.742 35.2334 102.199 35.5867C102.664 35.9401 102.901 36.4436 102.909 37.0973H102.005C101.996 36.7616 101.859 36.4789 101.592 36.2493C101.325 36.0196 100.933 35.9047 100.416 35.9047C99.8824 35.9047 99.482 36.0284 99.2151 36.2758C98.9567 36.5143 98.8276 36.8014 98.8276 37.1371C98.8276 37.4286 98.9266 37.6715 99.1246 37.8659C99.3227 38.0514 99.6327 38.1662 100.055 38.2104L100.83 38.2899C101.518 38.3694 102.078 38.5726 102.509 38.8994C102.948 39.2263 103.167 39.6945 103.167 40.304C103.167 40.7192 103.051 41.0946 102.819 41.4303C102.595 41.7572 102.276 42.0133 101.863 42.1989C101.45 42.3844 100.967 42.4771 100.416 42.4771Z" fill="#EAF0FF"/>
<path d="M112.45 42.5036C111.675 42.5036 110.987 42.3711 110.384 42.1061C109.79 41.8411 109.286 41.4789 108.873 41.0195C108.468 40.5513 108.162 40.0169 107.955 39.4162C107.749 38.8155 107.645 38.175 107.645 37.4948V37.2563C107.645 36.638 107.745 36.0373 107.943 35.4542C108.149 34.8712 108.446 34.3456 108.834 33.8774C109.23 33.4092 109.712 33.0382 110.28 32.7643C110.849 32.4905 111.503 32.3535 112.244 32.3535C113.01 32.3535 113.69 32.5037 114.284 32.8041C114.879 33.0956 115.357 33.5064 115.718 34.0364C116.08 34.5664 116.295 35.1804 116.364 35.8782H115.369C115.301 35.3129 115.115 34.8358 114.814 34.4472C114.521 34.0585 114.151 33.767 113.703 33.5726C113.255 33.3783 112.769 33.2811 112.244 33.2811C111.503 33.2811 110.862 33.4578 110.319 33.8111C109.785 34.1645 109.372 34.6503 109.079 35.2687C108.786 35.8871 108.64 36.5938 108.64 37.3888C108.64 38.228 108.791 38.9657 109.092 39.6017C109.393 40.2289 109.828 40.7192 110.397 41.0725C110.965 41.4259 111.65 41.6026 112.45 41.6026C113.053 41.6026 113.6 41.501 114.091 41.2978C114.59 41.0946 115.004 40.8208 115.331 40.4763V38.5814H112.102V37.7334H117.1V38.5814H116.261V40.781C115.856 41.3199 115.331 41.7439 114.685 42.0531C114.039 42.3535 113.294 42.5036 112.45 42.5036Z" fill="#EAF0FF"/>
<path d="M121.906 42.5036C121.32 42.5036 120.804 42.402 120.356 42.1989C119.908 41.9868 119.534 41.7086 119.232 41.3641C118.931 41.0107 118.698 40.6176 118.535 40.1847C118.38 39.7519 118.302 39.3102 118.302 38.8597V38.6742C118.302 38.2236 118.384 37.7819 118.548 37.3491C118.711 36.9162 118.948 36.5275 119.258 36.183C119.568 35.8297 119.943 35.5514 120.382 35.3482C120.829 35.1362 121.338 35.0302 121.906 35.0302C122.474 35.0302 122.982 35.1362 123.43 35.3482C123.878 35.5514 124.257 35.8297 124.567 36.183C124.877 36.5275 125.109 36.9162 125.264 37.3491C125.428 37.7819 125.509 38.2236 125.509 38.6742V38.8597C125.509 39.3102 125.432 39.7519 125.277 40.1847C125.122 40.6176 124.89 41.0107 124.58 41.3641C124.278 41.7086 123.904 41.9868 123.456 42.1989C123.008 42.402 122.491 42.5036 121.906 42.5036ZM121.906 41.6158C122.474 41.6158 122.952 41.4877 123.34 41.2316C123.736 40.9754 124.037 40.6309 124.244 40.198C124.45 39.7651 124.554 39.2881 124.554 38.7669C124.554 38.2369 124.446 37.7599 124.231 37.3358C124.015 36.903 123.71 36.5629 123.314 36.3155C122.926 36.0593 122.457 35.9312 121.906 35.9312C121.363 35.9312 120.894 36.0593 120.498 36.3155C120.102 36.5629 119.796 36.903 119.581 37.3358C119.374 37.7599 119.271 38.2369 119.271 38.7669C119.271 39.2881 119.374 39.7651 119.581 40.198C119.788 40.6309 120.085 40.9754 120.472 41.2316C120.868 41.4877 121.346 41.6158 121.906 41.6158Z" fill="#EAF0FF"/>
<path d="M127.55 42.2784V33.4136H126.555V32.6053H128.518V42.2784H127.55Z" fill="#EAF0FF"/>
<path d="M133.832 42.5036C133.169 42.5036 132.584 42.3402 132.076 42.0133C131.576 41.6777 131.184 41.236 130.9 40.6883C130.625 40.1317 130.487 39.5222 130.487 38.8597V38.6742C130.487 38.0381 130.62 37.4462 130.887 36.8985C131.163 36.342 131.55 35.8915 132.05 35.547C132.549 35.2025 133.135 35.0302 133.806 35.0302C134.375 35.0302 134.883 35.1627 135.331 35.4277C135.778 35.6839 136.131 36.0549 136.39 36.5408V32.6053H137.358V42.2784H136.583V40.7015C136.342 41.3022 135.976 41.7528 135.486 42.0531C134.995 42.3535 134.444 42.5036 133.832 42.5036ZM133.961 41.6291C134.426 41.6291 134.844 41.5231 135.214 41.3111C135.593 41.0902 135.89 40.7899 136.106 40.41C136.321 40.0213 136.428 39.5664 136.428 39.0452V38.4091C136.428 37.9144 136.316 37.4816 136.093 37.1106C135.877 36.7307 135.58 36.4348 135.201 36.2228C134.831 36.0107 134.413 35.9047 133.948 35.9047C133.432 35.9047 132.988 36.0328 132.618 36.289C132.248 36.5364 131.959 36.8765 131.753 37.3093C131.555 37.7422 131.456 38.228 131.456 38.7669C131.456 39.3234 131.559 39.8181 131.766 40.251C131.972 40.6839 132.261 41.024 132.631 41.2713C133.01 41.5098 133.453 41.6291 133.961 41.6291Z" fill="#EAF0FF"/>
<path d="M142.713 42.5036C142.119 42.5036 141.607 42.402 141.176 42.1989C140.754 41.9868 140.406 41.7086 140.13 41.3641C139.855 41.0107 139.648 40.6176 139.51 40.1847C139.381 39.743 139.316 39.2969 139.316 38.8464V38.6609C139.316 38.2104 139.385 37.7687 139.523 37.3358C139.661 36.903 139.863 36.5143 140.13 36.1698C140.406 35.8252 140.75 35.5514 141.163 35.3482C141.585 35.1362 142.076 35.0302 142.636 35.0302C143.351 35.0302 143.945 35.1936 144.418 35.5205C144.901 35.8385 145.262 36.2581 145.503 36.7793C145.744 37.2917 145.865 37.8349 145.865 38.4091V38.9259H140.246C140.264 39.4295 140.363 39.8888 140.543 40.304C140.724 40.7104 140.996 41.0328 141.357 41.2713C141.719 41.5098 142.171 41.6291 142.713 41.6291C143.308 41.6291 143.79 41.4922 144.16 41.2183C144.53 40.9445 144.758 40.6132 144.845 40.2245H145.749C145.611 40.9224 145.271 41.4789 144.728 41.8941C144.194 42.3004 143.523 42.5036 142.713 42.5036ZM142.636 35.9047C141.938 35.9047 141.392 36.1168 140.996 36.5408C140.608 36.9648 140.371 37.5037 140.285 38.1574H144.922C144.862 37.486 144.638 36.9427 144.25 36.5275C143.863 36.1123 143.325 35.9047 142.636 35.9047Z" fill="#EAF0FF"/>
<path d="M147.73 42.2784V35.2687H148.505V36.8985C148.66 36.3155 148.935 35.865 149.331 35.547C149.736 35.2201 150.266 35.0567 150.92 35.0567H150.959C151.82 35.0567 152.461 35.335 152.883 35.8915C153.305 36.4392 153.516 37.2122 153.516 38.2104V42.2784H152.561V37.9984C152.561 37.3888 152.397 36.8986 152.07 36.5275C151.742 36.1565 151.286 35.971 150.701 35.971C150.098 35.971 149.611 36.1653 149.241 36.554C148.879 36.9339 148.699 37.4374 148.699 38.0646V42.2784H147.73Z" fill="#EAF0FF"/>
</svg>
