<svg width="254" height="47" viewBox="0 0 254 47" fill="none" xmlns="http://www.w3.org/2000/svg">
<path d="M2.85034 25.7214H17.1501C18.4609 25.7214 19.5334 24.564 19.5334 23.1493V2.57214C19.5334 1.15746 18.4609 0 17.1501 0H2.85034C1.53952 0 0.467041 1.15746 0.467041 2.57214V23.1493C0.467041 24.564 1.53952 25.7214 2.85034 25.7214ZM2.85034 46.2986H17.1501C18.4609 46.2986 19.5334 45.1411 19.5334 43.7265V33.4379C19.5334 32.0232 18.4609 30.8657 17.1501 30.8657H2.85034C1.53952 30.8657 0.467041 32.0232 0.467041 33.4379V43.7265C0.467041 45.1411 1.53952 46.2986 2.85034 46.2986ZM26.6833 46.2986H40.983C42.2939 46.2986 43.3663 45.1411 43.3663 43.7265V23.1493C43.3663 21.7346 42.2939 20.5772 40.983 20.5772H26.6833C25.3725 20.5772 24.3 21.7346 24.3 23.1493V43.7265C24.3 45.1411 25.3725 46.2986 26.6833 46.2986ZM24.3 2.57214V12.8607C24.3 14.2754 25.3725 15.4329 26.6833 15.4329H40.983C42.2939 15.4329 43.3663 14.2754 43.3663 12.8607V2.57214C43.3663 1.15746 42.2939 0 40.983 0H26.6833C25.3725 0 24.3 1.15746 24.3 2.57214Z" fill="#EAF0FF"/>
<path d="M58.4825 22.3315C57.1647 22.3315 56.0508 22.1042 55.1406 21.6497C54.2304 21.1952 53.5376 20.5721 53.0621 19.7804C52.6003 18.9887 52.3693 18.0797 52.3693 17.0535H55.2017C55.2017 17.4933 55.3104 17.9111 55.5278 18.307C55.7451 18.7028 56.0916 19.0254 56.567 19.2746C57.0561 19.5239 57.6946 19.6485 58.4825 19.6485C59.5421 19.6485 60.3368 19.4139 60.8666 18.9448C61.3964 18.4756 61.6613 17.9038 61.6613 17.2294C61.6613 16.6723 61.4372 16.2178 60.9889 15.8659C60.5406 15.514 59.8477 15.2941 58.9104 15.2061L57.6063 15.0962C56.1799 14.9642 55.0387 14.4877 54.1829 13.6667C53.3406 12.831 52.9195 11.7314 52.9195 10.3679C52.9195 9.35631 53.1369 8.47664 53.5716 7.72892C54.0199 6.98119 54.6516 6.40941 55.4667 6.01355C56.2817 5.60304 57.2327 5.39778 58.3195 5.39778C59.4334 5.39778 60.3979 5.61037 61.213 6.03554C62.0417 6.46072 62.6802 7.06183 63.1285 7.83888C63.5768 8.60126 63.8009 9.50293 63.8009 10.5439H60.9685C60.9685 9.89878 60.7443 9.32699 60.296 8.82851C59.8613 8.33003 59.2025 8.08079 58.3195 8.08079C57.45 8.08079 56.8048 8.30803 56.3836 8.76253C55.9625 9.21703 55.7519 9.75217 55.7519 10.3679C55.7519 10.8664 55.9149 11.3063 56.241 11.6874C56.5806 12.054 57.124 12.2666 57.8712 12.3252L59.1753 12.4572C60.2349 12.5598 61.1587 12.809 61.9466 13.2049C62.7481 13.5861 63.373 14.1139 63.8213 14.7883C64.2696 15.4627 64.4937 16.2764 64.4937 17.2294C64.4937 18.241 64.2424 19.1353 63.7398 19.9124C63.2507 20.6748 62.5579 21.2686 61.6613 21.6937C60.7647 22.1189 59.7051 22.3315 58.4825 22.3315Z" fill="#EAF0FF"/>
<path d="M73.8434 22.3315C72.4849 22.3315 71.3234 22.0749 70.3589 21.5618C69.4079 21.0486 68.6268 20.3815 68.0155 19.5605C67.4177 18.7395 66.9762 17.8525 66.691 16.8995C66.4057 15.9319 66.263 14.9936 66.263 14.0846V13.6007C66.263 12.6184 66.4057 11.6435 66.691 10.6758C66.9898 9.69352 67.4449 8.80652 68.0562 8.01481C68.6675 7.2231 69.4419 6.59267 70.3792 6.12351C71.3166 5.63969 72.4373 5.39778 73.7415 5.39778C75.0728 5.39778 76.2411 5.66168 77.2463 6.18949C78.2516 6.71729 79.0531 7.45035 79.6508 8.38867C80.2486 9.32699 80.6086 10.4266 80.7308 11.6874H77.8169C77.6539 10.5879 77.1988 9.75216 76.4516 9.18038C75.718 8.59393 74.8147 8.3007 73.7415 8.3007C72.7498 8.3007 71.9143 8.54261 71.2351 9.02643C70.5694 9.49559 70.06 10.148 69.7068 10.9837C69.3672 11.8194 69.1974 12.7797 69.1974 13.8646C69.1974 14.9202 69.374 15.8659 69.7272 16.7016C70.0804 17.5373 70.6034 18.2044 71.2962 18.7028C71.989 19.1867 72.8381 19.4286 73.8434 19.4286C74.9573 19.4286 75.8947 19.1353 76.6554 18.5489C77.4297 17.9478 77.8984 17.1121 78.0614 16.0418H80.9754C80.8395 17.2001 80.4727 18.2557 79.875 19.2087C79.2908 20.1616 78.4893 20.924 77.4705 21.4958C76.4652 22.0529 75.2562 22.3315 73.8434 22.3315Z" fill="#EAF0FF"/>
<path d="M83.4171 21.9136V5.85961H86.3107V12.5011H93.1778V5.85961H96.0713V21.9136H93.1778V15.2501H86.3107V21.9136H83.4171Z" fill="#EAF0FF"/>
<path d="M105.868 22.3315C104.469 22.3315 103.294 22.0456 102.343 21.4738C101.392 20.902 100.672 20.103 100.183 19.0767C99.694 18.0358 99.4495 16.8189 99.4495 15.4261V5.85961H102.343V15.602C102.343 16.7602 102.642 17.6912 103.24 18.395C103.851 19.084 104.727 19.4286 105.868 19.4286C106.982 19.4286 107.838 19.084 108.436 18.395C109.047 17.7059 109.353 16.7749 109.353 15.602V5.85961H112.246V15.4261C112.246 16.8189 112.002 18.0358 111.513 19.0767C111.024 20.103 110.304 20.902 109.353 21.4738C108.415 22.0456 107.254 22.3315 105.868 22.3315Z" fill="#EAF0FF"/>
<path d="M115.635 21.9136V5.85961H119.588L123.317 15.4481H123.684L127.392 5.85961H131.406V21.9136H128.533V9.20237L124.886 18.6369H121.931L118.284 9.26834V21.9136H115.635Z" fill="#EAF0FF"/>
<path d="M135.076 21.9136V5.85961H139.03L142.759 15.4481H143.125L146.834 5.85961H150.848V21.9136H147.975V9.20237L144.328 18.6369H141.373L137.725 9.26834V21.9136H135.076Z" fill="#EAF0FF"/>
<path d="M163.99 22.3315C162.672 22.3315 161.558 22.1042 160.648 21.6497C159.738 21.1952 159.045 20.5721 158.57 19.7804C158.108 18.9887 157.877 18.0797 157.877 17.0535H160.709C160.709 17.4933 160.818 17.9111 161.035 18.307C161.253 18.7028 161.599 19.0254 162.075 19.2746C162.564 19.5239 163.202 19.6485 163.99 19.6485C165.05 19.6485 165.844 19.4139 166.374 18.9448C166.904 18.4756 167.169 17.9038 167.169 17.2294C167.169 16.6723 166.945 16.2178 166.496 15.8659C166.048 15.514 165.355 15.2941 164.418 15.2061L163.114 15.0962C161.687 14.9642 160.546 14.4877 159.69 13.6667C158.848 12.831 158.427 11.7314 158.427 10.3679C158.427 9.35631 158.644 8.47664 159.079 7.72892C159.527 6.98119 160.159 6.40941 160.974 6.01355C161.789 5.60304 162.74 5.39778 163.827 5.39778C164.941 5.39778 165.905 5.61037 166.721 6.03554C167.549 6.46072 168.188 7.06183 168.636 7.83888C169.084 8.60126 169.308 9.50293 169.308 10.5439H166.476C166.476 9.89878 166.252 9.32699 165.804 8.82851C165.369 8.33003 164.71 8.08079 163.827 8.08079C162.958 8.08079 162.312 8.30803 161.891 8.76253C161.47 9.21703 161.259 9.75217 161.259 10.3679C161.259 10.8664 161.423 11.3063 161.749 11.6874C162.088 12.054 162.632 12.2666 163.379 12.3252L164.683 12.4572C165.742 12.5598 166.666 12.809 167.454 13.2049C168.256 13.5861 168.881 14.1139 169.329 14.7883C169.777 15.4627 170.001 16.2764 170.001 17.2294C170.001 18.241 169.75 19.1353 169.247 19.9124C168.758 20.6748 168.065 21.2686 167.169 21.6937C166.272 22.1189 165.213 22.3315 163.99 22.3315Z" fill="#EAF0FF"/>
<path d="M179.351 22.3315C177.992 22.3315 176.831 22.0749 175.866 21.5618C174.915 21.0486 174.134 20.3815 173.523 19.5605C172.925 18.7395 172.484 17.8525 172.199 16.8995C171.913 15.9319 171.771 14.9936 171.771 14.0846V13.6007C171.771 12.6184 171.913 11.6435 172.199 10.6758C172.497 9.69352 172.952 8.80652 173.564 8.01481C174.175 7.2231 174.949 6.59267 175.887 6.12351C176.824 5.63969 177.945 5.39778 179.249 5.39778C180.58 5.39778 181.749 5.66168 182.754 6.18949C183.759 6.71729 184.561 7.45035 185.158 8.38867C185.756 9.32699 186.116 10.4266 186.238 11.6874H183.324C183.161 10.5879 182.706 9.75216 181.959 9.18038C181.226 8.59393 180.322 8.3007 179.249 8.3007C178.257 8.3007 177.422 8.54261 176.743 9.02643C176.077 9.49559 175.568 10.148 175.214 10.9837C174.875 11.8194 174.705 12.7797 174.705 13.8646C174.705 14.9202 174.882 15.8659 175.235 16.7016C175.588 17.5373 176.111 18.2044 176.804 18.7028C177.497 19.1867 178.346 19.4286 179.351 19.4286C180.465 19.4286 181.402 19.1353 182.163 18.5489C182.937 17.9478 183.406 17.1121 183.569 16.0418H186.483C186.347 17.2001 185.98 18.2557 185.383 19.2087C184.798 20.1616 183.997 20.924 182.978 21.4958C181.973 22.0529 180.764 22.3315 179.351 22.3315Z" fill="#EAF0FF"/>
<path d="M188.925 21.9136V5.85961H191.818V12.5011H198.685V5.85961H201.579V21.9136H198.685V15.2501H191.818V21.9136H188.925Z" fill="#EAF0FF"/>
<path d="M211.376 22.3315C209.977 22.3315 208.802 22.0456 207.851 21.4738C206.9 20.902 206.18 20.103 205.691 19.0767C205.202 18.0358 204.957 16.8189 204.957 15.4261V5.85961H207.851V15.602C207.851 16.7602 208.149 17.6912 208.747 18.395C209.359 19.084 210.235 19.4286 211.376 19.4286C212.49 19.4286 213.346 19.084 213.943 18.395C214.555 17.7059 214.86 16.7749 214.86 15.602V5.85961H217.754V15.4261C217.754 16.8189 217.509 18.0358 217.02 19.0767C216.531 20.103 215.811 20.902 214.86 21.4738C213.923 22.0456 212.761 22.3315 211.376 22.3315Z" fill="#EAF0FF"/>
<path d="M221.142 21.9136V5.85961H224.036V19.1647H230.047V21.9136H221.142Z" fill="#EAF0FF"/>
<path d="M233.767 21.9136V8.60859H229.468V5.85961H240.961V8.60859H236.661V21.9136H233.767Z" fill="#EAF0FF"/>
<path d="M242.234 21.9136V19.2306L250.304 8.69656L250.12 8.43266H242.479V5.85961H253.646V8.54261L245.576 19.0547L245.76 19.3406H253.748V21.9136H242.234Z" fill="#EAF0FF"/>
<path d="M54.2209 40.6941L51.9462 31.8221H52.8246L54.8178 39.8555H55.2119L56.8335 32.211H57.9709L59.7839 39.8555H60.1555L61.9685 31.8221H62.8244L60.7411 40.6941H59.1645L57.4078 33.317L55.7975 40.6941H54.2209Z" fill="#EAF0FF"/>
<path d="M66.7178 40.9007C66.2073 40.9007 65.7569 40.8075 65.3665 40.6212C64.9761 40.4267 64.6495 40.1715 64.3868 39.8555C64.124 39.5314 63.9213 39.1709 63.7787 38.7739C63.6435 38.3769 63.576 37.9717 63.576 37.5585V37.3884C63.576 36.9752 63.6473 36.5701 63.7899 36.173C63.9326 35.776 64.139 35.4195 64.4093 35.1035C64.6796 34.7795 65.0061 34.5242 65.389 34.3379C65.7794 34.1434 66.2223 34.0462 66.7178 34.0462C67.2133 34.0462 67.6562 34.1434 68.0466 34.3379C68.437 34.5242 68.7673 34.7795 69.0376 35.1035C69.3079 35.4195 69.5106 35.776 69.6457 36.173C69.7883 36.5701 69.8596 36.9752 69.8596 37.3884V37.5585C69.8596 37.9717 69.7921 38.3769 69.6569 38.7739C69.5218 39.1709 69.3191 39.5314 69.0489 39.8555C68.7861 40.1715 68.4595 40.4267 68.0691 40.6212C67.6788 40.8075 67.2283 40.9007 66.7178 40.9007ZM66.7178 40.0864C67.2133 40.0864 67.63 39.9689 67.9678 39.734C68.3131 39.499 68.5759 39.183 68.7561 38.786C68.9362 38.389 69.0263 37.9515 69.0263 37.4735C69.0263 36.9873 68.9325 36.5498 68.7448 36.1609C68.5571 35.7639 68.2906 35.4519 67.9453 35.2251C67.6074 34.9901 67.1983 34.8726 66.7178 34.8726C66.2448 34.8726 65.8357 34.9901 65.4903 35.2251C65.145 35.4519 64.8785 35.7639 64.6908 36.1609C64.5106 36.5498 64.4206 36.9873 64.4206 37.4735C64.4206 37.9515 64.5106 38.389 64.6908 38.786C64.871 39.183 65.13 39.499 65.4678 39.734C65.8132 39.9689 66.2298 40.0864 66.7178 40.0864Z" fill="#EAF0FF"/>
<path d="M71.582 40.6941V34.265H72.2576V36.0637C72.4678 34.8159 73.2373 34.192 74.5662 34.192H74.7576V35.0185H74.4085C73.7629 35.0185 73.2711 35.2008 72.9333 35.5654C72.5955 35.93 72.4266 36.4566 72.4266 37.1453V40.6941H71.582Z" fill="#EAF0FF"/>
<path d="M76.1238 40.6941V31.8221H76.9684V37.4978L79.6372 34.265H80.5381L78.2409 37.0359L81.1687 40.6941H80.1778L77.7792 37.6801H76.9684V40.6941H76.1238Z" fill="#EAF0FF"/>
<path d="M88.7275 40.9007C88.0143 40.9007 87.3949 40.763 86.8694 40.4875C86.3439 40.212 85.9047 39.8474 85.5518 39.3937C85.2065 38.94 84.9475 38.4457 84.7748 37.911C84.6097 37.3762 84.5271 36.8536 84.5271 36.3432V36.1244C84.5271 35.5816 84.6134 35.0428 84.7861 34.508C84.9663 33.9652 85.2328 33.475 85.5856 33.0375C85.9385 32.5999 86.3777 32.2516 86.9032 31.9923C87.4287 31.7249 88.0368 31.5912 88.7275 31.5912C89.4257 31.5912 90.0338 31.7249 90.5518 31.9923C91.0773 32.2516 91.5165 32.5999 91.8693 33.0375C92.2222 33.475 92.4849 33.9652 92.6576 34.508C92.8378 35.0428 92.9278 35.5816 92.9278 36.1244V36.3553C92.9278 36.8658 92.8415 37.3884 92.6688 37.9231C92.5037 38.4498 92.2484 38.94 91.9031 39.3937C91.5578 39.8474 91.1186 40.212 90.5855 40.4875C90.06 40.763 89.4407 40.9007 88.7275 40.9007ZM88.7275 40.05C89.253 40.05 89.7222 39.9487 90.1351 39.7461C90.548 39.5355 90.8971 39.2519 91.1824 38.8954C91.4677 38.5308 91.6854 38.1216 91.8355 37.6679C91.9857 37.2142 92.0607 36.7402 92.0607 36.246C92.0607 35.5573 91.9256 34.9253 91.6553 34.35C91.3926 33.7748 91.0097 33.3129 90.5067 32.9646C90.0112 32.6162 89.4181 32.442 88.7275 32.442C88.0443 32.442 87.4512 32.6162 86.9482 32.9646C86.4527 33.3129 86.0699 33.7748 85.7996 34.35C85.5293 34.9253 85.3942 35.5573 85.3942 36.246C85.3942 36.7402 85.4693 37.2142 85.6194 37.6679C85.7696 38.1216 85.9873 38.5308 86.2726 38.8954C86.5653 39.2519 86.9182 39.5355 87.3311 39.7461C87.744 39.9487 88.2095 40.05 88.7275 40.05Z" fill="#EAF0FF"/>
<path d="M94.8669 40.6941V35.0185H93.9998V34.3136H94.8669V33.7667C94.8669 33.0861 95.0283 32.5878 95.3511 32.2718C95.6814 31.9477 96.1656 31.7857 96.8038 31.7857H97.5583V32.5635H96.6461C96.3308 32.5635 96.0906 32.6526 95.9254 32.8309C95.7602 33.0091 95.6777 33.2603 95.6777 33.5844V34.3136H97.6821V35.0185H95.6777V40.6941H94.8669Z" fill="#EAF0FF"/>
<path d="M103.34 40.6941V32.6607H100.772V31.8221H106.763V32.6607H104.196V40.6941H103.34Z" fill="#EAF0FF"/>
<path d="M108.169 40.6941V31.8221H109.014V35.456C109.172 35.0266 109.412 34.6903 109.735 34.4473C110.065 34.1961 110.478 34.0705 110.973 34.0705H111.018C111.739 34.0705 112.283 34.3257 112.651 34.8362C113.027 35.3466 113.214 36.0556 113.214 36.963V40.6941H112.381V36.7686C112.381 36.1933 112.235 35.7396 111.942 35.4074C111.649 35.0752 111.255 34.9091 110.759 34.9091C110.226 34.9091 109.802 35.0954 109.487 35.4681C109.172 35.8327 109.014 36.3148 109.014 36.9144V40.6941H108.169Z" fill="#EAF0FF"/>
<path d="M117.806 40.9007C117.288 40.9007 116.842 40.8075 116.466 40.6212C116.098 40.4267 115.794 40.1715 115.554 39.8555C115.314 39.5314 115.134 39.1709 115.014 38.7739C114.901 38.3688 114.845 37.9596 114.845 37.5464V37.3762C114.845 36.963 114.905 36.5579 115.025 36.1609C115.145 35.7639 115.321 35.4074 115.554 35.0914C115.794 34.7754 116.095 34.5242 116.455 34.3379C116.823 34.1434 117.251 34.0462 117.739 34.0462C118.362 34.0462 118.88 34.1961 119.293 34.4959C119.713 34.7876 120.028 35.1724 120.239 35.6504C120.449 36.1204 120.554 36.6187 120.554 37.1453V37.6193H115.655C115.67 38.0811 115.757 38.5024 115.914 38.8832C116.072 39.2559 116.309 39.5517 116.624 39.7704C116.939 39.9892 117.333 40.0986 117.806 40.0986C118.324 40.0986 118.745 39.973 119.068 39.7218C119.39 39.4707 119.589 39.1668 119.664 38.8103H120.453C120.332 39.4504 120.036 39.9608 119.563 40.3416C119.098 40.7144 118.512 40.9007 117.806 40.9007ZM117.739 34.8483C117.131 34.8483 116.654 35.0428 116.309 35.4317C115.971 35.8206 115.764 36.3148 115.689 36.9144H119.732C119.679 36.2986 119.484 35.8003 119.146 35.4195C118.809 35.0387 118.339 34.8483 117.739 34.8483Z" fill="#EAF0FF"/>
<path d="M125 40.6941V31.8221H126.43L130.934 39.8555H131.069V31.8221H131.891V40.6941H130.45L125.945 32.6607H125.81V40.6941H125Z" fill="#EAF0FF"/>
<path d="M135.876 40.8643C135.238 40.8643 134.724 40.686 134.333 40.3295C133.943 39.973 133.748 39.4626 133.748 38.7982C133.748 38.15 133.95 37.6517 134.356 37.3033C134.769 36.9549 135.347 36.7807 136.09 36.7807H137.757V36.4769C137.757 35.9988 137.64 35.6342 137.407 35.3831C137.175 35.1238 136.814 34.9942 136.326 34.9942C135.989 34.9942 135.651 35.0023 135.313 35.0185C134.975 35.0347 134.686 35.0549 134.446 35.0792V34.2771C134.686 34.2528 134.945 34.2326 135.223 34.2163C135.501 34.2001 135.767 34.192 136.022 34.192C136.931 34.192 137.58 34.3784 137.971 34.7511C138.368 35.1157 138.567 35.7193 138.567 36.562V40.6941H137.892V39.3815C137.757 39.8758 137.513 40.2485 137.16 40.4996C136.814 40.7427 136.386 40.8643 135.876 40.8643ZM136.034 40.135C136.311 40.135 136.578 40.0824 136.833 39.9771C137.088 39.8636 137.302 39.6773 137.475 39.418C137.648 39.1506 137.742 38.786 137.757 38.3242V37.4735H136.034C135.561 37.4735 135.197 37.599 134.941 37.8502C134.694 38.0933 134.57 38.4133 134.57 38.8103C134.57 39.2154 134.701 39.5395 134.964 39.7826C135.227 40.0176 135.583 40.135 136.034 40.135Z" fill="#EAF0FF"/>
<path d="M142.839 40.767C142.434 40.767 142.077 40.7022 141.769 40.5726C141.469 40.4429 141.236 40.2242 141.071 39.9163C140.906 39.6084 140.823 39.1871 140.823 38.6523V34.9577H139.754V34.265H140.823V32.2353H141.634V34.265H143.785V34.9577H141.634V38.786C141.634 39.1506 141.728 39.4342 141.916 39.6368C142.103 39.8393 142.37 39.9406 142.715 39.9406H143.785V40.767H142.839Z" fill="#EAF0FF"/>
<path d="M145.912 33.0739C145.71 33.0739 145.556 33.0172 145.451 32.9038C145.353 32.7822 145.304 32.6324 145.304 32.4541C145.304 32.2678 145.353 32.1179 145.451 32.0044C145.556 31.891 145.71 31.8343 145.912 31.8343C146.115 31.8343 146.265 31.891 146.363 32.0044C146.46 32.1179 146.509 32.2678 146.509 32.4541C146.509 32.6324 146.46 32.7822 146.363 32.9038C146.265 33.0172 146.115 33.0739 145.912 33.0739ZM145.732 40.6941V34.9942H144.775V34.265H146.565V40.6941H145.732Z" fill="#EAF0FF"/>
<path d="M151.451 40.9007C150.94 40.9007 150.49 40.8075 150.099 40.6212C149.709 40.4267 149.382 40.1715 149.12 39.8555C148.857 39.5314 148.654 39.1709 148.512 38.7739C148.376 38.3769 148.309 37.9717 148.309 37.5585V37.3884C148.309 36.9752 148.38 36.5701 148.523 36.173C148.665 35.776 148.872 35.4195 149.142 35.1035C149.412 34.7795 149.739 34.5242 150.122 34.3379C150.512 34.1434 150.955 34.0462 151.451 34.0462C151.946 34.0462 152.389 34.1434 152.78 34.3379C153.17 34.5242 153.5 34.7795 153.771 35.1035C154.041 35.4195 154.243 35.776 154.379 36.173C154.521 36.5701 154.593 36.9752 154.593 37.3884V37.5585C154.593 37.9717 154.525 38.3769 154.39 38.7739C154.255 39.1709 154.052 39.5314 153.782 39.8555C153.519 40.1715 153.192 40.4267 152.802 40.6212C152.412 40.8075 151.961 40.9007 151.451 40.9007ZM151.451 40.0864C151.946 40.0864 152.363 39.9689 152.701 39.734C153.046 39.499 153.309 39.183 153.489 38.786C153.669 38.389 153.759 37.9515 153.759 37.4735C153.759 36.9873 153.665 36.5498 153.478 36.1609C153.29 35.7639 153.024 35.4519 152.678 35.2251C152.34 34.9901 151.931 34.8726 151.451 34.8726C150.978 34.8726 150.569 34.9901 150.223 35.2251C149.878 35.4519 149.611 35.7639 149.424 36.1609C149.244 36.5498 149.153 36.9873 149.153 37.4735C149.153 37.9515 149.244 38.389 149.424 38.786C149.604 39.183 149.863 39.499 150.201 39.734C150.546 39.9689 150.963 40.0864 151.451 40.0864Z" fill="#EAF0FF"/>
<path d="M156.315 40.6941V34.265H156.991V35.7598C157.126 35.2251 157.366 34.8119 157.711 34.5202C158.064 34.2204 158.526 34.0705 159.096 34.0705H159.13C159.881 34.0705 160.44 34.3257 160.808 34.8362C161.176 35.3385 161.36 36.0475 161.36 36.963V40.6941H160.527V36.7686C160.527 36.2095 160.384 35.7598 160.099 35.4195C159.813 35.0792 159.415 34.9091 158.905 34.9091C158.379 34.9091 157.955 35.0873 157.632 35.4438C157.317 35.7922 157.159 36.2541 157.159 36.8293V40.6941H156.315Z" fill="#EAF0FF"/>
<path d="M163.089 35.0063V31.8221H163.821V35.0063H163.089Z" fill="#EAF0FF"/>
<path d="M167.488 40.8764C166.722 40.8764 166.133 40.6981 165.72 40.3416C165.307 39.977 165.097 39.4909 165.089 38.8832H165.878C165.885 39.1992 166.009 39.4828 166.249 39.734C166.497 39.9771 166.91 40.0986 167.488 40.0986C168.021 40.0986 168.419 39.9811 168.682 39.7461C168.952 39.5031 169.087 39.2114 169.087 38.8711C169.087 38.2634 168.655 37.9069 167.792 37.8016L167.116 37.7287C166.568 37.6639 166.129 37.4856 165.799 37.1939C165.469 36.9022 165.303 36.4931 165.303 35.9664C165.303 35.3993 165.502 34.9415 165.9 34.5931C166.298 34.2447 166.827 34.0705 167.488 34.0705C168.126 34.0705 168.644 34.2326 169.042 34.5566C169.447 34.8807 169.654 35.3426 169.661 35.9421H168.873C168.866 35.6342 168.746 35.375 168.513 35.1643C168.28 34.9537 167.939 34.8483 167.488 34.8483C167.023 34.8483 166.674 34.9618 166.441 35.1886C166.216 35.4074 166.103 35.6707 166.103 35.9786C166.103 36.246 166.189 36.4688 166.362 36.647C166.535 36.8172 166.805 36.9225 167.173 36.963L167.848 37.0359C168.449 37.1089 168.937 37.2952 169.312 37.595C169.695 37.8948 169.887 38.3242 169.887 38.8832C169.887 39.264 169.785 39.6084 169.583 39.9163C169.387 40.2161 169.11 40.451 168.749 40.6212C168.389 40.7913 167.969 40.8764 167.488 40.8764Z" fill="#EAF0FF"/>
<path d="M177.89 40.9007C177.154 40.9007 176.523 40.763 175.998 40.4875C175.48 40.2039 175.056 39.8353 174.725 39.3815C174.403 38.9278 174.166 38.4376 174.016 37.911C173.866 37.3762 173.791 36.8577 173.791 36.3553V36.1244C173.791 35.5816 173.866 35.0428 174.016 34.508C174.174 33.9733 174.414 33.4871 174.737 33.0496C175.067 32.604 175.487 32.2516 175.998 31.9923C176.508 31.7249 177.113 31.5912 177.811 31.5912C178.517 31.5912 179.125 31.7249 179.635 31.9923C180.153 32.2597 180.566 32.6364 180.874 33.1225C181.182 33.6087 181.37 34.1758 181.437 34.824H180.57C180.502 34.2974 180.341 33.8598 180.086 33.5115C179.838 33.155 179.515 32.8876 179.117 32.7093C178.727 32.5311 178.292 32.442 177.811 32.442C177.12 32.442 176.539 32.6162 176.066 32.9646C175.6 33.3048 175.247 33.7626 175.007 34.3379C174.774 34.9131 174.658 35.5492 174.658 36.246C174.658 36.7402 174.725 37.2142 174.861 37.6679C174.996 38.1216 175.195 38.5308 175.457 38.8954C175.728 39.2519 176.066 39.5355 176.471 39.7461C176.876 39.9487 177.349 40.05 177.89 40.05C178.641 40.05 179.271 39.8474 179.782 39.4423C180.292 39.0291 180.608 38.4376 180.728 37.6679H181.595C181.512 38.2756 181.317 38.8265 181.009 39.3208C180.701 39.8069 180.285 40.1918 179.759 40.4753C179.241 40.7589 178.618 40.9007 177.89 40.9007Z" fill="#EAF0FF"/>
<path d="M183.137 40.6941V31.8221H183.981V35.456C184.139 35.0266 184.379 34.6903 184.702 34.4473C185.033 34.1961 185.445 34.0705 185.941 34.0705H185.986C186.707 34.0705 187.251 34.3257 187.619 34.8362C187.994 35.3466 188.182 36.0556 188.182 36.963V40.6941H187.349V36.7686C187.349 36.1933 187.202 35.7396 186.909 35.4074C186.617 35.0752 186.222 34.9091 185.727 34.9091C185.194 34.9091 184.77 35.0954 184.454 35.4681C184.139 35.8327 183.981 36.3148 183.981 36.9144V40.6941H183.137Z" fill="#EAF0FF"/>
<path d="M190.781 33.0739C190.578 33.0739 190.424 33.0172 190.319 32.9038C190.221 32.7822 190.172 32.6324 190.172 32.4541C190.172 32.2678 190.221 32.1179 190.319 32.0044C190.424 31.891 190.578 31.8343 190.781 31.8343C190.983 31.8343 191.133 31.891 191.231 32.0044C191.329 32.1179 191.377 32.2678 191.377 32.4541C191.377 32.6324 191.329 32.7822 191.231 32.9038C191.133 33.0172 190.983 33.0739 190.781 33.0739ZM190.6 40.6941V34.9942H189.643V34.265H191.434V40.6941H190.6Z" fill="#EAF0FF"/>
<path d="M193.706 40.6941V32.5635H192.839V31.8221H194.551V40.6941H193.706Z" fill="#EAF0FF"/>
<path d="M199.184 40.9007C198.606 40.9007 198.095 40.7508 197.652 40.451C197.217 40.1431 196.875 39.738 196.628 39.2357C196.387 38.7253 196.267 38.1662 196.267 37.5585V37.3884C196.267 36.805 196.384 36.2622 196.616 35.7598C196.857 35.2494 197.195 34.8362 197.63 34.5202C198.065 34.2042 198.576 34.0462 199.161 34.0462C199.657 34.0462 200.1 34.1677 200.49 34.4108C200.881 34.6458 201.188 34.9861 201.414 35.4317V31.8221H202.258V40.6941H201.583V39.2478C201.372 39.7988 201.053 40.212 200.625 40.4875C200.197 40.763 199.717 40.9007 199.184 40.9007ZM199.297 40.0986C199.702 40.0986 200.066 40.0014 200.389 39.8069C200.719 39.6043 200.978 39.3289 201.166 38.9805C201.354 38.624 201.447 38.2067 201.447 37.7287V37.1453C201.447 36.6916 201.35 36.2946 201.155 35.9543C200.967 35.6059 200.708 35.3345 200.378 35.14C200.055 34.9455 199.691 34.8483 199.285 34.8483C198.835 34.8483 198.448 34.9658 198.125 35.2008C197.803 35.4276 197.551 35.7396 197.371 36.1366C197.198 36.5336 197.112 36.9792 197.112 37.4735C197.112 37.9839 197.202 38.4376 197.382 38.8346C197.562 39.2316 197.814 39.5436 198.137 39.7704C198.467 39.9892 198.854 40.0986 199.297 40.0986Z" fill="#EAF0FF"/>
<path d="M204.438 40.6941V34.265H205.114V36.0637C205.324 34.8159 206.094 34.192 207.423 34.192H207.614V35.0185H207.265C206.619 35.0185 206.128 35.2008 205.79 35.5654C205.452 35.93 205.283 36.4566 205.283 37.1453V40.6941H204.438Z" fill="#EAF0FF"/>
<path d="M211.392 40.9007C210.874 40.9007 210.427 40.8075 210.052 40.6212C209.684 40.4267 209.38 40.1715 209.14 39.8555C208.899 39.5314 208.719 39.1709 208.599 38.7739C208.487 38.3688 208.43 37.9596 208.43 37.5464V37.3762C208.43 36.963 208.49 36.5579 208.61 36.1609C208.731 35.7639 208.907 35.4074 209.14 35.0914C209.38 34.7754 209.68 34.5242 210.041 34.3379C210.408 34.1434 210.836 34.0462 211.324 34.0462C211.947 34.0462 212.465 34.1961 212.878 34.4959C213.299 34.7876 213.614 35.1724 213.824 35.6504C214.034 36.1204 214.14 36.6187 214.14 37.1453V37.6193H209.241C209.256 38.0811 209.342 38.5024 209.5 38.8832C209.658 39.2559 209.894 39.5517 210.209 39.7704C210.525 39.9892 210.919 40.0986 211.392 40.0986C211.91 40.0986 212.33 39.973 212.653 39.7218C212.976 39.4707 213.175 39.1668 213.25 38.8103H214.038C213.918 39.4504 213.622 39.9608 213.149 40.3416C212.683 40.7144 212.098 40.9007 211.392 40.9007ZM211.324 34.8483C210.716 34.8483 210.239 35.0428 209.894 35.4317C209.556 35.8206 209.35 36.3148 209.275 36.9144H213.318C213.265 36.2986 213.07 35.8003 212.732 35.4195C212.394 35.0387 211.925 34.8483 211.324 34.8483Z" fill="#EAF0FF"/>
<path d="M215.765 40.6941V34.265H216.441V35.7598C216.576 35.2251 216.816 34.8119 217.162 34.5202C217.515 34.2204 217.976 34.0705 218.547 34.0705H218.581C219.331 34.0705 219.891 34.3257 220.259 34.8362C220.626 35.3385 220.81 36.0475 220.81 36.963V40.6941H219.977V36.7686C219.977 36.2095 219.834 35.7598 219.549 35.4195C219.264 35.0792 218.866 34.9091 218.355 34.9091C217.83 34.9091 217.406 35.0873 217.083 35.4438C216.768 35.7922 216.61 36.2541 216.61 36.8293V40.6941H215.765Z" fill="#EAF0FF"/>
</svg>
