<svg width="226" height="47" viewBox="0 0 226 47" fill="none" xmlns="http://www.w3.org/2000/svg">
<path d="M24.0111 0.272949C11.2327 0.272949 0.861816 10.6438 0.861816 23.4222C0.861816 36.2007 11.2327 46.5715 24.0111 46.5715C36.7895 46.5715 47.1604 36.2007 47.1604 23.4222C47.1604 10.6438 36.7895 0.272949 24.0111 0.272949ZM16.4876 27.3113C16.1867 28.3067 15.0523 28.7697 14.1264 28.353C13.3393 27.9827 12.9457 27.103 13.2004 26.2696C13.4782 25.3205 13.6171 24.3482 13.5939 23.3991C13.5708 22.45 13.455 21.5472 13.2004 20.6675C12.9689 19.8341 13.3393 18.9313 14.1264 18.584C15.0986 18.1442 16.233 18.6766 16.5339 19.7184C16.8811 20.899 17.0432 22.1027 17.0663 23.3528C17.0663 24.6492 16.8811 25.9918 16.4876 27.3113ZM23.7565 30.9921C23.3629 31.9412 22.2055 32.3116 21.3026 31.8023C20.5387 31.3625 20.2378 30.4365 20.5619 29.6263C21.3258 27.8438 21.6962 25.8529 21.6962 23.7C21.6962 21.4777 21.2795 19.3248 20.4693 17.2645C20.1452 16.4312 20.5156 15.5052 21.3026 15.0885C22.2055 14.6255 23.3166 15.0422 23.687 15.9913C24.6593 18.4451 25.1454 21.0379 25.1454 23.7C25.1917 26.3159 24.7056 28.7697 23.7565 30.9921ZM30.9559 34.0709C30.5624 34.9969 29.4743 35.4136 28.5947 34.9737C27.7844 34.5802 27.3909 33.6079 27.7382 32.7746C29.104 29.5568 29.7984 26.4085 29.7984 23.3759C29.7984 20.3434 29.104 17.2414 27.7613 14.0931C27.3909 13.2597 27.7844 12.2874 28.5947 11.8939C29.4975 11.4309 30.5624 11.8476 30.9559 12.7736C32.4838 16.3386 33.2708 19.9036 33.2708 23.3759C33.2708 26.8483 32.4838 30.4596 30.9559 34.0709Z" fill="#EAF0FF"/>
<path d="M64.4089 22.2997V6.07074H70.2087C72.0386 6.07074 73.4258 6.45088 74.3703 7.21115C75.3295 7.97143 75.8092 9.06067 75.8092 10.4789V10.7859C75.8092 11.5608 75.6616 12.2041 75.3664 12.7158C75.086 13.2276 74.695 13.6443 74.1932 13.9659C74.9016 14.2583 75.455 14.6896 75.8534 15.2599C76.2667 15.8301 76.4733 16.5757 76.4733 17.4968V17.8039C76.4733 19.2367 75.9936 20.3479 75.0344 21.1374C74.0899 21.9123 72.7027 22.2997 70.8727 22.2997H64.4089ZM70.4964 8.57088H67.4859V12.9132H70.4964C71.2491 12.9132 71.8025 12.7158 72.1567 12.3211C72.5108 11.9263 72.6879 11.4 72.6879 10.7421C72.6879 10.0841 72.5108 9.55778 72.1567 9.16302C71.8025 8.76826 71.2491 8.57088 70.4964 8.57088ZM71.0941 15.3256H67.4859V19.7996H71.0941C71.832 19.7996 72.3928 19.6022 72.7765 19.2074C73.1602 18.8127 73.352 18.2571 73.352 17.5407C73.352 16.8389 73.1602 16.2979 72.7765 15.9178C72.3928 15.523 71.832 15.3256 71.0941 15.3256Z" fill="#EAF0FF"/>
<path d="M77.7961 22.1901L83.3081 6.1804H88.4437L94.1106 22.1901H90.8787L89.3956 17.9354H82.3562L80.9395 22.1901H77.7961ZM83.2416 15.3037H88.488L86.2522 8.79019H85.4332L83.2416 15.3037Z" fill="#EAF0FF"/>
<path d="M98.9587 22.1901V16.0713H98.1618L93.2917 6.1804H96.5237L100.132 13.7027H100.973L104.271 6.1804H107.326L102.833 16.0713H102.036V22.1901H98.9587Z" fill="#EAF0FF"/>
<path d="M109.568 22.1901V6.1804H119.352V8.81212H112.645V12.7378H118.954V15.3695H112.645V19.5583H119.529V22.1901H109.568Z" fill="#EAF0FF"/>
<path d="M122.755 22.1901V6.07074H128.754C130.687 6.07074 132.229 6.50205 133.38 7.36467C134.531 8.22729 135.107 9.53585 135.107 11.2903V11.6632C135.107 12.8621 134.827 13.849 134.266 14.6239C133.72 15.3987 132.96 15.969 131.986 16.3345L136.302 22.1901H132.628L128.82 16.8389H125.898V22.1901H122.755ZM129.086 8.7244H125.898V14.3168H129.086C129.942 14.3168 130.628 14.061 131.145 13.5492C131.661 13.0375 131.919 12.365 131.919 11.5316C131.919 10.6982 131.661 10.0256 131.145 9.51392C130.628 8.98757 129.942 8.7244 129.086 8.7244Z" fill="#EAF0FF"/>
<path d="M150.991 22.6068C149.604 22.6068 148.379 22.3801 147.316 21.9269C146.268 21.459 145.383 20.8377 144.66 20.0628C143.951 19.2879 143.413 18.4033 143.044 17.4091C142.69 16.4149 142.513 15.3841 142.513 14.3168V13.8343C142.513 12.8255 142.69 11.8386 143.044 10.8736C143.398 9.90867 143.915 9.03874 144.593 8.26384C145.287 7.48895 146.136 6.87488 147.139 6.42164C148.143 5.95377 149.308 5.71984 150.637 5.71984C152.039 5.71984 153.286 5.98302 154.378 6.50936C155.485 7.03571 156.37 7.76674 157.034 8.70247C157.698 9.62357 158.089 10.6909 158.207 11.9044H155.042C154.939 11.2172 154.68 10.6324 154.267 10.1499C153.854 9.65281 153.33 9.27267 152.695 9.0095C152.076 8.74633 151.389 8.61474 150.637 8.61474C149.618 8.61474 148.74 8.84867 148.002 9.31654C147.265 9.76978 146.696 10.4131 146.298 11.2465C145.899 12.0652 145.7 13.0156 145.7 14.0975C145.7 15.8812 146.172 17.2775 147.117 18.2863C148.076 19.2805 149.368 19.7776 150.991 19.7776C151.847 19.7776 152.622 19.6314 153.315 19.339C154.024 19.0466 154.599 18.6592 155.042 18.1767V16.3783H150.482V14.0536H159.292V16.3783H157.942V19.3171C157.248 20.3698 156.304 21.1812 155.108 21.7514C153.913 22.3217 152.54 22.6068 150.991 22.6068Z" fill="#EAF0FF"/>
<path d="M161.883 22.1901V6.07074H167.882C169.815 6.07074 171.357 6.50205 172.508 7.36467C173.659 8.22729 174.235 9.53585 174.235 11.2903V11.6632C174.235 12.8621 173.954 13.849 173.394 14.6239C172.848 15.3987 172.088 15.969 171.114 16.3345L175.43 22.1901H171.755L167.948 16.8389H165.026V22.1901H161.883ZM168.214 8.7244H165.026V14.3168H168.214C169.07 14.3168 169.756 14.061 170.272 13.5492C170.789 13.0375 171.047 12.365 171.047 11.5316C171.047 10.6982 170.789 10.0256 170.272 9.51392C169.756 8.98757 169.07 8.7244 168.214 8.7244Z" fill="#EAF0FF"/>
<path d="M185.191 22.6068C183.73 22.6068 182.461 22.3509 181.384 21.8392C180.307 21.3274 179.414 20.6622 178.705 19.8434C178.012 19.0101 177.495 18.1182 177.156 17.1679C176.816 16.2029 176.647 15.2745 176.647 14.3826V13.9001C176.647 12.9205 176.824 11.9483 177.178 10.9833C177.532 10.0183 178.064 9.14109 178.772 8.35157C179.495 7.54743 180.388 6.91143 181.45 6.44357C182.513 5.96108 183.76 5.71984 185.191 5.71984C186.593 5.71984 187.826 5.96108 188.888 6.44357C189.966 6.91143 190.858 7.54743 191.567 8.35157C192.275 9.14109 192.806 10.0183 193.161 10.9833C193.529 11.9483 193.714 12.9205 193.714 13.9001V14.3826C193.714 15.2745 193.537 16.2029 193.183 17.1679C192.843 18.1182 192.319 19.0101 191.611 19.8434C190.917 20.6622 190.032 21.3274 188.955 21.8392C187.892 22.3509 186.638 22.6068 185.191 22.6068ZM185.191 19.7119C186.283 19.7119 187.228 19.4633 188.025 18.9662C188.822 18.4545 189.434 17.7746 189.862 16.9266C190.305 16.0786 190.526 15.1575 190.526 14.1633C190.526 13.1106 190.305 12.1676 189.862 11.3342C189.434 10.4862 188.822 9.82095 188.025 9.33847C187.228 8.85598 186.283 8.61474 185.191 8.61474C184.085 8.61474 183.133 8.85598 182.336 9.33847C181.539 9.82095 180.919 10.4862 180.476 11.3342C180.048 12.1676 179.834 13.1106 179.834 14.1633C179.834 15.1575 180.048 16.0786 180.476 16.9266C180.904 17.7746 181.517 18.4545 182.314 18.9662C183.125 19.4633 184.085 19.7119 185.191 19.7119Z" fill="#EAF0FF"/>
<path d="M203.415 22.6068C201.895 22.6068 200.618 22.3217 199.585 21.7514C198.552 21.1812 197.77 20.3844 197.239 19.361C196.708 18.3229 196.442 17.1094 196.442 15.7204V6.1804H199.585V15.8959C199.585 17.0509 199.91 17.9793 200.559 18.6811C201.223 19.3683 202.175 19.7119 203.415 19.7119C204.625 19.7119 205.555 19.3683 206.204 18.6811C206.868 17.9939 207.2 17.0655 207.2 15.8959V6.1804H210.344V15.7204C210.344 17.1094 210.078 18.3229 209.547 19.361C209.015 20.3844 208.233 21.1812 207.2 21.7514C206.182 22.3217 204.92 22.6068 203.415 22.6068Z" fill="#EAF0FF"/>
<path d="M214.024 22.1901V6.07074H219.603C221.639 6.07074 223.211 6.56053 224.318 7.54012C225.439 8.50509 226 9.82095 226 11.4877V11.8386C226 13.5054 225.439 14.8285 224.318 15.8081C223.211 16.7877 221.639 17.2775 219.603 17.2775H217.168V22.1901H214.024ZM219.868 8.76826H217.168V14.58H219.868C220.813 14.58 221.536 14.3095 222.038 13.7685C222.554 13.2276 222.812 12.5258 222.812 11.6632C222.812 10.8005 222.554 10.1061 222.038 9.57971C221.536 9.03874 220.813 8.76826 219.868 8.76826Z" fill="#EAF0FF"/>
<path d="M69.3633 41.1246C68.5641 41.1246 67.879 40.9873 67.3081 40.7126C66.7454 40.4298 66.2846 40.0621 65.9257 39.6097C65.5751 39.1572 65.3182 38.6684 65.1551 38.1432C64.9919 37.6099 64.9104 37.0928 64.9104 36.5918V36.3616C64.9104 35.8202 64.9919 35.2829 65.1551 34.7496C65.3263 34.2164 65.5873 33.7316 65.938 33.2953C66.2968 32.8509 66.7535 32.4994 67.3081 32.2408C67.8627 31.9742 68.5192 31.8409 69.2777 31.8409C70.0443 31.8409 70.7049 31.9742 71.2595 32.2408C71.8222 32.5075 72.2707 32.8832 72.6051 33.368C72.9395 33.8528 73.1434 34.4184 73.2168 35.0648H72.2748C72.2014 34.5396 72.0261 34.1033 71.7488 33.7558C71.4797 33.4003 71.129 33.1337 70.6967 32.9559C70.2726 32.7782 69.7996 32.6893 69.2777 32.6893C68.5274 32.6893 67.8953 32.863 67.3815 33.2104C66.8759 33.5498 66.4926 34.0063 66.2316 34.58C65.9788 35.1536 65.8523 35.7879 65.8523 36.4828C65.8523 36.9756 65.9257 37.4483 66.0725 37.9008C66.2193 38.3533 66.4355 38.7613 66.7209 39.1249C67.0145 39.4804 67.3815 39.7632 67.8219 39.9733C68.2623 40.1753 68.7761 40.2763 69.3633 40.2763C70.1788 40.2763 70.8639 40.0743 71.4185 39.6703C71.9731 39.2582 72.3156 38.6684 72.4461 37.9008H73.388C73.2983 38.5068 73.0863 39.0562 72.7519 39.5491C72.4175 40.0339 71.9649 40.4177 71.394 40.7005C70.8313 40.9833 70.1544 41.1246 69.3633 41.1246Z" fill="#EAF0FF"/>
<path d="M75.0633 40.9186V32.0712H75.9808V35.695C76.1521 35.2668 76.4131 34.9314 76.7638 34.689C77.1226 34.4386 77.5712 34.3133 78.1094 34.3133H78.1584C78.9413 34.3133 79.5326 34.5678 79.9322 35.0769C80.34 35.5859 80.5438 36.2929 80.5438 37.1978V40.9186H79.6386V37.0039C79.6386 36.4303 79.4796 35.9778 79.1615 35.6465C78.8434 35.3152 78.4153 35.1496 77.877 35.1496C77.298 35.1496 76.8372 35.3354 76.4946 35.7071C76.1521 36.0707 75.9808 36.5514 75.9808 37.1494V40.9186H75.0633Z" fill="#EAF0FF"/>
<path d="M83.3669 33.3195C83.1467 33.3195 82.9795 33.2629 82.8653 33.1498C82.7593 33.0286 82.7063 32.8792 82.7063 32.7014C82.7063 32.5156 82.7593 32.3661 82.8653 32.253C82.9795 32.1398 83.1467 32.0833 83.3669 32.0833C83.5871 32.0833 83.7502 32.1398 83.8562 32.253C83.9622 32.3661 84.0152 32.5156 84.0152 32.7014C84.0152 32.8792 83.9622 33.0286 83.8562 33.1498C83.7502 33.2629 83.5871 33.3195 83.3669 33.3195ZM83.1711 40.9186V35.2344H82.1313V34.5072H84.0764V40.9186H83.1711Z" fill="#EAF0FF"/>
<path d="M86.5454 40.9186V32.8105H85.6035V32.0712H87.4629V40.9186H86.5454Z" fill="#EAF0FF"/>
<path d="M92.4959 41.1246C91.8679 41.1246 91.3133 40.9752 90.8321 40.6762C90.3591 40.3692 89.988 39.9652 89.7189 39.4642C89.4579 38.9552 89.3274 38.3977 89.3274 37.7917V37.622C89.3274 37.0403 89.4538 36.4989 89.7067 35.998C89.9677 35.4889 90.3346 35.0769 90.8077 34.7618C91.2807 34.4466 91.8353 34.2891 92.4714 34.2891C93.0097 34.2891 93.4908 34.4103 93.9149 34.6527C94.339 34.887 94.6734 35.2264 94.9181 35.6707V32.0712H95.8355V40.9186H95.1016V39.4764C94.8732 40.0258 94.5266 40.4379 94.0617 40.7126C93.5969 40.9873 93.0749 41.1246 92.4959 41.1246ZM92.6182 40.3247C93.0586 40.3247 93.4541 40.2278 93.8048 40.0339C94.1637 39.8319 94.445 39.5572 94.6489 39.2097C94.8528 38.8542 94.9548 38.4381 94.9548 37.9614V37.3796C94.9548 36.9272 94.8487 36.5312 94.6367 36.1919C94.4328 35.8445 94.1514 35.5738 93.7926 35.3799C93.4419 35.186 93.0464 35.089 92.606 35.089C92.1166 35.089 91.6966 35.2062 91.3459 35.4405C90.9952 35.6667 90.722 35.9778 90.5263 36.3737C90.3387 36.7696 90.2449 37.214 90.2449 37.7069C90.2449 38.2159 90.3428 38.6684 90.5385 39.0643C90.7343 39.4602 91.0075 39.7713 91.3582 39.9975C91.717 40.2157 92.137 40.3247 92.6182 40.3247Z" fill="#EAF0FF"/>
<path d="M98.2038 40.9186V34.5072H98.9378V36.301C99.1662 35.0567 100.002 34.4345 101.446 34.4345H101.654V35.2587H101.274C100.573 35.2587 100.039 35.4405 99.6718 35.8041C99.3048 36.1677 99.1213 36.6928 99.1213 37.3796V40.9186H98.2038Z" fill="#EAF0FF"/>
<path d="M105.758 41.1246C105.195 41.1246 104.71 41.0317 104.302 40.8459C103.902 40.652 103.572 40.3975 103.311 40.0823C103.05 39.7592 102.854 39.3996 102.724 39.0037C102.602 38.5997 102.54 38.1917 102.54 37.7796V37.6099C102.54 37.1978 102.606 36.7938 102.736 36.3979C102.867 36.002 103.058 35.6465 103.311 35.3314C103.572 35.0163 103.898 34.7658 104.29 34.58C104.689 34.386 105.154 34.2891 105.684 34.2891C106.361 34.2891 106.924 34.4386 107.372 34.7375C107.829 35.0284 108.172 35.4122 108.4 35.8889C108.628 36.3575 108.743 36.8544 108.743 37.3796V37.8523H103.421C103.437 38.3129 103.531 38.733 103.703 39.1128C103.874 39.4844 104.131 39.7794 104.473 39.9975C104.816 40.2157 105.244 40.3247 105.758 40.3247C106.32 40.3247 106.777 40.1995 107.128 39.949C107.479 39.6986 107.695 39.3956 107.776 39.04H108.633C108.502 39.6784 108.18 40.1874 107.666 40.5671C107.16 40.9388 106.524 41.1246 105.758 41.1246ZM105.684 35.089C105.024 35.089 104.506 35.2829 104.131 35.6707C103.764 36.0586 103.539 36.5514 103.458 37.1494H107.85C107.793 36.5353 107.58 36.0384 107.213 35.6586C106.846 35.2789 106.337 35.089 105.684 35.089Z" fill="#EAF0FF"/>
<path d="M110.509 40.9186V34.5072H111.243V35.998C111.39 35.4647 111.651 35.0526 112.026 34.7618C112.409 34.4628 112.911 34.3133 113.53 34.3133H113.567C114.383 34.3133 114.99 34.5678 115.39 35.0769C115.789 35.5778 115.989 36.2848 115.989 37.1978V40.9186H115.084V37.0039C115.084 36.4464 114.929 35.998 114.619 35.6586C114.309 35.3193 113.877 35.1496 113.322 35.1496C112.752 35.1496 112.291 35.3274 111.94 35.6829C111.598 36.0303 111.426 36.4909 111.426 37.0645V40.9186H110.509Z" fill="#EAF0FF"/>
<path d="M125.252 41.1246C124.477 41.1246 123.804 40.9873 123.233 40.7126C122.663 40.4379 122.185 40.0743 121.802 39.6218C121.427 39.1693 121.146 38.6765 120.958 38.1432C120.779 37.6099 120.689 37.0888 120.689 36.5797V36.3616C120.689 35.8202 120.783 35.2829 120.97 34.7496C121.166 34.2083 121.456 33.7195 121.839 33.2831C122.222 32.8468 122.699 32.4994 123.27 32.2408C123.841 31.9742 124.502 31.8409 125.252 31.8409C126.01 31.8409 126.671 31.9742 127.234 32.2408C127.805 32.4994 128.282 32.8468 128.665 33.2831C129.048 33.7195 129.334 34.2083 129.521 34.7496C129.717 35.2829 129.815 35.8202 129.815 36.3616V36.5918C129.815 37.1009 129.721 37.622 129.534 38.1553C129.354 38.6805 129.077 39.1693 128.702 39.6218C128.327 40.0743 127.849 40.4379 127.27 40.7126C126.7 40.9873 126.027 41.1246 125.252 41.1246ZM125.252 40.2763C125.823 40.2763 126.333 40.1753 126.781 39.9733C127.23 39.7632 127.609 39.4804 127.919 39.1249C128.229 38.7613 128.465 38.3533 128.628 37.9008C128.791 37.4483 128.873 36.9756 128.873 36.4828C128.873 35.796 128.726 35.1658 128.433 34.5921C128.147 34.0184 127.731 33.5579 127.185 33.2104C126.647 32.863 126.002 32.6893 125.252 32.6893C124.51 32.6893 123.865 32.863 123.319 33.2104C122.781 33.5579 122.365 34.0184 122.071 34.5921C121.778 35.1658 121.631 35.796 121.631 36.4828C121.631 36.9756 121.712 37.4483 121.876 37.9008C122.039 38.3533 122.275 38.7613 122.585 39.1249C122.903 39.4804 123.286 39.7632 123.735 39.9733C124.184 40.1753 124.689 40.2763 125.252 40.2763Z" fill="#EAF0FF"/>
<path d="M131.921 40.9186V35.2587H130.979V34.5557H131.921V34.0103C131.921 33.3316 132.097 32.8347 132.447 32.5196C132.806 32.1964 133.332 32.0348 134.025 32.0348H134.845V32.8105H133.854C133.512 32.8105 133.251 32.8993 133.071 33.0771C132.892 33.2549 132.802 33.5053 132.802 33.8285V34.5557H134.98V35.2587H132.802V40.9186H131.921Z" fill="#EAF0FF"/>
<path d="M141.126 40.9186V32.9074H138.336V32.0712H144.845V32.9074H142.055V40.9186H141.126Z" fill="#EAF0FF"/>
<path d="M146.372 40.9186V32.0712H147.29V35.695C147.461 35.2668 147.722 34.9314 148.073 34.689C148.432 34.4386 148.88 34.3133 149.418 34.3133H149.467C150.25 34.3133 150.842 34.5678 151.241 35.0769C151.649 35.5859 151.853 36.2929 151.853 37.1978V40.9186H150.948V37.0039C150.948 36.4303 150.789 35.9778 150.471 35.6465C150.152 35.3152 149.724 35.1496 149.186 35.1496C148.607 35.1496 148.146 35.3354 147.804 35.7071C147.461 36.0707 147.29 36.5514 147.29 37.1494V40.9186H146.372Z" fill="#EAF0FF"/>
<path d="M156.841 41.1246C156.278 41.1246 155.793 41.0317 155.385 40.8459C154.986 40.652 154.656 40.3975 154.395 40.0823C154.134 39.7592 153.938 39.3996 153.807 39.0037C153.685 38.5997 153.624 38.1917 153.624 37.7796V37.6099C153.624 37.1978 153.689 36.7938 153.82 36.3979C153.95 36.002 154.142 35.6465 154.395 35.3314C154.656 35.0163 154.982 34.7658 155.373 34.58C155.773 34.386 156.238 34.2891 156.768 34.2891C157.445 34.2891 158.007 34.4386 158.456 34.7375C158.913 35.0284 159.255 35.4122 159.484 35.8889C159.712 36.3575 159.826 36.8544 159.826 37.3796V37.8523H154.505C154.521 38.3129 154.615 38.733 154.786 39.1128C154.957 39.4844 155.214 39.7794 155.557 39.9975C155.899 40.2157 156.327 40.3247 156.841 40.3247C157.404 40.3247 157.861 40.1995 158.211 39.949C158.562 39.6986 158.778 39.3956 158.86 39.04H159.716C159.586 39.6784 159.263 40.1874 158.75 40.5671C158.244 40.9388 157.608 41.1246 156.841 41.1246ZM156.768 35.089C156.107 35.089 155.589 35.2829 155.214 35.6707C154.847 36.0586 154.623 36.5514 154.541 37.1494H158.933C158.876 36.5353 158.664 36.0384 158.297 35.6586C157.93 35.2789 157.42 35.089 156.768 35.089Z" fill="#EAF0FF"/>
<path d="M164.656 40.9186V32.0712H166.209L171.102 40.0823H171.249V32.0712H172.142V40.9186H170.576L165.683 32.9074H165.536V40.9186H164.656Z" fill="#EAF0FF"/>
<path d="M176.471 41.0883C175.778 41.0883 175.219 40.9105 174.795 40.555C174.371 40.1995 174.159 39.6905 174.159 39.0279C174.159 38.3815 174.379 37.8846 174.819 37.5372C175.268 37.1898 175.896 37.016 176.703 37.016H178.514V36.713C178.514 36.2363 178.387 35.8727 178.135 35.6223C177.882 35.3637 177.49 35.2344 176.96 35.2344C176.593 35.2344 176.226 35.2425 175.859 35.2587C175.492 35.2748 175.178 35.295 174.917 35.3193V34.5194C175.178 34.4951 175.46 34.4749 175.761 34.4588C176.063 34.4426 176.353 34.4345 176.63 34.4345C177.617 34.4345 178.322 34.6204 178.746 34.992C179.179 35.3556 179.395 35.9576 179.395 36.7979V40.9186H178.661V39.6097C178.514 40.1025 178.249 40.4742 177.866 40.7247C177.49 40.9671 177.026 41.0883 176.471 41.0883ZM176.642 40.3611C176.944 40.3611 177.234 40.3086 177.511 40.2035C177.788 40.0904 178.021 39.9046 178.208 39.646C178.396 39.3794 178.498 39.0158 178.514 38.5553V37.7069H176.642C176.128 37.7069 175.733 37.8321 175.456 38.0826C175.186 38.325 175.052 38.6441 175.052 39.04C175.052 39.444 175.195 39.7672 175.48 40.0096C175.765 40.2439 176.153 40.3611 176.642 40.3611Z" fill="#EAF0FF"/>
<path d="M184.035 40.9913C183.595 40.9913 183.207 40.9267 182.873 40.7974C182.547 40.6681 182.294 40.45 182.115 40.143C181.935 39.8359 181.845 39.4158 181.845 38.8825V35.1981H180.683V34.5072H181.845V32.4832H182.726V34.5072H185.063V35.1981H182.726V39.0158C182.726 39.3794 182.828 39.6622 183.032 39.8642C183.236 40.0662 183.526 40.1672 183.901 40.1672H185.063V40.9913H184.035Z" fill="#EAF0FF"/>
<path d="M187.374 33.3195C187.153 33.3195 186.986 33.2629 186.872 33.1498C186.766 33.0286 186.713 32.8792 186.713 32.7014C186.713 32.5156 186.766 32.3661 186.872 32.253C186.986 32.1398 187.153 32.0833 187.374 32.0833C187.594 32.0833 187.757 32.1398 187.863 32.253C187.969 32.3661 188.022 32.5156 188.022 32.7014C188.022 32.8792 187.969 33.0286 187.863 33.1498C187.757 33.2629 187.594 33.3195 187.374 33.3195ZM187.178 40.9186V35.2344H186.138V34.5072H188.083V40.9186H187.178Z" fill="#EAF0FF"/>
<path d="M193.39 41.1246C192.836 41.1246 192.346 41.0317 191.922 40.8459C191.498 40.652 191.144 40.3975 190.858 40.0823C190.573 39.7592 190.352 39.3996 190.197 39.0037C190.051 38.6078 189.977 38.2038 189.977 37.7917V37.622C189.977 37.21 190.055 36.806 190.21 36.4101C190.365 36.0141 190.589 35.6586 190.883 35.3435C191.176 35.0203 191.531 34.7658 191.947 34.58C192.371 34.386 192.852 34.2891 193.39 34.2891C193.929 34.2891 194.41 34.386 194.834 34.58C195.258 34.7658 195.617 35.0203 195.91 35.3435C196.204 35.6586 196.424 36.0141 196.571 36.4101C196.726 36.806 196.803 37.21 196.803 37.622V37.7917C196.803 38.2038 196.73 38.6078 196.583 39.0037C196.436 39.3996 196.216 39.7592 195.923 40.0823C195.637 40.3975 195.282 40.652 194.858 40.8459C194.434 41.0317 193.945 41.1246 193.39 41.1246ZM193.39 40.3126C193.929 40.3126 194.381 40.1955 194.748 39.9612C195.123 39.7268 195.409 39.4117 195.605 39.0158C195.8 38.6199 195.898 38.1836 195.898 37.7069C195.898 37.2221 195.796 36.7858 195.592 36.3979C195.388 36.002 195.099 35.6909 194.724 35.4647C194.357 35.2304 193.912 35.1132 193.39 35.1132C192.877 35.1132 192.432 35.2304 192.057 35.4647C191.682 35.6909 191.392 36.002 191.188 36.3979C190.993 36.7858 190.895 37.2221 190.895 37.7069C190.895 38.1836 190.993 38.6199 191.188 39.0158C191.384 39.4117 191.665 39.7268 192.032 39.9612C192.408 40.1955 192.86 40.3126 193.39 40.3126Z" fill="#EAF0FF"/>
<path d="M198.674 40.9186V34.5072H199.408V35.998C199.555 35.4647 199.816 35.0526 200.191 34.7618C200.575 34.4628 201.076 34.3133 201.696 34.3133H201.733C202.548 34.3133 203.156 34.5678 203.556 35.0769C203.955 35.5778 204.155 36.2848 204.155 37.1978V40.9186H203.25V37.0039C203.25 36.4464 203.095 35.998 202.785 35.6586C202.475 35.3193 202.043 35.1496 201.488 35.1496C200.917 35.1496 200.456 35.3274 200.106 35.6829C199.763 36.0303 199.592 36.4909 199.592 37.0645V40.9186H198.674Z" fill="#EAF0FF"/>
</svg>
