<svg width="225" height="47" viewBox="0 0 225 47" fill="none" xmlns="http://www.w3.org/2000/svg">
<path d="M40.9234 22.1866H37.9254V8.96032H24.6991V5.96236C24.6991 3.07462 22.627 0.451408 19.7613 0.164838C16.4547 -0.165819 13.6772 2.41331 13.6772 5.65375V8.96032H0.472972V21.7457H3.53706C6.4248 21.7457 9.04802 23.6856 9.59911 26.5072C10.3266 30.2987 7.43882 33.6494 3.7575 33.6494H0.450928V46.4348H13.2363V43.3487C13.2363 40.4609 15.1762 37.8377 17.9978 37.2866C21.7893 36.5592 25.14 39.4469 25.14 43.1283V46.4348H37.9254V33.2085H41.232C44.4724 33.2085 47.0516 30.431 46.7209 27.1244C46.4343 24.2587 43.7891 22.1866 40.9234 22.1866Z" fill="#EAF0FF"/>
<path d="M65.3655 20.5777L61.2746 4.23755H64.5077L67.6969 17.9364H68.3127L70.82 4.8643H74.2071L77.0883 17.9364H77.6822L80.5194 4.23755H83.5766L79.9256 20.5777H74.9549L72.4916 9.6768L70.2482 20.5777H65.3655Z" fill="#EAF0FF"/>
<path d="M92.6937 21.003C91.1834 21.003 89.9151 20.712 88.8887 20.13C87.8623 19.548 87.0852 18.7348 86.5573 17.6902C86.0295 16.6307 85.7655 15.3921 85.7655 13.9745V4.23755H88.8887V14.1535C88.8887 15.3324 89.2113 16.28 89.8564 16.9963C90.5163 17.6976 91.462 18.0483 92.6937 18.0483C93.896 18.0483 94.8198 17.6976 95.4649 16.9963C96.1248 16.2949 96.4547 15.3473 96.4547 14.1535V4.23755H99.5778V13.9745C99.5778 15.3921 99.3139 16.6307 98.786 17.6902C98.2582 18.7348 97.4811 19.548 96.4547 20.13C95.4429 20.712 94.1893 21.003 92.6937 21.003Z" fill="#EAF0FF"/>
<path d="M110.471 21.003C109.005 21.003 107.751 20.7418 106.71 20.2195C105.684 19.6973 104.84 19.0183 104.181 18.1826C103.535 17.347 103.059 16.4442 102.751 15.4742C102.443 14.4893 102.289 13.5343 102.289 12.6091V12.1166C102.289 11.1168 102.443 10.1245 102.751 9.13959C103.074 8.13978 103.565 7.23697 104.225 6.43116C104.884 5.62534 105.72 4.98368 106.732 4.50616C107.744 4.01371 108.953 3.76749 110.361 3.76749C111.798 3.76749 113.059 4.0361 114.144 4.57331C115.229 5.11052 116.094 5.85664 116.739 6.81168C117.384 7.76672 117.773 8.88591 117.905 10.1692H114.76C114.584 9.05006 114.093 8.19947 113.286 7.6175C112.494 7.0206 111.519 6.72215 110.361 6.72215C109.291 6.72215 108.389 6.96837 107.656 7.46081C106.937 7.93833 106.387 8.60238 106.006 9.45296C105.64 10.3035 105.456 11.281 105.456 12.3852C105.456 13.4597 105.647 14.4222 106.028 15.2727C106.409 16.1233 106.974 16.8023 107.722 17.3097C108.469 17.8021 109.386 18.0483 110.471 18.0483C111.673 18.0483 112.685 17.7499 113.506 17.153C114.342 16.5411 114.848 15.6906 115.024 14.6012H118.169C118.022 15.7801 117.626 16.8545 116.981 17.8245C116.351 18.7944 115.486 19.5704 114.386 20.1524C113.301 20.7194 111.996 21.003 110.471 21.003Z" fill="#EAF0FF"/>
<path d="M120.804 20.5777V4.23755H123.928V11.8704L130.042 4.23755H133.627L127.908 11.3556L135.013 20.5777H131.208L125.335 12.9448H123.928V20.5777H120.804Z" fill="#EAF0FF"/>
<path d="M136.806 20.5777V4.23755H146.527V6.9236H139.863V10.9303H146.131V13.6163H139.863V17.8916H146.703V20.5777H136.806Z" fill="#EAF0FF"/>
<path d="M149.908 20.5777V4.12563H155.868C157.789 4.12563 159.321 4.56585 160.465 5.44627C161.609 6.3267 162.181 7.66226 162.181 9.45296V9.83349C162.181 11.0571 161.902 12.0644 161.345 12.8553C160.802 13.6462 160.047 14.2282 159.079 14.6012L163.368 20.5777H159.717L155.934 15.116H153.031V20.5777H149.908ZM156.198 6.83407H153.031V12.5419H156.198C157.049 12.5419 157.73 12.2808 158.244 11.7585C158.757 11.2362 159.013 10.5498 159.013 9.69918C159.013 8.8486 158.757 8.16217 158.244 7.63988C157.73 7.10267 157.049 6.83407 156.198 6.83407Z" fill="#EAF0FF"/>
<path d="M168.497 20.5777V7.03552H163.856V4.23755H176.261V7.03552H171.62V20.5777H168.497Z" fill="#EAF0FF"/>
<path d="M183.544 20.5777V4.23755H186.668V20.5777H183.544Z" fill="#EAF0FF"/>
<path d="M190.674 20.5777V4.23755H195.799L202.551 17.9364H202.837V4.23755H205.784V20.5777H200.638L193.885 6.87883H193.578V20.5777H190.674Z" fill="#EAF0FF"/>
<path d="M216.983 21.003C215.517 21.003 214.263 20.7418 213.222 20.2195C212.196 19.6973 211.353 19.0183 210.693 18.1826C210.048 17.347 209.571 16.4442 209.264 15.4742C208.956 14.4893 208.802 13.5343 208.802 12.6091V12.1166C208.802 11.1168 208.956 10.1245 209.264 9.13959C209.586 8.13978 210.077 7.23697 210.737 6.43116C211.397 5.62534 212.233 4.98368 213.244 4.50616C214.256 4.01371 215.466 3.76749 216.873 3.76749C218.31 3.76749 219.571 4.0361 220.656 4.57331C221.741 5.11052 222.607 5.85664 223.252 6.81168C223.897 7.76672 224.285 8.88591 224.417 10.1692H221.272C221.096 9.05006 220.605 8.19947 219.799 7.6175C219.007 7.0206 218.032 6.72215 216.873 6.72215C215.803 6.72215 214.901 6.96837 214.168 7.46081C213.45 7.93833 212.9 8.60238 212.519 9.45296C212.152 10.3035 211.969 11.281 211.969 12.3852C211.969 13.4597 212.159 14.4222 212.541 15.2727C212.922 16.1233 213.486 16.8023 214.234 17.3097C214.982 17.8021 215.898 18.0483 216.983 18.0483C218.186 18.0483 219.198 17.7499 220.019 17.153C220.854 16.5411 221.36 15.6906 221.536 14.6012H224.681C224.535 15.7801 224.139 16.8545 223.494 17.8245C222.863 18.7944 221.998 19.5704 220.898 20.1524C219.813 20.7194 218.508 21.003 216.983 21.003Z" fill="#EAF0FF"/>
<path d="M66.0114 40.3543C65.2474 40.3543 64.5683 40.2247 63.9741 39.9655C63.3883 39.7064 62.8917 39.3521 62.4842 38.9029C62.0853 38.445 61.7839 37.9223 61.5802 37.3349C61.3764 36.7474 61.2746 36.121 61.2746 35.4558V35.2225C61.2746 34.6178 61.3722 34.0303 61.5674 33.4601C61.7712 32.8899 62.064 32.3759 62.446 31.918C62.8365 31.4601 63.3119 31.0973 63.8722 30.8294C64.4325 30.5616 65.0776 30.4277 65.8077 30.4277C66.5632 30.4277 67.2338 30.5746 67.8196 30.8683C68.4053 31.1534 68.8764 31.5551 69.233 32.0735C69.5895 32.5919 69.8017 33.1923 69.8696 33.8748H68.8892C68.8213 33.3219 68.6387 32.8554 68.3416 32.4752C68.053 32.0951 67.688 31.81 67.2466 31.6199C66.8051 31.4299 66.3255 31.3348 65.8077 31.3348C65.0776 31.3348 64.4452 31.5076 63.9104 31.8532C63.3841 32.1988 62.9766 32.6739 62.688 33.2787C62.3994 33.8834 62.255 34.5746 62.255 35.3521C62.255 36.1729 62.4036 36.8943 62.7007 37.5163C62.9978 38.1297 63.4265 38.6092 63.9868 38.9547C64.5471 39.3003 65.2219 39.4731 66.0114 39.4731C66.6056 39.4731 67.1447 39.3737 67.6286 39.175C68.1209 38.9763 68.5284 38.7085 68.851 38.3716V36.5184H65.6676V35.6891H70.5954V36.5184H69.7678V38.6696C69.3688 39.1966 68.851 39.6113 68.2143 39.9137C67.5776 40.2074 66.8433 40.3543 66.0114 40.3543Z" fill="#EAF0FF"/>
<path d="M75.333 40.3543C74.7557 40.3543 74.2464 40.255 73.805 40.0563C73.3635 39.8489 72.9943 39.5768 72.6972 39.2398C72.4 38.8943 72.1708 38.5098 72.0096 38.0865C71.8568 37.6632 71.7803 37.2312 71.7803 36.7906V36.6092C71.7803 36.1686 71.861 35.7366 72.0223 35.3133C72.1836 34.8899 72.417 34.5098 72.7226 34.1729C73.0282 33.8273 73.3975 33.5552 73.8304 33.3564C74.2719 33.1491 74.7727 33.0454 75.333 33.0454C75.8932 33.0454 76.3941 33.1491 76.8355 33.3564C77.277 33.5552 77.6505 33.8273 77.9561 34.1729C78.2617 34.5098 78.4909 34.8899 78.6437 35.3133C78.805 35.7366 78.8856 36.1686 78.8856 36.6092V36.7906C78.8856 37.2312 78.8092 37.6632 78.6564 38.0865C78.5036 38.5098 78.2744 38.8943 77.9688 39.2398C77.6717 39.5768 77.3024 39.8489 76.861 40.0563C76.4196 40.255 75.9102 40.3543 75.333 40.3543ZM75.333 39.4861C75.8932 39.4861 76.3644 39.3608 76.7464 39.1102C77.1369 38.8597 77.434 38.5228 77.6377 38.0994C77.8415 37.6761 77.9433 37.2096 77.9433 36.6999C77.9433 36.1815 77.8372 35.715 77.625 35.3003C77.4128 34.877 77.1114 34.5444 76.7209 34.3025C76.3389 34.0519 75.8763 33.9266 75.333 33.9266C74.7982 33.9266 74.3355 34.0519 73.945 34.3025C73.5545 34.5444 73.2532 34.877 73.041 35.3003C72.8372 35.715 72.7354 36.1815 72.7354 36.6999C72.7354 37.2096 72.8372 37.6761 73.041 38.0994C73.2447 38.5228 73.5376 38.8597 73.9196 39.1102C74.3101 39.3608 74.7812 39.4861 75.333 39.4861Z" fill="#EAF0FF"/>
<path d="M80.8968 40.134V31.4644H79.9163V30.6739H81.8518V40.134H80.8968Z" fill="#EAF0FF"/>
<path d="M87.0905 40.3543C86.4369 40.3543 85.8596 40.1945 85.3588 39.8748C84.8664 39.5465 84.4802 39.1146 84.2 38.5789C83.9284 38.0346 83.7926 37.4385 83.7926 36.7906V36.6092C83.7926 35.9871 83.9241 35.4083 84.1873 34.8727C84.4589 34.3284 84.8409 33.8878 85.3333 33.5508C85.8257 33.2139 86.4029 33.0454 87.065 33.0454C87.6253 33.0454 88.1262 33.175 88.5676 33.4342C89.009 33.6847 89.3571 34.0476 89.6117 34.5228V30.6739H90.5667V40.134H89.8027V38.5919C89.565 39.1794 89.2043 39.62 88.7204 39.9137C88.2365 40.2074 87.6932 40.3543 87.0905 40.3543ZM87.2178 39.499C87.6763 39.499 88.088 39.3953 88.453 39.188C88.8265 38.972 89.1194 38.6783 89.3316 38.3068C89.5438 37.9267 89.6499 37.4817 89.6499 36.972V36.35C89.6499 35.8662 89.5396 35.4428 89.3189 35.08C89.1066 34.7085 88.8138 34.4191 88.4403 34.2117C88.0752 34.0044 87.6635 33.9007 87.2051 33.9007C86.6958 33.9007 86.2586 34.026 85.8936 34.2765C85.5285 34.5184 85.2442 34.8511 85.0404 35.2744C84.8452 35.6977 84.7476 36.1729 84.7476 36.6999C84.7476 37.2441 84.8494 37.728 85.0532 38.1513C85.2569 38.5746 85.5413 38.9072 85.9063 39.1491C86.2798 39.3824 86.717 39.499 87.2178 39.499Z" fill="#EAF0FF"/>
<path d="M98.0284 40.134V31.5681H95.1252V30.6739H101.899V31.5681H98.9962V40.134H98.0284Z" fill="#EAF0FF"/>
<path d="M103.677 32.0087C103.448 32.0087 103.274 31.9482 103.155 31.8273C103.044 31.6977 102.989 31.5379 102.989 31.3478C102.989 31.1491 103.044 30.9893 103.155 30.8683C103.274 30.7474 103.448 30.6869 103.677 30.6869C103.906 30.6869 104.076 30.7474 104.186 30.8683C104.297 30.9893 104.352 31.1491 104.352 31.3478C104.352 31.5379 104.297 31.6977 104.186 31.8273C104.076 31.9482 103.906 32.0087 103.677 32.0087ZM103.473 40.134V34.0562H102.391V33.2787H104.415V40.134H103.473Z" fill="#EAF0FF"/>
<path d="M107.482 32.0087C107.253 32.0087 107.079 31.9482 106.96 31.8273C106.85 31.6977 106.794 31.5379 106.794 31.3478C106.794 31.1491 106.85 30.9893 106.96 30.8683C107.079 30.7474 107.253 30.6869 107.482 30.6869C107.711 30.6869 107.881 30.7474 107.991 30.8683C108.102 30.9893 108.157 31.1491 108.157 31.3478C108.157 31.5379 108.102 31.6977 107.991 31.8273C107.881 31.9482 107.711 32.0087 107.482 32.0087ZM107.278 40.134V34.0562H106.196V33.2787H108.221V40.134H107.278Z" fill="#EAF0FF"/>
<path d="M110.727 40.134V33.2657H111.491V34.8467C111.635 34.2938 111.89 33.8618 112.255 33.5508C112.62 33.2312 113.104 33.0714 113.706 33.0714H113.745C114.339 33.0714 114.819 33.2269 115.184 33.5379C115.549 33.8489 115.803 34.2852 115.948 34.8467C116.1 34.2938 116.359 33.8618 116.724 33.5508C117.098 33.2312 117.582 33.0714 118.176 33.0714H118.214C119.012 33.0714 119.606 33.3478 119.997 33.9007C120.396 34.4536 120.595 35.2053 120.595 36.1556V40.134H119.64V35.9353C119.64 35.3305 119.496 34.8511 119.207 34.4968C118.919 34.1426 118.503 33.9655 117.959 33.9655C117.399 33.9655 116.953 34.1513 116.622 34.5228C116.3 34.8942 116.139 35.3867 116.139 36.0001V40.134H115.184V35.9353C115.184 35.3305 115.039 34.8511 114.751 34.4968C114.462 34.1426 114.046 33.9655 113.503 33.9655C112.942 33.9655 112.497 34.1513 112.166 34.5228C111.843 34.8942 111.682 35.3867 111.682 36.0001V40.134H110.727Z" fill="#EAF0FF"/>
<path d="M125.789 40.3543C125.204 40.3543 124.699 40.255 124.274 40.0563C123.858 39.8489 123.514 39.5768 123.243 39.2398C122.971 38.8943 122.767 38.5098 122.632 38.0865C122.504 37.6545 122.441 37.2182 122.441 36.7776V36.5962C122.441 36.1556 122.508 35.7236 122.644 35.3003C122.78 34.877 122.98 34.4968 123.243 34.1599C123.514 33.823 123.854 33.5552 124.261 33.3564C124.677 33.1491 125.161 33.0454 125.713 33.0454C126.418 33.0454 127.003 33.2053 127.47 33.5249C127.946 33.8359 128.302 34.2463 128.54 34.756C128.778 35.2571 128.896 35.7884 128.896 36.35V36.8554H123.357C123.374 37.3478 123.472 37.7971 123.65 38.2031C123.828 38.6005 124.096 38.9159 124.452 39.1491C124.809 39.3824 125.255 39.499 125.789 39.499C126.375 39.499 126.851 39.3651 127.216 39.0973C127.581 38.8295 127.806 38.5055 127.89 38.1254H128.782C128.646 38.8079 128.311 39.3521 127.776 39.7582C127.25 40.1556 126.587 40.3543 125.789 40.3543ZM125.713 33.9007C125.025 33.9007 124.486 34.1081 124.096 34.5228C123.714 34.9374 123.48 35.4644 123.396 36.1038H127.967C127.907 35.4472 127.687 34.9158 127.305 34.5098C126.923 34.1038 126.392 33.9007 125.713 33.9007Z" fill="#EAF0FF"/>
<path d="M133.923 40.134V30.6739H139.169V31.5681H134.891V34.8856H138.876V35.7668H134.891V39.2398H139.309V40.134H133.923Z" fill="#EAF0FF"/>
<path d="M142.832 40.134L140.464 33.2787H141.444L143.52 39.3435H143.838L145.659 33.2787H146.601L144.513 40.134H142.832Z" fill="#EAF0FF"/>
<path d="M150.995 40.3543C150.409 40.3543 149.904 40.255 149.48 40.0563C149.064 39.8489 148.72 39.5768 148.448 39.2398C148.177 38.8943 147.973 38.5098 147.837 38.0865C147.71 37.6545 147.646 37.2182 147.646 36.7776V36.5962C147.646 36.1556 147.714 35.7236 147.85 35.3003C147.986 34.877 148.185 34.4968 148.448 34.1599C148.72 33.823 149.06 33.5552 149.467 33.3564C149.883 33.1491 150.367 33.0454 150.919 33.0454C151.623 33.0454 152.209 33.2053 152.676 33.5249C153.151 33.8359 153.508 34.2463 153.746 34.756C153.983 35.2571 154.102 35.7884 154.102 36.35V36.8554H148.563C148.58 37.3478 148.678 37.7971 148.856 38.2031C149.034 38.6005 149.302 38.9159 149.658 39.1491C150.015 39.3824 150.46 39.499 150.995 39.499C151.581 39.499 152.056 39.3651 152.421 39.0973C152.786 38.8295 153.011 38.5055 153.096 38.1254H153.987C153.852 38.8079 153.516 39.3521 152.982 39.7582C152.455 40.1556 151.793 40.3543 150.995 40.3543ZM150.919 33.9007C150.231 33.9007 149.692 34.1081 149.302 34.5228C148.92 34.9374 148.686 35.4644 148.601 36.1038H153.173C153.113 35.4472 152.892 34.9158 152.51 34.5098C152.128 34.1038 151.598 33.9007 150.919 33.9007Z" fill="#EAF0FF"/>
<path d="M155.94 40.134V33.2787H156.704V35.1966C156.942 33.8662 157.812 33.2009 159.315 33.2009H159.531V34.0821H159.137C158.407 34.0821 157.851 34.2765 157.469 34.6653C157.087 35.0541 156.895 35.6156 156.895 36.35V40.134H155.94Z" fill="#EAF0FF"/>
<path d="M160.701 42.8036V41.9353H161.567C162.009 41.9353 162.357 41.8489 162.612 41.6761C162.875 41.5033 163.083 41.175 163.235 40.6912L163.452 39.9655H162.777L160.332 33.2787H161.313L163.388 39.1491H163.707L165.502 33.2787H166.432L164.063 40.9634C163.859 41.62 163.541 42.0908 163.108 42.3759C162.684 42.661 162.153 42.8036 161.516 42.8036H160.701Z" fill="#EAF0FF"/>
<path d="M171.578 40.3543C170.933 40.3543 170.377 40.1988 169.91 39.8878C169.443 39.5681 169.095 39.1318 168.866 38.5789V40.134H168.102V30.6739H169.057V34.6135C169.303 34.1037 169.651 33.715 170.101 33.4472C170.551 33.1793 171.065 33.0454 171.642 33.0454C172.304 33.0454 172.877 33.2096 173.361 33.5379C173.845 33.8662 174.218 34.3025 174.481 34.8467C174.745 35.3824 174.876 35.9655 174.876 36.5962V36.7776C174.876 37.3997 174.74 37.9828 174.469 38.5271C174.205 39.0714 173.828 39.512 173.335 39.8489C172.843 40.1858 172.257 40.3543 171.578 40.3543ZM171.476 39.499C171.977 39.499 172.41 39.3737 172.775 39.1232C173.149 38.8727 173.433 38.5357 173.628 38.1124C173.823 37.6891 173.921 37.2139 173.921 36.6869C173.921 36.1513 173.819 35.6761 173.615 35.2614C173.42 34.8381 173.136 34.5055 172.762 34.2636C172.397 34.0217 171.969 33.9007 171.476 33.9007C171.009 33.9007 170.589 34.0087 170.216 34.2247C169.851 34.432 169.558 34.7258 169.337 35.1059C169.125 35.4774 169.019 35.9137 169.019 36.4148V37.0498C169.019 37.5336 169.125 37.9612 169.337 38.3327C169.558 38.6956 169.851 38.9807 170.216 39.188C170.589 39.3953 171.009 39.499 171.476 39.499Z" fill="#EAF0FF"/>
<path d="M179.824 40.3543C179.247 40.3543 178.738 40.255 178.296 40.0563C177.855 39.8489 177.486 39.5768 177.188 39.2398C176.891 38.8943 176.662 38.5098 176.501 38.0865C176.348 37.6632 176.272 37.2312 176.272 36.7906V36.6092C176.272 36.1686 176.352 35.7366 176.514 35.3133C176.675 34.8899 176.908 34.5098 177.214 34.1729C177.519 33.8273 177.889 33.5552 178.322 33.3564C178.763 33.1491 179.264 33.0454 179.824 33.0454C180.384 33.0454 180.885 33.1491 181.327 33.3564C181.768 33.5552 182.142 33.8273 182.447 34.1729C182.753 34.5098 182.982 34.8899 183.135 35.3133C183.296 35.7366 183.377 36.1686 183.377 36.6092V36.7906C183.377 37.2312 183.3 37.6632 183.148 38.0865C182.995 38.5098 182.766 38.8943 182.46 39.2398C182.163 39.5768 181.794 39.8489 181.352 40.0563C180.911 40.255 180.401 40.3543 179.824 40.3543ZM179.824 39.4861C180.384 39.4861 180.856 39.3608 181.238 39.1102C181.628 38.8597 181.925 38.5228 182.129 38.0994C182.333 37.6761 182.435 37.2096 182.435 36.6999C182.435 36.1815 182.328 35.715 182.116 35.3003C181.904 34.877 181.603 34.5444 181.212 34.3025C180.83 34.0519 180.368 33.9266 179.824 33.9266C179.289 33.9266 178.827 34.0519 178.436 34.3025C178.046 34.5444 177.744 34.877 177.532 35.3003C177.328 35.715 177.227 36.1815 177.227 36.6999C177.227 37.2096 177.328 37.6761 177.532 38.0994C177.736 38.5228 178.029 38.8597 178.411 39.1102C178.801 39.3608 179.272 39.4861 179.824 39.4861Z" fill="#EAF0FF"/>
<path d="M188.088 40.3543C187.434 40.3543 186.857 40.1945 186.356 39.8748C185.863 39.5465 185.477 39.1146 185.197 38.5789C184.925 38.0346 184.79 37.4385 184.79 36.7906V36.6092C184.79 35.9871 184.921 35.4083 185.184 34.8727C185.456 34.3284 185.838 33.8878 186.33 33.5508C186.823 33.2139 187.4 33.0454 188.062 33.0454C188.622 33.0454 189.123 33.175 189.565 33.4342C190.006 33.6847 190.354 34.0476 190.609 34.5228V30.6739H191.564V40.134H190.8V38.5919C190.562 39.1794 190.201 39.62 189.717 39.9137C189.234 40.2074 188.69 40.3543 188.088 40.3543ZM188.215 39.499C188.673 39.499 189.085 39.3953 189.45 39.188C189.824 38.972 190.116 38.6783 190.329 38.3068C190.541 37.9267 190.647 37.4817 190.647 36.972V36.35C190.647 35.8662 190.537 35.4428 190.316 35.08C190.104 34.7085 189.811 34.4191 189.437 34.2117C189.072 34.0044 188.661 33.9007 188.202 33.9007C187.693 33.9007 187.256 34.026 186.891 34.2765C186.526 34.5184 186.241 34.8511 186.037 35.2744C185.842 35.6977 185.745 36.1729 185.745 36.6999C185.745 37.2441 185.846 37.728 186.05 38.1513C186.254 38.5746 186.538 38.9072 186.903 39.1491C187.277 39.3824 187.714 39.499 188.215 39.499Z" fill="#EAF0FF"/>
<path d="M193.43 42.8036V41.9353H194.296C194.738 41.9353 195.086 41.8489 195.34 41.6761C195.604 41.5033 195.812 41.175 195.964 40.6912L196.181 39.9655H195.506L193.061 33.2787H194.042L196.117 39.1491H196.435L198.231 33.2787H199.16L196.792 40.9634C196.588 41.62 196.27 42.0908 195.837 42.3759C195.413 42.661 194.882 42.8036 194.245 42.8036H193.43Z" fill="#EAF0FF"/>
</svg>
